ISO-10303-21;
HEADER;
/* Generated by software containing ST-Developer
 * from STEP Tools, Inc. (www.steptools.com) 
 */

FILE_DESCRIPTION(
/* description */ (''),
/* implementation_level */ '2;1');

FILE_NAME(
/* name */ 'Carriage.step',
/* time_stamp */ '2026-07-22T22:26:50-07:00',
/* author */ (''),
/* organization */ (''),
/* preprocessor_version */ 'ST-DEVELOPER v20.1',
/* originating_system */ 'Autodesk Translation Framework v15.8.0.0',
/* authorisation */ '');

FILE_SCHEMA (('AUTOMOTIVE_DESIGN { 1 0 10303 214 3 1 1 }'));
ENDSEC;

DATA;
#10=MECHANICAL_DESIGN_GEOMETRIC_PRESENTATION_REPRESENTATION('',(#13),#1361);
#11=SHAPE_REPRESENTATION_RELATIONSHIP('SRR','None',#1367,#12);
#12=ADVANCED_BREP_SHAPE_REPRESENTATION('',(#14),#1360);
#13=STYLED_ITEM('',(#1376),#14);
#14=MANIFOLD_SOLID_BREP('Carriage',#809);
#15=FACE_BOUND('',#123,.T.);
#16=FACE_BOUND('',#125,.T.);
#17=FACE_BOUND('',#130,.T.);
#18=FACE_BOUND('',#135,.T.);
#19=FACE_BOUND('',#140,.T.);
#20=FACE_BOUND('',#143,.T.);
#21=FACE_BOUND('',#145,.T.);
#22=FACE_BOUND('',#147,.T.);
#23=FACE_BOUND('',#149,.T.);
#24=(
BOUNDED_SURFACE()
B_SPLINE_SURFACE(2,2,((#1220,#1221,#1222),(#1223,#1224,#1225),(#1226,#1227,
#1228)),.UNSPECIFIED.,.F.,.F.,.F.)
B_SPLINE_SURFACE_WITH_KNOTS((3,3),(3,3),(-1.5707963267949,0.),(1.5707963267949,
3.14159265358979),.UNSPECIFIED.)
GEOMETRIC_REPRESENTATION_ITEM()
RATIONAL_B_SPLINE_SURFACE(((1.,0.707106781186548,1.),(0.70710678118656,
0.500000000000009,0.70710678118656),(1.,0.707106781186548,1.)))
REPRESENTATION_ITEM('')
SURFACE()
);
#25=(
BOUNDED_SURFACE()
B_SPLINE_SURFACE(2,2,((#1273,#1274,#1275),(#1276,#1277,#1278),(#1279,#1280,
#1281)),.UNSPECIFIED.,.F.,.F.,.F.)
B_SPLINE_SURFACE_WITH_KNOTS((3,3),(3,3),(-1.5707963267949,0.),(-3.14159265358979,
-1.5707963267949),.UNSPECIFIED.)
GEOMETRIC_REPRESENTATION_ITEM()
RATIONAL_B_SPLINE_SURFACE(((1.,0.707106781186548,1.),(0.70710678118656,
0.500000000000009,0.70710678118656),(1.,0.707106781186548,1.)))
REPRESENTATION_ITEM('')
SURFACE()
);
#26=(
BOUNDED_SURFACE()
B_SPLINE_SURFACE(2,2,((#1316,#1317,#1318),(#1319,#1320,#1321),(#1322,#1323,
#1324)),.UNSPECIFIED.,.F.,.F.,.F.)
B_SPLINE_SURFACE_WITH_KNOTS((3,3),(3,3),(-1.5707963267949,0.),(-1.5707963267949,
0.),.UNSPECIFIED.)
GEOMETRIC_REPRESENTATION_ITEM()
RATIONAL_B_SPLINE_SURFACE(((1.,0.707106781186548,1.),(0.70710678118656,
0.500000000000009,0.70710678118656),(1.,0.707106781186548,1.)))
REPRESENTATION_ITEM('')
SURFACE()
);
#27=(
BOUNDED_SURFACE()
B_SPLINE_SURFACE(2,2,((#1332,#1333,#1334),(#1335,#1336,#1337),(#1338,#1339,
#1340)),.UNSPECIFIED.,.F.,.F.,.F.)
B_SPLINE_SURFACE_WITH_KNOTS((3,3),(3,3),(-1.5707963267949,0.),(0.,1.5707963267949),
 .UNSPECIFIED.)
GEOMETRIC_REPRESENTATION_ITEM()
RATIONAL_B_SPLINE_SURFACE(((1.,0.707106781186548,1.),(0.70710678118656,
0.500000000000009,0.70710678118656),(1.,0.707106781186548,1.)))
REPRESENTATION_ITEM('')
SURFACE()
);
#28=PLANE('',#814);
#29=PLANE('',#818);
#30=PLANE('',#821);
#31=PLANE('',#826);
#32=PLANE('',#827);
#33=PLANE('',#828);
#34=PLANE('',#829);
#35=PLANE('',#830);
#36=PLANE('',#831);
#37=PLANE('',#832);
#38=PLANE('',#833);
#39=PLANE('',#834);
#40=PLANE('',#835);
#41=PLANE('',#836);
#42=PLANE('',#837);
#43=PLANE('',#838);
#44=PLANE('',#839);
#45=PLANE('',#848);
#46=PLANE('',#849);
#47=PLANE('',#860);
#48=PLANE('',#867);
#49=PLANE('',#872);
#50=PLANE('',#873);
#51=PLANE('',#874);
#52=PLANE('',#875);
#53=PLANE('',#876);
#54=PLANE('',#877);
#55=FACE_OUTER_BOUND('',#98,.T.);
#56=FACE_OUTER_BOUND('',#99,.T.);
#57=FACE_OUTER_BOUND('',#100,.T.);
#58=FACE_OUTER_BOUND('',#101,.T.);
#59=FACE_OUTER_BOUND('',#102,.T.);
#60=FACE_OUTER_BOUND('',#103,.T.);
#61=FACE_OUTER_BOUND('',#104,.T.);
#62=FACE_OUTER_BOUND('',#105,.T.);
#63=FACE_OUTER_BOUND('',#106,.T.);
#64=FACE_OUTER_BOUND('',#107,.T.);
#65=FACE_OUTER_BOUND('',#108,.T.);
#66=FACE_OUTER_BOUND('',#109,.T.);
#67=FACE_OUTER_BOUND('',#110,.T.);
#68=FACE_OUTER_BOUND('',#111,.T.);
#69=FACE_OUTER_BOUND('',#112,.T.);
#70=FACE_OUTER_BOUND('',#113,.T.);
#71=FACE_OUTER_BOUND('',#114,.T.);
#72=FACE_OUTER_BOUND('',#115,.T.);
#73=FACE_OUTER_BOUND('',#116,.T.);
#74=FACE_OUTER_BOUND('',#117,.T.);
#75=FACE_OUTER_BOUND('',#118,.T.);
#76=FACE_OUTER_BOUND('',#119,.T.);
#77=FACE_OUTER_BOUND('',#120,.T.);
#78=FACE_OUTER_BOUND('',#121,.T.);
#79=FACE_OUTER_BOUND('',#122,.T.);
#80=FACE_OUTER_BOUND('',#124,.T.);
#81=FACE_OUTER_BOUND('',#126,.T.);
#82=FACE_OUTER_BOUND('',#127,.T.);
#83=FACE_OUTER_BOUND('',#128,.T.);
#84=FACE_OUTER_BOUND('',#129,.T.);
#85=FACE_OUTER_BOUND('',#131,.T.);
#86=FACE_OUTER_BOUND('',#132,.T.);
#87=FACE_OUTER_BOUND('',#133,.T.);
#88=FACE_OUTER_BOUND('',#134,.T.);
#89=FACE_OUTER_BOUND('',#136,.T.);
#90=FACE_OUTER_BOUND('',#137,.T.);
#91=FACE_OUTER_BOUND('',#138,.T.);
#92=FACE_OUTER_BOUND('',#139,.T.);
#93=FACE_OUTER_BOUND('',#141,.T.);
#94=FACE_OUTER_BOUND('',#142,.T.);
#95=FACE_OUTER_BOUND('',#144,.T.);
#96=FACE_OUTER_BOUND('',#146,.T.);
#97=FACE_OUTER_BOUND('',#148,.T.);
#98=EDGE_LOOP('',(#530,#531,#532,#533));
#99=EDGE_LOOP('',(#534,#535,#536,#537,#538,#539,#540,#541));
#100=EDGE_LOOP('',(#542,#543,#544,#545));
#101=EDGE_LOOP('',(#546,#547,#548,#549));
#102=EDGE_LOOP('',(#550,#551,#552,#553));
#103=EDGE_LOOP('',(#554,#555,#556,#557));
#104=EDGE_LOOP('',(#558,#559,#560,#561));
#105=EDGE_LOOP('',(#562,#563,#564,#565));
#106=EDGE_LOOP('',(#566,#567,#568,#569));
#107=EDGE_LOOP('',(#570,#571,#572,#573));
#108=EDGE_LOOP('',(#574,#575,#576,#577));
#109=EDGE_LOOP('',(#578,#579,#580,#581));
#110=EDGE_LOOP('',(#582,#583,#584,#585));
#111=EDGE_LOOP('',(#586,#587,#588,#589));
#112=EDGE_LOOP('',(#590,#591,#592,#593));
#113=EDGE_LOOP('',(#594,#595,#596,#597));
#114=EDGE_LOOP('',(#598,#599,#600,#601));
#115=EDGE_LOOP('',(#602,#603,#604,#605));
#116=EDGE_LOOP('',(#606,#607,#608,#609));
#117=EDGE_LOOP('',(#610,#611,#612,#613));
#118=EDGE_LOOP('',(#614,#615,#616,#617));
#119=EDGE_LOOP('',(#618,#619,#620,#621));
#120=EDGE_LOOP('',(#622,#623,#624,#625));
#121=EDGE_LOOP('',(#626,#627,#628,#629));
#122=EDGE_LOOP('',(#630,#631,#632,#633));
#123=EDGE_LOOP('',(#634,#635,#636,#637));
#124=EDGE_LOOP('',(#638,#639,#640,#641,#642,#643,#644,#645));
#125=EDGE_LOOP('',(#646,#647,#648,#649));
#126=EDGE_LOOP('',(#650,#651,#652,#653));
#127=EDGE_LOOP('',(#654,#655,#656,#657));
#128=EDGE_LOOP('',(#658,#659,#660,#661));
#129=EDGE_LOOP('',(#662,#663,#664,#665,#666,#667,#668,#669));
#130=EDGE_LOOP('',(#670,#671,#672,#673));
#131=EDGE_LOOP('',(#674,#675,#676,#677));
#132=EDGE_LOOP('',(#678,#679,#680,#681));
#133=EDGE_LOOP('',(#682,#683,#684,#685));
#134=EDGE_LOOP('',(#686,#687,#688,#689));
#135=EDGE_LOOP('',(#690,#691,#692,#693));
#136=EDGE_LOOP('',(#694,#695,#696,#697));
#137=EDGE_LOOP('',(#698,#699,#700,#701));
#138=EDGE_LOOP('',(#702,#703,#704,#705));
#139=EDGE_LOOP('',(#706,#707,#708,#709));
#140=EDGE_LOOP('',(#710,#711,#712,#713,#714,#715,#716,#717));
#141=EDGE_LOOP('',(#718,#719,#720,#721));
#142=EDGE_LOOP('',(#722,#723,#724,#725));
#143=EDGE_LOOP('',(#726,#727,#728,#729));
#144=EDGE_LOOP('',(#730,#731,#732,#733));
#145=EDGE_LOOP('',(#734,#735,#736,#737));
#146=EDGE_LOOP('',(#738,#739,#740,#741));
#147=EDGE_LOOP('',(#742,#743,#744,#745));
#148=EDGE_LOOP('',(#746,#747,#748,#749));
#149=EDGE_LOOP('',(#750,#751,#752,#753));
#150=LINE('',#1104,#234);
#151=LINE('',#1107,#235);
#152=LINE('',#1110,#236);
#153=LINE('',#1114,#237);
#154=LINE('',#1118,#238);
#155=LINE('',#1121,#239);
#156=LINE('',#1124,#240);
#157=LINE('',#1125,#241);
#158=LINE('',#1128,#242);
#159=LINE('',#1131,#243);
#160=LINE('',#1134,#244);
#161=LINE('',#1135,#245);
#162=LINE('',#1139,#246);
#163=LINE('',#1142,#247);
#164=LINE('',#1145,#248);
#165=LINE('',#1147,#249);
#166=LINE('',#1151,#250);
#167=LINE('',#1153,#251);
#168=LINE('',#1155,#252);
#169=LINE('',#1156,#253);
#170=LINE('',#1159,#254);
#171=LINE('',#1161,#255);
#172=LINE('',#1162,#256);
#173=LINE('',#1165,#257);
#174=LINE('',#1167,#258);
#175=LINE('',#1168,#259);
#176=LINE('',#1170,#260);
#177=LINE('',#1171,#261);
#178=LINE('',#1175,#262);
#179=LINE('',#1177,#263);
#180=LINE('',#1179,#264);
#181=LINE('',#1180,#265);
#182=LINE('',#1184,#266);
#183=LINE('',#1186,#267);
#184=LINE('',#1188,#268);
#185=LINE('',#1189,#269);
#186=LINE('',#1192,#270);
#187=LINE('',#1194,#271);
#188=LINE('',#1195,#272);
#189=LINE('',#1198,#273);
#190=LINE('',#1200,#274);
#191=LINE('',#1201,#275);
#192=LINE('',#1204,#276);
#193=LINE('',#1206,#277);
#194=LINE('',#1207,#278);
#195=LINE('',#1209,#279);
#196=LINE('',#1210,#280);
#197=LINE('',#1213,#281);
#198=LINE('',#1215,#282);
#199=LINE('',#1216,#283);
#200=LINE('',#1218,#284);
#201=LINE('',#1219,#285);
#202=LINE('',#1241,#286);
#203=LINE('',#1242,#287);
#204=LINE('',#1245,#288);
#205=LINE('',#1248,#289);
#206=LINE('',#1251,#290);
#207=LINE('',#1252,#291);
#208=LINE('',#1255,#292);
#209=LINE('',#1259,#293);
#210=LINE('',#1263,#294);
#211=LINE('',#1267,#295);
#212=LINE('',#1269,#296);
#213=LINE('',#1271,#297);
#214=LINE('',#1272,#298);
#215=LINE('',#1291,#299);
#216=LINE('',#1292,#300);
#217=LINE('',#1295,#301);
#218=LINE('',#1298,#302);
#219=LINE('',#1303,#303);
#220=LINE('',#1305,#304);
#221=LINE('',#1308,#305);
#222=LINE('',#1310,#306);
#223=LINE('',#1312,#307);
#224=LINE('',#1313,#308);
#225=LINE('',#1315,#309);
#226=LINE('',#1329,#310);
#227=LINE('',#1330,#311);
#228=LINE('',#1345,#312);
#229=LINE('',#1347,#313);
#230=LINE('',#1350,#314);
#231=LINE('',#1351,#315);
#232=LINE('',#1353,#316);
#233=LINE('',#1355,#317);
#234=VECTOR('',#884,10.);
#235=VECTOR('',#887,10.);
#236=VECTOR('',#890,10.);
#237=VECTOR('',#893,10.);
#238=VECTOR('',#896,10.);
#239=VECTOR('',#899,10.);
#240=VECTOR('',#902,10.);
#241=VECTOR('',#903,10.);
#242=VECTOR('',#906,10.);
#243=VECTOR('',#909,10.);
#244=VECTOR('',#912,10.);
#245=VECTOR('',#913,10.);
#246=VECTOR('',#918,10.);
#247=VECTOR('',#921,10.);
#248=VECTOR('',#926,10.);
#249=VECTOR('',#929,10.);
#250=VECTOR('',#932,10.);
#251=VECTOR('',#933,10.);
#252=VECTOR('',#934,10.);
#253=VECTOR('',#935,10.);
#254=VECTOR('',#938,10.);
#255=VECTOR('',#939,10.);
#256=VECTOR('',#940,10.);
#257=VECTOR('',#943,10.);
#258=VECTOR('',#944,10.);
#259=VECTOR('',#945,10.);
#260=VECTOR('',#948,10.);
#261=VECTOR('',#949,10.);
#262=VECTOR('',#952,10.);
#263=VECTOR('',#953,10.);
#264=VECTOR('',#954,10.);
#265=VECTOR('',#955,10.);
#266=VECTOR('',#958,10.);
#267=VECTOR('',#959,10.);
#268=VECTOR('',#960,10.);
#269=VECTOR('',#961,10.);
#270=VECTOR('',#964,10.);
#271=VECTOR('',#965,10.);
#272=VECTOR('',#966,10.);
#273=VECTOR('',#969,10.);
#274=VECTOR('',#970,10.);
#275=VECTOR('',#971,10.);
#276=VECTOR('',#974,10.);
#277=VECTOR('',#975,10.);
#278=VECTOR('',#976,10.);
#279=VECTOR('',#979,10.);
#280=VECTOR('',#980,10.);
#281=VECTOR('',#983,10.);
#282=VECTOR('',#984,10.);
#283=VECTOR('',#985,10.);
#284=VECTOR('',#988,10.);
#285=VECTOR('',#989,10.);
#286=VECTOR('',#1002,10.);
#287=VECTOR('',#1003,10.);
#288=VECTOR('',#1006,10.);
#289=VECTOR('',#1009,10.);
#290=VECTOR('',#1012,10.);
#291=VECTOR('',#1013,10.);
#292=VECTOR('',#1016,10.);
#293=VECTOR('',#1019,10.);
#294=VECTOR('',#1022,10.);
#295=VECTOR('',#1025,10.);
#296=VECTOR('',#1026,10.);
#297=VECTOR('',#1027,10.);
#298=VECTOR('',#1028,10.);
#299=VECTOR('',#1039,10.);
#300=VECTOR('',#1040,10.);
#301=VECTOR('',#1043,10.);
#302=VECTOR('',#1046,10.);
#303=VECTOR('',#1051,10.);
#304=VECTOR('',#1054,10.);
#305=VECTOR('',#1055,10.);
#306=VECTOR('',#1056,10.);
#307=VECTOR('',#1057,10.);
#308=VECTOR('',#1058,10.);
#309=VECTOR('',#1061,10.);
#310=VECTOR('',#1068,10.);
#311=VECTOR('',#1069,10.);
#312=VECTOR('',#1078,10.);
#313=VECTOR('',#1081,10.);
#314=VECTOR('',#1086,10.);
#315=VECTOR('',#1087,10.);
#316=VECTOR('',#1090,10.);
#317=VECTOR('',#1093,10.);
#318=CIRCLE('',#812,5.);
#319=CIRCLE('',#813,5.);
#320=CIRCLE('',#815,5.);
#321=CIRCLE('',#816,5.);
#322=CIRCLE('',#817,5.);
#323=CIRCLE('',#820,5.);
#324=CIRCLE('',#823,5.);
#325=CIRCLE('',#825,5.);
#326=CIRCLE('',#840,4.54999999999998);
#327=CIRCLE('',#841,5.);
#328=CIRCLE('',#842,4.55);
#329=CIRCLE('',#843,0.449999999999999);
#330=CIRCLE('',#845,5.);
#331=CIRCLE('',#847,4.54999999999998);
#332=CIRCLE('',#850,5.);
#333=CIRCLE('',#851,5.);
#334=CIRCLE('',#852,5.);
#335=CIRCLE('',#853,4.54999999999998);
#336=CIRCLE('',#854,5.);
#337=CIRCLE('',#855,4.55);
#338=CIRCLE('',#856,0.449999999999999);
#339=CIRCLE('',#859,4.55);
#340=CIRCLE('',#861,0.449999999999999);
#341=CIRCLE('',#862,0.449999999999999);
#342=CIRCLE('',#864,4.54999999999998);
#343=CIRCLE('',#865,5.);
#344=CIRCLE('',#868,5.);
#345=CIRCLE('',#869,4.55);
#346=VERTEX_POINT('',#1100);
#347=VERTEX_POINT('',#1101);
#348=VERTEX_POINT('',#1103);
#349=VERTEX_POINT('',#1105);
#350=VERTEX_POINT('',#1109);
#351=VERTEX_POINT('',#1111);
#352=VERTEX_POINT('',#1113);
#353=VERTEX_POINT('',#1115);
#354=VERTEX_POINT('',#1117);
#355=VERTEX_POINT('',#1119);
#356=VERTEX_POINT('',#1123);
#357=VERTEX_POINT('',#1127);
#358=VERTEX_POINT('',#1129);
#359=VERTEX_POINT('',#1133);
#360=VERTEX_POINT('',#1137);
#361=VERTEX_POINT('',#1141);
#362=VERTEX_POINT('',#1149);
#363=VERTEX_POINT('',#1150);
#364=VERTEX_POINT('',#1152);
#365=VERTEX_POINT('',#1154);
#366=VERTEX_POINT('',#1158);
#367=VERTEX_POINT('',#1160);
#368=VERTEX_POINT('',#1164);
#369=VERTEX_POINT('',#1166);
#370=VERTEX_POINT('',#1173);
#371=VERTEX_POINT('',#1174);
#372=VERTEX_POINT('',#1176);
#373=VERTEX_POINT('',#1178);
#374=VERTEX_POINT('',#1182);
#375=VERTEX_POINT('',#1183);
#376=VERTEX_POINT('',#1185);
#377=VERTEX_POINT('',#1187);
#378=VERTEX_POINT('',#1191);
#379=VERTEX_POINT('',#1193);
#380=VERTEX_POINT('',#1197);
#381=VERTEX_POINT('',#1199);
#382=VERTEX_POINT('',#1203);
#383=VERTEX_POINT('',#1205);
#384=VERTEX_POINT('',#1212);
#385=VERTEX_POINT('',#1214);
#386=VERTEX_POINT('',#1229);
#387=VERTEX_POINT('',#1230);
#388=VERTEX_POINT('',#1232);
#389=VERTEX_POINT('',#1234);
#390=VERTEX_POINT('',#1238);
#391=VERTEX_POINT('',#1239);
#392=VERTEX_POINT('',#1244);
#393=VERTEX_POINT('',#1246);
#394=VERTEX_POINT('',#1250);
#395=VERTEX_POINT('',#1254);
#396=VERTEX_POINT('',#1256);
#397=VERTEX_POINT('',#1258);
#398=VERTEX_POINT('',#1260);
#399=VERTEX_POINT('',#1262);
#400=VERTEX_POINT('',#1265);
#401=VERTEX_POINT('',#1266);
#402=VERTEX_POINT('',#1268);
#403=VERTEX_POINT('',#1270);
#404=VERTEX_POINT('',#1282);
#405=VERTEX_POINT('',#1283);
#406=VERTEX_POINT('',#1285);
#407=VERTEX_POINT('',#1287);
#408=VERTEX_POINT('',#1294);
#409=VERTEX_POINT('',#1296);
#410=VERTEX_POINT('',#1300);
#411=VERTEX_POINT('',#1302);
#412=VERTEX_POINT('',#1306);
#413=VERTEX_POINT('',#1307);
#414=VERTEX_POINT('',#1309);
#415=VERTEX_POINT('',#1311);
#416=VERTEX_POINT('',#1325);
#417=VERTEX_POINT('',#1341);
#418=EDGE_CURVE('',#346,#347,#318,.T.);
#419=EDGE_CURVE('',#346,#348,#150,.T.);
#420=EDGE_CURVE('',#348,#349,#319,.T.);
#421=EDGE_CURVE('',#349,#347,#151,.T.);
#422=EDGE_CURVE('',#347,#350,#152,.T.);
#423=EDGE_CURVE('',#350,#351,#320,.T.);
#424=EDGE_CURVE('',#351,#352,#153,.T.);
#425=EDGE_CURVE('',#352,#353,#321,.T.);
#426=EDGE_CURVE('',#353,#354,#154,.T.);
#427=EDGE_CURVE('',#354,#355,#322,.T.);
#428=EDGE_CURVE('',#355,#346,#155,.T.);
#429=EDGE_CURVE('',#356,#349,#156,.T.);
#430=EDGE_CURVE('',#350,#356,#157,.T.);
#431=EDGE_CURVE('',#354,#357,#158,.T.);
#432=EDGE_CURVE('',#357,#358,#323,.T.);
#433=EDGE_CURVE('',#358,#355,#159,.T.);
#434=EDGE_CURVE('',#359,#353,#160,.T.);
#435=EDGE_CURVE('',#357,#359,#161,.T.);
#436=EDGE_CURVE('',#356,#360,#324,.T.);
#437=EDGE_CURVE('',#360,#351,#162,.T.);
#438=EDGE_CURVE('',#352,#361,#163,.T.);
#439=EDGE_CURVE('',#361,#359,#325,.T.);
#440=EDGE_CURVE('',#348,#358,#164,.T.);
#441=EDGE_CURVE('',#361,#360,#165,.T.);
#442=EDGE_CURVE('',#362,#363,#166,.T.);
#443=EDGE_CURVE('',#364,#362,#167,.T.);
#444=EDGE_CURVE('',#365,#364,#168,.T.);
#445=EDGE_CURVE('',#365,#363,#169,.T.);
#446=EDGE_CURVE('',#363,#366,#170,.T.);
#447=EDGE_CURVE('',#367,#365,#171,.T.);
#448=EDGE_CURVE('',#367,#366,#172,.T.);
#449=EDGE_CURVE('',#366,#368,#173,.T.);
#450=EDGE_CURVE('',#369,#367,#174,.T.);
#451=EDGE_CURVE('',#369,#368,#175,.T.);
#452=EDGE_CURVE('',#368,#362,#176,.T.);
#453=EDGE_CURVE('',#364,#369,#177,.T.);
#454=EDGE_CURVE('',#370,#371,#178,.T.);
#455=EDGE_CURVE('',#372,#370,#179,.T.);
#456=EDGE_CURVE('',#373,#372,#180,.T.);
#457=EDGE_CURVE('',#373,#371,#181,.T.);
#458=EDGE_CURVE('',#374,#375,#182,.T.);
#459=EDGE_CURVE('',#376,#374,#183,.T.);
#460=EDGE_CURVE('',#377,#376,#184,.T.);
#461=EDGE_CURVE('',#377,#375,#185,.T.);
#462=EDGE_CURVE('',#378,#370,#186,.T.);
#463=EDGE_CURVE('',#379,#378,#187,.T.);
#464=EDGE_CURVE('',#372,#379,#188,.T.);
#465=EDGE_CURVE('',#371,#380,#189,.T.);
#466=EDGE_CURVE('',#381,#373,#190,.T.);
#467=EDGE_CURVE('',#381,#380,#191,.T.);
#468=EDGE_CURVE('',#375,#382,#192,.T.);
#469=EDGE_CURVE('',#383,#377,#193,.T.);
#470=EDGE_CURVE('',#383,#382,#194,.T.);
#471=EDGE_CURVE('',#380,#378,#195,.T.);
#472=EDGE_CURVE('',#379,#381,#196,.T.);
#473=EDGE_CURVE('',#382,#384,#197,.T.);
#474=EDGE_CURVE('',#385,#383,#198,.T.);
#475=EDGE_CURVE('',#385,#384,#199,.T.);
#476=EDGE_CURVE('',#384,#374,#200,.T.);
#477=EDGE_CURVE('',#376,#385,#201,.T.);
#478=EDGE_CURVE('',#386,#387,#326,.T.);
#479=EDGE_CURVE('',#387,#388,#327,.T.);
#480=EDGE_CURVE('',#388,#389,#328,.T.);
#481=EDGE_CURVE('',#389,#386,#329,.T.);
#482=EDGE_CURVE('',#390,#391,#330,.T.);
#483=EDGE_CURVE('',#391,#388,#202,.T.);
#484=EDGE_CURVE('',#387,#390,#203,.T.);
#485=EDGE_CURVE('',#388,#392,#204,.T.);
#486=EDGE_CURVE('',#393,#392,#331,.T.);
#487=EDGE_CURVE('',#393,#389,#205,.T.);
#488=EDGE_CURVE('',#394,#391,#206,.T.);
#489=EDGE_CURVE('',#392,#394,#207,.T.);
#490=EDGE_CURVE('',#390,#395,#208,.T.);
#491=EDGE_CURVE('',#396,#395,#332,.T.);
#492=EDGE_CURVE('',#396,#397,#209,.T.);
#493=EDGE_CURVE('',#398,#397,#333,.T.);
#494=EDGE_CURVE('',#398,#399,#210,.T.);
#495=EDGE_CURVE('',#394,#399,#334,.T.);
#496=EDGE_CURVE('',#400,#401,#211,.T.);
#497=EDGE_CURVE('',#401,#402,#212,.T.);
#498=EDGE_CURVE('',#402,#403,#213,.T.);
#499=EDGE_CURVE('',#403,#400,#214,.T.);
#500=EDGE_CURVE('',#404,#405,#335,.T.);
#501=EDGE_CURVE('',#405,#406,#336,.T.);
#502=EDGE_CURVE('',#406,#407,#337,.T.);
#503=EDGE_CURVE('',#407,#404,#338,.T.);
#504=EDGE_CURVE('',#395,#406,#215,.T.);
#505=EDGE_CURVE('',#405,#396,#216,.T.);
#506=EDGE_CURVE('',#404,#408,#217,.T.);
#507=EDGE_CURVE('',#409,#408,#339,.T.);
#508=EDGE_CURVE('',#409,#405,#218,.T.);
#509=EDGE_CURVE('',#410,#393,#340,.T.);
#510=EDGE_CURVE('',#411,#410,#219,.T.);
#511=EDGE_CURVE('',#408,#411,#341,.T.);
#512=EDGE_CURVE('',#386,#407,#220,.T.);
#513=EDGE_CURVE('',#412,#413,#221,.T.);
#514=EDGE_CURVE('',#413,#414,#222,.T.);
#515=EDGE_CURVE('',#414,#415,#223,.T.);
#516=EDGE_CURVE('',#415,#412,#224,.T.);
#517=EDGE_CURVE('',#406,#387,#225,.T.);
#518=EDGE_CURVE('',#411,#416,#342,.T.);
#519=EDGE_CURVE('',#416,#409,#343,.T.);
#520=EDGE_CURVE('',#397,#409,#226,.T.);
#521=EDGE_CURVE('',#416,#398,#227,.T.);
#522=EDGE_CURVE('',#392,#417,#344,.T.);
#523=EDGE_CURVE('',#417,#410,#345,.T.);
#524=EDGE_CURVE('',#399,#417,#228,.T.);
#525=EDGE_CURVE('',#417,#416,#229,.T.);
#526=EDGE_CURVE('',#402,#415,#230,.T.);
#527=EDGE_CURVE('',#412,#401,#231,.T.);
#528=EDGE_CURVE('',#403,#414,#232,.T.);
#529=EDGE_CURVE('',#413,#400,#233,.T.);
#530=ORIENTED_EDGE('',*,*,#418,.F.);
#531=ORIENTED_EDGE('',*,*,#419,.T.);
#532=ORIENTED_EDGE('',*,*,#420,.T.);
#533=ORIENTED_EDGE('',*,*,#421,.T.);
#534=ORIENTED_EDGE('',*,*,#418,.T.);
#535=ORIENTED_EDGE('',*,*,#422,.T.);
#536=ORIENTED_EDGE('',*,*,#423,.T.);
#537=ORIENTED_EDGE('',*,*,#424,.T.);
#538=ORIENTED_EDGE('',*,*,#425,.T.);
#539=ORIENTED_EDGE('',*,*,#426,.T.);
#540=ORIENTED_EDGE('',*,*,#427,.T.);
#541=ORIENTED_EDGE('',*,*,#428,.T.);
#542=ORIENTED_EDGE('',*,*,#421,.F.);
#543=ORIENTED_EDGE('',*,*,#429,.F.);
#544=ORIENTED_EDGE('',*,*,#430,.F.);
#545=ORIENTED_EDGE('',*,*,#422,.F.);
#546=ORIENTED_EDGE('',*,*,#427,.F.);
#547=ORIENTED_EDGE('',*,*,#431,.T.);
#548=ORIENTED_EDGE('',*,*,#432,.T.);
#549=ORIENTED_EDGE('',*,*,#433,.T.);
#550=ORIENTED_EDGE('',*,*,#431,.F.);
#551=ORIENTED_EDGE('',*,*,#426,.F.);
#552=ORIENTED_EDGE('',*,*,#434,.F.);
#553=ORIENTED_EDGE('',*,*,#435,.F.);
#554=ORIENTED_EDGE('',*,*,#423,.F.);
#555=ORIENTED_EDGE('',*,*,#430,.T.);
#556=ORIENTED_EDGE('',*,*,#436,.T.);
#557=ORIENTED_EDGE('',*,*,#437,.T.);
#558=ORIENTED_EDGE('',*,*,#425,.F.);
#559=ORIENTED_EDGE('',*,*,#438,.T.);
#560=ORIENTED_EDGE('',*,*,#439,.T.);
#561=ORIENTED_EDGE('',*,*,#434,.T.);
#562=ORIENTED_EDGE('',*,*,#419,.F.);
#563=ORIENTED_EDGE('',*,*,#428,.F.);
#564=ORIENTED_EDGE('',*,*,#433,.F.);
#565=ORIENTED_EDGE('',*,*,#440,.F.);
#566=ORIENTED_EDGE('',*,*,#437,.F.);
#567=ORIENTED_EDGE('',*,*,#441,.F.);
#568=ORIENTED_EDGE('',*,*,#438,.F.);
#569=ORIENTED_EDGE('',*,*,#424,.F.);
#570=ORIENTED_EDGE('',*,*,#442,.F.);
#571=ORIENTED_EDGE('',*,*,#443,.F.);
#572=ORIENTED_EDGE('',*,*,#444,.F.);
#573=ORIENTED_EDGE('',*,*,#445,.T.);
#574=ORIENTED_EDGE('',*,*,#446,.F.);
#575=ORIENTED_EDGE('',*,*,#445,.F.);
#576=ORIENTED_EDGE('',*,*,#447,.F.);
#577=ORIENTED_EDGE('',*,*,#448,.T.);
#578=ORIENTED_EDGE('',*,*,#449,.F.);
#579=ORIENTED_EDGE('',*,*,#448,.F.);
#580=ORIENTED_EDGE('',*,*,#450,.F.);
#581=ORIENTED_EDGE('',*,*,#451,.T.);
#582=ORIENTED_EDGE('',*,*,#452,.F.);
#583=ORIENTED_EDGE('',*,*,#451,.F.);
#584=ORIENTED_EDGE('',*,*,#453,.F.);
#585=ORIENTED_EDGE('',*,*,#443,.T.);
#586=ORIENTED_EDGE('',*,*,#454,.F.);
#587=ORIENTED_EDGE('',*,*,#455,.F.);
#588=ORIENTED_EDGE('',*,*,#456,.F.);
#589=ORIENTED_EDGE('',*,*,#457,.T.);
#590=ORIENTED_EDGE('',*,*,#458,.F.);
#591=ORIENTED_EDGE('',*,*,#459,.F.);
#592=ORIENTED_EDGE('',*,*,#460,.F.);
#593=ORIENTED_EDGE('',*,*,#461,.T.);
#594=ORIENTED_EDGE('',*,*,#462,.F.);
#595=ORIENTED_EDGE('',*,*,#463,.F.);
#596=ORIENTED_EDGE('',*,*,#464,.F.);
#597=ORIENTED_EDGE('',*,*,#455,.T.);
#598=ORIENTED_EDGE('',*,*,#465,.F.);
#599=ORIENTED_EDGE('',*,*,#457,.F.);
#600=ORIENTED_EDGE('',*,*,#466,.F.);
#601=ORIENTED_EDGE('',*,*,#467,.T.);
#602=ORIENTED_EDGE('',*,*,#468,.F.);
#603=ORIENTED_EDGE('',*,*,#461,.F.);
#604=ORIENTED_EDGE('',*,*,#469,.F.);
#605=ORIENTED_EDGE('',*,*,#470,.T.);
#606=ORIENTED_EDGE('',*,*,#471,.F.);
#607=ORIENTED_EDGE('',*,*,#467,.F.);
#608=ORIENTED_EDGE('',*,*,#472,.F.);
#609=ORIENTED_EDGE('',*,*,#463,.T.);
#610=ORIENTED_EDGE('',*,*,#473,.F.);
#611=ORIENTED_EDGE('',*,*,#470,.F.);
#612=ORIENTED_EDGE('',*,*,#474,.F.);
#613=ORIENTED_EDGE('',*,*,#475,.T.);
#614=ORIENTED_EDGE('',*,*,#476,.F.);
#615=ORIENTED_EDGE('',*,*,#475,.F.);
#616=ORIENTED_EDGE('',*,*,#477,.F.);
#617=ORIENTED_EDGE('',*,*,#459,.T.);
#618=ORIENTED_EDGE('',*,*,#478,.T.);
#619=ORIENTED_EDGE('',*,*,#479,.T.);
#620=ORIENTED_EDGE('',*,*,#480,.T.);
#621=ORIENTED_EDGE('',*,*,#481,.T.);
#622=ORIENTED_EDGE('',*,*,#482,.T.);
#623=ORIENTED_EDGE('',*,*,#483,.T.);
#624=ORIENTED_EDGE('',*,*,#479,.F.);
#625=ORIENTED_EDGE('',*,*,#484,.T.);
#626=ORIENTED_EDGE('',*,*,#480,.F.);
#627=ORIENTED_EDGE('',*,*,#485,.T.);
#628=ORIENTED_EDGE('',*,*,#486,.F.);
#629=ORIENTED_EDGE('',*,*,#487,.T.);
#630=ORIENTED_EDGE('',*,*,#483,.F.);
#631=ORIENTED_EDGE('',*,*,#488,.F.);
#632=ORIENTED_EDGE('',*,*,#489,.F.);
#633=ORIENTED_EDGE('',*,*,#485,.F.);
#634=ORIENTED_EDGE('',*,*,#472,.T.);
#635=ORIENTED_EDGE('',*,*,#466,.T.);
#636=ORIENTED_EDGE('',*,*,#456,.T.);
#637=ORIENTED_EDGE('',*,*,#464,.T.);
#638=ORIENTED_EDGE('',*,*,#482,.F.);
#639=ORIENTED_EDGE('',*,*,#490,.T.);
#640=ORIENTED_EDGE('',*,*,#491,.F.);
#641=ORIENTED_EDGE('',*,*,#492,.T.);
#642=ORIENTED_EDGE('',*,*,#493,.F.);
#643=ORIENTED_EDGE('',*,*,#494,.T.);
#644=ORIENTED_EDGE('',*,*,#495,.F.);
#645=ORIENTED_EDGE('',*,*,#488,.T.);
#646=ORIENTED_EDGE('',*,*,#496,.T.);
#647=ORIENTED_EDGE('',*,*,#497,.T.);
#648=ORIENTED_EDGE('',*,*,#498,.T.);
#649=ORIENTED_EDGE('',*,*,#499,.T.);
#650=ORIENTED_EDGE('',*,*,#500,.T.);
#651=ORIENTED_EDGE('',*,*,#501,.T.);
#652=ORIENTED_EDGE('',*,*,#502,.T.);
#653=ORIENTED_EDGE('',*,*,#503,.T.);
#654=ORIENTED_EDGE('',*,*,#491,.T.);
#655=ORIENTED_EDGE('',*,*,#504,.T.);
#656=ORIENTED_EDGE('',*,*,#501,.F.);
#657=ORIENTED_EDGE('',*,*,#505,.T.);
#658=ORIENTED_EDGE('',*,*,#500,.F.);
#659=ORIENTED_EDGE('',*,*,#506,.T.);
#660=ORIENTED_EDGE('',*,*,#507,.F.);
#661=ORIENTED_EDGE('',*,*,#508,.T.);
#662=ORIENTED_EDGE('',*,*,#481,.F.);
#663=ORIENTED_EDGE('',*,*,#487,.F.);
#664=ORIENTED_EDGE('',*,*,#509,.F.);
#665=ORIENTED_EDGE('',*,*,#510,.F.);
#666=ORIENTED_EDGE('',*,*,#511,.F.);
#667=ORIENTED_EDGE('',*,*,#506,.F.);
#668=ORIENTED_EDGE('',*,*,#503,.F.);
#669=ORIENTED_EDGE('',*,*,#512,.F.);
#670=ORIENTED_EDGE('',*,*,#513,.T.);
#671=ORIENTED_EDGE('',*,*,#514,.T.);
#672=ORIENTED_EDGE('',*,*,#515,.T.);
#673=ORIENTED_EDGE('',*,*,#516,.T.);
#674=ORIENTED_EDGE('',*,*,#478,.F.);
#675=ORIENTED_EDGE('',*,*,#512,.T.);
#676=ORIENTED_EDGE('',*,*,#502,.F.);
#677=ORIENTED_EDGE('',*,*,#517,.T.);
#678=ORIENTED_EDGE('',*,*,#518,.T.);
#679=ORIENTED_EDGE('',*,*,#519,.T.);
#680=ORIENTED_EDGE('',*,*,#507,.T.);
#681=ORIENTED_EDGE('',*,*,#511,.T.);
#682=ORIENTED_EDGE('',*,*,#493,.T.);
#683=ORIENTED_EDGE('',*,*,#520,.T.);
#684=ORIENTED_EDGE('',*,*,#519,.F.);
#685=ORIENTED_EDGE('',*,*,#521,.T.);
#686=ORIENTED_EDGE('',*,*,#505,.F.);
#687=ORIENTED_EDGE('',*,*,#508,.F.);
#688=ORIENTED_EDGE('',*,*,#520,.F.);
#689=ORIENTED_EDGE('',*,*,#492,.F.);
#690=ORIENTED_EDGE('',*,*,#473,.T.);
#691=ORIENTED_EDGE('',*,*,#476,.T.);
#692=ORIENTED_EDGE('',*,*,#458,.T.);
#693=ORIENTED_EDGE('',*,*,#468,.T.);
#694=ORIENTED_EDGE('',*,*,#486,.T.);
#695=ORIENTED_EDGE('',*,*,#522,.T.);
#696=ORIENTED_EDGE('',*,*,#523,.T.);
#697=ORIENTED_EDGE('',*,*,#509,.T.);
#698=ORIENTED_EDGE('',*,*,#495,.T.);
#699=ORIENTED_EDGE('',*,*,#524,.T.);
#700=ORIENTED_EDGE('',*,*,#522,.F.);
#701=ORIENTED_EDGE('',*,*,#489,.T.);
#702=ORIENTED_EDGE('',*,*,#518,.F.);
#703=ORIENTED_EDGE('',*,*,#510,.T.);
#704=ORIENTED_EDGE('',*,*,#523,.F.);
#705=ORIENTED_EDGE('',*,*,#525,.T.);
#706=ORIENTED_EDGE('',*,*,#521,.F.);
#707=ORIENTED_EDGE('',*,*,#525,.F.);
#708=ORIENTED_EDGE('',*,*,#524,.F.);
#709=ORIENTED_EDGE('',*,*,#494,.F.);
#710=ORIENTED_EDGE('',*,*,#435,.T.);
#711=ORIENTED_EDGE('',*,*,#439,.F.);
#712=ORIENTED_EDGE('',*,*,#441,.T.);
#713=ORIENTED_EDGE('',*,*,#436,.F.);
#714=ORIENTED_EDGE('',*,*,#429,.T.);
#715=ORIENTED_EDGE('',*,*,#420,.F.);
#716=ORIENTED_EDGE('',*,*,#440,.T.);
#717=ORIENTED_EDGE('',*,*,#432,.F.);
#718=ORIENTED_EDGE('',*,*,#516,.F.);
#719=ORIENTED_EDGE('',*,*,#526,.F.);
#720=ORIENTED_EDGE('',*,*,#497,.F.);
#721=ORIENTED_EDGE('',*,*,#527,.F.);
#722=ORIENTED_EDGE('',*,*,#515,.F.);
#723=ORIENTED_EDGE('',*,*,#528,.F.);
#724=ORIENTED_EDGE('',*,*,#498,.F.);
#725=ORIENTED_EDGE('',*,*,#526,.T.);
#726=ORIENTED_EDGE('',*,*,#474,.T.);
#727=ORIENTED_EDGE('',*,*,#469,.T.);
#728=ORIENTED_EDGE('',*,*,#460,.T.);
#729=ORIENTED_EDGE('',*,*,#477,.T.);
#730=ORIENTED_EDGE('',*,*,#513,.F.);
#731=ORIENTED_EDGE('',*,*,#527,.T.);
#732=ORIENTED_EDGE('',*,*,#496,.F.);
#733=ORIENTED_EDGE('',*,*,#529,.F.);
#734=ORIENTED_EDGE('',*,*,#471,.T.);
#735=ORIENTED_EDGE('',*,*,#462,.T.);
#736=ORIENTED_EDGE('',*,*,#454,.T.);
#737=ORIENTED_EDGE('',*,*,#465,.T.);
#738=ORIENTED_EDGE('',*,*,#514,.F.);
#739=ORIENTED_EDGE('',*,*,#529,.T.);
#740=ORIENTED_EDGE('',*,*,#499,.F.);
#741=ORIENTED_EDGE('',*,*,#528,.T.);
#742=ORIENTED_EDGE('',*,*,#449,.T.);
#743=ORIENTED_EDGE('',*,*,#452,.T.);
#744=ORIENTED_EDGE('',*,*,#442,.T.);
#745=ORIENTED_EDGE('',*,*,#446,.T.);
#746=ORIENTED_EDGE('',*,*,#484,.F.);
#747=ORIENTED_EDGE('',*,*,#517,.F.);
#748=ORIENTED_EDGE('',*,*,#504,.F.);
#749=ORIENTED_EDGE('',*,*,#490,.F.);
#750=ORIENTED_EDGE('',*,*,#450,.T.);
#751=ORIENTED_EDGE('',*,*,#447,.T.);
#752=ORIENTED_EDGE('',*,*,#444,.T.);
#753=ORIENTED_EDGE('',*,*,#453,.T.);
#754=CYLINDRICAL_SURFACE('',#811,5.);
#755=CYLINDRICAL_SURFACE('',#819,5.);
#756=CYLINDRICAL_SURFACE('',#822,5.);
#757=CYLINDRICAL_SURFACE('',#824,5.);
#758=CYLINDRICAL_SURFACE('',#844,5.);
#759=CYLINDRICAL_SURFACE('',#846,4.55);
#760=CYLINDRICAL_SURFACE('',#857,5.);
#761=CYLINDRICAL_SURFACE('',#858,4.55);
#762=CYLINDRICAL_SURFACE('',#863,4.55);
#763=CYLINDRICAL_SURFACE('',#866,5.);
#764=CYLINDRICAL_SURFACE('',#870,5.);
#765=CYLINDRICAL_SURFACE('',#871,4.55);
#766=ADVANCED_FACE('',(#55),#754,.F.);
#767=ADVANCED_FACE('',(#56),#28,.F.);
#768=ADVANCED_FACE('',(#57),#29,.F.);
#769=ADVANCED_FACE('',(#58),#755,.F.);
#770=ADVANCED_FACE('',(#59),#30,.F.);
#771=ADVANCED_FACE('',(#60),#756,.F.);
#772=ADVANCED_FACE('',(#61),#757,.F.);
#773=ADVANCED_FACE('',(#62),#31,.F.);
#774=ADVANCED_FACE('',(#63),#32,.F.);
#775=ADVANCED_FACE('',(#64),#33,.F.);
#776=ADVANCED_FACE('',(#65),#34,.F.);
#777=ADVANCED_FACE('',(#66),#35,.F.);
#778=ADVANCED_FACE('',(#67),#36,.F.);
#779=ADVANCED_FACE('',(#68),#37,.F.);
#780=ADVANCED_FACE('',(#69),#38,.F.);
#781=ADVANCED_FACE('',(#70),#39,.F.);
#782=ADVANCED_FACE('',(#71),#40,.F.);
#783=ADVANCED_FACE('',(#72),#41,.F.);
#784=ADVANCED_FACE('',(#73),#42,.F.);
#785=ADVANCED_FACE('',(#74),#43,.F.);
#786=ADVANCED_FACE('',(#75),#44,.F.);
#787=ADVANCED_FACE('',(#76),#24,.F.);
#788=ADVANCED_FACE('',(#77),#758,.T.);
#789=ADVANCED_FACE('',(#78),#759,.T.);
#790=ADVANCED_FACE('',(#79,#15),#45,.T.);
#791=ADVANCED_FACE('',(#80,#16),#46,.T.);
#792=ADVANCED_FACE('',(#81),#25,.F.);
#793=ADVANCED_FACE('',(#82),#760,.T.);
#794=ADVANCED_FACE('',(#83),#761,.T.);
#795=ADVANCED_FACE('',(#84,#17),#47,.F.);
#796=ADVANCED_FACE('',(#85),#762,.T.);
#797=ADVANCED_FACE('',(#86),#26,.F.);
#798=ADVANCED_FACE('',(#87),#763,.T.);
#799=ADVANCED_FACE('',(#88,#18),#48,.T.);
#800=ADVANCED_FACE('',(#89),#27,.F.);
#801=ADVANCED_FACE('',(#90),#764,.T.);
#802=ADVANCED_FACE('',(#91),#765,.T.);
#803=ADVANCED_FACE('',(#92,#19),#49,.T.);
#804=ADVANCED_FACE('',(#93),#50,.F.);
#805=ADVANCED_FACE('',(#94,#20),#51,.F.);
#806=ADVANCED_FACE('',(#95,#21),#52,.F.);
#807=ADVANCED_FACE('',(#96,#22),#53,.F.);
#808=ADVANCED_FACE('',(#97,#23),#54,.T.);
#809=CLOSED_SHELL('',(#766,#767,#768,#769,#770,#771,#772,#773,#774,#775,
#776,#777,#778,#779,#780,#781,#782,#783,#784,#785,#786,#787,#788,#789,#790,
#791,#792,#793,#794,#795,#796,#797,#798,#799,#800,#801,#802,#803,#804,#805,
#806,#807,#808));
#810=AXIS2_PLACEMENT_3D('',#1098,#878,#879);
#811=AXIS2_PLACEMENT_3D('',#1099,#880,#881);
#812=AXIS2_PLACEMENT_3D('',#1102,#882,#883);
#813=AXIS2_PLACEMENT_3D('',#1106,#885,#886);
#814=AXIS2_PLACEMENT_3D('',#1108,#888,#889);
#815=AXIS2_PLACEMENT_3D('',#1112,#891,#892);
#816=AXIS2_PLACEMENT_3D('',#1116,#894,#895);
#817=AXIS2_PLACEMENT_3D('',#1120,#897,#898);
#818=AXIS2_PLACEMENT_3D('',#1122,#900,#901);
#819=AXIS2_PLACEMENT_3D('',#1126,#904,#905);
#820=AXIS2_PLACEMENT_3D('',#1130,#907,#908);
#821=AXIS2_PLACEMENT_3D('',#1132,#910,#911);
#822=AXIS2_PLACEMENT_3D('',#1136,#914,#915);
#823=AXIS2_PLACEMENT_3D('',#1138,#916,#917);
#824=AXIS2_PLACEMENT_3D('',#1140,#919,#920);
#825=AXIS2_PLACEMENT_3D('',#1143,#922,#923);
#826=AXIS2_PLACEMENT_3D('',#1144,#924,#925);
#827=AXIS2_PLACEMENT_3D('',#1146,#927,#928);
#828=AXIS2_PLACEMENT_3D('',#1148,#930,#931);
#829=AXIS2_PLACEMENT_3D('',#1157,#936,#937);
#830=AXIS2_PLACEMENT_3D('',#1163,#941,#942);
#831=AXIS2_PLACEMENT_3D('',#1169,#946,#947);
#832=AXIS2_PLACEMENT_3D('',#1172,#950,#951);
#833=AXIS2_PLACEMENT_3D('',#1181,#956,#957);
#834=AXIS2_PLACEMENT_3D('',#1190,#962,#963);
#835=AXIS2_PLACEMENT_3D('',#1196,#967,#968);
#836=AXIS2_PLACEMENT_3D('',#1202,#972,#973);
#837=AXIS2_PLACEMENT_3D('',#1208,#977,#978);
#838=AXIS2_PLACEMENT_3D('',#1211,#981,#982);
#839=AXIS2_PLACEMENT_3D('',#1217,#986,#987);
#840=AXIS2_PLACEMENT_3D('',#1231,#990,#991);
#841=AXIS2_PLACEMENT_3D('',#1233,#992,#993);
#842=AXIS2_PLACEMENT_3D('',#1235,#994,#995);
#843=AXIS2_PLACEMENT_3D('',#1236,#996,#997);
#844=AXIS2_PLACEMENT_3D('',#1237,#998,#999);
#845=AXIS2_PLACEMENT_3D('',#1240,#1000,#1001);
#846=AXIS2_PLACEMENT_3D('',#1243,#1004,#1005);
#847=AXIS2_PLACEMENT_3D('',#1247,#1007,#1008);
#848=AXIS2_PLACEMENT_3D('',#1249,#1010,#1011);
#849=AXIS2_PLACEMENT_3D('',#1253,#1014,#1015);
#850=AXIS2_PLACEMENT_3D('',#1257,#1017,#1018);
#851=AXIS2_PLACEMENT_3D('',#1261,#1020,#1021);
#852=AXIS2_PLACEMENT_3D('',#1264,#1023,#1024);
#853=AXIS2_PLACEMENT_3D('',#1284,#1029,#1030);
#854=AXIS2_PLACEMENT_3D('',#1286,#1031,#1032);
#855=AXIS2_PLACEMENT_3D('',#1288,#1033,#1034);
#856=AXIS2_PLACEMENT_3D('',#1289,#1035,#1036);
#857=AXIS2_PLACEMENT_3D('',#1290,#1037,#1038);
#858=AXIS2_PLACEMENT_3D('',#1293,#1041,#1042);
#859=AXIS2_PLACEMENT_3D('',#1297,#1044,#1045);
#860=AXIS2_PLACEMENT_3D('',#1299,#1047,#1048);
#861=AXIS2_PLACEMENT_3D('',#1301,#1049,#1050);
#862=AXIS2_PLACEMENT_3D('',#1304,#1052,#1053);
#863=AXIS2_PLACEMENT_3D('',#1314,#1059,#1060);
#864=AXIS2_PLACEMENT_3D('',#1326,#1062,#1063);
#865=AXIS2_PLACEMENT_3D('',#1327,#1064,#1065);
#866=AXIS2_PLACEMENT_3D('',#1328,#1066,#1067);
#867=AXIS2_PLACEMENT_3D('',#1331,#1070,#1071);
#868=AXIS2_PLACEMENT_3D('',#1342,#1072,#1073);
#869=AXIS2_PLACEMENT_3D('',#1343,#1074,#1075);
#870=AXIS2_PLACEMENT_3D('',#1344,#1076,#1077);
#871=AXIS2_PLACEMENT_3D('',#1346,#1079,#1080);
#872=AXIS2_PLACEMENT_3D('',#1348,#1082,#1083);
#873=AXIS2_PLACEMENT_3D('',#1349,#1084,#1085);
#874=AXIS2_PLACEMENT_3D('',#1352,#1088,#1089);
#875=AXIS2_PLACEMENT_3D('',#1354,#1091,#1092);
#876=AXIS2_PLACEMENT_3D('',#1356,#1094,#1095);
#877=AXIS2_PLACEMENT_3D('',#1357,#1096,#1097);
#878=DIRECTION('axis',(0.,0.,1.));
#879=DIRECTION('refdir',(1.,0.,0.));
#880=DIRECTION('center_axis',(0.,0.,-1.));
#881=DIRECTION('ref_axis',(0.707106781186547,0.707106781186547,0.));
#882=DIRECTION('center_axis',(0.,0.,-1.));
#883=DIRECTION('ref_axis',(0.707106781186547,0.707106781186547,0.));
#884=DIRECTION('',(0.,0.,-1.));
#885=DIRECTION('center_axis',(0.,0.,-1.));
#886=DIRECTION('ref_axis',(0.707106781186547,0.707106781186547,0.));
#887=DIRECTION('',(0.,0.,1.));
#888=DIRECTION('center_axis',(0.,0.,1.));
#889=DIRECTION('ref_axis',(1.,0.,0.));
#890=DIRECTION('',(0.,-1.,0.));
#891=DIRECTION('center_axis',(0.,0.,-1.));
#892=DIRECTION('ref_axis',(0.707106781186547,-0.707106781186547,0.));
#893=DIRECTION('',(-1.,0.,0.));
#894=DIRECTION('center_axis',(0.,0.,-1.));
#895=DIRECTION('ref_axis',(-0.707106781186547,-0.707106781186547,0.));
#896=DIRECTION('',(0.,1.,0.));
#897=DIRECTION('center_axis',(0.,0.,-1.));
#898=DIRECTION('ref_axis',(-0.707106781186547,0.707106781186547,0.));
#899=DIRECTION('',(1.,0.,0.));
#900=DIRECTION('center_axis',(1.,0.,0.));
#901=DIRECTION('ref_axis',(0.,0.,-1.));
#902=DIRECTION('',(0.,1.,0.));
#903=DIRECTION('',(0.,0.,-1.));
#904=DIRECTION('center_axis',(0.,0.,1.));
#905=DIRECTION('ref_axis',(-0.707106781186547,0.707106781186547,0.));
#906=DIRECTION('',(0.,0.,-1.));
#907=DIRECTION('center_axis',(0.,0.,-1.));
#908=DIRECTION('ref_axis',(-0.707106781186547,0.707106781186547,0.));
#909=DIRECTION('',(0.,0.,1.));
#910=DIRECTION('center_axis',(-1.,0.,0.));
#911=DIRECTION('ref_axis',(0.,0.,1.));
#912=DIRECTION('',(0.,0.,1.));
#913=DIRECTION('',(0.,-1.,0.));
#914=DIRECTION('center_axis',(0.,0.,-1.));
#915=DIRECTION('ref_axis',(0.707106781186547,-0.707106781186547,0.));
#916=DIRECTION('center_axis',(0.,0.,-1.));
#917=DIRECTION('ref_axis',(0.707106781186547,-0.707106781186547,0.));
#918=DIRECTION('',(0.,0.,1.));
#919=DIRECTION('center_axis',(0.,0.,1.));
#920=DIRECTION('ref_axis',(-0.707106781186547,-0.707106781186547,0.));
#921=DIRECTION('',(0.,0.,-1.));
#922=DIRECTION('center_axis',(0.,0.,-1.));
#923=DIRECTION('ref_axis',(-0.707106781186547,-0.707106781186547,0.));
#924=DIRECTION('center_axis',(0.,1.,0.));
#925=DIRECTION('ref_axis',(0.,0.,1.));
#926=DIRECTION('',(-1.,0.,0.));
#927=DIRECTION('center_axis',(0.,-1.,0.));
#928=DIRECTION('ref_axis',(0.,0.,-1.));
#929=DIRECTION('',(1.,0.,0.));
#930=DIRECTION('center_axis',(1.,0.,0.));
#931=DIRECTION('ref_axis',(0.,-1.,0.));
#932=DIRECTION('',(0.,1.,0.));
#933=DIRECTION('',(0.,0.,-1.));
#934=DIRECTION('',(0.,-1.,0.));
#935=DIRECTION('',(0.,0.,-1.));
#936=DIRECTION('center_axis',(0.,1.,0.));
#937=DIRECTION('ref_axis',(1.,0.,0.));
#938=DIRECTION('',(-1.,0.,0.));
#939=DIRECTION('',(1.,0.,0.));
#940=DIRECTION('',(0.,0.,-1.));
#941=DIRECTION('center_axis',(-1.,0.,0.));
#942=DIRECTION('ref_axis',(0.,1.,0.));
#943=DIRECTION('',(0.,-1.,0.));
#944=DIRECTION('',(0.,1.,0.));
#945=DIRECTION('',(0.,0.,-1.));
#946=DIRECTION('center_axis',(0.,-1.,0.));
#947=DIRECTION('ref_axis',(-1.,0.,0.));
#948=DIRECTION('',(1.,0.,0.));
#949=DIRECTION('',(-1.,0.,0.));
#950=DIRECTION('center_axis',(1.,0.,0.));
#951=DIRECTION('ref_axis',(0.,0.,1.));
#952=DIRECTION('',(0.,0.,-1.));
#953=DIRECTION('',(0.,-1.,0.));
#954=DIRECTION('',(0.,0.,1.));
#955=DIRECTION('',(0.,-1.,0.));
#956=DIRECTION('center_axis',(1.,0.,0.));
#957=DIRECTION('ref_axis',(0.,0.,1.));
#958=DIRECTION('',(0.,0.,-1.));
#959=DIRECTION('',(0.,-1.,0.));
#960=DIRECTION('',(0.,0.,1.));
#961=DIRECTION('',(0.,-1.,0.));
#962=DIRECTION('center_axis',(0.,0.,1.));
#963=DIRECTION('ref_axis',(-1.,0.,0.));
#964=DIRECTION('',(1.,0.,0.));
#965=DIRECTION('',(0.,-1.,0.));
#966=DIRECTION('',(-1.,0.,0.));
#967=DIRECTION('center_axis',(0.,0.,-1.));
#968=DIRECTION('ref_axis',(1.,0.,0.));
#969=DIRECTION('',(-1.,0.,0.));
#970=DIRECTION('',(1.,0.,0.));
#971=DIRECTION('',(0.,-1.,0.));
#972=DIRECTION('center_axis',(0.,0.,-1.));
#973=DIRECTION('ref_axis',(1.,0.,0.));
#974=DIRECTION('',(-1.,0.,0.));
#975=DIRECTION('',(1.,0.,0.));
#976=DIRECTION('',(0.,-1.,0.));
#977=DIRECTION('center_axis',(-1.,0.,0.));
#978=DIRECTION('ref_axis',(0.,0.,-1.));
#979=DIRECTION('',(0.,0.,1.));
#980=DIRECTION('',(0.,0.,-1.));
#981=DIRECTION('center_axis',(-1.,0.,0.));
#982=DIRECTION('ref_axis',(0.,0.,-1.));
#983=DIRECTION('',(0.,0.,1.));
#984=DIRECTION('',(0.,0.,-1.));
#985=DIRECTION('',(0.,-1.,0.));
#986=DIRECTION('center_axis',(0.,0.,1.));
#987=DIRECTION('ref_axis',(-1.,0.,0.));
#988=DIRECTION('',(1.,0.,0.));
#989=DIRECTION('',(-1.,0.,0.));
#990=DIRECTION('center_axis',(0.,1.,0.));
#991=DIRECTION('ref_axis',(-1.,0.,0.));
#992=DIRECTION('center_axis',(-1.,0.,0.));
#993=DIRECTION('ref_axis',(0.,0.707106781186547,0.707106781186547));
#994=DIRECTION('center_axis',(0.,0.,1.));
#995=DIRECTION('ref_axis',(0.,1.,0.));
#996=DIRECTION('center_axis',(1.,0.,0.));
#997=DIRECTION('ref_axis',(0.,0.707106781186547,0.707106781186547));
#998=DIRECTION('center_axis',(1.,0.,0.));
#999=DIRECTION('ref_axis',(0.,0.707106781186547,0.707106781186547));
#1000=DIRECTION('center_axis',(-1.,0.,0.));
#1001=DIRECTION('ref_axis',(0.,0.707106781186547,0.707106781186547));
#1002=DIRECTION('',(-1.,0.,0.));
#1003=DIRECTION('',(1.,0.,0.));
#1004=DIRECTION('center_axis',(0.,0.,-1.));
#1005=DIRECTION('ref_axis',(-0.707106781186546,0.707106781186549,0.));
#1006=DIRECTION('',(0.,0.,-1.));
#1007=DIRECTION('center_axis',(0.,0.,-1.));
#1008=DIRECTION('ref_axis',(-1.,0.,0.));
#1009=DIRECTION('',(0.,0.,1.));
#1010=DIRECTION('center_axis',(0.,1.,0.));
#1011=DIRECTION('ref_axis',(0.,0.,1.));
#1012=DIRECTION('',(0.,0.,1.));
#1013=DIRECTION('',(1.,0.,0.));
#1014=DIRECTION('center_axis',(1.,0.,0.));
#1015=DIRECTION('ref_axis',(0.,0.,-1.));
#1016=DIRECTION('',(0.,-1.,0.));
#1017=DIRECTION('center_axis',(-1.,0.,0.));
#1018=DIRECTION('ref_axis',(0.,-0.707106781186547,0.707106781186547));
#1019=DIRECTION('',(0.,0.,-1.));
#1020=DIRECTION('center_axis',(-1.,0.,0.));
#1021=DIRECTION('ref_axis',(0.,-0.707106781186547,-0.707106781186547));
#1022=DIRECTION('',(0.,1.,0.));
#1023=DIRECTION('center_axis',(-1.,0.,0.));
#1024=DIRECTION('ref_axis',(0.,0.707106781186547,-0.707106781186547));
#1025=DIRECTION('',(0.,0.,-1.));
#1026=DIRECTION('',(0.,-1.,0.));
#1027=DIRECTION('',(0.,0.,1.));
#1028=DIRECTION('',(0.,1.,0.));
#1029=DIRECTION('center_axis',(0.,0.,1.));
#1030=DIRECTION('ref_axis',(-1.,0.,0.));
#1031=DIRECTION('center_axis',(-1.,0.,0.));
#1032=DIRECTION('ref_axis',(0.,-0.707106781186547,0.707106781186547));
#1033=DIRECTION('center_axis',(0.,-1.,0.));
#1034=DIRECTION('ref_axis',(0.,0.,1.));
#1035=DIRECTION('center_axis',(1.,0.,0.));
#1036=DIRECTION('ref_axis',(0.,-0.707106781186547,0.707106781186547));
#1037=DIRECTION('center_axis',(1.,0.,0.));
#1038=DIRECTION('ref_axis',(0.,-0.707106781186547,0.707106781186547));
#1039=DIRECTION('',(-1.,0.,0.));
#1040=DIRECTION('',(1.,0.,0.));
#1041=DIRECTION('center_axis',(0.,0.,1.));
#1042=DIRECTION('ref_axis',(-0.707106781186546,-0.707106781186549,0.));
#1043=DIRECTION('',(0.,0.,-1.));
#1044=DIRECTION('center_axis',(0.,0.,-1.));
#1045=DIRECTION('ref_axis',(0.,-1.,0.));
#1046=DIRECTION('',(0.,0.,1.));
#1047=DIRECTION('center_axis',(1.,0.,0.));
#1048=DIRECTION('ref_axis',(0.,1.,0.));
#1049=DIRECTION('center_axis',(1.,0.,0.));
#1050=DIRECTION('ref_axis',(0.,0.707106781186547,-0.707106781186547));
#1051=DIRECTION('',(0.,1.,0.));
#1052=DIRECTION('center_axis',(1.,0.,0.));
#1053=DIRECTION('ref_axis',(0.,-0.707106781186547,-0.707106781186547));
#1054=DIRECTION('',(0.,-1.,0.));
#1055=DIRECTION('',(0.,0.,1.));
#1056=DIRECTION('',(0.,-1.,0.));
#1057=DIRECTION('',(0.,0.,-1.));
#1058=DIRECTION('',(0.,1.,0.));
#1059=DIRECTION('center_axis',(0.,1.,0.));
#1060=DIRECTION('ref_axis',(-0.707106781186546,0.,0.707106781186549));
#1061=DIRECTION('',(0.,1.,0.));
#1062=DIRECTION('center_axis',(0.,-1.,0.));
#1063=DIRECTION('ref_axis',(-1.,0.,0.));
#1064=DIRECTION('center_axis',(-1.,0.,0.));
#1065=DIRECTION('ref_axis',(0.,-0.707106781186547,-0.707106781186547));
#1066=DIRECTION('center_axis',(1.,0.,0.));
#1067=DIRECTION('ref_axis',(0.,-0.707106781186547,-0.707106781186547));
#1068=DIRECTION('',(-1.,0.,0.));
#1069=DIRECTION('',(1.,0.,0.));
#1070=DIRECTION('center_axis',(0.,-1.,0.));
#1071=DIRECTION('ref_axis',(0.,0.,-1.));
#1072=DIRECTION('center_axis',(-1.,0.,0.));
#1073=DIRECTION('ref_axis',(0.,0.707106781186547,-0.707106781186547));
#1074=DIRECTION('center_axis',(0.,1.,0.));
#1075=DIRECTION('ref_axis',(0.,0.,-1.));
#1076=DIRECTION('center_axis',(1.,0.,0.));
#1077=DIRECTION('ref_axis',(0.,0.707106781186547,-0.707106781186547));
#1078=DIRECTION('',(-1.,0.,0.));
#1079=DIRECTION('center_axis',(0.,-1.,0.));
#1080=DIRECTION('ref_axis',(-0.707106781186546,0.,-0.707106781186549));
#1081=DIRECTION('',(0.,-1.,0.));
#1082=DIRECTION('center_axis',(0.,0.,-1.));
#1083=DIRECTION('ref_axis',(0.,1.,0.));
#1084=DIRECTION('center_axis',(0.,0.,-1.));
#1085=DIRECTION('ref_axis',(-1.,0.,0.));
#1086=DIRECTION('',(-1.,0.,0.));
#1087=DIRECTION('',(1.,0.,0.));
#1088=DIRECTION('center_axis',(0.,-1.,0.));
#1089=DIRECTION('ref_axis',(0.,0.,-1.));
#1090=DIRECTION('',(-1.,0.,0.));
#1091=DIRECTION('center_axis',(0.,1.,0.));
#1092=DIRECTION('ref_axis',(0.,0.,1.));
#1093=DIRECTION('',(1.,0.,0.));
#1094=DIRECTION('center_axis',(0.,0.,1.));
#1095=DIRECTION('ref_axis',(1.,0.,0.));
#1096=DIRECTION('center_axis',(0.,0.,1.));
#1097=DIRECTION('ref_axis',(0.,-1.,0.));
#1098=CARTESIAN_POINT('',(0.,0.,0.));
#1099=CARTESIAN_POINT('Origin',(280.100004246831,20.100000372529,-40.0000005960464));
#1100=CARTESIAN_POINT('',(280.100004246831,25.100000372529,-38.0000005960464));
#1101=CARTESIAN_POINT('',(285.100004246831,20.100000372529,-38.0000005960464));
#1102=CARTESIAN_POINT('Origin',(280.100004246831,20.100000372529,-38.0000005960464));
#1103=CARTESIAN_POINT('',(280.100004246831,25.100000372529,-40.0000005960464));
#1104=CARTESIAN_POINT('',(280.100004246831,25.100000372529,-40.0000005960464));
#1105=CARTESIAN_POINT('',(285.100004246831,20.100000372529,-40.0000005960464));
#1106=CARTESIAN_POINT('Origin',(280.100004246831,20.100000372529,-40.0000005960464));
#1107=CARTESIAN_POINT('',(285.100004246831,20.100000372529,-40.0000005960464));
#1108=CARTESIAN_POINT('Origin',(267.500003986061,0.,-38.0000005960464));
#1109=CARTESIAN_POINT('',(285.100004246831,-20.100000372529,-38.0000005960464));
#1110=CARTESIAN_POINT('',(285.100004246831,-25.000000372529,-38.0000005960464));
#1111=CARTESIAN_POINT('',(280.100004246831,-25.100000372529,-38.0000005960464));
#1112=CARTESIAN_POINT('Origin',(280.100004246831,-20.100000372529,-38.0000005960464));
#1113=CARTESIAN_POINT('',(254.90000372529,-25.100000372529,-38.0000005960464));
#1114=CARTESIAN_POINT('',(250.00000372529,-25.100000372529,-38.0000005960464));
#1115=CARTESIAN_POINT('',(249.90000372529,-20.100000372529,-38.0000005960464));
#1116=CARTESIAN_POINT('Origin',(254.90000372529,-20.100000372529,-38.0000005960464));
#1117=CARTESIAN_POINT('',(249.90000372529,20.100000372529,-38.0000005960464));
#1118=CARTESIAN_POINT('',(249.90000372529,25.000000372529,-38.0000005960464));
#1119=CARTESIAN_POINT('',(254.90000372529,25.100000372529,-38.0000005960464));
#1120=CARTESIAN_POINT('Origin',(254.90000372529,20.100000372529,-38.0000005960464));
#1121=CARTESIAN_POINT('',(250.00000372529,25.100000372529,-38.0000005960464));
#1122=CARTESIAN_POINT('Origin',(285.100004246831,-25.000000372529,-40.0000005960464));
#1123=CARTESIAN_POINT('',(285.100004246831,-20.100000372529,-40.0000005960464));
#1124=CARTESIAN_POINT('',(285.100004246831,-7.49999981373549,-40.0000005960464));
#1125=CARTESIAN_POINT('',(285.100004246831,-20.100000372529,-40.0000005960464));
#1126=CARTESIAN_POINT('Origin',(254.90000372529,20.100000372529,-40.0000005960464));
#1127=CARTESIAN_POINT('',(249.90000372529,20.100000372529,-40.0000005960464));
#1128=CARTESIAN_POINT('',(249.90000372529,20.100000372529,-40.0000005960464));
#1129=CARTESIAN_POINT('',(254.90000372529,25.100000372529,-40.0000005960464));
#1130=CARTESIAN_POINT('Origin',(254.90000372529,20.100000372529,-40.0000005960464));
#1131=CARTESIAN_POINT('',(254.90000372529,25.100000372529,-40.0000005960464));
#1132=CARTESIAN_POINT('Origin',(249.90000372529,25.000000372529,-40.0000005960464));
#1133=CARTESIAN_POINT('',(249.90000372529,-20.100000372529,-40.0000005960464));
#1134=CARTESIAN_POINT('',(249.90000372529,-20.100000372529,-40.0000005960464));
#1135=CARTESIAN_POINT('',(249.90000372529,-7.49999981373549,-40.0000005960464));
#1136=CARTESIAN_POINT('Origin',(280.100004246831,-20.100000372529,-40.0000005960464));
#1137=CARTESIAN_POINT('',(280.100004246831,-25.100000372529,-40.0000005960464));
#1138=CARTESIAN_POINT('Origin',(280.100004246831,-20.100000372529,-40.0000005960464));
#1139=CARTESIAN_POINT('',(280.100004246831,-25.100000372529,-40.0000005960464));
#1140=CARTESIAN_POINT('Origin',(254.90000372529,-20.100000372529,-40.0000005960464));
#1141=CARTESIAN_POINT('',(254.90000372529,-25.100000372529,-40.0000005960464));
#1142=CARTESIAN_POINT('',(254.90000372529,-25.100000372529,-40.0000005960464));
#1143=CARTESIAN_POINT('Origin',(254.90000372529,-20.100000372529,-40.0000005960464));
#1144=CARTESIAN_POINT('Origin',(285.000004246831,25.100000372529,-40.0000005960464));
#1145=CARTESIAN_POINT('',(228.000002123415,25.100000372529,-40.0000005960464));
#1146=CARTESIAN_POINT('Origin',(250.00000372529,-25.100000372529,-40.0000005960464));
#1147=CARTESIAN_POINT('',(210.500001862645,-25.100000372529,-40.0000005960464));
#1148=CARTESIAN_POINT('Origin',(350.,25.,40.));
#1149=CARTESIAN_POINT('',(350.,-25.,35.1));
#1150=CARTESIAN_POINT('',(350.,25.,35.1));
#1151=CARTESIAN_POINT('',(350.,-5.,35.1));
#1152=CARTESIAN_POINT('',(350.,-25.,40.));
#1153=CARTESIAN_POINT('',(350.,-25.,40.));
#1154=CARTESIAN_POINT('',(350.,25.,40.));
#1155=CARTESIAN_POINT('',(350.,32.5000002980232,40.));
#1156=CARTESIAN_POINT('',(350.,25.,40.));
#1157=CARTESIAN_POINT('Origin',(185.,25.,40.));
#1158=CARTESIAN_POINT('',(185.,25.,35.1));
#1159=CARTESIAN_POINT('',(178.,25.,35.1));
#1160=CARTESIAN_POINT('',(185.,25.,40.));
#1161=CARTESIAN_POINT('',(178.,25.,40.));
#1162=CARTESIAN_POINT('',(185.,25.,40.));
#1163=CARTESIAN_POINT('Origin',(185.,-25.,40.));
#1164=CARTESIAN_POINT('',(185.,-25.,35.1));
#1165=CARTESIAN_POINT('',(185.,-30.,35.1));
#1166=CARTESIAN_POINT('',(185.,-25.,40.));
#1167=CARTESIAN_POINT('',(185.,7.50000029802322,40.));
#1168=CARTESIAN_POINT('',(185.,-25.,40.));
#1169=CARTESIAN_POINT('Origin',(350.,-25.,40.));
#1170=CARTESIAN_POINT('',(260.5,-25.,35.1));
#1171=CARTESIAN_POINT('',(260.5,-25.,40.));
#1172=CARTESIAN_POINT('Origin',(350.,40.0000005960464,-25.));
#1173=CARTESIAN_POINT('',(350.,35.1,25.));
#1174=CARTESIAN_POINT('',(350.,35.1,-25.));
#1175=CARTESIAN_POINT('',(350.,35.1,5.));
#1176=CARTESIAN_POINT('',(350.,40.0000005960464,25.));
#1177=CARTESIAN_POINT('',(350.,40.0000005960464,25.));
#1178=CARTESIAN_POINT('',(350.,40.0000005960464,-25.));
#1179=CARTESIAN_POINT('',(350.,40.0000005960464,-32.5000002980232));
#1180=CARTESIAN_POINT('',(350.,40.0000005960464,-25.));
#1181=CARTESIAN_POINT('Origin',(350.,40.0000005960464,-25.));
#1182=CARTESIAN_POINT('',(350.,-40.,25.));
#1183=CARTESIAN_POINT('',(350.,-40.,-25.));
#1184=CARTESIAN_POINT('',(350.,-40.,7.5));
#1185=CARTESIAN_POINT('',(350.,-35.1,25.));
#1186=CARTESIAN_POINT('',(350.,40.0000005960464,25.));
#1187=CARTESIAN_POINT('',(350.,-35.1,-25.));
#1188=CARTESIAN_POINT('',(350.,-35.1,-30.));
#1189=CARTESIAN_POINT('',(350.,40.0000005960464,-25.));
#1190=CARTESIAN_POINT('Origin',(350.,40.0000005960464,25.));
#1191=CARTESIAN_POINT('',(185.,35.1,25.));
#1192=CARTESIAN_POINT('',(260.5,35.1,25.));
#1193=CARTESIAN_POINT('',(185.,40.0000005960464,25.));
#1194=CARTESIAN_POINT('',(185.,40.0000005960464,25.));
#1195=CARTESIAN_POINT('',(260.5,40.0000005960464,25.));
#1196=CARTESIAN_POINT('Origin',(185.,40.0000005960464,-25.));
#1197=CARTESIAN_POINT('',(185.,35.1,-25.));
#1198=CARTESIAN_POINT('',(178.,35.1,-25.));
#1199=CARTESIAN_POINT('',(185.,40.0000005960464,-25.));
#1200=CARTESIAN_POINT('',(178.,40.0000005960464,-25.));
#1201=CARTESIAN_POINT('',(185.,40.0000005960464,-25.));
#1202=CARTESIAN_POINT('Origin',(185.,40.0000005960464,-25.));
#1203=CARTESIAN_POINT('',(185.,-40.,-25.));
#1204=CARTESIAN_POINT('',(178.,-40.,-25.));
#1205=CARTESIAN_POINT('',(185.,-35.1,-25.));
#1206=CARTESIAN_POINT('',(178.,-35.1,-25.));
#1207=CARTESIAN_POINT('',(185.,40.0000005960464,-25.));
#1208=CARTESIAN_POINT('Origin',(185.,40.0000005960464,25.));
#1209=CARTESIAN_POINT('',(185.,35.1,30.));
#1210=CARTESIAN_POINT('',(185.,40.0000005960464,-7.50000029802322));
#1211=CARTESIAN_POINT('Origin',(185.,40.0000005960464,25.));
#1212=CARTESIAN_POINT('',(185.,-40.,25.));
#1213=CARTESIAN_POINT('',(185.,-40.,32.5));
#1214=CARTESIAN_POINT('',(185.,-35.1,25.));
#1215=CARTESIAN_POINT('',(185.,-35.1,-5.));
#1216=CARTESIAN_POINT('',(185.,40.0000005960464,25.));
#1217=CARTESIAN_POINT('Origin',(350.,40.0000005960464,25.));
#1218=CARTESIAN_POINT('',(260.5,-40.,25.));
#1219=CARTESIAN_POINT('',(260.5,-35.1,25.));
#1220=CARTESIAN_POINT('Ctrl Pts',(171.,35.4500005960465,35.));
#1221=CARTESIAN_POINT('Ctrl Pts',(171.,35.4500005960465,35.45));
#1222=CARTESIAN_POINT('Ctrl Pts',(171.,35.0000005960464,35.45));
#1223=CARTESIAN_POINT('Ctrl Pts',(171.,40.0000005960464,35.));
#1224=CARTESIAN_POINT('Ctrl Pts',(171.,40.0000005960464,40.));
#1225=CARTESIAN_POINT('Ctrl Pts',(171.,35.0000005960464,40.));
#1226=CARTESIAN_POINT('Ctrl Pts',(175.55,40.0000005960464,35.));
#1227=CARTESIAN_POINT('Ctrl Pts',(175.55,40.0000005960464,40.));
#1228=CARTESIAN_POINT('Ctrl Pts',(175.55,35.0000005960464,40.));
#1229=CARTESIAN_POINT('',(171.,35.0000005960464,35.45));
#1230=CARTESIAN_POINT('',(175.55,35.0000005960464,40.));
#1231=CARTESIAN_POINT('Origin',(175.55,35.0000005960464,35.45));
#1232=CARTESIAN_POINT('',(175.55,40.0000005960464,35.));
#1233=CARTESIAN_POINT('Origin',(175.55,35.0000005960464,35.));
#1234=CARTESIAN_POINT('',(171.,35.4500005960465,35.));
#1235=CARTESIAN_POINT('Origin',(175.55,35.4500005960465,35.));
#1236=CARTESIAN_POINT('Origin',(171.,35.0000005960464,35.));
#1237=CARTESIAN_POINT('Origin',(171.,35.0000005960464,35.));
#1238=CARTESIAN_POINT('',(361.,35.0000005960464,40.));
#1239=CARTESIAN_POINT('',(361.,40.0000005960464,35.));
#1240=CARTESIAN_POINT('Origin',(361.,35.0000005960464,35.));
#1241=CARTESIAN_POINT('',(171.,40.0000005960464,35.));
#1242=CARTESIAN_POINT('',(171.,35.0000005960464,40.));
#1243=CARTESIAN_POINT('Origin',(175.55,35.4500005960465,-20.0000004470348));
#1244=CARTESIAN_POINT('',(175.55,40.0000005960464,-35.0000005960464));
#1245=CARTESIAN_POINT('',(175.55,40.0000005960464,-20.0000004470348));
#1246=CARTESIAN_POINT('',(171.,35.4500005960465,-35.0000005960464));
#1247=CARTESIAN_POINT('Origin',(175.55,35.4500005960465,-35.0000005960464));
#1248=CARTESIAN_POINT('',(171.,35.4500005960465,-20.0000004470348));
#1249=CARTESIAN_POINT('Origin',(171.,40.0000005960464,-40.0000005960464));
#1250=CARTESIAN_POINT('',(361.,40.0000005960464,-35.0000005960464));
#1251=CARTESIAN_POINT('',(361.,40.0000005960464,40.));
#1252=CARTESIAN_POINT('',(171.,40.0000005960464,-35.0000005960464));
#1253=CARTESIAN_POINT('Origin',(361.,2.98023223876953E-7,-2.98023223876953E-7));
#1254=CARTESIAN_POINT('',(361.,-35.,40.));
#1255=CARTESIAN_POINT('',(361.,-40.,40.));
#1256=CARTESIAN_POINT('',(361.,-40.,35.));
#1257=CARTESIAN_POINT('Origin',(361.,-35.,35.));
#1258=CARTESIAN_POINT('',(361.,-40.,-35.0000005960464));
#1259=CARTESIAN_POINT('',(361.,-40.,-40.0000005960464));
#1260=CARTESIAN_POINT('',(361.,-35.,-40.0000005960464));
#1261=CARTESIAN_POINT('Origin',(361.,-35.,-35.0000005960464));
#1262=CARTESIAN_POINT('',(361.,35.0000005960464,-40.0000005960464));
#1263=CARTESIAN_POINT('',(361.,40.0000005960464,-40.0000005960464));
#1264=CARTESIAN_POINT('Origin',(361.,35.0000005960464,-35.0000005960464));
#1265=CARTESIAN_POINT('',(361.,35.1,35.1));
#1266=CARTESIAN_POINT('',(361.,35.1,-35.1));
#1267=CARTESIAN_POINT('',(361.,35.1,-17.5000001490116));
#1268=CARTESIAN_POINT('',(361.,-35.1,-35.1));
#1269=CARTESIAN_POINT('',(361.,17.5000001490116,-35.1));
#1270=CARTESIAN_POINT('',(361.,-35.1,35.1));
#1271=CARTESIAN_POINT('',(361.,-35.1,-17.5000001490116));
#1272=CARTESIAN_POINT('',(361.,-17.4999998509884,35.1));
#1273=CARTESIAN_POINT('Ctrl Pts',(171.,-35.,35.45));
#1274=CARTESIAN_POINT('Ctrl Pts',(171.,-35.45,35.45));
#1275=CARTESIAN_POINT('Ctrl Pts',(171.,-35.45,35.));
#1276=CARTESIAN_POINT('Ctrl Pts',(171.,-35.,40.));
#1277=CARTESIAN_POINT('Ctrl Pts',(171.,-40.,40.));
#1278=CARTESIAN_POINT('Ctrl Pts',(171.,-40.,35.));
#1279=CARTESIAN_POINT('Ctrl Pts',(175.55,-35.,40.));
#1280=CARTESIAN_POINT('Ctrl Pts',(175.55,-40.,40.));
#1281=CARTESIAN_POINT('Ctrl Pts',(175.55,-40.,35.));
#1282=CARTESIAN_POINT('',(171.,-35.45,35.));
#1283=CARTESIAN_POINT('',(175.55,-40.,35.));
#1284=CARTESIAN_POINT('Origin',(175.55,-35.45,35.));
#1285=CARTESIAN_POINT('',(175.55,-35.,40.));
#1286=CARTESIAN_POINT('Origin',(175.55,-35.,35.));
#1287=CARTESIAN_POINT('',(171.,-35.,35.45));
#1288=CARTESIAN_POINT('Origin',(175.55,-35.,35.45));
#1289=CARTESIAN_POINT('Origin',(171.,-35.,35.));
#1290=CARTESIAN_POINT('Origin',(171.,-35.,35.));
#1291=CARTESIAN_POINT('',(171.,-35.,40.));
#1292=CARTESIAN_POINT('',(171.,-40.,35.));
#1293=CARTESIAN_POINT('Origin',(175.55,-35.45,19.9999998509884));
#1294=CARTESIAN_POINT('',(171.,-35.45,-35.0000005960464));
#1295=CARTESIAN_POINT('',(171.,-35.45,19.9999998509884));
#1296=CARTESIAN_POINT('',(175.55,-40.,-35.0000005960464));
#1297=CARTESIAN_POINT('Origin',(175.55,-35.45,-35.0000005960464));
#1298=CARTESIAN_POINT('',(175.55,-40.,19.9999998509884));
#1299=CARTESIAN_POINT('Origin',(171.,2.98023223876953E-7,-2.98023223876953E-7));
#1300=CARTESIAN_POINT('',(171.,35.0000005960464,-35.4500005960465));
#1301=CARTESIAN_POINT('Origin',(171.,35.0000005960464,-35.0000005960464));
#1302=CARTESIAN_POINT('',(171.,-35.,-35.4500005960465));
#1303=CARTESIAN_POINT('',(171.,-19.9999998509884,-35.4500005960465));
#1304=CARTESIAN_POINT('Origin',(171.,-35.,-35.0000005960464));
#1305=CARTESIAN_POINT('',(171.,20.0000004470348,35.45));
#1306=CARTESIAN_POINT('',(171.,35.1,-35.1));
#1307=CARTESIAN_POINT('',(171.,35.1,35.1));
#1308=CARTESIAN_POINT('',(171.,35.1,-17.5000001490116));
#1309=CARTESIAN_POINT('',(171.,-35.1,35.1));
#1310=CARTESIAN_POINT('',(171.,-17.4999998509884,35.1));
#1311=CARTESIAN_POINT('',(171.,-35.1,-35.1));
#1312=CARTESIAN_POINT('',(171.,-35.1,-17.5000001490116));
#1313=CARTESIAN_POINT('',(171.,17.5000001490116,-35.1));
#1314=CARTESIAN_POINT('Origin',(175.55,20.0000004470348,35.45));
#1315=CARTESIAN_POINT('',(175.55,20.0000004470348,40.));
#1316=CARTESIAN_POINT('Ctrl Pts',(171.,-35.45,-35.0000005960464));
#1317=CARTESIAN_POINT('Ctrl Pts',(171.,-35.45,-35.4500005960465));
#1318=CARTESIAN_POINT('Ctrl Pts',(171.,-35.,-35.4500005960465));
#1319=CARTESIAN_POINT('Ctrl Pts',(171.,-40.,-35.0000005960464));
#1320=CARTESIAN_POINT('Ctrl Pts',(171.,-40.,-40.0000005960464));
#1321=CARTESIAN_POINT('Ctrl Pts',(171.,-35.,-40.0000005960464));
#1322=CARTESIAN_POINT('Ctrl Pts',(175.55,-40.,-35.0000005960464));
#1323=CARTESIAN_POINT('Ctrl Pts',(175.55,-40.,-40.0000005960464));
#1324=CARTESIAN_POINT('Ctrl Pts',(175.55,-35.,-40.0000005960464));
#1325=CARTESIAN_POINT('',(175.55,-35.,-40.0000005960464));
#1326=CARTESIAN_POINT('Origin',(175.55,-35.,-35.4500005960465));
#1327=CARTESIAN_POINT('Origin',(175.55,-35.,-35.0000005960464));
#1328=CARTESIAN_POINT('Origin',(171.,-35.,-35.0000005960464));
#1329=CARTESIAN_POINT('',(171.,-40.,-35.0000005960464));
#1330=CARTESIAN_POINT('',(171.,-35.,-40.0000005960464));
#1331=CARTESIAN_POINT('Origin',(171.,-40.,40.));
#1332=CARTESIAN_POINT('Ctrl Pts',(171.,35.0000005960464,-35.4500005960465));
#1333=CARTESIAN_POINT('Ctrl Pts',(171.,35.4500005960465,-35.4500005960465));
#1334=CARTESIAN_POINT('Ctrl Pts',(171.,35.4500005960465,-35.0000005960464));
#1335=CARTESIAN_POINT('Ctrl Pts',(171.,35.0000005960464,-40.0000005960464));
#1336=CARTESIAN_POINT('Ctrl Pts',(171.,40.0000005960464,-40.0000005960464));
#1337=CARTESIAN_POINT('Ctrl Pts',(171.,40.0000005960464,-35.0000005960464));
#1338=CARTESIAN_POINT('Ctrl Pts',(175.55,35.0000005960464,-40.0000005960464));
#1339=CARTESIAN_POINT('Ctrl Pts',(175.55,40.0000005960464,-40.0000005960464));
#1340=CARTESIAN_POINT('Ctrl Pts',(175.55,40.0000005960464,-35.0000005960464));
#1341=CARTESIAN_POINT('',(175.55,35.0000005960464,-40.0000005960464));
#1342=CARTESIAN_POINT('Origin',(175.55,35.0000005960464,-35.0000005960464));
#1343=CARTESIAN_POINT('Origin',(175.55,35.0000005960464,-35.4500005960465));
#1344=CARTESIAN_POINT('Origin',(171.,35.0000005960464,-35.0000005960464));
#1345=CARTESIAN_POINT('',(171.,35.0000005960464,-40.0000005960464));
#1346=CARTESIAN_POINT('Origin',(175.55,-19.9999998509884,-35.4500005960465));
#1347=CARTESIAN_POINT('',(175.55,-19.9999998509884,-40.0000005960464));
#1348=CARTESIAN_POINT('Origin',(171.,-40.,-40.0000005960464));
#1349=CARTESIAN_POINT('Origin',(171.,35.,-35.1));
#1350=CARTESIAN_POINT('',(171.,-35.1,-35.1));
#1351=CARTESIAN_POINT('',(171.,35.1,-35.1));
#1352=CARTESIAN_POINT('Origin',(171.,-35.1,-35.));
#1353=CARTESIAN_POINT('',(171.,-35.1,35.1));
#1354=CARTESIAN_POINT('Origin',(171.,35.1,35.));
#1355=CARTESIAN_POINT('',(171.,35.1,35.1));
#1356=CARTESIAN_POINT('Origin',(171.,-35.,35.1));
#1357=CARTESIAN_POINT('Origin',(171.,40.0000005960464,40.));
#1358=UNCERTAINTY_MEASURE_WITH_UNIT(LENGTH_MEASURE(0.01),#1362,
'DISTANCE_ACCURACY_VALUE',
'Maximum model space distance between geometric entities at asserted c
onnectivities');
#1359=UNCERTAINTY_MEASURE_WITH_UNIT(LENGTH_MEASURE(0.01),#1362,
'DISTANCE_ACCURACY_VALUE',
'Maximum model space distance between geometric entities at asserted c
onnectivities');
#1360=(
GEOMETRIC_REPRESENTATION_CONTEXT(3)
GLOBAL_UNCERTAINTY_ASSIGNED_CONTEXT((#1358))
GLOBAL_UNIT_ASSIGNED_CONTEXT((#1362,#1363,#1364))
REPRESENTATION_CONTEXT('','3D')
);
#1361=(
GEOMETRIC_REPRESENTATION_CONTEXT(3)
GLOBAL_UNCERTAINTY_ASSIGNED_CONTEXT((#1359))
GLOBAL_UNIT_ASSIGNED_CONTEXT((#1362,#1363,#1364))
REPRESENTATION_CONTEXT('','3D')
);
#1362=(
LENGTH_UNIT()
NAMED_UNIT(*)
SI_UNIT(.MILLI.,.METRE.)
);
#1363=(
NAMED_UNIT(*)
PLANE_ANGLE_UNIT()
SI_UNIT($,.RADIAN.)
);
#1364=(
NAMED_UNIT(*)
SI_UNIT($,.STERADIAN.)
SOLID_ANGLE_UNIT()
);
#1365=SHAPE_DEFINITION_REPRESENTATION(#1366,#1367);
#1366=PRODUCT_DEFINITION_SHAPE('',$,#1369);
#1367=SHAPE_REPRESENTATION('',(#810),#1360);
#1368=PRODUCT_DEFINITION_CONTEXT('part definition',#1373,'design');
#1369=PRODUCT_DEFINITION('2026-07-21-18-37-04-393','Main Housing',#1370,
#1368);
#1370=PRODUCT_DEFINITION_FORMATION('',$,#1375);
#1371=PRODUCT_RELATED_PRODUCT_CATEGORY('Main Housing','Main Housing',(#1375));
#1372=APPLICATION_PROTOCOL_DEFINITION('international standard',
'automotive_design',2009,#1373);
#1373=APPLICATION_CONTEXT(
'Core Data for Automotive Mechanical Design Process');
#1374=PRODUCT_CONTEXT('part definition',#1373,'mechanical');
#1375=PRODUCT('2026-07-21-18-37-04-393','Main Housing',$,(#1374));
#1376=PRESENTATION_STYLE_ASSIGNMENT((#1377));
#1377=SURFACE_STYLE_USAGE(.BOTH.,#1378);
#1378=SURFACE_SIDE_STYLE('',(#1379));
#1379=SURFACE_STYLE_FILL_AREA(#1380);
#1380=FILL_AREA_STYLE('Steel - Satin',(#1381));
#1381=FILL_AREA_STYLE_COLOUR('Steel - Satin',#1382);
#1382=COLOUR_RGB('Steel - Satin',0.627450980392157,0.627450980392157,0.627450980392157);
ENDSEC;
END-ISO-10303-21;
