ISO-10303-21;
HEADER;
/* Generated by software containing ST-Developer
 * from STEP Tools, Inc. (www.steptools.com) 
 */

FILE_DESCRIPTION(
/* description */ (''),
/* implementation_level */ '2;1');

FILE_NAME(
/* name */ 'Carriage Legs.step',
/* time_stamp */ '2026-07-22T22:28:21-07:00',
/* author */ (''),
/* organization */ (''),
/* preprocessor_version */ 'ST-DEVELOPER v20.1',
/* originating_system */ 'Autodesk Translation Framework v15.8.0.0',
/* authorisation */ '');

FILE_SCHEMA (('AUTOMOTIVE_DESIGN { 1 0 10303 214 3 1 1 }'));
ENDSEC;

DATA;
#10=MECHANICAL_DESIGN_GEOMETRIC_PRESENTATION_REPRESENTATION('',(#13),#453);
#11=SHAPE_REPRESENTATION_RELATIONSHIP('SRR','None',#459,#12);
#12=ADVANCED_BREP_SHAPE_REPRESENTATION('',(#14),#452);
#13=STYLED_ITEM('',(#468),#14);
#14=MANIFOLD_SOLID_BREP('Carriage Legs',#273);
#15=FACE_BOUND('',#58,.T.);
#16=CIRCLE('',#281,5.);
#17=CIRCLE('',#282,5.);
#18=CIRCLE('',#284,5.);
#19=CIRCLE('',#285,5.);
#20=CIRCLE('',#286,5.);
#21=CIRCLE('',#289,5.);
#22=CIRCLE('',#291,5.);
#23=CIRCLE('',#294,5.);
#24=CYLINDRICAL_SURFACE('',#280,5.);
#25=CYLINDRICAL_SURFACE('',#288,5.);
#26=CYLINDRICAL_SURFACE('',#290,5.);
#27=CYLINDRICAL_SURFACE('',#293,5.);
#28=FACE_OUTER_BOUND('',#43,.T.);
#29=FACE_OUTER_BOUND('',#44,.T.);
#30=FACE_OUTER_BOUND('',#45,.T.);
#31=FACE_OUTER_BOUND('',#46,.T.);
#32=FACE_OUTER_BOUND('',#47,.T.);
#33=FACE_OUTER_BOUND('',#48,.T.);
#34=FACE_OUTER_BOUND('',#49,.T.);
#35=FACE_OUTER_BOUND('',#50,.T.);
#36=FACE_OUTER_BOUND('',#51,.T.);
#37=FACE_OUTER_BOUND('',#52,.T.);
#38=FACE_OUTER_BOUND('',#53,.T.);
#39=FACE_OUTER_BOUND('',#54,.T.);
#40=FACE_OUTER_BOUND('',#55,.T.);
#41=FACE_OUTER_BOUND('',#56,.T.);
#42=FACE_OUTER_BOUND('',#57,.T.);
#43=EDGE_LOOP('',(#175,#176,#177,#178));
#44=EDGE_LOOP('',(#179,#180,#181,#182));
#45=EDGE_LOOP('',(#183,#184,#185,#186));
#46=EDGE_LOOP('',(#187,#188,#189,#190));
#47=EDGE_LOOP('',(#191,#192,#193,#194));
#48=EDGE_LOOP('',(#195,#196,#197,#198));
#49=EDGE_LOOP('',(#199,#200,#201,#202,#203,#204,#205,#206));
#50=EDGE_LOOP('',(#207,#208,#209,#210));
#51=EDGE_LOOP('',(#211,#212,#213,#214));
#52=EDGE_LOOP('',(#215,#216,#217,#218));
#53=EDGE_LOOP('',(#219,#220,#221,#222));
#54=EDGE_LOOP('',(#223,#224,#225,#226));
#55=EDGE_LOOP('',(#227,#228,#229,#230));
#56=EDGE_LOOP('',(#231,#232,#233,#234));
#57=EDGE_LOOP('',(#235,#236,#237,#238,#239,#240,#241,#242));
#58=EDGE_LOOP('',(#243,#244,#245,#246));
#59=LINE('',#378,#87);
#60=LINE('',#380,#88);
#61=LINE('',#382,#89);
#62=LINE('',#383,#90);
#63=LINE('',#386,#91);
#64=LINE('',#388,#92);
#65=LINE('',#389,#93);
#66=LINE('',#392,#94);
#67=LINE('',#394,#95);
#68=LINE('',#395,#96);
#69=LINE('',#397,#97);
#70=LINE('',#398,#98);
#71=LINE('',#405,#99);
#72=LINE('',#408,#100);
#73=LINE('',#411,#101);
#74=LINE('',#415,#102);
#75=LINE('',#419,#103);
#76=LINE('',#422,#104);
#77=LINE('',#425,#105);
#78=LINE('',#426,#106);
#79=LINE('',#430,#107);
#80=LINE('',#435,#108);
#81=LINE('',#436,#109);
#82=LINE('',#439,#110);
#83=LINE('',#440,#111);
#84=LINE('',#444,#112);
#85=LINE('',#446,#113);
#86=LINE('',#448,#114);
#87=VECTOR('',#302,10.);
#88=VECTOR('',#303,10.);
#89=VECTOR('',#304,10.);
#90=VECTOR('',#305,10.);
#91=VECTOR('',#308,10.);
#92=VECTOR('',#309,10.);
#93=VECTOR('',#310,10.);
#94=VECTOR('',#313,10.);
#95=VECTOR('',#314,10.);
#96=VECTOR('',#315,10.);
#97=VECTOR('',#318,10.);
#98=VECTOR('',#319,10.);
#99=VECTOR('',#326,10.);
#100=VECTOR('',#329,10.);
#101=VECTOR('',#332,10.);
#102=VECTOR('',#335,10.);
#103=VECTOR('',#338,10.);
#104=VECTOR('',#341,10.);
#105=VECTOR('',#344,10.);
#106=VECTOR('',#345,10.);
#107=VECTOR('',#350,10.);
#108=VECTOR('',#355,10.);
#109=VECTOR('',#356,10.);
#110=VECTOR('',#359,10.);
#111=VECTOR('',#360,10.);
#112=VECTOR('',#365,10.);
#113=VECTOR('',#368,10.);
#114=VECTOR('',#371,10.);
#115=VERTEX_POINT('',#376);
#116=VERTEX_POINT('',#377);
#117=VERTEX_POINT('',#379);
#118=VERTEX_POINT('',#381);
#119=VERTEX_POINT('',#385);
#120=VERTEX_POINT('',#387);
#121=VERTEX_POINT('',#391);
#122=VERTEX_POINT('',#393);
#123=VERTEX_POINT('',#401);
#124=VERTEX_POINT('',#402);
#125=VERTEX_POINT('',#404);
#126=VERTEX_POINT('',#406);
#127=VERTEX_POINT('',#410);
#128=VERTEX_POINT('',#412);
#129=VERTEX_POINT('',#414);
#130=VERTEX_POINT('',#416);
#131=VERTEX_POINT('',#418);
#132=VERTEX_POINT('',#420);
#133=VERTEX_POINT('',#424);
#134=VERTEX_POINT('',#428);
#135=VERTEX_POINT('',#432);
#136=VERTEX_POINT('',#433);
#137=VERTEX_POINT('',#438);
#138=VERTEX_POINT('',#442);
#139=EDGE_CURVE('',#115,#116,#59,.T.);
#140=EDGE_CURVE('',#115,#117,#60,.T.);
#141=EDGE_CURVE('',#117,#118,#61,.T.);
#142=EDGE_CURVE('',#116,#118,#62,.T.);
#143=EDGE_CURVE('',#119,#115,#63,.T.);
#144=EDGE_CURVE('',#119,#120,#64,.T.);
#145=EDGE_CURVE('',#120,#117,#65,.T.);
#146=EDGE_CURVE('',#121,#119,#66,.T.);
#147=EDGE_CURVE('',#121,#122,#67,.T.);
#148=EDGE_CURVE('',#122,#120,#68,.T.);
#149=EDGE_CURVE('',#116,#121,#69,.T.);
#150=EDGE_CURVE('',#118,#122,#70,.T.);
#151=EDGE_CURVE('',#123,#124,#16,.T.);
#152=EDGE_CURVE('',#124,#125,#71,.T.);
#153=EDGE_CURVE('',#125,#126,#17,.T.);
#154=EDGE_CURVE('',#126,#123,#72,.T.);
#155=EDGE_CURVE('',#125,#127,#73,.T.);
#156=EDGE_CURVE('',#128,#127,#18,.T.);
#157=EDGE_CURVE('',#128,#129,#74,.T.);
#158=EDGE_CURVE('',#130,#129,#19,.T.);
#159=EDGE_CURVE('',#130,#131,#75,.T.);
#160=EDGE_CURVE('',#132,#131,#20,.T.);
#161=EDGE_CURVE('',#132,#126,#76,.T.);
#162=EDGE_CURVE('',#133,#124,#77,.T.);
#163=EDGE_CURVE('',#127,#133,#78,.T.);
#164=EDGE_CURVE('',#133,#134,#21,.T.);
#165=EDGE_CURVE('',#134,#128,#79,.T.);
#166=EDGE_CURVE('',#135,#136,#22,.T.);
#167=EDGE_CURVE('',#136,#132,#80,.T.);
#168=EDGE_CURVE('',#131,#135,#81,.T.);
#169=EDGE_CURVE('',#137,#130,#82,.T.);
#170=EDGE_CURVE('',#135,#137,#83,.T.);
#171=EDGE_CURVE('',#138,#137,#23,.T.);
#172=EDGE_CURVE('',#129,#138,#84,.T.);
#173=EDGE_CURVE('',#138,#134,#85,.T.);
#174=EDGE_CURVE('',#123,#136,#86,.T.);
#175=ORIENTED_EDGE('',*,*,#139,.F.);
#176=ORIENTED_EDGE('',*,*,#140,.T.);
#177=ORIENTED_EDGE('',*,*,#141,.T.);
#178=ORIENTED_EDGE('',*,*,#142,.F.);
#179=ORIENTED_EDGE('',*,*,#143,.F.);
#180=ORIENTED_EDGE('',*,*,#144,.T.);
#181=ORIENTED_EDGE('',*,*,#145,.T.);
#182=ORIENTED_EDGE('',*,*,#140,.F.);
#183=ORIENTED_EDGE('',*,*,#146,.F.);
#184=ORIENTED_EDGE('',*,*,#147,.T.);
#185=ORIENTED_EDGE('',*,*,#148,.T.);
#186=ORIENTED_EDGE('',*,*,#144,.F.);
#187=ORIENTED_EDGE('',*,*,#149,.F.);
#188=ORIENTED_EDGE('',*,*,#142,.T.);
#189=ORIENTED_EDGE('',*,*,#150,.T.);
#190=ORIENTED_EDGE('',*,*,#147,.F.);
#191=ORIENTED_EDGE('',*,*,#150,.F.);
#192=ORIENTED_EDGE('',*,*,#141,.F.);
#193=ORIENTED_EDGE('',*,*,#145,.F.);
#194=ORIENTED_EDGE('',*,*,#148,.F.);
#195=ORIENTED_EDGE('',*,*,#151,.T.);
#196=ORIENTED_EDGE('',*,*,#152,.T.);
#197=ORIENTED_EDGE('',*,*,#153,.T.);
#198=ORIENTED_EDGE('',*,*,#154,.T.);
#199=ORIENTED_EDGE('',*,*,#153,.F.);
#200=ORIENTED_EDGE('',*,*,#155,.T.);
#201=ORIENTED_EDGE('',*,*,#156,.F.);
#202=ORIENTED_EDGE('',*,*,#157,.T.);
#203=ORIENTED_EDGE('',*,*,#158,.F.);
#204=ORIENTED_EDGE('',*,*,#159,.T.);
#205=ORIENTED_EDGE('',*,*,#160,.F.);
#206=ORIENTED_EDGE('',*,*,#161,.T.);
#207=ORIENTED_EDGE('',*,*,#152,.F.);
#208=ORIENTED_EDGE('',*,*,#162,.F.);
#209=ORIENTED_EDGE('',*,*,#163,.F.);
#210=ORIENTED_EDGE('',*,*,#155,.F.);
#211=ORIENTED_EDGE('',*,*,#164,.T.);
#212=ORIENTED_EDGE('',*,*,#165,.T.);
#213=ORIENTED_EDGE('',*,*,#156,.T.);
#214=ORIENTED_EDGE('',*,*,#163,.T.);
#215=ORIENTED_EDGE('',*,*,#166,.T.);
#216=ORIENTED_EDGE('',*,*,#167,.T.);
#217=ORIENTED_EDGE('',*,*,#160,.T.);
#218=ORIENTED_EDGE('',*,*,#168,.T.);
#219=ORIENTED_EDGE('',*,*,#168,.F.);
#220=ORIENTED_EDGE('',*,*,#159,.F.);
#221=ORIENTED_EDGE('',*,*,#169,.F.);
#222=ORIENTED_EDGE('',*,*,#170,.F.);
#223=ORIENTED_EDGE('',*,*,#171,.T.);
#224=ORIENTED_EDGE('',*,*,#169,.T.);
#225=ORIENTED_EDGE('',*,*,#158,.T.);
#226=ORIENTED_EDGE('',*,*,#172,.T.);
#227=ORIENTED_EDGE('',*,*,#165,.F.);
#228=ORIENTED_EDGE('',*,*,#173,.F.);
#229=ORIENTED_EDGE('',*,*,#172,.F.);
#230=ORIENTED_EDGE('',*,*,#157,.F.);
#231=ORIENTED_EDGE('',*,*,#154,.F.);
#232=ORIENTED_EDGE('',*,*,#161,.F.);
#233=ORIENTED_EDGE('',*,*,#167,.F.);
#234=ORIENTED_EDGE('',*,*,#174,.F.);
#235=ORIENTED_EDGE('',*,*,#151,.F.);
#236=ORIENTED_EDGE('',*,*,#174,.T.);
#237=ORIENTED_EDGE('',*,*,#166,.F.);
#238=ORIENTED_EDGE('',*,*,#170,.T.);
#239=ORIENTED_EDGE('',*,*,#171,.F.);
#240=ORIENTED_EDGE('',*,*,#173,.T.);
#241=ORIENTED_EDGE('',*,*,#164,.F.);
#242=ORIENTED_EDGE('',*,*,#162,.T.);
#243=ORIENTED_EDGE('',*,*,#139,.T.);
#244=ORIENTED_EDGE('',*,*,#149,.T.);
#245=ORIENTED_EDGE('',*,*,#146,.T.);
#246=ORIENTED_EDGE('',*,*,#143,.T.);
#247=PLANE('',#275);
#248=PLANE('',#276);
#249=PLANE('',#277);
#250=PLANE('',#278);
#251=PLANE('',#279);
#252=PLANE('',#283);
#253=PLANE('',#287);
#254=PLANE('',#292);
#255=PLANE('',#295);
#256=PLANE('',#296);
#257=PLANE('',#297);
#258=ADVANCED_FACE('',(#28),#247,.F.);
#259=ADVANCED_FACE('',(#29),#248,.F.);
#260=ADVANCED_FACE('',(#30),#249,.F.);
#261=ADVANCED_FACE('',(#31),#250,.F.);
#262=ADVANCED_FACE('',(#32),#251,.F.);
#263=ADVANCED_FACE('',(#33),#24,.T.);
#264=ADVANCED_FACE('',(#34),#252,.F.);
#265=ADVANCED_FACE('',(#35),#253,.T.);
#266=ADVANCED_FACE('',(#36),#25,.T.);
#267=ADVANCED_FACE('',(#37),#26,.T.);
#268=ADVANCED_FACE('',(#38),#254,.T.);
#269=ADVANCED_FACE('',(#39),#27,.T.);
#270=ADVANCED_FACE('',(#40),#255,.T.);
#271=ADVANCED_FACE('',(#41),#256,.T.);
#272=ADVANCED_FACE('',(#42,#15),#257,.T.);
#273=CLOSED_SHELL('',(#258,#259,#260,#261,#262,#263,#264,#265,#266,#267,
#268,#269,#270,#271,#272));
#274=AXIS2_PLACEMENT_3D('',#374,#298,#299);
#275=AXIS2_PLACEMENT_3D('',#375,#300,#301);
#276=AXIS2_PLACEMENT_3D('',#384,#306,#307);
#277=AXIS2_PLACEMENT_3D('',#390,#311,#312);
#278=AXIS2_PLACEMENT_3D('',#396,#316,#317);
#279=AXIS2_PLACEMENT_3D('',#399,#320,#321);
#280=AXIS2_PLACEMENT_3D('',#400,#322,#323);
#281=AXIS2_PLACEMENT_3D('',#403,#324,#325);
#282=AXIS2_PLACEMENT_3D('',#407,#327,#328);
#283=AXIS2_PLACEMENT_3D('',#409,#330,#331);
#284=AXIS2_PLACEMENT_3D('',#413,#333,#334);
#285=AXIS2_PLACEMENT_3D('',#417,#336,#337);
#286=AXIS2_PLACEMENT_3D('',#421,#339,#340);
#287=AXIS2_PLACEMENT_3D('',#423,#342,#343);
#288=AXIS2_PLACEMENT_3D('',#427,#346,#347);
#289=AXIS2_PLACEMENT_3D('',#429,#348,#349);
#290=AXIS2_PLACEMENT_3D('',#431,#351,#352);
#291=AXIS2_PLACEMENT_3D('',#434,#353,#354);
#292=AXIS2_PLACEMENT_3D('',#437,#357,#358);
#293=AXIS2_PLACEMENT_3D('',#441,#361,#362);
#294=AXIS2_PLACEMENT_3D('',#443,#363,#364);
#295=AXIS2_PLACEMENT_3D('',#445,#366,#367);
#296=AXIS2_PLACEMENT_3D('',#447,#369,#370);
#297=AXIS2_PLACEMENT_3D('',#449,#372,#373);
#298=DIRECTION('axis',(0.,0.,1.));
#299=DIRECTION('refdir',(1.,0.,0.));
#300=DIRECTION('center_axis',(-1.,0.,0.));
#301=DIRECTION('ref_axis',(0.,-1.,0.));
#302=DIRECTION('',(0.,-1.,0.));
#303=DIRECTION('',(0.,0.,1.));
#304=DIRECTION('',(0.,-1.,0.));
#305=DIRECTION('',(0.,0.,1.));
#306=DIRECTION('center_axis',(0.,1.,0.));
#307=DIRECTION('ref_axis',(-1.,0.,0.));
#308=DIRECTION('',(-1.,0.,0.));
#309=DIRECTION('',(0.,0.,1.));
#310=DIRECTION('',(-1.,0.,0.));
#311=DIRECTION('center_axis',(1.,0.,0.));
#312=DIRECTION('ref_axis',(0.,1.,0.));
#313=DIRECTION('',(0.,1.,0.));
#314=DIRECTION('',(0.,0.,1.));
#315=DIRECTION('',(0.,1.,0.));
#316=DIRECTION('center_axis',(0.,-1.,0.));
#317=DIRECTION('ref_axis',(1.,0.,0.));
#318=DIRECTION('',(1.,0.,0.));
#319=DIRECTION('',(1.,0.,0.));
#320=DIRECTION('center_axis',(0.,0.,1.));
#321=DIRECTION('ref_axis',(1.,0.,0.));
#322=DIRECTION('center_axis',(0.,0.,-1.));
#323=DIRECTION('ref_axis',(-0.707106781186547,0.707106781186547,0.));
#324=DIRECTION('center_axis',(0.,0.,1.));
#325=DIRECTION('ref_axis',(-0.707106781186547,0.707106781186547,0.));
#326=DIRECTION('',(0.,0.,1.));
#327=DIRECTION('center_axis',(0.,0.,-1.));
#328=DIRECTION('ref_axis',(-0.707106781186547,0.707106781186547,0.));
#329=DIRECTION('',(0.,0.,-1.));
#330=DIRECTION('center_axis',(0.,0.,-1.));
#331=DIRECTION('ref_axis',(1.,0.,0.));
#332=DIRECTION('',(0.,-1.,0.));
#333=DIRECTION('center_axis',(0.,0.,-1.));
#334=DIRECTION('ref_axis',(-0.707106781186547,-0.707106781186547,0.));
#335=DIRECTION('',(1.,0.,0.));
#336=DIRECTION('center_axis',(0.,0.,-1.));
#337=DIRECTION('ref_axis',(0.707106781186547,-0.707106781186547,0.));
#338=DIRECTION('',(0.,1.,0.));
#339=DIRECTION('center_axis',(0.,0.,-1.));
#340=DIRECTION('ref_axis',(0.707106781186547,0.707106781186547,0.));
#341=DIRECTION('',(-1.,0.,0.));
#342=DIRECTION('center_axis',(-1.,0.,0.));
#343=DIRECTION('ref_axis',(0.,1.,0.));
#344=DIRECTION('',(0.,1.,0.));
#345=DIRECTION('',(0.,0.,-1.));
#346=DIRECTION('center_axis',(0.,0.,-1.));
#347=DIRECTION('ref_axis',(-0.707106781186547,-0.707106781186547,0.));
#348=DIRECTION('center_axis',(0.,0.,1.));
#349=DIRECTION('ref_axis',(-0.707106781186547,-0.707106781186547,0.));
#350=DIRECTION('',(0.,0.,1.));
#351=DIRECTION('center_axis',(0.,0.,-1.));
#352=DIRECTION('ref_axis',(0.707106781186547,0.707106781186547,0.));
#353=DIRECTION('center_axis',(0.,0.,1.));
#354=DIRECTION('ref_axis',(0.707106781186547,0.707106781186547,0.));
#355=DIRECTION('',(0.,0.,1.));
#356=DIRECTION('',(0.,0.,-1.));
#357=DIRECTION('center_axis',(1.,0.,0.));
#358=DIRECTION('ref_axis',(0.,-1.,0.));
#359=DIRECTION('',(0.,0.,1.));
#360=DIRECTION('',(0.,-1.,0.));
#361=DIRECTION('center_axis',(0.,0.,-1.));
#362=DIRECTION('ref_axis',(0.707106781186547,-0.707106781186547,0.));
#363=DIRECTION('center_axis',(0.,0.,1.));
#364=DIRECTION('ref_axis',(0.707106781186547,-0.707106781186547,0.));
#365=DIRECTION('',(0.,0.,-1.));
#366=DIRECTION('center_axis',(0.,-1.,0.));
#367=DIRECTION('ref_axis',(-1.,0.,0.));
#368=DIRECTION('',(-1.,0.,0.));
#369=DIRECTION('center_axis',(0.,1.,0.));
#370=DIRECTION('ref_axis',(1.,0.,0.));
#371=DIRECTION('',(1.,0.,0.));
#372=DIRECTION('center_axis',(0.,0.,-1.));
#373=DIRECTION('ref_axis',(-1.,0.,0.));
#374=CARTESIAN_POINT('',(0.,0.,0.));
#375=CARTESIAN_POINT('Origin',(255.,20.,-118.000000596046));
#376=CARTESIAN_POINT('',(255.,20.,-118.000000596046));
#377=CARTESIAN_POINT('',(255.,-20.,-118.000000596046));
#378=CARTESIAN_POINT('',(255.,10.,-118.000000596046));
#379=CARTESIAN_POINT('',(255.,20.,-48.0000005960464));
#380=CARTESIAN_POINT('',(255.,20.,-118.000000596046));
#381=CARTESIAN_POINT('',(255.,-20.,-48.0000005960464));
#382=CARTESIAN_POINT('',(255.,20.,-48.0000005960464));
#383=CARTESIAN_POINT('',(255.,-20.,-118.000000596046));
#384=CARTESIAN_POINT('Origin',(280.,20.,-118.000000596046));
#385=CARTESIAN_POINT('',(280.,20.,-118.000000596046));
#386=CARTESIAN_POINT('',(273.75,20.,-118.000000596046));
#387=CARTESIAN_POINT('',(280.,20.,-48.0000005960464));
#388=CARTESIAN_POINT('',(280.,20.,-118.000000596046));
#389=CARTESIAN_POINT('',(280.,20.,-48.0000005960464));
#390=CARTESIAN_POINT('Origin',(280.,-20.,-118.000000596046));
#391=CARTESIAN_POINT('',(280.,-20.,-118.000000596046));
#392=CARTESIAN_POINT('',(280.,-10.,-118.000000596046));
#393=CARTESIAN_POINT('',(280.,-20.,-48.0000005960464));
#394=CARTESIAN_POINT('',(280.,-20.,-118.000000596046));
#395=CARTESIAN_POINT('',(280.,-20.,-48.0000005960464));
#396=CARTESIAN_POINT('Origin',(255.,-20.,-118.000000596046));
#397=CARTESIAN_POINT('',(261.25,-20.,-118.000000596046));
#398=CARTESIAN_POINT('',(255.,-20.,-48.0000005960464));
#399=CARTESIAN_POINT('Origin',(267.5,0.,-48.0000005960464));
#400=CARTESIAN_POINT('Origin',(255.,20.,-38.0000005960464));
#401=CARTESIAN_POINT('',(255.,25.,-118.000000596046));
#402=CARTESIAN_POINT('',(250.,20.,-118.000000596046));
#403=CARTESIAN_POINT('Origin',(255.,20.,-118.000000596046));
#404=CARTESIAN_POINT('',(250.,20.,-38.0000005960464));
#405=CARTESIAN_POINT('',(250.,20.,-38.0000005960464));
#406=CARTESIAN_POINT('',(255.,25.,-38.0000005960464));
#407=CARTESIAN_POINT('Origin',(255.,20.,-38.0000005960464));
#408=CARTESIAN_POINT('',(255.,25.,-38.0000005960464));
#409=CARTESIAN_POINT('Origin',(267.5,0.,-38.0000005960464));
#410=CARTESIAN_POINT('',(250.,-20.,-38.0000005960464));
#411=CARTESIAN_POINT('',(250.,25.,-38.0000005960464));
#412=CARTESIAN_POINT('',(255.,-25.,-38.0000005960464));
#413=CARTESIAN_POINT('Origin',(255.,-20.,-38.0000005960464));
#414=CARTESIAN_POINT('',(280.,-25.,-38.0000005960464));
#415=CARTESIAN_POINT('',(250.,-25.,-38.0000005960464));
#416=CARTESIAN_POINT('',(285.,-20.,-38.0000005960464));
#417=CARTESIAN_POINT('Origin',(280.,-20.,-38.0000005960464));
#418=CARTESIAN_POINT('',(285.,20.,-38.0000005960464));
#419=CARTESIAN_POINT('',(285.,-25.,-38.0000005960464));
#420=CARTESIAN_POINT('',(280.,25.,-38.0000005960464));
#421=CARTESIAN_POINT('Origin',(280.,20.,-38.0000005960464));
#422=CARTESIAN_POINT('',(285.,25.,-38.0000005960464));
#423=CARTESIAN_POINT('Origin',(250.,-25.,-38.0000005960464));
#424=CARTESIAN_POINT('',(250.,-20.,-118.000000596046));
#425=CARTESIAN_POINT('',(250.,25.,-118.000000596046));
#426=CARTESIAN_POINT('',(250.,-20.,-38.0000005960464));
#427=CARTESIAN_POINT('Origin',(255.,-20.,-38.0000005960464));
#428=CARTESIAN_POINT('',(255.,-25.,-118.000000596046));
#429=CARTESIAN_POINT('Origin',(255.,-20.,-118.000000596046));
#430=CARTESIAN_POINT('',(255.,-25.,-38.0000005960464));
#431=CARTESIAN_POINT('Origin',(280.,20.,-38.0000005960464));
#432=CARTESIAN_POINT('',(285.,20.,-118.000000596046));
#433=CARTESIAN_POINT('',(280.,25.,-118.000000596046));
#434=CARTESIAN_POINT('Origin',(280.,20.,-118.000000596046));
#435=CARTESIAN_POINT('',(280.,25.,-38.0000005960464));
#436=CARTESIAN_POINT('',(285.,20.,-38.0000005960464));
#437=CARTESIAN_POINT('Origin',(285.,25.,-38.0000005960464));
#438=CARTESIAN_POINT('',(285.,-20.,-118.000000596046));
#439=CARTESIAN_POINT('',(285.,-20.,-38.0000005960464));
#440=CARTESIAN_POINT('',(285.,-25.,-118.000000596046));
#441=CARTESIAN_POINT('Origin',(280.,-20.,-38.0000005960464));
#442=CARTESIAN_POINT('',(280.,-25.,-118.000000596046));
#443=CARTESIAN_POINT('Origin',(280.,-20.,-118.000000596046));
#444=CARTESIAN_POINT('',(280.,-25.,-38.0000005960464));
#445=CARTESIAN_POINT('Origin',(285.,-25.,-38.0000005960464));
#446=CARTESIAN_POINT('',(250.,-25.,-118.000000596046));
#447=CARTESIAN_POINT('Origin',(250.,25.,-38.0000005960464));
#448=CARTESIAN_POINT('',(285.,25.,-118.000000596046));
#449=CARTESIAN_POINT('Origin',(267.5,0.,-118.000000596046));
#450=UNCERTAINTY_MEASURE_WITH_UNIT(LENGTH_MEASURE(0.01),#454,
'DISTANCE_ACCURACY_VALUE',
'Maximum model space distance between geometric entities at asserted c
onnectivities');
#451=UNCERTAINTY_MEASURE_WITH_UNIT(LENGTH_MEASURE(0.01),#454,
'DISTANCE_ACCURACY_VALUE',
'Maximum model space distance between geometric entities at asserted c
onnectivities');
#452=(
GEOMETRIC_REPRESENTATION_CONTEXT(3)
GLOBAL_UNCERTAINTY_ASSIGNED_CONTEXT((#450))
GLOBAL_UNIT_ASSIGNED_CONTEXT((#454,#455,#456))
REPRESENTATION_CONTEXT('','3D')
);
#453=(
GEOMETRIC_REPRESENTATION_CONTEXT(3)
GLOBAL_UNCERTAINTY_ASSIGNED_CONTEXT((#451))
GLOBAL_UNIT_ASSIGNED_CONTEXT((#454,#455,#456))
REPRESENTATION_CONTEXT('','3D')
);
#454=(
LENGTH_UNIT()
NAMED_UNIT(*)
SI_UNIT(.MILLI.,.METRE.)
);
#455=(
NAMED_UNIT(*)
PLANE_ANGLE_UNIT()
SI_UNIT($,.RADIAN.)
);
#456=(
NAMED_UNIT(*)
SI_UNIT($,.STERADIAN.)
SOLID_ANGLE_UNIT()
);
#457=SHAPE_DEFINITION_REPRESENTATION(#458,#459);
#458=PRODUCT_DEFINITION_SHAPE('',$,#461);
#459=SHAPE_REPRESENTATION('',(#274),#452);
#460=PRODUCT_DEFINITION_CONTEXT('part definition',#465,'design');
#461=PRODUCT_DEFINITION('2026-07-21-18-37-04-393','Main Housing',#462,#460);
#462=PRODUCT_DEFINITION_FORMATION('',$,#467);
#463=PRODUCT_RELATED_PRODUCT_CATEGORY('Main Housing','Main Housing',(#467));
#464=APPLICATION_PROTOCOL_DEFINITION('international standard',
'automotive_design',2009,#465);
#465=APPLICATION_CONTEXT(
'Core Data for Automotive Mechanical Design Process');
#466=PRODUCT_CONTEXT('part definition',#465,'mechanical');
#467=PRODUCT('2026-07-21-18-37-04-393','Main Housing',$,(#466));
#468=PRESENTATION_STYLE_ASSIGNMENT((#469));
#469=SURFACE_STYLE_USAGE(.BOTH.,#470);
#470=SURFACE_SIDE_STYLE('',(#471));
#471=SURFACE_STYLE_FILL_AREA(#472);
#472=FILL_AREA_STYLE('Steel - Satin',(#473));
#473=FILL_AREA_STYLE_COLOUR('Steel - Satin',#474);
#474=COLOUR_RGB('Steel - Satin',0.627450980392157,0.627450980392157,0.627450980392157);
ENDSEC;
END-ISO-10303-21;
