ISO-10303-21;
HEADER;
/* Generated by software containing ST-Developer
 * from STEP Tools, Inc. (www.steptools.com) 
 */

FILE_DESCRIPTION(
/* description */ (''),
/* implementation_level */ '2;1');

FILE_NAME(
/* name */ 'Inlet Transition.step',
/* time_stamp */ '2026-07-22T22:26:32-07:00',
/* author */ (''),
/* organization */ (''),
/* preprocessor_version */ 'ST-DEVELOPER v20.1',
/* originating_system */ 'Autodesk Translation Framework v15.8.0.0',
/* authorisation */ '');

FILE_SCHEMA (('AUTOMOTIVE_DESIGN { 1 0 10303 214 3 1 1 }'));
ENDSEC;

DATA;
#10=MECHANICAL_DESIGN_GEOMETRIC_PRESENTATION_REPRESENTATION('',(#13),#447);
#11=SHAPE_REPRESENTATION_RELATIONSHIP('SRR','None',#453,#12);
#12=ADVANCED_BREP_SHAPE_REPRESENTATION('',(#14),#446);
#13=STYLED_ITEM('',(#462),#14);
#14=MANIFOLD_SOLID_BREP('Inlet Transition',#271);
#15=FACE_BOUND('',#44,.T.);
#16=FACE_BOUND('',#56,.T.);
#17=PLANE('',#276);
#18=PLANE('',#277);
#19=PLANE('',#283);
#20=PLANE('',#288);
#21=PLANE('',#289);
#22=PLANE('',#290);
#23=PLANE('',#291);
#24=PLANE('',#292);
#25=PLANE('',#293);
#26=PLANE('',#294);
#27=FACE_OUTER_BOUND('',#41,.T.);
#28=FACE_OUTER_BOUND('',#42,.T.);
#29=FACE_OUTER_BOUND('',#43,.T.);
#30=FACE_OUTER_BOUND('',#45,.T.);
#31=FACE_OUTER_BOUND('',#46,.T.);
#32=FACE_OUTER_BOUND('',#47,.T.);
#33=FACE_OUTER_BOUND('',#48,.T.);
#34=FACE_OUTER_BOUND('',#49,.T.);
#35=FACE_OUTER_BOUND('',#50,.T.);
#36=FACE_OUTER_BOUND('',#51,.T.);
#37=FACE_OUTER_BOUND('',#52,.T.);
#38=FACE_OUTER_BOUND('',#53,.T.);
#39=FACE_OUTER_BOUND('',#54,.T.);
#40=FACE_OUTER_BOUND('',#55,.T.);
#41=EDGE_LOOP('',(#181,#182,#183,#184));
#42=EDGE_LOOP('',(#185,#186,#187,#188));
#43=EDGE_LOOP('',(#189,#190,#191,#192,#193,#194,#195,#196));
#44=EDGE_LOOP('',(#197,#198,#199,#200));
#45=EDGE_LOOP('',(#201,#202,#203,#204));
#46=EDGE_LOOP('',(#205,#206,#207,#208));
#47=EDGE_LOOP('',(#209,#210,#211,#212));
#48=EDGE_LOOP('',(#213,#214,#215,#216));
#49=EDGE_LOOP('',(#217,#218,#219,#220));
#50=EDGE_LOOP('',(#221,#222,#223,#224));
#51=EDGE_LOOP('',(#225,#226,#227,#228));
#52=EDGE_LOOP('',(#229,#230,#231,#232));
#53=EDGE_LOOP('',(#233,#234,#235,#236));
#54=EDGE_LOOP('',(#237,#238,#239,#240));
#55=EDGE_LOOP('',(#241,#242,#243,#244,#245,#246,#247,#248));
#56=EDGE_LOOP('',(#249,#250,#251,#252));
#57=LINE('',#375,#85);
#58=LINE('',#378,#86);
#59=LINE('',#381,#87);
#60=LINE('',#383,#88);
#61=LINE('',#384,#89);
#62=LINE('',#387,#90);
#63=LINE('',#391,#91);
#64=LINE('',#395,#92);
#65=LINE('',#399,#93);
#66=LINE('',#401,#94);
#67=LINE('',#403,#95);
#68=LINE('',#404,#96);
#69=LINE('',#409,#97);
#70=LINE('',#410,#98);
#71=LINE('',#413,#99);
#72=LINE('',#414,#100);
#73=LINE('',#418,#101);
#74=LINE('',#422,#102);
#75=LINE('',#425,#103);
#76=LINE('',#427,#104);
#77=LINE('',#428,#105);
#78=LINE('',#431,#106);
#79=LINE('',#432,#107);
#80=LINE('',#435,#108);
#81=LINE('',#436,#109);
#82=LINE('',#438,#110);
#83=LINE('',#440,#111);
#84=LINE('',#442,#112);
#85=VECTOR('',#301,10.);
#86=VECTOR('',#304,10.);
#87=VECTOR('',#307,10.);
#88=VECTOR('',#308,10.);
#89=VECTOR('',#309,10.);
#90=VECTOR('',#312,10.);
#91=VECTOR('',#315,10.);
#92=VECTOR('',#318,10.);
#93=VECTOR('',#321,10.);
#94=VECTOR('',#322,10.);
#95=VECTOR('',#323,10.);
#96=VECTOR('',#324,10.);
#97=VECTOR('',#329,10.);
#98=VECTOR('',#330,10.);
#99=VECTOR('',#333,10.);
#100=VECTOR('',#334,10.);
#101=VECTOR('',#339,10.);
#102=VECTOR('',#344,10.);
#103=VECTOR('',#347,10.);
#104=VECTOR('',#348,10.);
#105=VECTOR('',#349,10.);
#106=VECTOR('',#352,10.);
#107=VECTOR('',#353,10.);
#108=VECTOR('',#356,10.);
#109=VECTOR('',#357,10.);
#110=VECTOR('',#360,10.);
#111=VECTOR('',#363,10.);
#112=VECTOR('',#366,10.);
#113=CIRCLE('',#274,5.);
#114=CIRCLE('',#275,5.);
#115=CIRCLE('',#278,5.);
#116=CIRCLE('',#279,5.);
#117=CIRCLE('',#280,5.);
#118=CIRCLE('',#282,5.);
#119=CIRCLE('',#285,5.);
#120=CIRCLE('',#287,5.);
#121=VERTEX_POINT('',#371);
#122=VERTEX_POINT('',#372);
#123=VERTEX_POINT('',#374);
#124=VERTEX_POINT('',#376);
#125=VERTEX_POINT('',#380);
#126=VERTEX_POINT('',#382);
#127=VERTEX_POINT('',#386);
#128=VERTEX_POINT('',#388);
#129=VERTEX_POINT('',#390);
#130=VERTEX_POINT('',#392);
#131=VERTEX_POINT('',#394);
#132=VERTEX_POINT('',#397);
#133=VERTEX_POINT('',#398);
#134=VERTEX_POINT('',#400);
#135=VERTEX_POINT('',#402);
#136=VERTEX_POINT('',#406);
#137=VERTEX_POINT('',#407);
#138=VERTEX_POINT('',#412);
#139=VERTEX_POINT('',#416);
#140=VERTEX_POINT('',#420);
#141=VERTEX_POINT('',#424);
#142=VERTEX_POINT('',#426);
#143=VERTEX_POINT('',#430);
#144=VERTEX_POINT('',#434);
#145=EDGE_CURVE('',#121,#122,#113,.T.);
#146=EDGE_CURVE('',#122,#123,#57,.T.);
#147=EDGE_CURVE('',#123,#124,#114,.T.);
#148=EDGE_CURVE('',#124,#121,#58,.T.);
#149=EDGE_CURVE('',#124,#125,#59,.T.);
#150=EDGE_CURVE('',#126,#125,#60,.T.);
#151=EDGE_CURVE('',#121,#126,#61,.T.);
#152=EDGE_CURVE('',#127,#123,#62,.T.);
#153=EDGE_CURVE('',#128,#127,#115,.T.);
#154=EDGE_CURVE('',#129,#128,#63,.T.);
#155=EDGE_CURVE('',#130,#129,#116,.T.);
#156=EDGE_CURVE('',#131,#130,#64,.T.);
#157=EDGE_CURVE('',#125,#131,#117,.T.);
#158=EDGE_CURVE('',#132,#133,#65,.T.);
#159=EDGE_CURVE('',#134,#132,#66,.T.);
#160=EDGE_CURVE('',#135,#134,#67,.T.);
#161=EDGE_CURVE('',#133,#135,#68,.T.);
#162=EDGE_CURVE('',#136,#137,#118,.T.);
#163=EDGE_CURVE('',#137,#128,#69,.T.);
#164=EDGE_CURVE('',#127,#136,#70,.T.);
#165=EDGE_CURVE('',#138,#137,#71,.T.);
#166=EDGE_CURVE('',#129,#138,#72,.T.);
#167=EDGE_CURVE('',#138,#139,#119,.T.);
#168=EDGE_CURVE('',#139,#130,#73,.T.);
#169=EDGE_CURVE('',#140,#126,#120,.T.);
#170=EDGE_CURVE('',#131,#140,#74,.T.);
#171=EDGE_CURVE('',#132,#141,#75,.T.);
#172=EDGE_CURVE('',#142,#141,#76,.T.);
#173=EDGE_CURVE('',#134,#142,#77,.T.);
#174=EDGE_CURVE('',#143,#142,#78,.T.);
#175=EDGE_CURVE('',#135,#143,#79,.T.);
#176=EDGE_CURVE('',#144,#143,#80,.T.);
#177=EDGE_CURVE('',#133,#144,#81,.T.);
#178=EDGE_CURVE('',#141,#144,#82,.T.);
#179=EDGE_CURVE('',#140,#139,#83,.T.);
#180=EDGE_CURVE('',#136,#122,#84,.T.);
#181=ORIENTED_EDGE('',*,*,#145,.T.);
#182=ORIENTED_EDGE('',*,*,#146,.T.);
#183=ORIENTED_EDGE('',*,*,#147,.T.);
#184=ORIENTED_EDGE('',*,*,#148,.T.);
#185=ORIENTED_EDGE('',*,*,#148,.F.);
#186=ORIENTED_EDGE('',*,*,#149,.T.);
#187=ORIENTED_EDGE('',*,*,#150,.F.);
#188=ORIENTED_EDGE('',*,*,#151,.F.);
#189=ORIENTED_EDGE('',*,*,#147,.F.);
#190=ORIENTED_EDGE('',*,*,#152,.F.);
#191=ORIENTED_EDGE('',*,*,#153,.F.);
#192=ORIENTED_EDGE('',*,*,#154,.F.);
#193=ORIENTED_EDGE('',*,*,#155,.F.);
#194=ORIENTED_EDGE('',*,*,#156,.F.);
#195=ORIENTED_EDGE('',*,*,#157,.F.);
#196=ORIENTED_EDGE('',*,*,#149,.F.);
#197=ORIENTED_EDGE('',*,*,#158,.F.);
#198=ORIENTED_EDGE('',*,*,#159,.F.);
#199=ORIENTED_EDGE('',*,*,#160,.F.);
#200=ORIENTED_EDGE('',*,*,#161,.F.);
#201=ORIENTED_EDGE('',*,*,#162,.T.);
#202=ORIENTED_EDGE('',*,*,#163,.T.);
#203=ORIENTED_EDGE('',*,*,#153,.T.);
#204=ORIENTED_EDGE('',*,*,#164,.T.);
#205=ORIENTED_EDGE('',*,*,#163,.F.);
#206=ORIENTED_EDGE('',*,*,#165,.F.);
#207=ORIENTED_EDGE('',*,*,#166,.F.);
#208=ORIENTED_EDGE('',*,*,#154,.T.);
#209=ORIENTED_EDGE('',*,*,#167,.T.);
#210=ORIENTED_EDGE('',*,*,#168,.T.);
#211=ORIENTED_EDGE('',*,*,#155,.T.);
#212=ORIENTED_EDGE('',*,*,#166,.T.);
#213=ORIENTED_EDGE('',*,*,#169,.T.);
#214=ORIENTED_EDGE('',*,*,#150,.T.);
#215=ORIENTED_EDGE('',*,*,#157,.T.);
#216=ORIENTED_EDGE('',*,*,#170,.T.);
#217=ORIENTED_EDGE('',*,*,#159,.T.);
#218=ORIENTED_EDGE('',*,*,#171,.T.);
#219=ORIENTED_EDGE('',*,*,#172,.F.);
#220=ORIENTED_EDGE('',*,*,#173,.F.);
#221=ORIENTED_EDGE('',*,*,#160,.T.);
#222=ORIENTED_EDGE('',*,*,#173,.T.);
#223=ORIENTED_EDGE('',*,*,#174,.F.);
#224=ORIENTED_EDGE('',*,*,#175,.F.);
#225=ORIENTED_EDGE('',*,*,#161,.T.);
#226=ORIENTED_EDGE('',*,*,#175,.T.);
#227=ORIENTED_EDGE('',*,*,#176,.F.);
#228=ORIENTED_EDGE('',*,*,#177,.F.);
#229=ORIENTED_EDGE('',*,*,#158,.T.);
#230=ORIENTED_EDGE('',*,*,#177,.T.);
#231=ORIENTED_EDGE('',*,*,#178,.F.);
#232=ORIENTED_EDGE('',*,*,#171,.F.);
#233=ORIENTED_EDGE('',*,*,#168,.F.);
#234=ORIENTED_EDGE('',*,*,#179,.F.);
#235=ORIENTED_EDGE('',*,*,#170,.F.);
#236=ORIENTED_EDGE('',*,*,#156,.T.);
#237=ORIENTED_EDGE('',*,*,#146,.F.);
#238=ORIENTED_EDGE('',*,*,#180,.F.);
#239=ORIENTED_EDGE('',*,*,#164,.F.);
#240=ORIENTED_EDGE('',*,*,#152,.T.);
#241=ORIENTED_EDGE('',*,*,#145,.F.);
#242=ORIENTED_EDGE('',*,*,#151,.T.);
#243=ORIENTED_EDGE('',*,*,#169,.F.);
#244=ORIENTED_EDGE('',*,*,#179,.T.);
#245=ORIENTED_EDGE('',*,*,#167,.F.);
#246=ORIENTED_EDGE('',*,*,#165,.T.);
#247=ORIENTED_EDGE('',*,*,#162,.F.);
#248=ORIENTED_EDGE('',*,*,#180,.T.);
#249=ORIENTED_EDGE('',*,*,#178,.T.);
#250=ORIENTED_EDGE('',*,*,#176,.T.);
#251=ORIENTED_EDGE('',*,*,#174,.T.);
#252=ORIENTED_EDGE('',*,*,#172,.T.);
#253=CYLINDRICAL_SURFACE('',#273,5.);
#254=CYLINDRICAL_SURFACE('',#281,5.);
#255=CYLINDRICAL_SURFACE('',#284,5.);
#256=CYLINDRICAL_SURFACE('',#286,5.);
#257=ADVANCED_FACE('',(#27),#253,.T.);
#258=ADVANCED_FACE('',(#28),#17,.T.);
#259=ADVANCED_FACE('',(#29,#15),#18,.F.);
#260=ADVANCED_FACE('',(#30),#254,.T.);
#261=ADVANCED_FACE('',(#31),#19,.T.);
#262=ADVANCED_FACE('',(#32),#255,.T.);
#263=ADVANCED_FACE('',(#33),#256,.T.);
#264=ADVANCED_FACE('',(#34),#20,.T.);
#265=ADVANCED_FACE('',(#35),#21,.T.);
#266=ADVANCED_FACE('',(#36),#22,.T.);
#267=ADVANCED_FACE('',(#37),#23,.T.);
#268=ADVANCED_FACE('',(#38),#24,.T.);
#269=ADVANCED_FACE('',(#39),#25,.T.);
#270=ADVANCED_FACE('',(#40,#16),#26,.T.);
#271=CLOSED_SHELL('',(#257,#258,#259,#260,#261,#262,#263,#264,#265,#266,
#267,#268,#269,#270));
#272=AXIS2_PLACEMENT_3D('',#369,#295,#296);
#273=AXIS2_PLACEMENT_3D('',#370,#297,#298);
#274=AXIS2_PLACEMENT_3D('',#373,#299,#300);
#275=AXIS2_PLACEMENT_3D('',#377,#302,#303);
#276=AXIS2_PLACEMENT_3D('',#379,#305,#306);
#277=AXIS2_PLACEMENT_3D('',#385,#310,#311);
#278=AXIS2_PLACEMENT_3D('',#389,#313,#314);
#279=AXIS2_PLACEMENT_3D('',#393,#316,#317);
#280=AXIS2_PLACEMENT_3D('',#396,#319,#320);
#281=AXIS2_PLACEMENT_3D('',#405,#325,#326);
#282=AXIS2_PLACEMENT_3D('',#408,#327,#328);
#283=AXIS2_PLACEMENT_3D('',#411,#331,#332);
#284=AXIS2_PLACEMENT_3D('',#415,#335,#336);
#285=AXIS2_PLACEMENT_3D('',#417,#337,#338);
#286=AXIS2_PLACEMENT_3D('',#419,#340,#341);
#287=AXIS2_PLACEMENT_3D('',#421,#342,#343);
#288=AXIS2_PLACEMENT_3D('',#423,#345,#346);
#289=AXIS2_PLACEMENT_3D('',#429,#350,#351);
#290=AXIS2_PLACEMENT_3D('',#433,#354,#355);
#291=AXIS2_PLACEMENT_3D('',#437,#358,#359);
#292=AXIS2_PLACEMENT_3D('',#439,#361,#362);
#293=AXIS2_PLACEMENT_3D('',#441,#364,#365);
#294=AXIS2_PLACEMENT_3D('',#443,#367,#368);
#295=DIRECTION('axis',(0.,0.,1.));
#296=DIRECTION('refdir',(1.,0.,0.));
#297=DIRECTION('center_axis',(1.,0.,0.));
#298=DIRECTION('ref_axis',(0.,0.707106781186547,-0.707106781186547));
#299=DIRECTION('center_axis',(-1.,0.,0.));
#300=DIRECTION('ref_axis',(0.,0.707106781186547,-0.707106781186547));
#301=DIRECTION('',(-1.,0.,0.));
#302=DIRECTION('center_axis',(1.,0.,0.));
#303=DIRECTION('ref_axis',(0.,0.707106781186547,-0.707106781186547));
#304=DIRECTION('',(1.,0.,0.));
#305=DIRECTION('center_axis',(0.,1.,0.));
#306=DIRECTION('ref_axis',(0.,0.,1.));
#307=DIRECTION('',(0.,0.,1.));
#308=DIRECTION('',(-1.,0.,0.));
#309=DIRECTION('',(0.,0.,1.));
#310=DIRECTION('center_axis',(1.,0.,0.));
#311=DIRECTION('ref_axis',(0.,0.,-1.));
#312=DIRECTION('',(0.,1.,0.));
#313=DIRECTION('center_axis',(1.,0.,0.));
#314=DIRECTION('ref_axis',(0.,-0.707106781186547,-0.707106781186547));
#315=DIRECTION('',(0.,0.,-1.));
#316=DIRECTION('center_axis',(1.,0.,0.));
#317=DIRECTION('ref_axis',(0.,-0.707106781186547,0.707106781186547));
#318=DIRECTION('',(0.,-1.,0.));
#319=DIRECTION('center_axis',(1.,0.,0.));
#320=DIRECTION('ref_axis',(0.,0.707106781186547,0.707106781186547));
#321=DIRECTION('',(0.,0.,1.));
#322=DIRECTION('',(0.,-1.,0.));
#323=DIRECTION('',(0.,0.,-1.));
#324=DIRECTION('',(0.,1.,0.));
#325=DIRECTION('center_axis',(1.,0.,0.));
#326=DIRECTION('ref_axis',(0.,-0.707106781186547,-0.707106781186547));
#327=DIRECTION('center_axis',(-1.,0.,0.));
#328=DIRECTION('ref_axis',(0.,-0.707106781186547,-0.707106781186547));
#329=DIRECTION('',(-1.,0.,0.));
#330=DIRECTION('',(1.,0.,0.));
#331=DIRECTION('center_axis',(0.,-1.,0.));
#332=DIRECTION('ref_axis',(0.,0.,-1.));
#333=DIRECTION('',(0.,0.,-1.));
#334=DIRECTION('',(1.,0.,0.));
#335=DIRECTION('center_axis',(1.,0.,0.));
#336=DIRECTION('ref_axis',(0.,-0.707106781186547,0.707106781186547));
#337=DIRECTION('center_axis',(-1.,0.,0.));
#338=DIRECTION('ref_axis',(0.,-0.707106781186547,0.707106781186547));
#339=DIRECTION('',(-1.,0.,0.));
#340=DIRECTION('center_axis',(1.,0.,0.));
#341=DIRECTION('ref_axis',(0.,0.707106781186547,0.707106781186547));
#342=DIRECTION('center_axis',(-1.,0.,0.));
#343=DIRECTION('ref_axis',(0.,0.707106781186547,0.707106781186547));
#344=DIRECTION('',(1.,0.,0.));
#345=DIRECTION('center_axis',(0.,0.,1.));
#346=DIRECTION('ref_axis',(0.,-1.,0.));
#347=DIRECTION('',(1.,0.,0.));
#348=DIRECTION('',(0.,-1.,0.));
#349=DIRECTION('',(1.,0.,0.));
#350=DIRECTION('center_axis',(0.,-1.,0.));
#351=DIRECTION('ref_axis',(0.,0.,-1.));
#352=DIRECTION('',(0.,0.,-1.));
#353=DIRECTION('',(1.,0.,0.));
#354=DIRECTION('center_axis',(0.,0.,-1.));
#355=DIRECTION('ref_axis',(0.,1.,0.));
#356=DIRECTION('',(0.,1.,0.));
#357=DIRECTION('',(1.,0.,0.));
#358=DIRECTION('center_axis',(0.,1.,0.));
#359=DIRECTION('ref_axis',(0.,0.,1.));
#360=DIRECTION('',(0.,0.,1.));
#361=DIRECTION('center_axis',(0.,0.,1.));
#362=DIRECTION('ref_axis',(0.,-1.,0.));
#363=DIRECTION('',(0.,-1.,0.));
#364=DIRECTION('center_axis',(0.,0.,-1.));
#365=DIRECTION('ref_axis',(0.,1.,0.));
#366=DIRECTION('',(0.,1.,0.));
#367=DIRECTION('center_axis',(1.,0.,0.));
#368=DIRECTION('ref_axis',(0.,0.,-1.));
#369=CARTESIAN_POINT('',(0.,0.,0.));
#370=CARTESIAN_POINT('Origin',(42.,65.,-65.));
#371=CARTESIAN_POINT('',(52.,70.,-65.));
#372=CARTESIAN_POINT('',(52.,65.,-70.));
#373=CARTESIAN_POINT('Origin',(52.,65.,-65.));
#374=CARTESIAN_POINT('',(42.,65.,-70.));
#375=CARTESIAN_POINT('',(42.,65.,-70.));
#376=CARTESIAN_POINT('',(42.,70.,-65.));
#377=CARTESIAN_POINT('Origin',(42.,65.,-65.));
#378=CARTESIAN_POINT('',(42.,70.,-65.));
#379=CARTESIAN_POINT('Origin',(42.,70.,-70.));
#380=CARTESIAN_POINT('',(42.,70.,65.));
#381=CARTESIAN_POINT('',(42.,70.,70.));
#382=CARTESIAN_POINT('',(52.,70.,65.));
#383=CARTESIAN_POINT('',(42.,70.,65.));
#384=CARTESIAN_POINT('',(52.,70.,70.));
#385=CARTESIAN_POINT('Origin',(42.,0.,0.));
#386=CARTESIAN_POINT('',(42.,-65.,-70.));
#387=CARTESIAN_POINT('',(42.,70.,-70.));
#388=CARTESIAN_POINT('',(42.,-70.,-65.));
#389=CARTESIAN_POINT('Origin',(42.,-65.,-65.));
#390=CARTESIAN_POINT('',(42.,-70.,65.));
#391=CARTESIAN_POINT('',(42.,-70.,-70.));
#392=CARTESIAN_POINT('',(42.,-65.,70.));
#393=CARTESIAN_POINT('Origin',(42.,-65.,65.));
#394=CARTESIAN_POINT('',(42.,65.,70.));
#395=CARTESIAN_POINT('',(42.,-70.,70.));
#396=CARTESIAN_POINT('Origin',(42.,65.,65.));
#397=CARTESIAN_POINT('',(42.,-60.,-60.));
#398=CARTESIAN_POINT('',(42.,-60.,60.));
#399=CARTESIAN_POINT('',(42.,-60.,60.));
#400=CARTESIAN_POINT('',(42.,60.,-60.));
#401=CARTESIAN_POINT('',(42.,-60.,-60.));
#402=CARTESIAN_POINT('',(42.,60.,60.));
#403=CARTESIAN_POINT('',(42.,60.,-60.));
#404=CARTESIAN_POINT('',(42.,60.,60.));
#405=CARTESIAN_POINT('Origin',(42.,-65.,-65.));
#406=CARTESIAN_POINT('',(52.,-65.,-70.));
#407=CARTESIAN_POINT('',(52.,-70.,-65.));
#408=CARTESIAN_POINT('Origin',(52.,-65.,-65.));
#409=CARTESIAN_POINT('',(42.,-70.,-65.));
#410=CARTESIAN_POINT('',(42.,-65.,-70.));
#411=CARTESIAN_POINT('Origin',(42.,-70.,70.));
#412=CARTESIAN_POINT('',(52.,-70.,65.));
#413=CARTESIAN_POINT('',(52.,-70.,-70.));
#414=CARTESIAN_POINT('',(42.,-70.,65.));
#415=CARTESIAN_POINT('Origin',(42.,-65.,65.));
#416=CARTESIAN_POINT('',(52.,-65.,70.));
#417=CARTESIAN_POINT('Origin',(52.,-65.,65.));
#418=CARTESIAN_POINT('',(42.,-65.,70.));
#419=CARTESIAN_POINT('Origin',(42.,65.,65.));
#420=CARTESIAN_POINT('',(52.,65.,70.));
#421=CARTESIAN_POINT('Origin',(52.,65.,65.));
#422=CARTESIAN_POINT('',(42.,65.,70.));
#423=CARTESIAN_POINT('Origin',(42.,60.,-60.));
#424=CARTESIAN_POINT('',(52.,-60.,-60.));
#425=CARTESIAN_POINT('',(42.,-60.,-60.));
#426=CARTESIAN_POINT('',(52.,60.,-60.));
#427=CARTESIAN_POINT('',(52.,-60.,-60.));
#428=CARTESIAN_POINT('',(42.,60.,-60.));
#429=CARTESIAN_POINT('Origin',(42.,60.,60.));
#430=CARTESIAN_POINT('',(52.,60.,60.));
#431=CARTESIAN_POINT('',(52.,60.,-60.));
#432=CARTESIAN_POINT('',(42.,60.,60.));
#433=CARTESIAN_POINT('Origin',(42.,-60.,60.));
#434=CARTESIAN_POINT('',(52.,-60.,60.));
#435=CARTESIAN_POINT('',(52.,60.,60.));
#436=CARTESIAN_POINT('',(42.,-60.,60.));
#437=CARTESIAN_POINT('Origin',(42.,-60.,-60.));
#438=CARTESIAN_POINT('',(52.,-60.,60.));
#439=CARTESIAN_POINT('Origin',(42.,70.,70.));
#440=CARTESIAN_POINT('',(52.,-70.,70.));
#441=CARTESIAN_POINT('Origin',(42.,-70.,-70.));
#442=CARTESIAN_POINT('',(52.,70.,-70.));
#443=CARTESIAN_POINT('Origin',(52.,0.,0.));
#444=UNCERTAINTY_MEASURE_WITH_UNIT(LENGTH_MEASURE(0.01),#448,
'DISTANCE_ACCURACY_VALUE',
'Maximum model space distance between geometric entities at asserted c
onnectivities');
#445=UNCERTAINTY_MEASURE_WITH_UNIT(LENGTH_MEASURE(0.01),#448,
'DISTANCE_ACCURACY_VALUE',
'Maximum model space distance between geometric entities at asserted c
onnectivities');
#446=(
GEOMETRIC_REPRESENTATION_CONTEXT(3)
GLOBAL_UNCERTAINTY_ASSIGNED_CONTEXT((#444))
GLOBAL_UNIT_ASSIGNED_CONTEXT((#448,#449,#450))
REPRESENTATION_CONTEXT('','3D')
);
#447=(
GEOMETRIC_REPRESENTATION_CONTEXT(3)
GLOBAL_UNCERTAINTY_ASSIGNED_CONTEXT((#445))
GLOBAL_UNIT_ASSIGNED_CONTEXT((#448,#449,#450))
REPRESENTATION_CONTEXT('','3D')
);
#448=(
LENGTH_UNIT()
NAMED_UNIT(*)
SI_UNIT(.MILLI.,.METRE.)
);
#449=(
NAMED_UNIT(*)
PLANE_ANGLE_UNIT()
SI_UNIT($,.RADIAN.)
);
#450=(
NAMED_UNIT(*)
SI_UNIT($,.STERADIAN.)
SOLID_ANGLE_UNIT()
);
#451=SHAPE_DEFINITION_REPRESENTATION(#452,#453);
#452=PRODUCT_DEFINITION_SHAPE('',$,#455);
#453=SHAPE_REPRESENTATION('',(#272),#446);
#454=PRODUCT_DEFINITION_CONTEXT('part definition',#459,'design');
#455=PRODUCT_DEFINITION('2026-07-21-18-37-04-393','Main Housing',#456,#454);
#456=PRODUCT_DEFINITION_FORMATION('',$,#461);
#457=PRODUCT_RELATED_PRODUCT_CATEGORY('Main Housing','Main Housing',(#461));
#458=APPLICATION_PROTOCOL_DEFINITION('international standard',
'automotive_design',2009,#459);
#459=APPLICATION_CONTEXT(
'Core Data for Automotive Mechanical Design Process');
#460=PRODUCT_CONTEXT('part definition',#459,'mechanical');
#461=PRODUCT('2026-07-21-18-37-04-393','Main Housing',$,(#460));
#462=PRESENTATION_STYLE_ASSIGNMENT((#463));
#463=SURFACE_STYLE_USAGE(.BOTH.,#464);
#464=SURFACE_SIDE_STYLE('',(#465));
#465=SURFACE_STYLE_FILL_AREA(#466);
#466=FILL_AREA_STYLE('Steel - Satin',(#467));
#467=FILL_AREA_STYLE_COLOUR('Steel - Satin',#468);
#468=COLOUR_RGB('Steel - Satin',0.627450980392157,0.627450980392157,0.627450980392157);
ENDSEC;
END-ISO-10303-21;
