ISO-10303-21;
HEADER;
/* Generated by software containing ST-Developer
 * from STEP Tools, Inc. (www.steptools.com) 
 */

FILE_DESCRIPTION(
/* description */ (''),
/* implementation_level */ '2;1');

FILE_NAME(
/* name */ 'Inlet Legs.step',
/* time_stamp */ '2026-07-22T22:28:00-07:00',
/* author */ (''),
/* organization */ (''),
/* preprocessor_version */ 'ST-DEVELOPER v20.1',
/* originating_system */ 'Autodesk Translation Framework v15.8.0.0',
/* authorisation */ '');

FILE_SCHEMA (('AUTOMOTIVE_DESIGN { 1 0 10303 214 3 1 1 }'));
ENDSEC;

DATA;
#10=MECHANICAL_DESIGN_GEOMETRIC_PRESENTATION_REPRESENTATION('',(#13),#1515);
#11=SHAPE_REPRESENTATION_RELATIONSHIP('SRR','None',#1521,#12);
#12=ADVANCED_BREP_SHAPE_REPRESENTATION('',(#14),#1514);
#13=STYLED_ITEM('',(#1530),#14);
#14=MANIFOLD_SOLID_BREP('Inlet Legs',#933);
#15=FACE_BOUND('',#114,.T.);
#16=FACE_BOUND('',#115,.T.);
#17=FACE_BOUND('',#116,.T.);
#18=FACE_BOUND('',#126,.T.);
#19=FACE_BOUND('',#132,.T.);
#20=FACE_BOUND('',#140,.T.);
#21=FACE_BOUND('',#152,.T.);
#22=CIRCLE('',#948,5.);
#23=CIRCLE('',#949,5.);
#24=CIRCLE('',#952,5.);
#25=CIRCLE('',#953,5.);
#26=CIRCLE('',#954,5.);
#27=CIRCLE('',#955,5.);
#28=CIRCLE('',#956,5.);
#29=CIRCLE('',#957,5.);
#30=CIRCLE('',#958,5.);
#31=CIRCLE('',#960,5.);
#32=CIRCLE('',#967,5.);
#33=CIRCLE('',#970,5.);
#34=CIRCLE('',#971,5.);
#35=CIRCLE('',#972,5.);
#36=CIRCLE('',#973,5.);
#37=CIRCLE('',#974,5.);
#38=CIRCLE('',#978,5.);
#39=CIRCLE('',#981,5.);
#40=CIRCLE('',#987,5.);
#41=CIRCLE('',#990,5.);
#42=CYLINDRICAL_SURFACE('',#947,5.);
#43=CYLINDRICAL_SURFACE('',#959,5.);
#44=CYLINDRICAL_SURFACE('',#966,5.);
#45=CYLINDRICAL_SURFACE('',#975,5.);
#46=CYLINDRICAL_SURFACE('',#977,5.);
#47=CYLINDRICAL_SURFACE('',#982,5.);
#48=CYLINDRICAL_SURFACE('',#983,5.);
#49=CYLINDRICAL_SURFACE('',#985,5.);
#50=CYLINDRICAL_SURFACE('',#986,5.);
#51=CYLINDRICAL_SURFACE('',#991,5.);
#52=FACE_OUTER_BOUND('',#99,.T.);
#53=FACE_OUTER_BOUND('',#100,.T.);
#54=FACE_OUTER_BOUND('',#101,.T.);
#55=FACE_OUTER_BOUND('',#102,.T.);
#56=FACE_OUTER_BOUND('',#103,.T.);
#57=FACE_OUTER_BOUND('',#104,.T.);
#58=FACE_OUTER_BOUND('',#105,.T.);
#59=FACE_OUTER_BOUND('',#106,.T.);
#60=FACE_OUTER_BOUND('',#107,.T.);
#61=FACE_OUTER_BOUND('',#108,.T.);
#62=FACE_OUTER_BOUND('',#109,.T.);
#63=FACE_OUTER_BOUND('',#110,.T.);
#64=FACE_OUTER_BOUND('',#111,.T.);
#65=FACE_OUTER_BOUND('',#112,.T.);
#66=FACE_OUTER_BOUND('',#113,.T.);
#67=FACE_OUTER_BOUND('',#117,.T.);
#68=FACE_OUTER_BOUND('',#118,.T.);
#69=FACE_OUTER_BOUND('',#119,.T.);
#70=FACE_OUTER_BOUND('',#120,.T.);
#71=FACE_OUTER_BOUND('',#121,.T.);
#72=FACE_OUTER_BOUND('',#122,.T.);
#73=FACE_OUTER_BOUND('',#123,.T.);
#74=FACE_OUTER_BOUND('',#124,.T.);
#75=FACE_OUTER_BOUND('',#125,.T.);
#76=FACE_OUTER_BOUND('',#127,.T.);
#77=FACE_OUTER_BOUND('',#128,.T.);
#78=FACE_OUTER_BOUND('',#129,.T.);
#79=FACE_OUTER_BOUND('',#130,.T.);
#80=FACE_OUTER_BOUND('',#131,.T.);
#81=FACE_OUTER_BOUND('',#133,.T.);
#82=FACE_OUTER_BOUND('',#134,.T.);
#83=FACE_OUTER_BOUND('',#135,.T.);
#84=FACE_OUTER_BOUND('',#136,.T.);
#85=FACE_OUTER_BOUND('',#137,.T.);
#86=FACE_OUTER_BOUND('',#138,.T.);
#87=FACE_OUTER_BOUND('',#139,.T.);
#88=FACE_OUTER_BOUND('',#141,.T.);
#89=FACE_OUTER_BOUND('',#142,.T.);
#90=FACE_OUTER_BOUND('',#143,.T.);
#91=FACE_OUTER_BOUND('',#144,.T.);
#92=FACE_OUTER_BOUND('',#145,.T.);
#93=FACE_OUTER_BOUND('',#146,.T.);
#94=FACE_OUTER_BOUND('',#147,.T.);
#95=FACE_OUTER_BOUND('',#148,.T.);
#96=FACE_OUTER_BOUND('',#149,.T.);
#97=FACE_OUTER_BOUND('',#150,.T.);
#98=FACE_OUTER_BOUND('',#151,.T.);
#99=EDGE_LOOP('',(#589,#590,#591,#592));
#100=EDGE_LOOP('',(#593,#594,#595,#596));
#101=EDGE_LOOP('',(#597,#598,#599,#600));
#102=EDGE_LOOP('',(#601,#602,#603,#604));
#103=EDGE_LOOP('',(#605,#606,#607,#608));
#104=EDGE_LOOP('',(#609,#610,#611,#612));
#105=EDGE_LOOP('',(#613,#614,#615,#616));
#106=EDGE_LOOP('',(#617,#618,#619,#620));
#107=EDGE_LOOP('',(#621,#622,#623,#624));
#108=EDGE_LOOP('',(#625,#626,#627,#628));
#109=EDGE_LOOP('',(#629,#630,#631,#632));
#110=EDGE_LOOP('',(#633,#634,#635,#636));
#111=EDGE_LOOP('',(#637,#638,#639,#640));
#112=EDGE_LOOP('',(#641,#642,#643,#644));
#113=EDGE_LOOP('',(#645,#646,#647,#648,#649,#650,#651,#652,#653,#654,#655,
#656,#657,#658,#659,#660,#661,#662));
#114=EDGE_LOOP('',(#663,#664,#665,#666));
#115=EDGE_LOOP('',(#667,#668,#669,#670));
#116=EDGE_LOOP('',(#671,#672,#673,#674));
#117=EDGE_LOOP('',(#675,#676,#677,#678));
#118=EDGE_LOOP('',(#679,#680,#681,#682));
#119=EDGE_LOOP('',(#683,#684,#685,#686));
#120=EDGE_LOOP('',(#687,#688,#689,#690));
#121=EDGE_LOOP('',(#691,#692,#693,#694));
#122=EDGE_LOOP('',(#695,#696,#697,#698));
#123=EDGE_LOOP('',(#699,#700,#701,#702));
#124=EDGE_LOOP('',(#703,#704,#705,#706));
#125=EDGE_LOOP('',(#707,#708,#709,#710,#711,#712,#713,#714,#715,#716,#717,
#718,#719,#720,#721,#722,#723,#724,#725,#726,#727,#728,#729,#730));
#126=EDGE_LOOP('',(#731,#732,#733,#734));
#127=EDGE_LOOP('',(#735,#736,#737,#738));
#128=EDGE_LOOP('',(#739,#740,#741,#742));
#129=EDGE_LOOP('',(#743,#744,#745,#746,#747));
#130=EDGE_LOOP('',(#748,#749,#750,#751,#752,#753));
#131=EDGE_LOOP('',(#754,#755,#756,#757,#758,#759));
#132=EDGE_LOOP('',(#760,#761,#762,#763));
#133=EDGE_LOOP('',(#764,#765,#766,#767));
#134=EDGE_LOOP('',(#768,#769,#770,#771));
#135=EDGE_LOOP('',(#772,#773,#774,#775));
#136=EDGE_LOOP('',(#776,#777,#778,#779));
#137=EDGE_LOOP('',(#780,#781,#782,#783));
#138=EDGE_LOOP('',(#784,#785,#786,#787,#788,#789));
#139=EDGE_LOOP('',(#790,#791,#792,#793,#794,#795));
#140=EDGE_LOOP('',(#796,#797,#798,#799));
#141=EDGE_LOOP('',(#800,#801,#802,#803,#804));
#142=EDGE_LOOP('',(#805,#806,#807,#808));
#143=EDGE_LOOP('',(#809,#810,#811,#812));
#144=EDGE_LOOP('',(#813,#814,#815,#816));
#145=EDGE_LOOP('',(#817,#818,#819,#820));
#146=EDGE_LOOP('',(#821,#822,#823,#824));
#147=EDGE_LOOP('',(#825,#826,#827,#828));
#148=EDGE_LOOP('',(#829,#830,#831,#832));
#149=EDGE_LOOP('',(#833,#834,#835,#836));
#150=EDGE_LOOP('',(#837,#838,#839,#840));
#151=EDGE_LOOP('',(#841,#842,#843,#844));
#152=EDGE_LOOP('',(#845,#846,#847,#848));
#153=LINE('',#1252,#263);
#154=LINE('',#1254,#264);
#155=LINE('',#1256,#265);
#156=LINE('',#1257,#266);
#157=LINE('',#1260,#267);
#158=LINE('',#1262,#268);
#159=LINE('',#1263,#269);
#160=LINE('',#1266,#270);
#161=LINE('',#1268,#271);
#162=LINE('',#1269,#272);
#163=LINE('',#1271,#273);
#164=LINE('',#1272,#274);
#165=LINE('',#1276,#275);
#166=LINE('',#1278,#276);
#167=LINE('',#1280,#277);
#168=LINE('',#1281,#278);
#169=LINE('',#1284,#279);
#170=LINE('',#1286,#280);
#171=LINE('',#1287,#281);
#172=LINE('',#1290,#282);
#173=LINE('',#1292,#283);
#174=LINE('',#1293,#284);
#175=LINE('',#1295,#285);
#176=LINE('',#1296,#286);
#177=LINE('',#1300,#287);
#178=LINE('',#1302,#288);
#179=LINE('',#1304,#289);
#180=LINE('',#1305,#290);
#181=LINE('',#1308,#291);
#182=LINE('',#1310,#292);
#183=LINE('',#1311,#293);
#184=LINE('',#1314,#294);
#185=LINE('',#1316,#295);
#186=LINE('',#1317,#296);
#187=LINE('',#1319,#297);
#188=LINE('',#1320,#298);
#189=LINE('',#1326,#299);
#190=LINE('',#1329,#300);
#191=LINE('',#1332,#301);
#192=LINE('',#1334,#302);
#193=LINE('',#1335,#303);
#194=LINE('',#1338,#304);
#195=LINE('',#1342,#305);
#196=LINE('',#1344,#306);
#197=LINE('',#1348,#307);
#198=LINE('',#1352,#308);
#199=LINE('',#1356,#309);
#200=LINE('',#1360,#310);
#201=LINE('',#1362,#311);
#202=LINE('',#1366,#312);
#203=LINE('',#1371,#313);
#204=LINE('',#1374,#314);
#205=LINE('',#1375,#315);
#206=LINE('',#1378,#316);
#207=LINE('',#1379,#317);
#208=LINE('',#1382,#318);
#209=LINE('',#1384,#319);
#210=LINE('',#1386,#320);
#211=LINE('',#1387,#321);
#212=LINE('',#1391,#322);
#213=LINE('',#1393,#323);
#214=LINE('',#1395,#324);
#215=LINE('',#1396,#325);
#216=LINE('',#1399,#326);
#217=LINE('',#1401,#327);
#218=LINE('',#1403,#328);
#219=LINE('',#1404,#329);
#220=LINE('',#1409,#330);
#221=LINE('',#1410,#331);
#222=LINE('',#1413,#332);
#223=LINE('',#1414,#333);
#224=LINE('',#1417,#334);
#225=LINE('',#1419,#335);
#226=LINE('',#1423,#336);
#227=LINE('',#1425,#337);
#228=LINE('',#1429,#338);
#229=LINE('',#1433,#339);
#230=LINE('',#1436,#340);
#231=LINE('',#1438,#341);
#232=LINE('',#1442,#342);
#233=LINE('',#1443,#343);
#234=LINE('',#1445,#344);
#235=LINE('',#1447,#345);
#236=LINE('',#1448,#346);
#237=LINE('',#1450,#347);
#238=LINE('',#1452,#348);
#239=LINE('',#1456,#349);
#240=LINE('',#1459,#350);
#241=LINE('',#1460,#351);
#242=LINE('',#1461,#352);
#243=LINE('',#1464,#353);
#244=LINE('',#1466,#354);
#245=LINE('',#1469,#355);
#246=LINE('',#1471,#356);
#247=LINE('',#1473,#357);
#248=LINE('',#1475,#358);
#249=LINE('',#1480,#359);
#250=LINE('',#1481,#360);
#251=LINE('',#1484,#361);
#252=LINE('',#1485,#362);
#253=LINE('',#1486,#363);
#254=LINE('',#1489,#364);
#255=LINE('',#1490,#365);
#256=LINE('',#1496,#366);
#257=LINE('',#1499,#367);
#258=LINE('',#1501,#368);
#259=LINE('',#1502,#369);
#260=LINE('',#1504,#370);
#261=LINE('',#1508,#371);
#262=LINE('',#1510,#372);
#263=VECTOR('',#1006,10.);
#264=VECTOR('',#1007,10.);
#265=VECTOR('',#1008,10.);
#266=VECTOR('',#1009,10.);
#267=VECTOR('',#1012,10.);
#268=VECTOR('',#1013,10.);
#269=VECTOR('',#1014,10.);
#270=VECTOR('',#1017,10.);
#271=VECTOR('',#1018,10.);
#272=VECTOR('',#1019,10.);
#273=VECTOR('',#1022,10.);
#274=VECTOR('',#1023,10.);
#275=VECTOR('',#1026,10.);
#276=VECTOR('',#1027,10.);
#277=VECTOR('',#1028,10.);
#278=VECTOR('',#1029,10.);
#279=VECTOR('',#1032,10.);
#280=VECTOR('',#1033,10.);
#281=VECTOR('',#1034,10.);
#282=VECTOR('',#1037,10.);
#283=VECTOR('',#1038,10.);
#284=VECTOR('',#1039,10.);
#285=VECTOR('',#1042,10.);
#286=VECTOR('',#1043,10.);
#287=VECTOR('',#1046,10.);
#288=VECTOR('',#1047,10.);
#289=VECTOR('',#1048,10.);
#290=VECTOR('',#1049,10.);
#291=VECTOR('',#1052,10.);
#292=VECTOR('',#1053,10.);
#293=VECTOR('',#1054,10.);
#294=VECTOR('',#1057,10.);
#295=VECTOR('',#1058,10.);
#296=VECTOR('',#1059,10.);
#297=VECTOR('',#1062,10.);
#298=VECTOR('',#1063,10.);
#299=VECTOR('',#1068,10.);
#300=VECTOR('',#1071,10.);
#301=VECTOR('',#1074,10.);
#302=VECTOR('',#1075,10.);
#303=VECTOR('',#1076,10.);
#304=VECTOR('',#1079,10.);
#305=VECTOR('',#1082,10.);
#306=VECTOR('',#1083,10.);
#307=VECTOR('',#1086,10.);
#308=VECTOR('',#1089,10.);
#309=VECTOR('',#1092,10.);
#310=VECTOR('',#1095,10.);
#311=VECTOR('',#1096,10.);
#312=VECTOR('',#1099,10.);
#313=VECTOR('',#1106,10.);
#314=VECTOR('',#1109,10.);
#315=VECTOR('',#1110,10.);
#316=VECTOR('',#1113,10.);
#317=VECTOR('',#1114,10.);
#318=VECTOR('',#1117,10.);
#319=VECTOR('',#1118,10.);
#320=VECTOR('',#1119,10.);
#321=VECTOR('',#1120,10.);
#322=VECTOR('',#1123,10.);
#323=VECTOR('',#1124,10.);
#324=VECTOR('',#1125,10.);
#325=VECTOR('',#1126,10.);
#326=VECTOR('',#1129,10.);
#327=VECTOR('',#1130,10.);
#328=VECTOR('',#1131,10.);
#329=VECTOR('',#1132,10.);
#330=VECTOR('',#1137,10.);
#331=VECTOR('',#1138,10.);
#332=VECTOR('',#1141,10.);
#333=VECTOR('',#1142,10.);
#334=VECTOR('',#1145,10.);
#335=VECTOR('',#1146,10.);
#336=VECTOR('',#1149,10.);
#337=VECTOR('',#1150,10.);
#338=VECTOR('',#1153,10.);
#339=VECTOR('',#1156,10.);
#340=VECTOR('',#1159,10.);
#341=VECTOR('',#1160,10.);
#342=VECTOR('',#1163,10.);
#343=VECTOR('',#1164,10.);
#344=VECTOR('',#1165,10.);
#345=VECTOR('',#1166,10.);
#346=VECTOR('',#1167,10.);
#347=VECTOR('',#1170,10.);
#348=VECTOR('',#1173,10.);
#349=VECTOR('',#1178,10.);
#350=VECTOR('',#1181,10.);
#351=VECTOR('',#1182,10.);
#352=VECTOR('',#1183,10.);
#353=VECTOR('',#1186,10.);
#354=VECTOR('',#1187,10.);
#355=VECTOR('',#1192,10.);
#356=VECTOR('',#1195,10.);
#357=VECTOR('',#1198,10.);
#358=VECTOR('',#1201,10.);
#359=VECTOR('',#1206,10.);
#360=VECTOR('',#1207,10.);
#361=VECTOR('',#1210,10.);
#362=VECTOR('',#1211,10.);
#363=VECTOR('',#1212,10.);
#364=VECTOR('',#1215,10.);
#365=VECTOR('',#1216,10.);
#366=VECTOR('',#1227,10.);
#367=VECTOR('',#1230,10.);
#368=VECTOR('',#1231,10.);
#369=VECTOR('',#1232,10.);
#370=VECTOR('',#1235,10.);
#371=VECTOR('',#1242,10.);
#372=VECTOR('',#1245,10.);
#373=VERTEX_POINT('',#1250);
#374=VERTEX_POINT('',#1251);
#375=VERTEX_POINT('',#1253);
#376=VERTEX_POINT('',#1255);
#377=VERTEX_POINT('',#1259);
#378=VERTEX_POINT('',#1261);
#379=VERTEX_POINT('',#1265);
#380=VERTEX_POINT('',#1267);
#381=VERTEX_POINT('',#1274);
#382=VERTEX_POINT('',#1275);
#383=VERTEX_POINT('',#1277);
#384=VERTEX_POINT('',#1279);
#385=VERTEX_POINT('',#1283);
#386=VERTEX_POINT('',#1285);
#387=VERTEX_POINT('',#1289);
#388=VERTEX_POINT('',#1291);
#389=VERTEX_POINT('',#1298);
#390=VERTEX_POINT('',#1299);
#391=VERTEX_POINT('',#1301);
#392=VERTEX_POINT('',#1303);
#393=VERTEX_POINT('',#1307);
#394=VERTEX_POINT('',#1309);
#395=VERTEX_POINT('',#1313);
#396=VERTEX_POINT('',#1315);
#397=VERTEX_POINT('',#1322);
#398=VERTEX_POINT('',#1323);
#399=VERTEX_POINT('',#1325);
#400=VERTEX_POINT('',#1327);
#401=VERTEX_POINT('',#1331);
#402=VERTEX_POINT('',#1333);
#403=VERTEX_POINT('',#1337);
#404=VERTEX_POINT('',#1339);
#405=VERTEX_POINT('',#1341);
#406=VERTEX_POINT('',#1343);
#407=VERTEX_POINT('',#1345);
#408=VERTEX_POINT('',#1347);
#409=VERTEX_POINT('',#1349);
#410=VERTEX_POINT('',#1351);
#411=VERTEX_POINT('',#1353);
#412=VERTEX_POINT('',#1355);
#413=VERTEX_POINT('',#1357);
#414=VERTEX_POINT('',#1359);
#415=VERTEX_POINT('',#1361);
#416=VERTEX_POINT('',#1363);
#417=VERTEX_POINT('',#1365);
#418=VERTEX_POINT('',#1369);
#419=VERTEX_POINT('',#1373);
#420=VERTEX_POINT('',#1377);
#421=VERTEX_POINT('',#1381);
#422=VERTEX_POINT('',#1383);
#423=VERTEX_POINT('',#1385);
#424=VERTEX_POINT('',#1389);
#425=VERTEX_POINT('',#1390);
#426=VERTEX_POINT('',#1392);
#427=VERTEX_POINT('',#1394);
#428=VERTEX_POINT('',#1398);
#429=VERTEX_POINT('',#1400);
#430=VERTEX_POINT('',#1402);
#431=VERTEX_POINT('',#1406);
#432=VERTEX_POINT('',#1407);
#433=VERTEX_POINT('',#1412);
#434=VERTEX_POINT('',#1416);
#435=VERTEX_POINT('',#1418);
#436=VERTEX_POINT('',#1420);
#437=VERTEX_POINT('',#1422);
#438=VERTEX_POINT('',#1424);
#439=VERTEX_POINT('',#1426);
#440=VERTEX_POINT('',#1428);
#441=VERTEX_POINT('',#1430);
#442=VERTEX_POINT('',#1432);
#443=VERTEX_POINT('',#1435);
#444=VERTEX_POINT('',#1437);
#445=VERTEX_POINT('',#1439);
#446=VERTEX_POINT('',#1441);
#447=VERTEX_POINT('',#1444);
#448=VERTEX_POINT('',#1446);
#449=VERTEX_POINT('',#1454);
#450=VERTEX_POINT('',#1458);
#451=VERTEX_POINT('',#1463);
#452=VERTEX_POINT('',#1465);
#453=VERTEX_POINT('',#1477);
#454=VERTEX_POINT('',#1478);
#455=VERTEX_POINT('',#1483);
#456=VERTEX_POINT('',#1488);
#457=VERTEX_POINT('',#1498);
#458=VERTEX_POINT('',#1500);
#459=EDGE_CURVE('',#373,#374,#153,.T.);
#460=EDGE_CURVE('',#375,#373,#154,.T.);
#461=EDGE_CURVE('',#376,#375,#155,.T.);
#462=EDGE_CURVE('',#376,#374,#156,.T.);
#463=EDGE_CURVE('',#374,#377,#157,.T.);
#464=EDGE_CURVE('',#378,#376,#158,.T.);
#465=EDGE_CURVE('',#378,#377,#159,.T.);
#466=EDGE_CURVE('',#377,#379,#160,.T.);
#467=EDGE_CURVE('',#380,#378,#161,.T.);
#468=EDGE_CURVE('',#380,#379,#162,.T.);
#469=EDGE_CURVE('',#379,#373,#163,.T.);
#470=EDGE_CURVE('',#375,#380,#164,.T.);
#471=EDGE_CURVE('',#381,#382,#165,.T.);
#472=EDGE_CURVE('',#383,#381,#166,.T.);
#473=EDGE_CURVE('',#384,#383,#167,.T.);
#474=EDGE_CURVE('',#384,#382,#168,.T.);
#475=EDGE_CURVE('',#382,#385,#169,.T.);
#476=EDGE_CURVE('',#386,#384,#170,.T.);
#477=EDGE_CURVE('',#386,#385,#171,.T.);
#478=EDGE_CURVE('',#385,#387,#172,.T.);
#479=EDGE_CURVE('',#388,#386,#173,.T.);
#480=EDGE_CURVE('',#388,#387,#174,.T.);
#481=EDGE_CURVE('',#387,#381,#175,.T.);
#482=EDGE_CURVE('',#383,#388,#176,.T.);
#483=EDGE_CURVE('',#389,#390,#177,.T.);
#484=EDGE_CURVE('',#391,#389,#178,.T.);
#485=EDGE_CURVE('',#392,#391,#179,.T.);
#486=EDGE_CURVE('',#392,#390,#180,.T.);
#487=EDGE_CURVE('',#390,#393,#181,.T.);
#488=EDGE_CURVE('',#394,#392,#182,.T.);
#489=EDGE_CURVE('',#394,#393,#183,.T.);
#490=EDGE_CURVE('',#393,#395,#184,.T.);
#491=EDGE_CURVE('',#396,#394,#185,.T.);
#492=EDGE_CURVE('',#396,#395,#186,.T.);
#493=EDGE_CURVE('',#395,#389,#187,.T.);
#494=EDGE_CURVE('',#391,#396,#188,.T.);
#495=EDGE_CURVE('',#397,#398,#22,.T.);
#496=EDGE_CURVE('',#398,#399,#189,.T.);
#497=EDGE_CURVE('',#399,#400,#23,.T.);
#498=EDGE_CURVE('',#400,#397,#190,.T.);
#499=EDGE_CURVE('',#398,#401,#191,.T.);
#500=EDGE_CURVE('',#402,#401,#192,.T.);
#501=EDGE_CURVE('',#402,#399,#193,.T.);
#502=EDGE_CURVE('',#403,#397,#194,.T.);
#503=EDGE_CURVE('',#404,#403,#24,.T.);
#504=EDGE_CURVE('',#404,#405,#195,.T.);
#505=EDGE_CURVE('',#405,#406,#196,.T.);
#506=EDGE_CURVE('',#407,#406,#25,.T.);
#507=EDGE_CURVE('',#408,#407,#197,.T.);
#508=EDGE_CURVE('',#409,#408,#26,.T.);
#509=EDGE_CURVE('',#409,#410,#198,.T.);
#510=EDGE_CURVE('',#411,#410,#27,.T.);
#511=EDGE_CURVE('',#412,#411,#199,.T.);
#512=EDGE_CURVE('',#413,#412,#28,.T.);
#513=EDGE_CURVE('',#414,#413,#200,.T.);
#514=EDGE_CURVE('',#415,#414,#201,.T.);
#515=EDGE_CURVE('',#416,#415,#29,.T.);
#516=EDGE_CURVE('',#416,#417,#202,.T.);
#517=EDGE_CURVE('',#401,#417,#30,.T.);
#518=EDGE_CURVE('',#418,#402,#31,.T.);
#519=EDGE_CURVE('',#417,#418,#203,.T.);
#520=EDGE_CURVE('',#419,#400,#204,.T.);
#521=EDGE_CURVE('',#403,#419,#205,.T.);
#522=EDGE_CURVE('',#420,#416,#206,.T.);
#523=EDGE_CURVE('',#420,#418,#207,.T.);
#524=EDGE_CURVE('',#419,#421,#208,.T.);
#525=EDGE_CURVE('',#422,#421,#209,.T.);
#526=EDGE_CURVE('',#423,#422,#210,.T.);
#527=EDGE_CURVE('',#419,#423,#211,.T.);
#528=EDGE_CURVE('',#424,#425,#212,.T.);
#529=EDGE_CURVE('',#426,#425,#213,.T.);
#530=EDGE_CURVE('',#427,#426,#214,.T.);
#531=EDGE_CURVE('',#427,#424,#215,.T.);
#532=EDGE_CURVE('',#428,#420,#216,.T.);
#533=EDGE_CURVE('',#429,#420,#217,.T.);
#534=EDGE_CURVE('',#430,#429,#218,.T.);
#535=EDGE_CURVE('',#430,#428,#219,.T.);
#536=EDGE_CURVE('',#431,#432,#32,.T.);
#537=EDGE_CURVE('',#432,#407,#220,.T.);
#538=EDGE_CURVE('',#406,#431,#221,.T.);
#539=EDGE_CURVE('',#432,#433,#222,.T.);
#540=EDGE_CURVE('',#408,#433,#223,.T.);
#541=EDGE_CURVE('',#434,#428,#224,.T.);
#542=EDGE_CURVE('',#435,#434,#225,.T.);
#543=EDGE_CURVE('',#436,#435,#33,.F.);
#544=EDGE_CURVE('',#436,#437,#226,.T.);
#545=EDGE_CURVE('',#437,#438,#227,.T.);
#546=EDGE_CURVE('',#439,#438,#34,.T.);
#547=EDGE_CURVE('',#440,#439,#228,.T.);
#548=EDGE_CURVE('',#441,#440,#35,.T.);
#549=EDGE_CURVE('',#441,#442,#229,.T.);
#550=EDGE_CURVE('',#433,#442,#36,.T.);
#551=EDGE_CURVE('',#443,#431,#230,.T.);
#552=EDGE_CURVE('',#443,#444,#231,.T.);
#553=EDGE_CURVE('',#444,#445,#37,.T.);
#554=EDGE_CURVE('',#446,#445,#232,.T.);
#555=EDGE_CURVE('',#421,#446,#233,.T.);
#556=EDGE_CURVE('',#447,#424,#234,.T.);
#557=EDGE_CURVE('',#448,#447,#235,.T.);
#558=EDGE_CURVE('',#425,#448,#236,.T.);
#559=EDGE_CURVE('',#442,#409,#237,.T.);
#560=EDGE_CURVE('',#410,#441,#238,.T.);
#561=EDGE_CURVE('',#423,#449,#38,.T.);
#562=EDGE_CURVE('',#449,#404,#239,.T.);
#563=EDGE_CURVE('',#450,#449,#240,.T.);
#564=EDGE_CURVE('',#444,#450,#241,.T.);
#565=EDGE_CURVE('',#443,#405,#242,.T.);
#566=EDGE_CURVE('',#422,#451,#243,.T.);
#567=EDGE_CURVE('',#451,#452,#244,.T.);
#568=EDGE_CURVE('',#450,#452,#39,.T.);
#569=EDGE_CURVE('',#452,#445,#245,.T.);
#570=EDGE_CURVE('',#440,#411,#246,.T.);
#571=EDGE_CURVE('',#412,#439,#247,.T.);
#572=EDGE_CURVE('',#438,#413,#248,.T.);
#573=EDGE_CURVE('',#453,#454,#40,.T.);
#574=EDGE_CURVE('',#454,#436,#249,.T.);
#575=EDGE_CURVE('',#435,#453,#250,.T.);
#576=EDGE_CURVE('',#455,#454,#251,.T.);
#577=EDGE_CURVE('',#415,#455,#252,.T.);
#578=EDGE_CURVE('',#414,#437,#253,.T.);
#579=EDGE_CURVE('',#453,#456,#254,.T.);
#580=EDGE_CURVE('',#456,#430,#255,.T.);
#581=EDGE_CURVE('',#455,#429,#41,.T.);
#582=EDGE_CURVE('',#456,#434,#256,.T.);
#583=EDGE_CURVE('',#457,#447,#257,.T.);
#584=EDGE_CURVE('',#458,#457,#258,.T.);
#585=EDGE_CURVE('',#458,#448,#259,.T.);
#586=EDGE_CURVE('',#451,#446,#260,.T.);
#587=EDGE_CURVE('',#426,#458,#261,.T.);
#588=EDGE_CURVE('',#457,#427,#262,.T.);
#589=ORIENTED_EDGE('',*,*,#459,.F.);
#590=ORIENTED_EDGE('',*,*,#460,.F.);
#591=ORIENTED_EDGE('',*,*,#461,.F.);
#592=ORIENTED_EDGE('',*,*,#462,.T.);
#593=ORIENTED_EDGE('',*,*,#463,.F.);
#594=ORIENTED_EDGE('',*,*,#462,.F.);
#595=ORIENTED_EDGE('',*,*,#464,.F.);
#596=ORIENTED_EDGE('',*,*,#465,.T.);
#597=ORIENTED_EDGE('',*,*,#466,.F.);
#598=ORIENTED_EDGE('',*,*,#465,.F.);
#599=ORIENTED_EDGE('',*,*,#467,.F.);
#600=ORIENTED_EDGE('',*,*,#468,.T.);
#601=ORIENTED_EDGE('',*,*,#469,.F.);
#602=ORIENTED_EDGE('',*,*,#468,.F.);
#603=ORIENTED_EDGE('',*,*,#470,.F.);
#604=ORIENTED_EDGE('',*,*,#460,.T.);
#605=ORIENTED_EDGE('',*,*,#471,.F.);
#606=ORIENTED_EDGE('',*,*,#472,.F.);
#607=ORIENTED_EDGE('',*,*,#473,.F.);
#608=ORIENTED_EDGE('',*,*,#474,.T.);
#609=ORIENTED_EDGE('',*,*,#475,.F.);
#610=ORIENTED_EDGE('',*,*,#474,.F.);
#611=ORIENTED_EDGE('',*,*,#476,.F.);
#612=ORIENTED_EDGE('',*,*,#477,.T.);
#613=ORIENTED_EDGE('',*,*,#478,.F.);
#614=ORIENTED_EDGE('',*,*,#477,.F.);
#615=ORIENTED_EDGE('',*,*,#479,.F.);
#616=ORIENTED_EDGE('',*,*,#480,.T.);
#617=ORIENTED_EDGE('',*,*,#481,.F.);
#618=ORIENTED_EDGE('',*,*,#480,.F.);
#619=ORIENTED_EDGE('',*,*,#482,.F.);
#620=ORIENTED_EDGE('',*,*,#472,.T.);
#621=ORIENTED_EDGE('',*,*,#483,.F.);
#622=ORIENTED_EDGE('',*,*,#484,.F.);
#623=ORIENTED_EDGE('',*,*,#485,.F.);
#624=ORIENTED_EDGE('',*,*,#486,.T.);
#625=ORIENTED_EDGE('',*,*,#487,.F.);
#626=ORIENTED_EDGE('',*,*,#486,.F.);
#627=ORIENTED_EDGE('',*,*,#488,.F.);
#628=ORIENTED_EDGE('',*,*,#489,.T.);
#629=ORIENTED_EDGE('',*,*,#490,.F.);
#630=ORIENTED_EDGE('',*,*,#489,.F.);
#631=ORIENTED_EDGE('',*,*,#491,.F.);
#632=ORIENTED_EDGE('',*,*,#492,.T.);
#633=ORIENTED_EDGE('',*,*,#493,.F.);
#634=ORIENTED_EDGE('',*,*,#492,.F.);
#635=ORIENTED_EDGE('',*,*,#494,.F.);
#636=ORIENTED_EDGE('',*,*,#484,.T.);
#637=ORIENTED_EDGE('',*,*,#495,.T.);
#638=ORIENTED_EDGE('',*,*,#496,.T.);
#639=ORIENTED_EDGE('',*,*,#497,.T.);
#640=ORIENTED_EDGE('',*,*,#498,.T.);
#641=ORIENTED_EDGE('',*,*,#496,.F.);
#642=ORIENTED_EDGE('',*,*,#499,.T.);
#643=ORIENTED_EDGE('',*,*,#500,.F.);
#644=ORIENTED_EDGE('',*,*,#501,.T.);
#645=ORIENTED_EDGE('',*,*,#495,.F.);
#646=ORIENTED_EDGE('',*,*,#502,.F.);
#647=ORIENTED_EDGE('',*,*,#503,.F.);
#648=ORIENTED_EDGE('',*,*,#504,.T.);
#649=ORIENTED_EDGE('',*,*,#505,.T.);
#650=ORIENTED_EDGE('',*,*,#506,.F.);
#651=ORIENTED_EDGE('',*,*,#507,.F.);
#652=ORIENTED_EDGE('',*,*,#508,.F.);
#653=ORIENTED_EDGE('',*,*,#509,.T.);
#654=ORIENTED_EDGE('',*,*,#510,.F.);
#655=ORIENTED_EDGE('',*,*,#511,.F.);
#656=ORIENTED_EDGE('',*,*,#512,.F.);
#657=ORIENTED_EDGE('',*,*,#513,.F.);
#658=ORIENTED_EDGE('',*,*,#514,.F.);
#659=ORIENTED_EDGE('',*,*,#515,.F.);
#660=ORIENTED_EDGE('',*,*,#516,.T.);
#661=ORIENTED_EDGE('',*,*,#517,.F.);
#662=ORIENTED_EDGE('',*,*,#499,.F.);
#663=ORIENTED_EDGE('',*,*,#466,.T.);
#664=ORIENTED_EDGE('',*,*,#469,.T.);
#665=ORIENTED_EDGE('',*,*,#459,.T.);
#666=ORIENTED_EDGE('',*,*,#463,.T.);
#667=ORIENTED_EDGE('',*,*,#478,.T.);
#668=ORIENTED_EDGE('',*,*,#481,.T.);
#669=ORIENTED_EDGE('',*,*,#471,.T.);
#670=ORIENTED_EDGE('',*,*,#475,.T.);
#671=ORIENTED_EDGE('',*,*,#490,.T.);
#672=ORIENTED_EDGE('',*,*,#493,.T.);
#673=ORIENTED_EDGE('',*,*,#483,.T.);
#674=ORIENTED_EDGE('',*,*,#487,.T.);
#675=ORIENTED_EDGE('',*,*,#518,.T.);
#676=ORIENTED_EDGE('',*,*,#500,.T.);
#677=ORIENTED_EDGE('',*,*,#517,.T.);
#678=ORIENTED_EDGE('',*,*,#519,.T.);
#679=ORIENTED_EDGE('',*,*,#498,.F.);
#680=ORIENTED_EDGE('',*,*,#520,.F.);
#681=ORIENTED_EDGE('',*,*,#521,.F.);
#682=ORIENTED_EDGE('',*,*,#502,.T.);
#683=ORIENTED_EDGE('',*,*,#519,.F.);
#684=ORIENTED_EDGE('',*,*,#516,.F.);
#685=ORIENTED_EDGE('',*,*,#522,.F.);
#686=ORIENTED_EDGE('',*,*,#523,.T.);
#687=ORIENTED_EDGE('',*,*,#524,.T.);
#688=ORIENTED_EDGE('',*,*,#525,.F.);
#689=ORIENTED_EDGE('',*,*,#526,.F.);
#690=ORIENTED_EDGE('',*,*,#527,.F.);
#691=ORIENTED_EDGE('',*,*,#528,.T.);
#692=ORIENTED_EDGE('',*,*,#529,.F.);
#693=ORIENTED_EDGE('',*,*,#530,.F.);
#694=ORIENTED_EDGE('',*,*,#531,.T.);
#695=ORIENTED_EDGE('',*,*,#532,.T.);
#696=ORIENTED_EDGE('',*,*,#533,.F.);
#697=ORIENTED_EDGE('',*,*,#534,.F.);
#698=ORIENTED_EDGE('',*,*,#535,.T.);
#699=ORIENTED_EDGE('',*,*,#536,.T.);
#700=ORIENTED_EDGE('',*,*,#537,.T.);
#701=ORIENTED_EDGE('',*,*,#506,.T.);
#702=ORIENTED_EDGE('',*,*,#538,.T.);
#703=ORIENTED_EDGE('',*,*,#537,.F.);
#704=ORIENTED_EDGE('',*,*,#539,.T.);
#705=ORIENTED_EDGE('',*,*,#540,.F.);
#706=ORIENTED_EDGE('',*,*,#507,.T.);
#707=ORIENTED_EDGE('',*,*,#497,.F.);
#708=ORIENTED_EDGE('',*,*,#501,.F.);
#709=ORIENTED_EDGE('',*,*,#518,.F.);
#710=ORIENTED_EDGE('',*,*,#523,.F.);
#711=ORIENTED_EDGE('',*,*,#532,.F.);
#712=ORIENTED_EDGE('',*,*,#541,.F.);
#713=ORIENTED_EDGE('',*,*,#542,.F.);
#714=ORIENTED_EDGE('',*,*,#543,.F.);
#715=ORIENTED_EDGE('',*,*,#544,.T.);
#716=ORIENTED_EDGE('',*,*,#545,.T.);
#717=ORIENTED_EDGE('',*,*,#546,.F.);
#718=ORIENTED_EDGE('',*,*,#547,.F.);
#719=ORIENTED_EDGE('',*,*,#548,.F.);
#720=ORIENTED_EDGE('',*,*,#549,.T.);
#721=ORIENTED_EDGE('',*,*,#550,.F.);
#722=ORIENTED_EDGE('',*,*,#539,.F.);
#723=ORIENTED_EDGE('',*,*,#536,.F.);
#724=ORIENTED_EDGE('',*,*,#551,.F.);
#725=ORIENTED_EDGE('',*,*,#552,.T.);
#726=ORIENTED_EDGE('',*,*,#553,.T.);
#727=ORIENTED_EDGE('',*,*,#554,.F.);
#728=ORIENTED_EDGE('',*,*,#555,.F.);
#729=ORIENTED_EDGE('',*,*,#524,.F.);
#730=ORIENTED_EDGE('',*,*,#520,.T.);
#731=ORIENTED_EDGE('',*,*,#528,.F.);
#732=ORIENTED_EDGE('',*,*,#556,.F.);
#733=ORIENTED_EDGE('',*,*,#557,.F.);
#734=ORIENTED_EDGE('',*,*,#558,.F.);
#735=ORIENTED_EDGE('',*,*,#508,.T.);
#736=ORIENTED_EDGE('',*,*,#540,.T.);
#737=ORIENTED_EDGE('',*,*,#550,.T.);
#738=ORIENTED_EDGE('',*,*,#559,.T.);
#739=ORIENTED_EDGE('',*,*,#559,.F.);
#740=ORIENTED_EDGE('',*,*,#549,.F.);
#741=ORIENTED_EDGE('',*,*,#560,.F.);
#742=ORIENTED_EDGE('',*,*,#509,.F.);
#743=ORIENTED_EDGE('',*,*,#503,.T.);
#744=ORIENTED_EDGE('',*,*,#521,.T.);
#745=ORIENTED_EDGE('',*,*,#527,.T.);
#746=ORIENTED_EDGE('',*,*,#561,.T.);
#747=ORIENTED_EDGE('',*,*,#562,.T.);
#748=ORIENTED_EDGE('',*,*,#562,.F.);
#749=ORIENTED_EDGE('',*,*,#563,.F.);
#750=ORIENTED_EDGE('',*,*,#564,.F.);
#751=ORIENTED_EDGE('',*,*,#552,.F.);
#752=ORIENTED_EDGE('',*,*,#565,.T.);
#753=ORIENTED_EDGE('',*,*,#504,.F.);
#754=ORIENTED_EDGE('',*,*,#561,.F.);
#755=ORIENTED_EDGE('',*,*,#526,.T.);
#756=ORIENTED_EDGE('',*,*,#566,.T.);
#757=ORIENTED_EDGE('',*,*,#567,.T.);
#758=ORIENTED_EDGE('',*,*,#568,.F.);
#759=ORIENTED_EDGE('',*,*,#563,.T.);
#760=ORIENTED_EDGE('',*,*,#467,.T.);
#761=ORIENTED_EDGE('',*,*,#464,.T.);
#762=ORIENTED_EDGE('',*,*,#461,.T.);
#763=ORIENTED_EDGE('',*,*,#470,.T.);
#764=ORIENTED_EDGE('',*,*,#568,.T.);
#765=ORIENTED_EDGE('',*,*,#569,.T.);
#766=ORIENTED_EDGE('',*,*,#553,.F.);
#767=ORIENTED_EDGE('',*,*,#564,.T.);
#768=ORIENTED_EDGE('',*,*,#548,.T.);
#769=ORIENTED_EDGE('',*,*,#570,.T.);
#770=ORIENTED_EDGE('',*,*,#510,.T.);
#771=ORIENTED_EDGE('',*,*,#560,.T.);
#772=ORIENTED_EDGE('',*,*,#570,.F.);
#773=ORIENTED_EDGE('',*,*,#547,.T.);
#774=ORIENTED_EDGE('',*,*,#571,.F.);
#775=ORIENTED_EDGE('',*,*,#511,.T.);
#776=ORIENTED_EDGE('',*,*,#512,.T.);
#777=ORIENTED_EDGE('',*,*,#571,.T.);
#778=ORIENTED_EDGE('',*,*,#546,.T.);
#779=ORIENTED_EDGE('',*,*,#572,.T.);
#780=ORIENTED_EDGE('',*,*,#573,.T.);
#781=ORIENTED_EDGE('',*,*,#574,.T.);
#782=ORIENTED_EDGE('',*,*,#543,.T.);
#783=ORIENTED_EDGE('',*,*,#575,.T.);
#784=ORIENTED_EDGE('',*,*,#544,.F.);
#785=ORIENTED_EDGE('',*,*,#574,.F.);
#786=ORIENTED_EDGE('',*,*,#576,.F.);
#787=ORIENTED_EDGE('',*,*,#577,.F.);
#788=ORIENTED_EDGE('',*,*,#514,.T.);
#789=ORIENTED_EDGE('',*,*,#578,.T.);
#790=ORIENTED_EDGE('',*,*,#573,.F.);
#791=ORIENTED_EDGE('',*,*,#579,.T.);
#792=ORIENTED_EDGE('',*,*,#580,.T.);
#793=ORIENTED_EDGE('',*,*,#534,.T.);
#794=ORIENTED_EDGE('',*,*,#581,.F.);
#795=ORIENTED_EDGE('',*,*,#576,.T.);
#796=ORIENTED_EDGE('',*,*,#491,.T.);
#797=ORIENTED_EDGE('',*,*,#488,.T.);
#798=ORIENTED_EDGE('',*,*,#485,.T.);
#799=ORIENTED_EDGE('',*,*,#494,.T.);
#800=ORIENTED_EDGE('',*,*,#515,.T.);
#801=ORIENTED_EDGE('',*,*,#577,.T.);
#802=ORIENTED_EDGE('',*,*,#581,.T.);
#803=ORIENTED_EDGE('',*,*,#533,.T.);
#804=ORIENTED_EDGE('',*,*,#522,.T.);
#805=ORIENTED_EDGE('',*,*,#538,.F.);
#806=ORIENTED_EDGE('',*,*,#505,.F.);
#807=ORIENTED_EDGE('',*,*,#565,.F.);
#808=ORIENTED_EDGE('',*,*,#551,.T.);
#809=ORIENTED_EDGE('',*,*,#572,.F.);
#810=ORIENTED_EDGE('',*,*,#545,.F.);
#811=ORIENTED_EDGE('',*,*,#578,.F.);
#812=ORIENTED_EDGE('',*,*,#513,.T.);
#813=ORIENTED_EDGE('',*,*,#575,.F.);
#814=ORIENTED_EDGE('',*,*,#542,.T.);
#815=ORIENTED_EDGE('',*,*,#582,.F.);
#816=ORIENTED_EDGE('',*,*,#579,.F.);
#817=ORIENTED_EDGE('',*,*,#557,.T.);
#818=ORIENTED_EDGE('',*,*,#583,.F.);
#819=ORIENTED_EDGE('',*,*,#584,.F.);
#820=ORIENTED_EDGE('',*,*,#585,.T.);
#821=ORIENTED_EDGE('',*,*,#569,.F.);
#822=ORIENTED_EDGE('',*,*,#567,.F.);
#823=ORIENTED_EDGE('',*,*,#586,.T.);
#824=ORIENTED_EDGE('',*,*,#554,.T.);
#825=ORIENTED_EDGE('',*,*,#555,.T.);
#826=ORIENTED_EDGE('',*,*,#586,.F.);
#827=ORIENTED_EDGE('',*,*,#566,.F.);
#828=ORIENTED_EDGE('',*,*,#525,.T.);
#829=ORIENTED_EDGE('',*,*,#541,.T.);
#830=ORIENTED_EDGE('',*,*,#535,.F.);
#831=ORIENTED_EDGE('',*,*,#580,.F.);
#832=ORIENTED_EDGE('',*,*,#582,.T.);
#833=ORIENTED_EDGE('',*,*,#558,.T.);
#834=ORIENTED_EDGE('',*,*,#585,.F.);
#835=ORIENTED_EDGE('',*,*,#587,.F.);
#836=ORIENTED_EDGE('',*,*,#529,.T.);
#837=ORIENTED_EDGE('',*,*,#556,.T.);
#838=ORIENTED_EDGE('',*,*,#531,.F.);
#839=ORIENTED_EDGE('',*,*,#588,.F.);
#840=ORIENTED_EDGE('',*,*,#583,.T.);
#841=ORIENTED_EDGE('',*,*,#587,.T.);
#842=ORIENTED_EDGE('',*,*,#584,.T.);
#843=ORIENTED_EDGE('',*,*,#588,.T.);
#844=ORIENTED_EDGE('',*,*,#530,.T.);
#845=ORIENTED_EDGE('',*,*,#479,.T.);
#846=ORIENTED_EDGE('',*,*,#476,.T.);
#847=ORIENTED_EDGE('',*,*,#473,.T.);
#848=ORIENTED_EDGE('',*,*,#482,.T.);
#849=PLANE('',#935);
#850=PLANE('',#936);
#851=PLANE('',#937);
#852=PLANE('',#938);
#853=PLANE('',#939);
#854=PLANE('',#940);
#855=PLANE('',#941);
#856=PLANE('',#942);
#857=PLANE('',#943);
#858=PLANE('',#944);
#859=PLANE('',#945);
#860=PLANE('',#946);
#861=PLANE('',#950);
#862=PLANE('',#951);
#863=PLANE('',#961);
#864=PLANE('',#962);
#865=PLANE('',#963);
#866=PLANE('',#964);
#867=PLANE('',#965);
#868=PLANE('',#968);
#869=PLANE('',#969);
#870=PLANE('',#976);
#871=PLANE('',#979);
#872=PLANE('',#980);
#873=PLANE('',#984);
#874=PLANE('',#988);
#875=PLANE('',#989);
#876=PLANE('',#992);
#877=PLANE('',#993);
#878=PLANE('',#994);
#879=PLANE('',#995);
#880=PLANE('',#996);
#881=PLANE('',#997);
#882=PLANE('',#998);
#883=PLANE('',#999);
#884=PLANE('',#1000);
#885=PLANE('',#1001);
#886=ADVANCED_FACE('',(#52),#849,.F.);
#887=ADVANCED_FACE('',(#53),#850,.F.);
#888=ADVANCED_FACE('',(#54),#851,.F.);
#889=ADVANCED_FACE('',(#55),#852,.F.);
#890=ADVANCED_FACE('',(#56),#853,.F.);
#891=ADVANCED_FACE('',(#57),#854,.F.);
#892=ADVANCED_FACE('',(#58),#855,.F.);
#893=ADVANCED_FACE('',(#59),#856,.F.);
#894=ADVANCED_FACE('',(#60),#857,.F.);
#895=ADVANCED_FACE('',(#61),#858,.F.);
#896=ADVANCED_FACE('',(#62),#859,.F.);
#897=ADVANCED_FACE('',(#63),#860,.F.);
#898=ADVANCED_FACE('',(#64),#42,.T.);
#899=ADVANCED_FACE('',(#65),#861,.T.);
#900=ADVANCED_FACE('',(#66,#15,#16,#17),#862,.T.);
#901=ADVANCED_FACE('',(#67),#43,.T.);
#902=ADVANCED_FACE('',(#68),#863,.T.);
#903=ADVANCED_FACE('',(#69),#864,.T.);
#904=ADVANCED_FACE('',(#70),#865,.T.);
#905=ADVANCED_FACE('',(#71),#866,.T.);
#906=ADVANCED_FACE('',(#72),#867,.T.);
#907=ADVANCED_FACE('',(#73),#44,.T.);
#908=ADVANCED_FACE('',(#74),#868,.T.);
#909=ADVANCED_FACE('',(#75,#18),#869,.T.);
#910=ADVANCED_FACE('',(#76),#45,.T.);
#911=ADVANCED_FACE('',(#77),#870,.T.);
#912=ADVANCED_FACE('',(#78),#46,.T.);
#913=ADVANCED_FACE('',(#79),#871,.T.);
#914=ADVANCED_FACE('',(#80,#19),#872,.F.);
#915=ADVANCED_FACE('',(#81),#47,.T.);
#916=ADVANCED_FACE('',(#82),#48,.T.);
#917=ADVANCED_FACE('',(#83),#873,.T.);
#918=ADVANCED_FACE('',(#84),#49,.T.);
#919=ADVANCED_FACE('',(#85),#50,.T.);
#920=ADVANCED_FACE('',(#86),#874,.T.);
#921=ADVANCED_FACE('',(#87,#20),#875,.F.);
#922=ADVANCED_FACE('',(#88),#51,.T.);
#923=ADVANCED_FACE('',(#89),#876,.T.);
#924=ADVANCED_FACE('',(#90),#877,.T.);
#925=ADVANCED_FACE('',(#91),#878,.T.);
#926=ADVANCED_FACE('',(#92),#879,.T.);
#927=ADVANCED_FACE('',(#93),#880,.T.);
#928=ADVANCED_FACE('',(#94),#881,.T.);
#929=ADVANCED_FACE('',(#95),#882,.T.);
#930=ADVANCED_FACE('',(#96),#883,.T.);
#931=ADVANCED_FACE('',(#97),#884,.T.);
#932=ADVANCED_FACE('',(#98,#21),#885,.F.);
#933=CLOSED_SHELL('',(#886,#887,#888,#889,#890,#891,#892,#893,#894,#895,
#896,#897,#898,#899,#900,#901,#902,#903,#904,#905,#906,#907,#908,#909,#910,
#911,#912,#913,#914,#915,#916,#917,#918,#919,#920,#921,#922,#923,#924,#925,
#926,#927,#928,#929,#930,#931,#932));
#934=AXIS2_PLACEMENT_3D('',#1248,#1002,#1003);
#935=AXIS2_PLACEMENT_3D('',#1249,#1004,#1005);
#936=AXIS2_PLACEMENT_3D('',#1258,#1010,#1011);
#937=AXIS2_PLACEMENT_3D('',#1264,#1015,#1016);
#938=AXIS2_PLACEMENT_3D('',#1270,#1020,#1021);
#939=AXIS2_PLACEMENT_3D('',#1273,#1024,#1025);
#940=AXIS2_PLACEMENT_3D('',#1282,#1030,#1031);
#941=AXIS2_PLACEMENT_3D('',#1288,#1035,#1036);
#942=AXIS2_PLACEMENT_3D('',#1294,#1040,#1041);
#943=AXIS2_PLACEMENT_3D('',#1297,#1044,#1045);
#944=AXIS2_PLACEMENT_3D('',#1306,#1050,#1051);
#945=AXIS2_PLACEMENT_3D('',#1312,#1055,#1056);
#946=AXIS2_PLACEMENT_3D('',#1318,#1060,#1061);
#947=AXIS2_PLACEMENT_3D('',#1321,#1064,#1065);
#948=AXIS2_PLACEMENT_3D('',#1324,#1066,#1067);
#949=AXIS2_PLACEMENT_3D('',#1328,#1069,#1070);
#950=AXIS2_PLACEMENT_3D('',#1330,#1072,#1073);
#951=AXIS2_PLACEMENT_3D('',#1336,#1077,#1078);
#952=AXIS2_PLACEMENT_3D('',#1340,#1080,#1081);
#953=AXIS2_PLACEMENT_3D('',#1346,#1084,#1085);
#954=AXIS2_PLACEMENT_3D('',#1350,#1087,#1088);
#955=AXIS2_PLACEMENT_3D('',#1354,#1090,#1091);
#956=AXIS2_PLACEMENT_3D('',#1358,#1093,#1094);
#957=AXIS2_PLACEMENT_3D('',#1364,#1097,#1098);
#958=AXIS2_PLACEMENT_3D('',#1367,#1100,#1101);
#959=AXIS2_PLACEMENT_3D('',#1368,#1102,#1103);
#960=AXIS2_PLACEMENT_3D('',#1370,#1104,#1105);
#961=AXIS2_PLACEMENT_3D('',#1372,#1107,#1108);
#962=AXIS2_PLACEMENT_3D('',#1376,#1111,#1112);
#963=AXIS2_PLACEMENT_3D('',#1380,#1115,#1116);
#964=AXIS2_PLACEMENT_3D('',#1388,#1121,#1122);
#965=AXIS2_PLACEMENT_3D('',#1397,#1127,#1128);
#966=AXIS2_PLACEMENT_3D('',#1405,#1133,#1134);
#967=AXIS2_PLACEMENT_3D('',#1408,#1135,#1136);
#968=AXIS2_PLACEMENT_3D('',#1411,#1139,#1140);
#969=AXIS2_PLACEMENT_3D('',#1415,#1143,#1144);
#970=AXIS2_PLACEMENT_3D('',#1421,#1147,#1148);
#971=AXIS2_PLACEMENT_3D('',#1427,#1151,#1152);
#972=AXIS2_PLACEMENT_3D('',#1431,#1154,#1155);
#973=AXIS2_PLACEMENT_3D('',#1434,#1157,#1158);
#974=AXIS2_PLACEMENT_3D('',#1440,#1161,#1162);
#975=AXIS2_PLACEMENT_3D('',#1449,#1168,#1169);
#976=AXIS2_PLACEMENT_3D('',#1451,#1171,#1172);
#977=AXIS2_PLACEMENT_3D('',#1453,#1174,#1175);
#978=AXIS2_PLACEMENT_3D('',#1455,#1176,#1177);
#979=AXIS2_PLACEMENT_3D('',#1457,#1179,#1180);
#980=AXIS2_PLACEMENT_3D('',#1462,#1184,#1185);
#981=AXIS2_PLACEMENT_3D('',#1467,#1188,#1189);
#982=AXIS2_PLACEMENT_3D('',#1468,#1190,#1191);
#983=AXIS2_PLACEMENT_3D('',#1470,#1193,#1194);
#984=AXIS2_PLACEMENT_3D('',#1472,#1196,#1197);
#985=AXIS2_PLACEMENT_3D('',#1474,#1199,#1200);
#986=AXIS2_PLACEMENT_3D('',#1476,#1202,#1203);
#987=AXIS2_PLACEMENT_3D('',#1479,#1204,#1205);
#988=AXIS2_PLACEMENT_3D('',#1482,#1208,#1209);
#989=AXIS2_PLACEMENT_3D('',#1487,#1213,#1214);
#990=AXIS2_PLACEMENT_3D('',#1491,#1217,#1218);
#991=AXIS2_PLACEMENT_3D('',#1492,#1219,#1220);
#992=AXIS2_PLACEMENT_3D('',#1493,#1221,#1222);
#993=AXIS2_PLACEMENT_3D('',#1494,#1223,#1224);
#994=AXIS2_PLACEMENT_3D('',#1495,#1225,#1226);
#995=AXIS2_PLACEMENT_3D('',#1497,#1228,#1229);
#996=AXIS2_PLACEMENT_3D('',#1503,#1233,#1234);
#997=AXIS2_PLACEMENT_3D('',#1505,#1236,#1237);
#998=AXIS2_PLACEMENT_3D('',#1506,#1238,#1239);
#999=AXIS2_PLACEMENT_3D('',#1507,#1240,#1241);
#1000=AXIS2_PLACEMENT_3D('',#1509,#1243,#1244);
#1001=AXIS2_PLACEMENT_3D('',#1511,#1246,#1247);
#1002=DIRECTION('axis',(0.,0.,1.));
#1003=DIRECTION('refdir',(1.,0.,0.));
#1004=DIRECTION('center_axis',(1.,0.,0.));
#1005=DIRECTION('ref_axis',(0.,-1.,0.));
#1006=DIRECTION('',(0.,1.,0.));
#1007=DIRECTION('',(0.,0.,-1.));
#1008=DIRECTION('',(0.,-1.,0.));
#1009=DIRECTION('',(0.,0.,-1.));
#1010=DIRECTION('center_axis',(0.,1.,0.));
#1011=DIRECTION('ref_axis',(1.,0.,0.));
#1012=DIRECTION('',(-1.,0.,0.));
#1013=DIRECTION('',(1.,0.,0.));
#1014=DIRECTION('',(0.,0.,-1.));
#1015=DIRECTION('center_axis',(-1.,0.,0.));
#1016=DIRECTION('ref_axis',(0.,1.,0.));
#1017=DIRECTION('',(0.,-1.,0.));
#1018=DIRECTION('',(0.,1.,0.));
#1019=DIRECTION('',(0.,0.,-1.));
#1020=DIRECTION('center_axis',(0.,-1.,0.));
#1021=DIRECTION('ref_axis',(-1.,0.,0.));
#1022=DIRECTION('',(1.,0.,0.));
#1023=DIRECTION('',(-1.,0.,0.));
#1024=DIRECTION('center_axis',(1.,0.,0.));
#1025=DIRECTION('ref_axis',(0.,-1.,0.));
#1026=DIRECTION('',(0.,1.,0.));
#1027=DIRECTION('',(0.,0.,-1.));
#1028=DIRECTION('',(0.,-1.,0.));
#1029=DIRECTION('',(0.,0.,-1.));
#1030=DIRECTION('center_axis',(0.,1.,0.));
#1031=DIRECTION('ref_axis',(1.,0.,0.));
#1032=DIRECTION('',(-1.,0.,0.));
#1033=DIRECTION('',(1.,0.,0.));
#1034=DIRECTION('',(0.,0.,-1.));
#1035=DIRECTION('center_axis',(-1.,0.,0.));
#1036=DIRECTION('ref_axis',(0.,1.,0.));
#1037=DIRECTION('',(0.,-1.,0.));
#1038=DIRECTION('',(0.,1.,0.));
#1039=DIRECTION('',(0.,0.,-1.));
#1040=DIRECTION('center_axis',(0.,-1.,0.));
#1041=DIRECTION('ref_axis',(-1.,0.,0.));
#1042=DIRECTION('',(1.,0.,0.));
#1043=DIRECTION('',(-1.,0.,0.));
#1044=DIRECTION('center_axis',(1.,0.,0.));
#1045=DIRECTION('ref_axis',(0.,-1.,0.));
#1046=DIRECTION('',(0.,1.,0.));
#1047=DIRECTION('',(0.,0.,-1.));
#1048=DIRECTION('',(0.,-1.,0.));
#1049=DIRECTION('',(0.,0.,-1.));
#1050=DIRECTION('center_axis',(0.,1.,0.));
#1051=DIRECTION('ref_axis',(1.,0.,0.));
#1052=DIRECTION('',(-1.,0.,0.));
#1053=DIRECTION('',(1.,0.,0.));
#1054=DIRECTION('',(0.,0.,-1.));
#1055=DIRECTION('center_axis',(-1.,0.,0.));
#1056=DIRECTION('ref_axis',(0.,1.,0.));
#1057=DIRECTION('',(0.,-1.,0.));
#1058=DIRECTION('',(0.,1.,0.));
#1059=DIRECTION('',(0.,0.,-1.));
#1060=DIRECTION('center_axis',(0.,-1.,0.));
#1061=DIRECTION('ref_axis',(-1.,0.,0.));
#1062=DIRECTION('',(1.,0.,0.));
#1063=DIRECTION('',(-1.,0.,0.));
#1064=DIRECTION('center_axis',(0.,0.,-1.));
#1065=DIRECTION('ref_axis',(0.707106781186547,-0.707106781186547,0.));
#1066=DIRECTION('center_axis',(0.,0.,1.));
#1067=DIRECTION('ref_axis',(0.707106781186547,-0.707106781186547,0.));
#1068=DIRECTION('',(0.,0.,1.));
#1069=DIRECTION('center_axis',(0.,0.,-1.));
#1070=DIRECTION('ref_axis',(0.707106781186547,-0.707106781186547,0.));
#1071=DIRECTION('',(0.,0.,-1.));
#1072=DIRECTION('center_axis',(1.,0.,0.));
#1073=DIRECTION('ref_axis',(0.,0.,-1.));
#1074=DIRECTION('',(0.,1.,0.));
#1075=DIRECTION('',(0.,0.,-1.));
#1076=DIRECTION('',(0.,-1.,0.));
#1077=DIRECTION('center_axis',(0.,0.,-1.));
#1078=DIRECTION('ref_axis',(-1.,0.,0.));
#1079=DIRECTION('',(1.,0.,0.));
#1080=DIRECTION('center_axis',(0.,0.,1.));
#1081=DIRECTION('ref_axis',(0.707106781186547,-0.707106781186547,0.));
#1082=DIRECTION('',(-1.,0.,0.));
#1083=DIRECTION('',(0.,-1.,0.));
#1084=DIRECTION('center_axis',(0.,0.,1.));
#1085=DIRECTION('ref_axis',(0.707106781186547,-0.707106781186547,0.));
#1086=DIRECTION('',(1.,0.,0.));
#1087=DIRECTION('center_axis',(0.,0.,1.));
#1088=DIRECTION('ref_axis',(-0.707106781186547,-0.707106781186547,0.));
#1089=DIRECTION('',(0.,1.,0.));
#1090=DIRECTION('center_axis',(0.,0.,1.));
#1091=DIRECTION('ref_axis',(-0.707106781186547,0.707106781186547,0.));
#1092=DIRECTION('',(-1.,0.,0.));
#1093=DIRECTION('center_axis',(0.,0.,1.));
#1094=DIRECTION('ref_axis',(0.707106781186547,0.707106781186547,0.));
#1095=DIRECTION('',(0.,1.,0.));
#1096=DIRECTION('',(-1.,0.,0.));
#1097=DIRECTION('center_axis',(0.,0.,1.));
#1098=DIRECTION('ref_axis',(0.707106781186547,0.707106781186547,0.));
#1099=DIRECTION('',(1.,0.,0.));
#1100=DIRECTION('center_axis',(0.,0.,1.));
#1101=DIRECTION('ref_axis',(0.707106781186547,0.707106781186547,0.));
#1102=DIRECTION('center_axis',(0.,0.,1.));
#1103=DIRECTION('ref_axis',(0.707106781186547,0.707106781186547,0.));
#1104=DIRECTION('center_axis',(0.,0.,-1.));
#1105=DIRECTION('ref_axis',(0.707106781186547,0.707106781186547,0.));
#1106=DIRECTION('',(0.,0.,1.));
#1107=DIRECTION('center_axis',(0.,-1.,0.));
#1108=DIRECTION('ref_axis',(0.,0.,-1.));
#1109=DIRECTION('',(1.,0.,0.));
#1110=DIRECTION('',(0.,0.,1.));
#1111=DIRECTION('center_axis',(0.,1.,0.));
#1112=DIRECTION('ref_axis',(0.,0.,1.));
#1113=DIRECTION('',(0.,0.,-1.));
#1114=DIRECTION('',(1.,0.,0.));
#1115=DIRECTION('center_axis',(1.,0.,0.));
#1116=DIRECTION('ref_axis',(0.,-1.,0.));
#1117=DIRECTION('',(0.,1.,0.));
#1118=DIRECTION('',(0.,0.,-1.));
#1119=DIRECTION('',(0.,1.,0.));
#1120=DIRECTION('',(0.,0.,1.));
#1121=DIRECTION('center_axis',(1.,0.,0.));
#1122=DIRECTION('ref_axis',(0.,-1.,0.));
#1123=DIRECTION('',(0.,1.,0.));
#1124=DIRECTION('',(0.,0.,-1.));
#1125=DIRECTION('',(0.,1.,0.));
#1126=DIRECTION('',(0.,0.,-1.));
#1127=DIRECTION('center_axis',(1.,0.,0.));
#1128=DIRECTION('ref_axis',(0.,-1.,0.));
#1129=DIRECTION('',(0.,1.,0.));
#1130=DIRECTION('',(0.,0.,-1.));
#1131=DIRECTION('',(0.,1.,0.));
#1132=DIRECTION('',(0.,0.,-1.));
#1133=DIRECTION('center_axis',(0.,0.,1.));
#1134=DIRECTION('ref_axis',(0.707106781186547,-0.707106781186547,0.));
#1135=DIRECTION('center_axis',(0.,0.,-1.));
#1136=DIRECTION('ref_axis',(0.707106781186547,-0.707106781186547,0.));
#1137=DIRECTION('',(0.,0.,-1.));
#1138=DIRECTION('',(0.,0.,1.));
#1139=DIRECTION('center_axis',(0.,-1.,0.));
#1140=DIRECTION('ref_axis',(0.,0.,-1.));
#1141=DIRECTION('',(-1.,0.,0.));
#1142=DIRECTION('',(0.,0.,1.));
#1143=DIRECTION('center_axis',(0.,0.,1.));
#1144=DIRECTION('ref_axis',(-1.,0.,0.));
#1145=DIRECTION('',(1.,0.,0.));
#1146=DIRECTION('',(0.,-1.,0.));
#1147=DIRECTION('center_axis',(0.,0.,-1.));
#1148=DIRECTION('ref_axis',(-0.707106781186547,0.707106781186547,0.));
#1149=DIRECTION('',(-1.,0.,0.));
#1150=DIRECTION('',(0.,1.,0.));
#1151=DIRECTION('center_axis',(0.,0.,-1.));
#1152=DIRECTION('ref_axis',(0.707106781186547,0.707106781186547,0.));
#1153=DIRECTION('',(1.,0.,0.));
#1154=DIRECTION('center_axis',(0.,0.,-1.));
#1155=DIRECTION('ref_axis',(-0.707106781186547,0.707106781186547,0.));
#1156=DIRECTION('',(0.,-1.,0.));
#1157=DIRECTION('center_axis',(0.,0.,-1.));
#1158=DIRECTION('ref_axis',(-0.707106781186547,-0.707106781186547,0.));
#1159=DIRECTION('',(0.,-1.,0.));
#1160=DIRECTION('',(1.,0.,0.));
#1161=DIRECTION('center_axis',(0.,0.,-1.));
#1162=DIRECTION('ref_axis',(-0.707106781186547,-0.707106781186547,0.));
#1163=DIRECTION('',(0.,-1.,0.));
#1164=DIRECTION('',(-1.,0.,0.));
#1165=DIRECTION('',(1.,0.,0.));
#1166=DIRECTION('',(0.,-1.,0.));
#1167=DIRECTION('',(-1.,0.,0.));
#1168=DIRECTION('center_axis',(0.,0.,-1.));
#1169=DIRECTION('ref_axis',(-0.707106781186547,-0.707106781186547,0.));
#1170=DIRECTION('',(0.,0.,-1.));
#1171=DIRECTION('center_axis',(-1.,0.,0.));
#1172=DIRECTION('ref_axis',(0.,0.,1.));
#1173=DIRECTION('',(0.,0.,1.));
#1174=DIRECTION('center_axis',(0.,0.,-1.));
#1175=DIRECTION('ref_axis',(0.707106781186547,-0.707106781186547,0.));
#1176=DIRECTION('center_axis',(0.,0.,-1.));
#1177=DIRECTION('ref_axis',(0.707106781186547,-0.707106781186547,0.));
#1178=DIRECTION('',(0.,0.,-1.));
#1179=DIRECTION('center_axis',(0.,-1.,0.));
#1180=DIRECTION('ref_axis',(-1.,0.,0.));
#1181=DIRECTION('',(1.,0.,0.));
#1182=DIRECTION('',(0.,0.,1.));
#1183=DIRECTION('',(0.,0.,-1.));
#1184=DIRECTION('center_axis',(0.,0.,-1.));
#1185=DIRECTION('ref_axis',(1.,0.,0.));
#1186=DIRECTION('',(-1.,0.,0.));
#1187=DIRECTION('',(0.,-1.,0.));
#1188=DIRECTION('center_axis',(0.,0.,-1.));
#1189=DIRECTION('ref_axis',(-0.707106781186547,-0.707106781186547,0.));
#1190=DIRECTION('center_axis',(0.,0.,-1.));
#1191=DIRECTION('ref_axis',(-0.707106781186547,-0.707106781186547,0.));
#1192=DIRECTION('',(0.,0.,-1.));
#1193=DIRECTION('center_axis',(0.,0.,1.));
#1194=DIRECTION('ref_axis',(-0.707106781186547,0.707106781186547,0.));
#1195=DIRECTION('',(0.,0.,-1.));
#1196=DIRECTION('center_axis',(0.,1.,0.));
#1197=DIRECTION('ref_axis',(0.,0.,1.));
#1198=DIRECTION('',(0.,0.,1.));
#1199=DIRECTION('center_axis',(0.,0.,-1.));
#1200=DIRECTION('ref_axis',(0.707106781186547,0.707106781186547,0.));
#1201=DIRECTION('',(0.,0.,-1.));
#1202=DIRECTION('center_axis',(0.,0.,-1.));
#1203=DIRECTION('ref_axis',(-0.707106781186547,0.707106781186547,0.));
#1204=DIRECTION('center_axis',(0.,0.,-1.));
#1205=DIRECTION('ref_axis',(-0.707106781186547,0.707106781186547,0.));
#1206=DIRECTION('',(0.,0.,-1.));
#1207=DIRECTION('',(0.,0.,1.));
#1208=DIRECTION('center_axis',(0.,1.,0.));
#1209=DIRECTION('ref_axis',(1.,0.,0.));
#1210=DIRECTION('',(-1.,0.,0.));
#1211=DIRECTION('',(0.,0.,1.));
#1212=DIRECTION('',(0.,0.,1.));
#1213=DIRECTION('center_axis',(0.,0.,-1.));
#1214=DIRECTION('ref_axis',(1.,0.,0.));
#1215=DIRECTION('',(0.,-1.,0.));
#1216=DIRECTION('',(1.,0.,0.));
#1217=DIRECTION('center_axis',(0.,0.,-1.));
#1218=DIRECTION('ref_axis',(0.707106781186547,0.707106781186547,0.));
#1219=DIRECTION('center_axis',(0.,0.,-1.));
#1220=DIRECTION('ref_axis',(0.707106781186547,0.707106781186547,0.));
#1221=DIRECTION('center_axis',(1.,0.,0.));
#1222=DIRECTION('ref_axis',(0.,0.,1.));
#1223=DIRECTION('center_axis',(1.,0.,0.));
#1224=DIRECTION('ref_axis',(0.,0.,-1.));
#1225=DIRECTION('center_axis',(-1.,0.,0.));
#1226=DIRECTION('ref_axis',(0.,1.,0.));
#1227=DIRECTION('',(0.,0.,-1.));
#1228=DIRECTION('center_axis',(-1.,0.,0.));
#1229=DIRECTION('ref_axis',(0.,1.,0.));
#1230=DIRECTION('',(0.,0.,-1.));
#1231=DIRECTION('',(0.,-1.,0.));
#1232=DIRECTION('',(0.,0.,-1.));
#1233=DIRECTION('center_axis',(-1.,0.,0.));
#1234=DIRECTION('ref_axis',(0.,1.,0.));
#1235=DIRECTION('',(0.,0.,-1.));
#1236=DIRECTION('center_axis',(0.,1.,0.));
#1237=DIRECTION('ref_axis',(1.,0.,0.));
#1238=DIRECTION('center_axis',(0.,-1.,0.));
#1239=DIRECTION('ref_axis',(-1.,0.,0.));
#1240=DIRECTION('center_axis',(0.,1.,0.));
#1241=DIRECTION('ref_axis',(1.,0.,0.));
#1242=DIRECTION('',(-1.,0.,0.));
#1243=DIRECTION('center_axis',(0.,-1.,0.));
#1244=DIRECTION('ref_axis',(-1.,0.,0.));
#1245=DIRECTION('',(1.,0.,0.));
#1246=DIRECTION('center_axis',(0.,0.,-1.));
#1247=DIRECTION('ref_axis',(1.,0.,0.));
#1248=CARTESIAN_POINT('',(0.,0.,0.));
#1249=CARTESIAN_POINT('Origin',(30.,-45.0000006705523,-68.));
#1250=CARTESIAN_POINT('',(30.,-55.,-118.));
#1251=CARTESIAN_POINT('',(30.,-45.0000006705523,-118.));
#1252=CARTESIAN_POINT('',(30.,-22.5000003352761,-118.));
#1253=CARTESIAN_POINT('',(30.,-55.,-68.));
#1254=CARTESIAN_POINT('',(30.,-55.,-68.));
#1255=CARTESIAN_POINT('',(30.,-45.0000006705523,-68.));
#1256=CARTESIAN_POINT('',(30.,-47.5000003352761,-68.));
#1257=CARTESIAN_POINT('',(30.,-45.0000006705523,-68.));
#1258=CARTESIAN_POINT('Origin',(15.0000002235174,-45.0000006705523,-68.));
#1259=CARTESIAN_POINT('',(15.0000002235174,-45.0000006705523,-118.));
#1260=CARTESIAN_POINT('',(18.7500001117587,-45.0000006705523,-118.));
#1261=CARTESIAN_POINT('',(15.0000002235174,-45.0000006705523,-68.));
#1262=CARTESIAN_POINT('',(18.7500001117587,-45.0000006705523,-68.));
#1263=CARTESIAN_POINT('',(15.0000002235174,-45.0000006705523,-68.));
#1264=CARTESIAN_POINT('Origin',(15.0000002235174,-55.,-68.));
#1265=CARTESIAN_POINT('',(15.0000002235174,-55.,-118.));
#1266=CARTESIAN_POINT('',(15.0000002235174,-27.5,-118.));
#1267=CARTESIAN_POINT('',(15.0000002235174,-55.,-68.));
#1268=CARTESIAN_POINT('',(15.0000002235174,-52.5,-68.));
#1269=CARTESIAN_POINT('',(15.0000002235174,-55.,-68.));
#1270=CARTESIAN_POINT('Origin',(30.,-55.,-68.));
#1271=CARTESIAN_POINT('',(26.25,-55.,-118.));
#1272=CARTESIAN_POINT('',(26.25,-55.,-68.));
#1273=CARTESIAN_POINT('Origin',(30.0000004470348,5.00000007450581,-68.));
#1274=CARTESIAN_POINT('',(30.0000004470348,-5.00000007450581,-118.));
#1275=CARTESIAN_POINT('',(30.0000004470348,5.00000007450581,-118.));
#1276=CARTESIAN_POINT('',(30.0000004470348,2.5000000372529,-118.));
#1277=CARTESIAN_POINT('',(30.0000004470348,-5.00000007450581,-68.));
#1278=CARTESIAN_POINT('',(30.0000004470348,-5.00000007450581,-68.));
#1279=CARTESIAN_POINT('',(30.0000004470348,5.00000007450581,-68.));
#1280=CARTESIAN_POINT('',(30.0000004470348,2.5000000372529,-68.));
#1281=CARTESIAN_POINT('',(30.0000004470348,5.00000007450581,-68.));
#1282=CARTESIAN_POINT('Origin',(15.0000002235174,5.00000007450581,-68.));
#1283=CARTESIAN_POINT('',(15.0000002235174,5.00000007450581,-118.));
#1284=CARTESIAN_POINT('',(18.7500001117587,5.00000007450581,-118.));
#1285=CARTESIAN_POINT('',(15.0000002235174,5.00000007450581,-68.));
#1286=CARTESIAN_POINT('',(18.7500001117587,5.00000007450581,-68.));
#1287=CARTESIAN_POINT('',(15.0000002235174,5.00000007450581,-68.));
#1288=CARTESIAN_POINT('Origin',(15.0000002235174,-5.00000007450581,-68.));
#1289=CARTESIAN_POINT('',(15.0000002235174,-5.00000007450581,-118.));
#1290=CARTESIAN_POINT('',(15.0000002235174,-2.5000000372529,-118.));
#1291=CARTESIAN_POINT('',(15.0000002235174,-5.00000007450581,-68.));
#1292=CARTESIAN_POINT('',(15.0000002235174,-2.5000000372529,-68.));
#1293=CARTESIAN_POINT('',(15.0000002235174,-5.00000007450581,-68.));
#1294=CARTESIAN_POINT('Origin',(30.0000004470348,-5.00000007450581,-68.));
#1295=CARTESIAN_POINT('',(26.2500002235174,-5.00000007450581,-118.));
#1296=CARTESIAN_POINT('',(26.2500002235174,-5.00000007450581,-68.));
#1297=CARTESIAN_POINT('Origin',(30.0000004470348,55.0000008195639,-68.));
#1298=CARTESIAN_POINT('',(30.0000004470348,45.0000006705523,-118.));
#1299=CARTESIAN_POINT('',(30.0000004470348,55.0000008195639,-118.));
#1300=CARTESIAN_POINT('',(30.0000004470348,27.5000004097819,-118.));
#1301=CARTESIAN_POINT('',(30.0000004470348,45.0000006705523,-68.));
#1302=CARTESIAN_POINT('',(30.0000004470348,45.0000006705523,-68.));
#1303=CARTESIAN_POINT('',(30.0000004470348,55.0000008195639,-68.));
#1304=CARTESIAN_POINT('',(30.0000004470348,52.5000004097819,-68.));
#1305=CARTESIAN_POINT('',(30.0000004470348,55.0000008195639,-68.));
#1306=CARTESIAN_POINT('Origin',(15.0000002235174,55.0000008195639,-68.));
#1307=CARTESIAN_POINT('',(15.0000002235174,55.0000008195639,-118.));
#1308=CARTESIAN_POINT('',(18.7500001117587,55.0000008195639,-118.));
#1309=CARTESIAN_POINT('',(15.0000002235174,55.0000008195639,-68.));
#1310=CARTESIAN_POINT('',(18.7500001117587,55.0000008195639,-68.));
#1311=CARTESIAN_POINT('',(15.0000002235174,55.0000008195639,-68.));
#1312=CARTESIAN_POINT('Origin',(15.0000002235174,45.0000006705523,-68.));
#1313=CARTESIAN_POINT('',(15.0000002235174,45.0000006705523,-118.));
#1314=CARTESIAN_POINT('',(15.0000002235174,22.5000003352761,-118.));
#1315=CARTESIAN_POINT('',(15.0000002235174,45.0000006705523,-68.));
#1316=CARTESIAN_POINT('',(15.0000002235174,47.5000003352761,-68.));
#1317=CARTESIAN_POINT('',(15.0000002235174,45.0000006705523,-68.));
#1318=CARTESIAN_POINT('Origin',(30.0000004470348,45.0000006705523,-68.));
#1319=CARTESIAN_POINT('',(26.2500002235174,45.0000006705523,-118.));
#1320=CARTESIAN_POINT('',(26.2500002235174,45.0000006705523,-68.));
#1321=CARTESIAN_POINT('Origin',(70.,-50.0000008195639,-106.750001173466));
#1322=CARTESIAN_POINT('',(70.,-55.0000008195639,-118.));
#1323=CARTESIAN_POINT('',(75.,-50.0000008195639,-118.));
#1324=CARTESIAN_POINT('Origin',(70.,-50.0000008195639,-118.));
#1325=CARTESIAN_POINT('',(75.,-50.0000008195639,-103.000001564622));
#1326=CARTESIAN_POINT('',(75.,-50.0000008195639,-106.750001173466));
#1327=CARTESIAN_POINT('',(70.,-55.0000008195639,-103.000001564622));
#1328=CARTESIAN_POINT('Origin',(70.,-50.0000008195639,-103.));
#1329=CARTESIAN_POINT('',(70.,-55.0000008195639,-106.750001173466));
#1330=CARTESIAN_POINT('Origin',(75.,-4.09781932830811E-7,-110.500000782311));
#1331=CARTESIAN_POINT('',(75.,50.,-118.));
#1332=CARTESIAN_POINT('',(75.,55.,-118.));
#1333=CARTESIAN_POINT('',(75.,50.,-103.000001564622));
#1334=CARTESIAN_POINT('',(75.,50.,-114.250000391155));
#1335=CARTESIAN_POINT('',(75.,-55.0000008195639,-103.000001564622));
#1336=CARTESIAN_POINT('Origin',(22.5,0.,-118.));
#1337=CARTESIAN_POINT('',(35.,-55.,-118.));
#1338=CARTESIAN_POINT('',(35.,-55.0000008195639,-118.));
#1339=CARTESIAN_POINT('',(30.,-60.,-118.));
#1340=CARTESIAN_POINT('Origin',(30.,-55.,-118.));
#1341=CARTESIAN_POINT('',(10.,-60.,-118.));
#1342=CARTESIAN_POINT('',(10.,-60.,-118.));
#1343=CARTESIAN_POINT('',(10.,-95.,-118.));
#1344=CARTESIAN_POINT('',(10.,-60.,-118.));
#1345=CARTESIAN_POINT('',(5.,-100.,-118.));
#1346=CARTESIAN_POINT('Origin',(5.,-95.,-118.));
#1347=CARTESIAN_POINT('',(-35.,-100.,-118.));
#1348=CARTESIAN_POINT('',(-40.,-100.,-118.));
#1349=CARTESIAN_POINT('',(-40.,-95.,-118.));
#1350=CARTESIAN_POINT('Origin',(-35.,-95.,-118.));
#1351=CARTESIAN_POINT('',(-40.,95.,-118.));
#1352=CARTESIAN_POINT('',(-40.,60.,-118.));
#1353=CARTESIAN_POINT('',(-35.,100.,-118.));
#1354=CARTESIAN_POINT('Origin',(-35.,95.,-118.));
#1355=CARTESIAN_POINT('',(5.,100.,-118.));
#1356=CARTESIAN_POINT('',(-40.,100.,-118.));
#1357=CARTESIAN_POINT('',(10.,95.,-118.));
#1358=CARTESIAN_POINT('Origin',(5.,95.,-118.));
#1359=CARTESIAN_POINT('',(10.,60.,-118.));
#1360=CARTESIAN_POINT('',(10.,60.,-118.));
#1361=CARTESIAN_POINT('',(30.,60.,-118.));
#1362=CARTESIAN_POINT('',(10.,60.,-118.));
#1363=CARTESIAN_POINT('',(35.,55.,-118.));
#1364=CARTESIAN_POINT('Origin',(30.,55.,-118.));
#1365=CARTESIAN_POINT('',(70.,55.,-118.));
#1366=CARTESIAN_POINT('',(35.,55.,-118.));
#1367=CARTESIAN_POINT('Origin',(70.,50.,-118.));
#1368=CARTESIAN_POINT('Origin',(70.,50.,-114.250000391155));
#1369=CARTESIAN_POINT('',(70.,55.,-103.000001564622));
#1370=CARTESIAN_POINT('Origin',(70.,50.,-103.));
#1371=CARTESIAN_POINT('',(70.,55.,-114.250000391155));
#1372=CARTESIAN_POINT('Origin',(35.,-55.0000008195639,-103.000001564622));
#1373=CARTESIAN_POINT('',(35.,-55.0000008195639,-103.000001564622));
#1374=CARTESIAN_POINT('',(35.,-55.0000008195639,-103.000001564622));
#1375=CARTESIAN_POINT('',(35.,-55.,-68.));
#1376=CARTESIAN_POINT('Origin',(35.,55.,-118.));
#1377=CARTESIAN_POINT('',(35.,55.,-103.000001564622));
#1378=CARTESIAN_POINT('',(35.,55.,-68.));
#1379=CARTESIAN_POINT('',(35.,55.,-103.000001564622));
#1380=CARTESIAN_POINT('Origin',(35.,10.,-68.));
#1381=CARTESIAN_POINT('',(35.,-40.,-103.));
#1382=CARTESIAN_POINT('',(35.,32.5,-103.000001564622));
#1383=CARTESIAN_POINT('',(35.,-40.,-68.));
#1384=CARTESIAN_POINT('',(35.,-40.,-68.));
#1385=CARTESIAN_POINT('',(35.,-55.,-68.));
#1386=CARTESIAN_POINT('',(35.,-60.,-68.));
#1387=CARTESIAN_POINT('',(35.,-55.,-68.));
#1388=CARTESIAN_POINT('Origin',(35.,10.,-68.));
#1389=CARTESIAN_POINT('',(35.,-10.,-103.));
#1390=CARTESIAN_POINT('',(35.,10.,-103.));
#1391=CARTESIAN_POINT('',(35.,32.5,-103.000001564622));
#1392=CARTESIAN_POINT('',(35.,10.,-68.));
#1393=CARTESIAN_POINT('',(35.,10.,-68.));
#1394=CARTESIAN_POINT('',(35.,-10.,-68.));
#1395=CARTESIAN_POINT('',(35.,-10.,-68.));
#1396=CARTESIAN_POINT('',(35.,-10.,-68.));
#1397=CARTESIAN_POINT('Origin',(35.,10.,-68.));
#1398=CARTESIAN_POINT('',(35.,40.,-103.));
#1399=CARTESIAN_POINT('',(35.,32.5,-103.000001564622));
#1400=CARTESIAN_POINT('',(35.,55.,-68.));
#1401=CARTESIAN_POINT('',(35.,55.,-68.));
#1402=CARTESIAN_POINT('',(35.,40.,-68.));
#1403=CARTESIAN_POINT('',(35.,40.,-68.));
#1404=CARTESIAN_POINT('',(35.,40.,-68.));
#1405=CARTESIAN_POINT('Origin',(5.,-95.,-114.25));
#1406=CARTESIAN_POINT('',(10.,-95.,-103.));
#1407=CARTESIAN_POINT('',(5.,-100.,-103.));
#1408=CARTESIAN_POINT('Origin',(5.,-95.,-103.));
#1409=CARTESIAN_POINT('',(5.,-100.,-114.25));
#1410=CARTESIAN_POINT('',(10.,-95.,-114.25));
#1411=CARTESIAN_POINT('Origin',(-15.,-100.,-110.5));
#1412=CARTESIAN_POINT('',(-35.,-100.,-103.));
#1413=CARTESIAN_POINT('',(10.,-100.,-103.));
#1414=CARTESIAN_POINT('',(-35.,-100.,-110.5));
#1415=CARTESIAN_POINT('Origin',(35.,40.,-103.));
#1416=CARTESIAN_POINT('',(10.,40.,-103.));
#1417=CARTESIAN_POINT('',(35.,40.,-103.));
#1418=CARTESIAN_POINT('',(10.,55.,-103.));
#1419=CARTESIAN_POINT('',(10.,-35.,-103.));
#1420=CARTESIAN_POINT('',(15.,60.,-103.));
#1421=CARTESIAN_POINT('Origin',(15.,55.,-103.));
#1422=CARTESIAN_POINT('',(10.,60.,-103.));
#1423=CARTESIAN_POINT('',(22.5,60.,-103.));
#1424=CARTESIAN_POINT('',(10.,95.,-103.));
#1425=CARTESIAN_POINT('',(10.,60.,-103.));
#1426=CARTESIAN_POINT('',(5.,100.,-103.));
#1427=CARTESIAN_POINT('Origin',(5.,95.,-103.));
#1428=CARTESIAN_POINT('',(-35.,100.,-103.));
#1429=CARTESIAN_POINT('',(10.,100.,-103.));
#1430=CARTESIAN_POINT('',(-40.,95.,-103.));
#1431=CARTESIAN_POINT('Origin',(-35.,95.,-103.));
#1432=CARTESIAN_POINT('',(-40.,-95.,-103.));
#1433=CARTESIAN_POINT('',(-40.,-60.,-103.));
#1434=CARTESIAN_POINT('Origin',(-35.,-95.,-103.));
#1435=CARTESIAN_POINT('',(10.,-60.,-103.));
#1436=CARTESIAN_POINT('',(10.,-60.,-103.));
#1437=CARTESIAN_POINT('',(15.,-60.,-103.));
#1438=CARTESIAN_POINT('',(35.,-60.,-103.));
#1439=CARTESIAN_POINT('',(10.,-55.,-103.));
#1440=CARTESIAN_POINT('Origin',(15.,-55.,-103.));
#1441=CARTESIAN_POINT('',(10.,-40.,-103.));
#1442=CARTESIAN_POINT('',(10.,-35.,-103.));
#1443=CARTESIAN_POINT('',(22.5,-40.,-103.));
#1444=CARTESIAN_POINT('',(10.,-10.,-103.));
#1445=CARTESIAN_POINT('',(35.,-10.,-103.));
#1446=CARTESIAN_POINT('',(10.,10.,-103.));
#1447=CARTESIAN_POINT('',(10.,-35.,-103.));
#1448=CARTESIAN_POINT('',(22.5,10.,-103.));
#1449=CARTESIAN_POINT('Origin',(-35.,-95.,-110.5));
#1450=CARTESIAN_POINT('',(-40.,-95.,-110.5));
#1451=CARTESIAN_POINT('Origin',(-40.,0.,-110.5));
#1452=CARTESIAN_POINT('',(-40.,95.,-110.5));
#1453=CARTESIAN_POINT('Origin',(30.,-55.,-68.));
#1454=CARTESIAN_POINT('',(30.,-60.,-68.));
#1455=CARTESIAN_POINT('Origin',(30.,-55.,-68.));
#1456=CARTESIAN_POINT('',(30.,-60.,-68.));
#1457=CARTESIAN_POINT('Origin',(35.,-60.,-68.));
#1458=CARTESIAN_POINT('',(15.,-60.,-68.));
#1459=CARTESIAN_POINT('',(10.,-60.,-68.));
#1460=CARTESIAN_POINT('',(15.,-60.,-68.));
#1461=CARTESIAN_POINT('',(10.,-60.,-93.));
#1462=CARTESIAN_POINT('Origin',(22.5,-50.,-68.));
#1463=CARTESIAN_POINT('',(10.,-40.,-68.));
#1464=CARTESIAN_POINT('',(35.,-40.,-68.));
#1465=CARTESIAN_POINT('',(10.,-55.,-68.));
#1466=CARTESIAN_POINT('',(10.,-40.,-68.));
#1467=CARTESIAN_POINT('Origin',(15.,-55.,-68.));
#1468=CARTESIAN_POINT('Origin',(15.,-55.,-68.));
#1469=CARTESIAN_POINT('',(10.,-55.,-68.));
#1470=CARTESIAN_POINT('Origin',(-35.,95.,-110.5));
#1471=CARTESIAN_POINT('',(-35.,100.,-110.5));
#1472=CARTESIAN_POINT('Origin',(-15.,100.,-110.5));
#1473=CARTESIAN_POINT('',(5.,100.,-106.75));
#1474=CARTESIAN_POINT('Origin',(5.,95.,-106.75));
#1475=CARTESIAN_POINT('',(10.,95.,-106.75));
#1476=CARTESIAN_POINT('Origin',(15.,55.,-68.));
#1477=CARTESIAN_POINT('',(10.,55.,-68.));
#1478=CARTESIAN_POINT('',(15.,60.,-68.));
#1479=CARTESIAN_POINT('Origin',(15.,55.,-68.));
#1480=CARTESIAN_POINT('',(15.,60.,-68.));
#1481=CARTESIAN_POINT('',(10.,55.,-68.));
#1482=CARTESIAN_POINT('Origin',(10.,60.,-68.));
#1483=CARTESIAN_POINT('',(30.,60.,-68.));
#1484=CARTESIAN_POINT('',(35.,60.,-68.));
#1485=CARTESIAN_POINT('',(30.,60.,-68.));
#1486=CARTESIAN_POINT('',(10.,60.,-85.5));
#1487=CARTESIAN_POINT('Origin',(22.5,50.,-68.));
#1488=CARTESIAN_POINT('',(10.,40.,-68.));
#1489=CARTESIAN_POINT('',(10.,60.,-68.));
#1490=CARTESIAN_POINT('',(10.,40.,-68.));
#1491=CARTESIAN_POINT('Origin',(30.,55.,-68.));
#1492=CARTESIAN_POINT('Origin',(30.,55.,-68.));
#1493=CARTESIAN_POINT('Origin',(10.,-60.,-118.));
#1494=CARTESIAN_POINT('Origin',(10.,60.,-103.));
#1495=CARTESIAN_POINT('Origin',(10.,-10.,-68.));
#1496=CARTESIAN_POINT('',(10.,40.,-68.));
#1497=CARTESIAN_POINT('Origin',(10.,-10.,-68.));
#1498=CARTESIAN_POINT('',(10.,-10.,-68.));
#1499=CARTESIAN_POINT('',(10.,-10.,-68.));
#1500=CARTESIAN_POINT('',(10.,10.,-68.));
#1501=CARTESIAN_POINT('',(10.,10.,-68.));
#1502=CARTESIAN_POINT('',(10.,10.,-68.));
#1503=CARTESIAN_POINT('Origin',(10.,-10.,-68.));
#1504=CARTESIAN_POINT('',(10.,-40.,-68.));
#1505=CARTESIAN_POINT('Origin',(10.,-40.,-68.));
#1506=CARTESIAN_POINT('Origin',(35.,40.,-68.));
#1507=CARTESIAN_POINT('Origin',(10.,10.,-68.));
#1508=CARTESIAN_POINT('',(35.,10.,-68.));
#1509=CARTESIAN_POINT('Origin',(35.,-10.,-68.));
#1510=CARTESIAN_POINT('',(10.,-10.,-68.));
#1511=CARTESIAN_POINT('Origin',(22.5,0.,-68.));
#1512=UNCERTAINTY_MEASURE_WITH_UNIT(LENGTH_MEASURE(0.01),#1516,
'DISTANCE_ACCURACY_VALUE',
'Maximum model space distance between geometric entities at asserted c
onnectivities');
#1513=UNCERTAINTY_MEASURE_WITH_UNIT(LENGTH_MEASURE(0.01),#1516,
'DISTANCE_ACCURACY_VALUE',
'Maximum model space distance between geometric entities at asserted c
onnectivities');
#1514=(
GEOMETRIC_REPRESENTATION_CONTEXT(3)
GLOBAL_UNCERTAINTY_ASSIGNED_CONTEXT((#1512))
GLOBAL_UNIT_ASSIGNED_CONTEXT((#1516,#1517,#1518))
REPRESENTATION_CONTEXT('','3D')
);
#1515=(
GEOMETRIC_REPRESENTATION_CONTEXT(3)
GLOBAL_UNCERTAINTY_ASSIGNED_CONTEXT((#1513))
GLOBAL_UNIT_ASSIGNED_CONTEXT((#1516,#1517,#1518))
REPRESENTATION_CONTEXT('','3D')
);
#1516=(
LENGTH_UNIT()
NAMED_UNIT(*)
SI_UNIT(.MILLI.,.METRE.)
);
#1517=(
NAMED_UNIT(*)
PLANE_ANGLE_UNIT()
SI_UNIT($,.RADIAN.)
);
#1518=(
NAMED_UNIT(*)
SI_UNIT($,.STERADIAN.)
SOLID_ANGLE_UNIT()
);
#1519=SHAPE_DEFINITION_REPRESENTATION(#1520,#1521);
#1520=PRODUCT_DEFINITION_SHAPE('',$,#1523);
#1521=SHAPE_REPRESENTATION('',(#934),#1514);
#1522=PRODUCT_DEFINITION_CONTEXT('part definition',#1527,'design');
#1523=PRODUCT_DEFINITION('2026-07-21-18-37-04-393','Main Housing',#1524,
#1522);
#1524=PRODUCT_DEFINITION_FORMATION('',$,#1529);
#1525=PRODUCT_RELATED_PRODUCT_CATEGORY('Main Housing','Main Housing',(#1529));
#1526=APPLICATION_PROTOCOL_DEFINITION('international standard',
'automotive_design',2009,#1527);
#1527=APPLICATION_CONTEXT(
'Core Data for Automotive Mechanical Design Process');
#1528=PRODUCT_CONTEXT('part definition',#1527,'mechanical');
#1529=PRODUCT('2026-07-21-18-37-04-393','Main Housing',$,(#1528));
#1530=PRESENTATION_STYLE_ASSIGNMENT((#1531));
#1531=SURFACE_STYLE_USAGE(.BOTH.,#1532);
#1532=SURFACE_SIDE_STYLE('',(#1533));
#1533=SURFACE_STYLE_FILL_AREA(#1534);
#1534=FILL_AREA_STYLE('Steel - Satin',(#1535));
#1535=FILL_AREA_STYLE_COLOUR('Steel - Satin',#1536);
#1536=COLOUR_RGB('Steel - Satin',0.627450980392157,0.627450980392157,0.627450980392157);
ENDSEC;
END-ISO-10303-21;
