ISO-10303-21;
HEADER;
/* Generated by software containing ST-Developer
 * from STEP Tools, Inc. (www.steptools.com) 
 */

FILE_DESCRIPTION(
/* description */ (''),
/* implementation_level */ '2;1');

FILE_NAME(
/* name */ 'Mesh Mount.step',
/* time_stamp */ '2026-07-22T22:26:21-07:00',
/* author */ (''),
/* organization */ (''),
/* preprocessor_version */ 'ST-DEVELOPER v20.1',
/* originating_system */ 'Autodesk Translation Framework v15.8.0.0',
/* authorisation */ '');

FILE_SCHEMA (('AUTOMOTIVE_DESIGN { 1 0 10303 214 3 1 1 }'));
ENDSEC;

DATA;
#10=MECHANICAL_DESIGN_GEOMETRIC_PRESENTATION_REPRESENTATION('',(#13),#487);
#11=SHAPE_REPRESENTATION_RELATIONSHIP('SRR','None',#493,#12);
#12=ADVANCED_BREP_SHAPE_REPRESENTATION('',(#14),#486);
#13=STYLED_ITEM('',(#502),#14);
#14=MANIFOLD_SOLID_BREP('Mesh Mount',#295);
#15=FACE_BOUND('',#63,.T.);
#16=FACE_BOUND('',#64,.T.);
#17=FACE_BOUND('',#65,.T.);
#18=FACE_BOUND('',#66,.T.);
#19=FACE_BOUND('',#67,.T.);
#20=FACE_BOUND('',#76,.T.);
#21=PLANE('',#300);
#22=PLANE('',#304);
#23=PLANE('',#308);
#24=PLANE('',#312);
#25=PLANE('',#313);
#26=PLANE('',#314);
#27=PLANE('',#315);
#28=PLANE('',#316);
#29=PLANE('',#317);
#30=PLANE('',#318);
#31=PLANE('',#319);
#32=PLANE('',#320);
#33=PLANE('',#321);
#34=PLANE('',#322);
#35=FACE_OUTER_BOUND('',#53,.T.);
#36=FACE_OUTER_BOUND('',#54,.T.);
#37=FACE_OUTER_BOUND('',#55,.T.);
#38=FACE_OUTER_BOUND('',#56,.T.);
#39=FACE_OUTER_BOUND('',#57,.T.);
#40=FACE_OUTER_BOUND('',#58,.T.);
#41=FACE_OUTER_BOUND('',#59,.T.);
#42=FACE_OUTER_BOUND('',#60,.T.);
#43=FACE_OUTER_BOUND('',#61,.T.);
#44=FACE_OUTER_BOUND('',#62,.T.);
#45=FACE_OUTER_BOUND('',#68,.T.);
#46=FACE_OUTER_BOUND('',#69,.T.);
#47=FACE_OUTER_BOUND('',#70,.T.);
#48=FACE_OUTER_BOUND('',#71,.T.);
#49=FACE_OUTER_BOUND('',#72,.T.);
#50=FACE_OUTER_BOUND('',#73,.T.);
#51=FACE_OUTER_BOUND('',#74,.T.);
#52=FACE_OUTER_BOUND('',#75,.T.);
#53=EDGE_LOOP('',(#201,#202,#203,#204));
#54=EDGE_LOOP('',(#205));
#55=EDGE_LOOP('',(#206,#207,#208,#209));
#56=EDGE_LOOP('',(#210));
#57=EDGE_LOOP('',(#211,#212,#213,#214));
#58=EDGE_LOOP('',(#215));
#59=EDGE_LOOP('',(#216,#217,#218,#219));
#60=EDGE_LOOP('',(#220));
#61=EDGE_LOOP('',(#221,#222,#223,#224));
#62=EDGE_LOOP('',(#225,#226,#227,#228));
#63=EDGE_LOOP('',(#229,#230,#231,#232));
#64=EDGE_LOOP('',(#233));
#65=EDGE_LOOP('',(#234));
#66=EDGE_LOOP('',(#235));
#67=EDGE_LOOP('',(#236));
#68=EDGE_LOOP('',(#237,#238,#239,#240));
#69=EDGE_LOOP('',(#241,#242,#243,#244));
#70=EDGE_LOOP('',(#245,#246,#247,#248));
#71=EDGE_LOOP('',(#249,#250,#251,#252));
#72=EDGE_LOOP('',(#253,#254,#255,#256));
#73=EDGE_LOOP('',(#257,#258,#259,#260));
#74=EDGE_LOOP('',(#261,#262,#263,#264));
#75=EDGE_LOOP('',(#265,#266,#267,#268));
#76=EDGE_LOOP('',(#269,#270,#271,#272));
#77=LINE('',#410,#105);
#78=LINE('',#417,#106);
#79=LINE('',#424,#107);
#80=LINE('',#431,#108);
#81=LINE('',#437,#109);
#82=LINE('',#439,#110);
#83=LINE('',#441,#111);
#84=LINE('',#442,#112);
#85=LINE('',#446,#113);
#86=LINE('',#448,#114);
#87=LINE('',#450,#115);
#88=LINE('',#451,#116);
#89=LINE('',#453,#117);
#90=LINE('',#455,#118);
#91=LINE('',#456,#119);
#92=LINE('',#459,#120);
#93=LINE('',#460,#121);
#94=LINE('',#463,#122);
#95=LINE('',#464,#123);
#96=LINE('',#466,#124);
#97=LINE('',#470,#125);
#98=LINE('',#471,#126);
#99=LINE('',#472,#127);
#100=LINE('',#475,#128);
#101=LINE('',#476,#129);
#102=LINE('',#479,#130);
#103=LINE('',#480,#131);
#104=LINE('',#482,#132);
#105=VECTOR('',#329,1.5);
#106=VECTOR('',#338,1.5);
#107=VECTOR('',#347,1.5);
#108=VECTOR('',#356,1.5);
#109=VECTOR('',#363,10.);
#110=VECTOR('',#364,10.);
#111=VECTOR('',#365,10.);
#112=VECTOR('',#366,10.);
#113=VECTOR('',#369,10.);
#114=VECTOR('',#370,10.);
#115=VECTOR('',#371,10.);
#116=VECTOR('',#372,10.);
#117=VECTOR('',#373,10.);
#118=VECTOR('',#374,10.);
#119=VECTOR('',#375,10.);
#120=VECTOR('',#378,10.);
#121=VECTOR('',#379,10.);
#122=VECTOR('',#382,10.);
#123=VECTOR('',#383,10.);
#124=VECTOR('',#386,10.);
#125=VECTOR('',#389,10.);
#126=VECTOR('',#390,10.);
#127=VECTOR('',#391,10.);
#128=VECTOR('',#394,10.);
#129=VECTOR('',#395,10.);
#130=VECTOR('',#398,10.);
#131=VECTOR('',#399,10.);
#132=VECTOR('',#402,10.);
#133=CIRCLE('',#298,1.5);
#134=CIRCLE('',#299,1.5);
#135=CIRCLE('',#302,1.5);
#136=CIRCLE('',#303,1.5);
#137=CIRCLE('',#306,1.5);
#138=CIRCLE('',#307,1.5);
#139=CIRCLE('',#310,1.5);
#140=CIRCLE('',#311,1.5);
#141=VERTEX_POINT('',#407);
#142=VERTEX_POINT('',#409);
#143=VERTEX_POINT('',#414);
#144=VERTEX_POINT('',#416);
#145=VERTEX_POINT('',#421);
#146=VERTEX_POINT('',#423);
#147=VERTEX_POINT('',#428);
#148=VERTEX_POINT('',#430);
#149=VERTEX_POINT('',#435);
#150=VERTEX_POINT('',#436);
#151=VERTEX_POINT('',#438);
#152=VERTEX_POINT('',#440);
#153=VERTEX_POINT('',#444);
#154=VERTEX_POINT('',#445);
#155=VERTEX_POINT('',#447);
#156=VERTEX_POINT('',#449);
#157=VERTEX_POINT('',#452);
#158=VERTEX_POINT('',#454);
#159=VERTEX_POINT('',#458);
#160=VERTEX_POINT('',#462);
#161=VERTEX_POINT('',#468);
#162=VERTEX_POINT('',#469);
#163=VERTEX_POINT('',#474);
#164=VERTEX_POINT('',#478);
#165=EDGE_CURVE('',#141,#141,#133,.T.);
#166=EDGE_CURVE('',#141,#142,#77,.T.);
#167=EDGE_CURVE('',#142,#142,#134,.T.);
#168=EDGE_CURVE('',#143,#143,#135,.T.);
#169=EDGE_CURVE('',#143,#144,#78,.T.);
#170=EDGE_CURVE('',#144,#144,#136,.T.);
#171=EDGE_CURVE('',#145,#145,#137,.T.);
#172=EDGE_CURVE('',#145,#146,#79,.T.);
#173=EDGE_CURVE('',#146,#146,#138,.T.);
#174=EDGE_CURVE('',#147,#147,#139,.T.);
#175=EDGE_CURVE('',#147,#148,#80,.T.);
#176=EDGE_CURVE('',#148,#148,#140,.T.);
#177=EDGE_CURVE('',#149,#150,#81,.T.);
#178=EDGE_CURVE('',#151,#149,#82,.T.);
#179=EDGE_CURVE('',#152,#151,#83,.T.);
#180=EDGE_CURVE('',#150,#152,#84,.T.);
#181=EDGE_CURVE('',#153,#154,#85,.T.);
#182=EDGE_CURVE('',#154,#155,#86,.T.);
#183=EDGE_CURVE('',#155,#156,#87,.T.);
#184=EDGE_CURVE('',#156,#153,#88,.T.);
#185=EDGE_CURVE('',#157,#152,#89,.T.);
#186=EDGE_CURVE('',#151,#158,#90,.T.);
#187=EDGE_CURVE('',#158,#157,#91,.T.);
#188=EDGE_CURVE('',#159,#149,#92,.T.);
#189=EDGE_CURVE('',#158,#159,#93,.T.);
#190=EDGE_CURVE('',#150,#160,#94,.T.);
#191=EDGE_CURVE('',#160,#157,#95,.T.);
#192=EDGE_CURVE('',#160,#159,#96,.T.);
#193=EDGE_CURVE('',#161,#162,#97,.T.);
#194=EDGE_CURVE('',#162,#153,#98,.T.);
#195=EDGE_CURVE('',#161,#156,#99,.T.);
#196=EDGE_CURVE('',#163,#161,#100,.T.);
#197=EDGE_CURVE('',#163,#155,#101,.T.);
#198=EDGE_CURVE('',#164,#163,#102,.T.);
#199=EDGE_CURVE('',#164,#154,#103,.T.);
#200=EDGE_CURVE('',#162,#164,#104,.T.);
#201=ORIENTED_EDGE('',*,*,#165,.F.);
#202=ORIENTED_EDGE('',*,*,#166,.T.);
#203=ORIENTED_EDGE('',*,*,#167,.T.);
#204=ORIENTED_EDGE('',*,*,#166,.F.);
#205=ORIENTED_EDGE('',*,*,#167,.F.);
#206=ORIENTED_EDGE('',*,*,#168,.F.);
#207=ORIENTED_EDGE('',*,*,#169,.T.);
#208=ORIENTED_EDGE('',*,*,#170,.T.);
#209=ORIENTED_EDGE('',*,*,#169,.F.);
#210=ORIENTED_EDGE('',*,*,#170,.F.);
#211=ORIENTED_EDGE('',*,*,#171,.F.);
#212=ORIENTED_EDGE('',*,*,#172,.T.);
#213=ORIENTED_EDGE('',*,*,#173,.T.);
#214=ORIENTED_EDGE('',*,*,#172,.F.);
#215=ORIENTED_EDGE('',*,*,#173,.F.);
#216=ORIENTED_EDGE('',*,*,#174,.F.);
#217=ORIENTED_EDGE('',*,*,#175,.T.);
#218=ORIENTED_EDGE('',*,*,#176,.T.);
#219=ORIENTED_EDGE('',*,*,#175,.F.);
#220=ORIENTED_EDGE('',*,*,#176,.F.);
#221=ORIENTED_EDGE('',*,*,#177,.F.);
#222=ORIENTED_EDGE('',*,*,#178,.F.);
#223=ORIENTED_EDGE('',*,*,#179,.F.);
#224=ORIENTED_EDGE('',*,*,#180,.F.);
#225=ORIENTED_EDGE('',*,*,#181,.T.);
#226=ORIENTED_EDGE('',*,*,#182,.T.);
#227=ORIENTED_EDGE('',*,*,#183,.T.);
#228=ORIENTED_EDGE('',*,*,#184,.T.);
#229=ORIENTED_EDGE('',*,*,#185,.T.);
#230=ORIENTED_EDGE('',*,*,#179,.T.);
#231=ORIENTED_EDGE('',*,*,#186,.T.);
#232=ORIENTED_EDGE('',*,*,#187,.T.);
#233=ORIENTED_EDGE('',*,*,#174,.T.);
#234=ORIENTED_EDGE('',*,*,#171,.T.);
#235=ORIENTED_EDGE('',*,*,#168,.T.);
#236=ORIENTED_EDGE('',*,*,#165,.T.);
#237=ORIENTED_EDGE('',*,*,#188,.F.);
#238=ORIENTED_EDGE('',*,*,#189,.F.);
#239=ORIENTED_EDGE('',*,*,#186,.F.);
#240=ORIENTED_EDGE('',*,*,#178,.T.);
#241=ORIENTED_EDGE('',*,*,#190,.F.);
#242=ORIENTED_EDGE('',*,*,#180,.T.);
#243=ORIENTED_EDGE('',*,*,#185,.F.);
#244=ORIENTED_EDGE('',*,*,#191,.F.);
#245=ORIENTED_EDGE('',*,*,#192,.F.);
#246=ORIENTED_EDGE('',*,*,#191,.T.);
#247=ORIENTED_EDGE('',*,*,#187,.F.);
#248=ORIENTED_EDGE('',*,*,#189,.T.);
#249=ORIENTED_EDGE('',*,*,#193,.T.);
#250=ORIENTED_EDGE('',*,*,#194,.T.);
#251=ORIENTED_EDGE('',*,*,#184,.F.);
#252=ORIENTED_EDGE('',*,*,#195,.F.);
#253=ORIENTED_EDGE('',*,*,#196,.T.);
#254=ORIENTED_EDGE('',*,*,#195,.T.);
#255=ORIENTED_EDGE('',*,*,#183,.F.);
#256=ORIENTED_EDGE('',*,*,#197,.F.);
#257=ORIENTED_EDGE('',*,*,#198,.T.);
#258=ORIENTED_EDGE('',*,*,#197,.T.);
#259=ORIENTED_EDGE('',*,*,#182,.F.);
#260=ORIENTED_EDGE('',*,*,#199,.F.);
#261=ORIENTED_EDGE('',*,*,#200,.T.);
#262=ORIENTED_EDGE('',*,*,#199,.T.);
#263=ORIENTED_EDGE('',*,*,#181,.F.);
#264=ORIENTED_EDGE('',*,*,#194,.F.);
#265=ORIENTED_EDGE('',*,*,#200,.F.);
#266=ORIENTED_EDGE('',*,*,#193,.F.);
#267=ORIENTED_EDGE('',*,*,#196,.F.);
#268=ORIENTED_EDGE('',*,*,#198,.F.);
#269=ORIENTED_EDGE('',*,*,#190,.T.);
#270=ORIENTED_EDGE('',*,*,#192,.T.);
#271=ORIENTED_EDGE('',*,*,#188,.T.);
#272=ORIENTED_EDGE('',*,*,#177,.T.);
#273=CYLINDRICAL_SURFACE('',#297,1.5);
#274=CYLINDRICAL_SURFACE('',#301,1.5);
#275=CYLINDRICAL_SURFACE('',#305,1.5);
#276=CYLINDRICAL_SURFACE('',#309,1.5);
#277=ADVANCED_FACE('',(#35),#273,.F.);
#278=ADVANCED_FACE('',(#36),#21,.T.);
#279=ADVANCED_FACE('',(#37),#274,.F.);
#280=ADVANCED_FACE('',(#38),#22,.T.);
#281=ADVANCED_FACE('',(#39),#275,.F.);
#282=ADVANCED_FACE('',(#40),#23,.T.);
#283=ADVANCED_FACE('',(#41),#276,.F.);
#284=ADVANCED_FACE('',(#42),#24,.T.);
#285=ADVANCED_FACE('',(#43),#25,.F.);
#286=ADVANCED_FACE('',(#44,#15,#16,#17,#18,#19),#26,.T.);
#287=ADVANCED_FACE('',(#45),#27,.F.);
#288=ADVANCED_FACE('',(#46),#28,.F.);
#289=ADVANCED_FACE('',(#47),#29,.F.);
#290=ADVANCED_FACE('',(#48),#30,.T.);
#291=ADVANCED_FACE('',(#49),#31,.T.);
#292=ADVANCED_FACE('',(#50),#32,.T.);
#293=ADVANCED_FACE('',(#51),#33,.T.);
#294=ADVANCED_FACE('',(#52,#20),#34,.F.);
#295=CLOSED_SHELL('',(#277,#278,#279,#280,#281,#282,#283,#284,#285,#286,
#287,#288,#289,#290,#291,#292,#293,#294));
#296=AXIS2_PLACEMENT_3D('',#405,#323,#324);
#297=AXIS2_PLACEMENT_3D('',#406,#325,#326);
#298=AXIS2_PLACEMENT_3D('',#408,#327,#328);
#299=AXIS2_PLACEMENT_3D('',#411,#330,#331);
#300=AXIS2_PLACEMENT_3D('',#412,#332,#333);
#301=AXIS2_PLACEMENT_3D('',#413,#334,#335);
#302=AXIS2_PLACEMENT_3D('',#415,#336,#337);
#303=AXIS2_PLACEMENT_3D('',#418,#339,#340);
#304=AXIS2_PLACEMENT_3D('',#419,#341,#342);
#305=AXIS2_PLACEMENT_3D('',#420,#343,#344);
#306=AXIS2_PLACEMENT_3D('',#422,#345,#346);
#307=AXIS2_PLACEMENT_3D('',#425,#348,#349);
#308=AXIS2_PLACEMENT_3D('',#426,#350,#351);
#309=AXIS2_PLACEMENT_3D('',#427,#352,#353);
#310=AXIS2_PLACEMENT_3D('',#429,#354,#355);
#311=AXIS2_PLACEMENT_3D('',#432,#357,#358);
#312=AXIS2_PLACEMENT_3D('',#433,#359,#360);
#313=AXIS2_PLACEMENT_3D('',#434,#361,#362);
#314=AXIS2_PLACEMENT_3D('',#443,#367,#368);
#315=AXIS2_PLACEMENT_3D('',#457,#376,#377);
#316=AXIS2_PLACEMENT_3D('',#461,#380,#381);
#317=AXIS2_PLACEMENT_3D('',#465,#384,#385);
#318=AXIS2_PLACEMENT_3D('',#467,#387,#388);
#319=AXIS2_PLACEMENT_3D('',#473,#392,#393);
#320=AXIS2_PLACEMENT_3D('',#477,#396,#397);
#321=AXIS2_PLACEMENT_3D('',#481,#400,#401);
#322=AXIS2_PLACEMENT_3D('',#483,#403,#404);
#323=DIRECTION('axis',(0.,0.,1.));
#324=DIRECTION('refdir',(1.,0.,0.));
#325=DIRECTION('center_axis',(-1.,0.,0.));
#326=DIRECTION('ref_axis',(0.,1.,0.));
#327=DIRECTION('center_axis',(-1.,0.,0.));
#328=DIRECTION('ref_axis',(0.,1.,0.));
#329=DIRECTION('',(-1.,0.,0.));
#330=DIRECTION('center_axis',(-1.,0.,0.));
#331=DIRECTION('ref_axis',(0.,1.,0.));
#332=DIRECTION('center_axis',(1.,0.,0.));
#333=DIRECTION('ref_axis',(0.,1.,0.));
#334=DIRECTION('center_axis',(-1.,0.,0.));
#335=DIRECTION('ref_axis',(0.,1.,0.));
#336=DIRECTION('center_axis',(-1.,0.,0.));
#337=DIRECTION('ref_axis',(0.,1.,0.));
#338=DIRECTION('',(-1.,0.,0.));
#339=DIRECTION('center_axis',(-1.,0.,0.));
#340=DIRECTION('ref_axis',(0.,1.,0.));
#341=DIRECTION('center_axis',(1.,0.,0.));
#342=DIRECTION('ref_axis',(0.,1.,0.));
#343=DIRECTION('center_axis',(-1.,0.,0.));
#344=DIRECTION('ref_axis',(0.,1.,0.));
#345=DIRECTION('center_axis',(-1.,0.,0.));
#346=DIRECTION('ref_axis',(0.,1.,0.));
#347=DIRECTION('',(-1.,0.,0.));
#348=DIRECTION('center_axis',(-1.,0.,0.));
#349=DIRECTION('ref_axis',(0.,1.,0.));
#350=DIRECTION('center_axis',(1.,0.,0.));
#351=DIRECTION('ref_axis',(0.,1.,0.));
#352=DIRECTION('center_axis',(-1.,0.,0.));
#353=DIRECTION('ref_axis',(0.,1.,0.));
#354=DIRECTION('center_axis',(-1.,0.,0.));
#355=DIRECTION('ref_axis',(0.,1.,0.));
#356=DIRECTION('',(-1.,0.,0.));
#357=DIRECTION('center_axis',(-1.,0.,0.));
#358=DIRECTION('ref_axis',(0.,1.,0.));
#359=DIRECTION('center_axis',(1.,0.,0.));
#360=DIRECTION('ref_axis',(0.,1.,0.));
#361=DIRECTION('center_axis',(0.,0.,-1.));
#362=DIRECTION('ref_axis',(-1.,0.,0.));
#363=DIRECTION('',(0.,1.,0.));
#364=DIRECTION('',(-1.,0.,0.));
#365=DIRECTION('',(0.,-1.,0.));
#366=DIRECTION('',(1.,0.,0.));
#367=DIRECTION('center_axis',(1.,0.,0.));
#368=DIRECTION('ref_axis',(0.,0.,-1.));
#369=DIRECTION('',(0.,0.,1.));
#370=DIRECTION('',(0.,-1.,0.));
#371=DIRECTION('',(0.,0.,-1.));
#372=DIRECTION('',(0.,1.,0.));
#373=DIRECTION('',(0.,0.,-1.));
#374=DIRECTION('',(0.,0.,1.));
#375=DIRECTION('',(0.,1.,0.));
#376=DIRECTION('center_axis',(0.,-1.,0.));
#377=DIRECTION('ref_axis',(0.,0.,-1.));
#378=DIRECTION('',(0.,0.,-1.));
#379=DIRECTION('',(-1.,0.,0.));
#380=DIRECTION('center_axis',(0.,1.,0.));
#381=DIRECTION('ref_axis',(0.,0.,1.));
#382=DIRECTION('',(0.,0.,1.));
#383=DIRECTION('',(1.,0.,0.));
#384=DIRECTION('center_axis',(0.,0.,1.));
#385=DIRECTION('ref_axis',(1.,0.,0.));
#386=DIRECTION('',(0.,-1.,0.));
#387=DIRECTION('center_axis',(0.,0.,-1.));
#388=DIRECTION('ref_axis',(0.,1.,0.));
#389=DIRECTION('',(0.,1.,0.));
#390=DIRECTION('',(1.,0.,0.));
#391=DIRECTION('',(1.,0.,0.));
#392=DIRECTION('center_axis',(0.,-1.,0.));
#393=DIRECTION('ref_axis',(0.,0.,-1.));
#394=DIRECTION('',(0.,0.,-1.));
#395=DIRECTION('',(1.,0.,0.));
#396=DIRECTION('center_axis',(0.,0.,1.));
#397=DIRECTION('ref_axis',(0.,-1.,0.));
#398=DIRECTION('',(0.,-1.,0.));
#399=DIRECTION('',(1.,0.,0.));
#400=DIRECTION('center_axis',(0.,1.,0.));
#401=DIRECTION('ref_axis',(0.,0.,1.));
#402=DIRECTION('',(0.,0.,1.));
#403=DIRECTION('center_axis',(1.,0.,0.));
#404=DIRECTION('ref_axis',(0.,0.,-1.));
#405=CARTESIAN_POINT('',(0.,0.,0.));
#406=CARTESIAN_POINT('Origin',(186.,-32.5000004842877,32.5000004842877));
#407=CARTESIAN_POINT('',(182.,-34.0000004842877,32.5000004842877));
#408=CARTESIAN_POINT('Origin',(182.,-32.5000004842877,32.5000004842877));
#409=CARTESIAN_POINT('',(176.,-34.0000004842877,32.5000004842877));
#410=CARTESIAN_POINT('',(186.,-34.0000004842877,32.5000004842877));
#411=CARTESIAN_POINT('Origin',(176.,-32.5000004842877,32.5000004842877));
#412=CARTESIAN_POINT('Origin',(176.,-32.5000004842877,32.5000004842877));
#413=CARTESIAN_POINT('Origin',(186.,-32.5000004842877,-32.4999995157123));
#414=CARTESIAN_POINT('',(182.,-34.0000004842877,-32.4999995157123));
#415=CARTESIAN_POINT('Origin',(182.,-32.5000004842877,-32.4999995157123));
#416=CARTESIAN_POINT('',(176.,-34.0000004842877,-32.4999995157123));
#417=CARTESIAN_POINT('',(186.,-34.0000004842877,-32.4999995157123));
#418=CARTESIAN_POINT('Origin',(176.,-32.5000004842877,-32.4999995157123));
#419=CARTESIAN_POINT('Origin',(176.,-32.5000004842877,-32.4999995157123));
#420=CARTESIAN_POINT('Origin',(186.,32.4999995157123,32.5000004842877));
#421=CARTESIAN_POINT('',(182.,30.9999995157123,32.5000004842877));
#422=CARTESIAN_POINT('Origin',(182.,32.4999995157123,32.5000004842877));
#423=CARTESIAN_POINT('',(176.,30.9999995157123,32.5000004842877));
#424=CARTESIAN_POINT('',(186.,30.9999995157123,32.5000004842877));
#425=CARTESIAN_POINT('Origin',(176.,32.4999995157123,32.5000004842877));
#426=CARTESIAN_POINT('Origin',(176.,32.4999995157123,32.5000004842877));
#427=CARTESIAN_POINT('Origin',(186.,32.4999995157123,-32.4999995157123));
#428=CARTESIAN_POINT('',(182.,30.9999995157123,-32.4999995157123));
#429=CARTESIAN_POINT('Origin',(182.,32.4999995157123,-32.4999995157123));
#430=CARTESIAN_POINT('',(176.,30.9999995157123,-32.4999995157123));
#431=CARTESIAN_POINT('',(186.,30.9999995157123,-32.4999995157123));
#432=CARTESIAN_POINT('Origin',(176.,32.4999995157123,-32.4999995157123));
#433=CARTESIAN_POINT('Origin',(176.,32.4999995157123,-32.4999995157123));
#434=CARTESIAN_POINT('Origin',(172.,30.,-31.));
#435=CARTESIAN_POINT('',(172.,-31.,-31.));
#436=CARTESIAN_POINT('',(172.,31.,-31.));
#437=CARTESIAN_POINT('',(172.,15.,-31.));
#438=CARTESIAN_POINT('',(182.,-31.,-31.));
#439=CARTESIAN_POINT('',(172.,-31.,-31.));
#440=CARTESIAN_POINT('',(182.,31.,-31.));
#441=CARTESIAN_POINT('',(182.,15.,-31.));
#442=CARTESIAN_POINT('',(172.,31.,-31.));
#443=CARTESIAN_POINT('Origin',(182.,0.,0.));
#444=CARTESIAN_POINT('',(182.,35.,-35.));
#445=CARTESIAN_POINT('',(182.,35.,35.));
#446=CARTESIAN_POINT('',(182.,35.,-35.));
#447=CARTESIAN_POINT('',(182.,-35.,35.));
#448=CARTESIAN_POINT('',(182.,35.,35.));
#449=CARTESIAN_POINT('',(182.,-35.,-35.));
#450=CARTESIAN_POINT('',(182.,-35.,35.));
#451=CARTESIAN_POINT('',(182.,-35.,-35.));
#452=CARTESIAN_POINT('',(182.,31.,31.));
#453=CARTESIAN_POINT('',(182.,31.,-15.));
#454=CARTESIAN_POINT('',(182.,-31.,31.));
#455=CARTESIAN_POINT('',(182.,-31.,-15.));
#456=CARTESIAN_POINT('',(182.,-15.,31.));
#457=CARTESIAN_POINT('Origin',(172.,-31.,-30.));
#458=CARTESIAN_POINT('',(172.,-31.,31.));
#459=CARTESIAN_POINT('',(172.,-31.,-15.));
#460=CARTESIAN_POINT('',(172.,-31.,31.));
#461=CARTESIAN_POINT('Origin',(172.,31.,30.));
#462=CARTESIAN_POINT('',(172.,31.,31.));
#463=CARTESIAN_POINT('',(172.,31.,-15.));
#464=CARTESIAN_POINT('',(172.,31.,31.));
#465=CARTESIAN_POINT('Origin',(172.,-30.,31.));
#466=CARTESIAN_POINT('',(172.,-15.,31.));
#467=CARTESIAN_POINT('Origin',(172.,-35.,-35.));
#468=CARTESIAN_POINT('',(172.,-35.,-35.));
#469=CARTESIAN_POINT('',(172.,35.,-35.));
#470=CARTESIAN_POINT('',(172.,-35.,-35.));
#471=CARTESIAN_POINT('',(172.,35.,-35.));
#472=CARTESIAN_POINT('',(172.,-35.,-35.));
#473=CARTESIAN_POINT('Origin',(172.,-35.,35.));
#474=CARTESIAN_POINT('',(172.,-35.,35.));
#475=CARTESIAN_POINT('',(172.,-35.,35.));
#476=CARTESIAN_POINT('',(172.,-35.,35.));
#477=CARTESIAN_POINT('Origin',(172.,35.,35.));
#478=CARTESIAN_POINT('',(172.,35.,35.));
#479=CARTESIAN_POINT('',(172.,35.,35.));
#480=CARTESIAN_POINT('',(172.,35.,35.));
#481=CARTESIAN_POINT('Origin',(172.,35.,-35.));
#482=CARTESIAN_POINT('',(172.,35.,-35.));
#483=CARTESIAN_POINT('Origin',(172.,0.,0.));
#484=UNCERTAINTY_MEASURE_WITH_UNIT(LENGTH_MEASURE(0.01),#488,
'DISTANCE_ACCURACY_VALUE',
'Maximum model space distance between geometric entities at asserted c
onnectivities');
#485=UNCERTAINTY_MEASURE_WITH_UNIT(LENGTH_MEASURE(0.01),#488,
'DISTANCE_ACCURACY_VALUE',
'Maximum model space distance between geometric entities at asserted c
onnectivities');
#486=(
GEOMETRIC_REPRESENTATION_CONTEXT(3)
GLOBAL_UNCERTAINTY_ASSIGNED_CONTEXT((#484))
GLOBAL_UNIT_ASSIGNED_CONTEXT((#488,#489,#490))
REPRESENTATION_CONTEXT('','3D')
);
#487=(
GEOMETRIC_REPRESENTATION_CONTEXT(3)
GLOBAL_UNCERTAINTY_ASSIGNED_CONTEXT((#485))
GLOBAL_UNIT_ASSIGNED_CONTEXT((#488,#489,#490))
REPRESENTATION_CONTEXT('','3D')
);
#488=(
LENGTH_UNIT()
NAMED_UNIT(*)
SI_UNIT(.MILLI.,.METRE.)
);
#489=(
NAMED_UNIT(*)
PLANE_ANGLE_UNIT()
SI_UNIT($,.RADIAN.)
);
#490=(
NAMED_UNIT(*)
SI_UNIT($,.STERADIAN.)
SOLID_ANGLE_UNIT()
);
#491=SHAPE_DEFINITION_REPRESENTATION(#492,#493);
#492=PRODUCT_DEFINITION_SHAPE('',$,#495);
#493=SHAPE_REPRESENTATION('',(#296),#486);
#494=PRODUCT_DEFINITION_CONTEXT('part definition',#499,'design');
#495=PRODUCT_DEFINITION('2026-07-21-18-37-04-393','Main Housing',#496,#494);
#496=PRODUCT_DEFINITION_FORMATION('',$,#501);
#497=PRODUCT_RELATED_PRODUCT_CATEGORY('Main Housing','Main Housing',(#501));
#498=APPLICATION_PROTOCOL_DEFINITION('international standard',
'automotive_design',2009,#499);
#499=APPLICATION_CONTEXT(
'Core Data for Automotive Mechanical Design Process');
#500=PRODUCT_CONTEXT('part definition',#499,'mechanical');
#501=PRODUCT('2026-07-21-18-37-04-393','Main Housing',$,(#500));
#502=PRESENTATION_STYLE_ASSIGNMENT((#503));
#503=SURFACE_STYLE_USAGE(.BOTH.,#504);
#504=SURFACE_SIDE_STYLE('',(#505));
#505=SURFACE_STYLE_FILL_AREA(#506);
#506=FILL_AREA_STYLE('Steel - Satin',(#507));
#507=FILL_AREA_STYLE_COLOUR('Steel - Satin',#508);
#508=COLOUR_RGB('Steel - Satin',0.627450980392157,0.627450980392157,0.627450980392157);
ENDSEC;
END-ISO-10303-21;
