ISO-10303-21;
HEADER;
/* Generated by software containing ST-Developer
 * from STEP Tools, Inc. (www.steptools.com) 
 */

FILE_DESCRIPTION(
/* description */ (''),
/* implementation_level */ '2;1');

FILE_NAME(
/* name */ 'Outlet Mesh Mount.step',
/* time_stamp */ '2026-07-22T22:27:49-07:00',
/* author */ (''),
/* organization */ (''),
/* preprocessor_version */ 'ST-DEVELOPER v20.1',
/* originating_system */ 'Autodesk Translation Framework v15.8.0.0',
/* authorisation */ '');

FILE_SCHEMA (('AUTOMOTIVE_DESIGN { 1 0 10303 214 3 1 1 }'));
ENDSEC;

DATA;
#10=MECHANICAL_DESIGN_GEOMETRIC_PRESENTATION_REPRESENTATION('',(#13),#1263);
#11=SHAPE_REPRESENTATION_RELATIONSHIP('SRR','None',#1269,#12);
#12=ADVANCED_BREP_SHAPE_REPRESENTATION('',(#14),#1262);
#13=STYLED_ITEM('',(#1278),#14);
#14=MANIFOLD_SOLID_BREP('Outlet Mount',#799);
#15=FACE_BOUND('',#104,.T.);
#16=FACE_BOUND('',#135,.T.);
#17=FACE_BOUND('',#136,.T.);
#18=FACE_BOUND('',#137,.T.);
#19=FACE_BOUND('',#138,.T.);
#20=FACE_BOUND('',#139,.T.);
#21=FACE_BOUND('',#140,.T.);
#22=FACE_BOUND('',#143,.T.);
#23=FACE_BOUND('',#144,.T.);
#24=FACE_BOUND('',#145,.T.);
#25=FACE_BOUND('',#146,.T.);
#26=FACE_BOUND('',#147,.T.);
#27=FACE_BOUND('',#148,.T.);
#28=FACE_BOUND('',#152,.T.);
#29=PLANE('',#804);
#30=PLANE('',#805);
#31=PLANE('',#811);
#32=PLANE('',#814);
#33=PLANE('',#817);
#34=PLANE('',#818);
#35=PLANE('',#819);
#36=PLANE('',#820);
#37=PLANE('',#821);
#38=PLANE('',#822);
#39=PLANE('',#823);
#40=PLANE('',#824);
#41=PLANE('',#825);
#42=PLANE('',#826);
#43=PLANE('',#827);
#44=PLANE('',#828);
#45=PLANE('',#829);
#46=PLANE('',#830);
#47=PLANE('',#831);
#48=PLANE('',#832);
#49=PLANE('',#833);
#50=PLANE('',#834);
#51=PLANE('',#835);
#52=PLANE('',#836);
#53=PLANE('',#837);
#54=PLANE('',#838);
#55=PLANE('',#839);
#56=PLANE('',#840);
#57=PLANE('',#841);
#58=PLANE('',#842);
#59=PLANE('',#843);
#60=PLANE('',#844);
#61=PLANE('',#845);
#62=PLANE('',#846);
#63=FACE_OUTER_BOUND('',#101,.T.);
#64=FACE_OUTER_BOUND('',#102,.T.);
#65=FACE_OUTER_BOUND('',#103,.T.);
#66=FACE_OUTER_BOUND('',#105,.T.);
#67=FACE_OUTER_BOUND('',#106,.T.);
#68=FACE_OUTER_BOUND('',#107,.T.);
#69=FACE_OUTER_BOUND('',#108,.T.);
#70=FACE_OUTER_BOUND('',#109,.T.);
#71=FACE_OUTER_BOUND('',#110,.T.);
#72=FACE_OUTER_BOUND('',#111,.T.);
#73=FACE_OUTER_BOUND('',#112,.T.);
#74=FACE_OUTER_BOUND('',#113,.T.);
#75=FACE_OUTER_BOUND('',#114,.T.);
#76=FACE_OUTER_BOUND('',#115,.T.);
#77=FACE_OUTER_BOUND('',#116,.T.);
#78=FACE_OUTER_BOUND('',#117,.T.);
#79=FACE_OUTER_BOUND('',#118,.T.);
#80=FACE_OUTER_BOUND('',#119,.T.);
#81=FACE_OUTER_BOUND('',#120,.T.);
#82=FACE_OUTER_BOUND('',#121,.T.);
#83=FACE_OUTER_BOUND('',#122,.T.);
#84=FACE_OUTER_BOUND('',#123,.T.);
#85=FACE_OUTER_BOUND('',#124,.T.);
#86=FACE_OUTER_BOUND('',#125,.T.);
#87=FACE_OUTER_BOUND('',#126,.T.);
#88=FACE_OUTER_BOUND('',#127,.T.);
#89=FACE_OUTER_BOUND('',#128,.T.);
#90=FACE_OUTER_BOUND('',#129,.T.);
#91=FACE_OUTER_BOUND('',#130,.T.);
#92=FACE_OUTER_BOUND('',#131,.T.);
#93=FACE_OUTER_BOUND('',#132,.T.);
#94=FACE_OUTER_BOUND('',#133,.T.);
#95=FACE_OUTER_BOUND('',#134,.T.);
#96=FACE_OUTER_BOUND('',#141,.T.);
#97=FACE_OUTER_BOUND('',#142,.T.);
#98=FACE_OUTER_BOUND('',#149,.T.);
#99=FACE_OUTER_BOUND('',#150,.T.);
#100=FACE_OUTER_BOUND('',#151,.T.);
#101=EDGE_LOOP('',(#541,#542,#543,#544));
#102=EDGE_LOOP('',(#545,#546,#547,#548));
#103=EDGE_LOOP('',(#549,#550,#551,#552,#553,#554,#555,#556));
#104=EDGE_LOOP('',(#557,#558,#559,#560));
#105=EDGE_LOOP('',(#561,#562,#563,#564));
#106=EDGE_LOOP('',(#565,#566,#567,#568));
#107=EDGE_LOOP('',(#569,#570,#571,#572));
#108=EDGE_LOOP('',(#573,#574,#575,#576));
#109=EDGE_LOOP('',(#577,#578,#579,#580));
#110=EDGE_LOOP('',(#581,#582,#583,#584));
#111=EDGE_LOOP('',(#585,#586,#587,#588));
#112=EDGE_LOOP('',(#589,#590,#591,#592));
#113=EDGE_LOOP('',(#593,#594,#595,#596));
#114=EDGE_LOOP('',(#597,#598,#599,#600));
#115=EDGE_LOOP('',(#601,#602,#603,#604));
#116=EDGE_LOOP('',(#605,#606,#607,#608));
#117=EDGE_LOOP('',(#609,#610,#611,#612));
#118=EDGE_LOOP('',(#613,#614,#615,#616));
#119=EDGE_LOOP('',(#617,#618,#619,#620));
#120=EDGE_LOOP('',(#621,#622,#623,#624));
#121=EDGE_LOOP('',(#625,#626,#627,#628));
#122=EDGE_LOOP('',(#629,#630,#631,#632));
#123=EDGE_LOOP('',(#633,#634,#635,#636));
#124=EDGE_LOOP('',(#637,#638,#639,#640));
#125=EDGE_LOOP('',(#641,#642,#643,#644));
#126=EDGE_LOOP('',(#645,#646,#647,#648));
#127=EDGE_LOOP('',(#649,#650,#651,#652));
#128=EDGE_LOOP('',(#653,#654,#655,#656));
#129=EDGE_LOOP('',(#657,#658,#659,#660));
#130=EDGE_LOOP('',(#661,#662,#663,#664));
#131=EDGE_LOOP('',(#665,#666,#667,#668));
#132=EDGE_LOOP('',(#669,#670,#671,#672));
#133=EDGE_LOOP('',(#673,#674,#675,#676));
#134=EDGE_LOOP('',(#677,#678,#679,#680));
#135=EDGE_LOOP('',(#681,#682,#683,#684));
#136=EDGE_LOOP('',(#685,#686,#687,#688));
#137=EDGE_LOOP('',(#689,#690,#691,#692));
#138=EDGE_LOOP('',(#693,#694,#695,#696));
#139=EDGE_LOOP('',(#697,#698,#699,#700));
#140=EDGE_LOOP('',(#701,#702,#703,#704));
#141=EDGE_LOOP('',(#705,#706,#707,#708));
#142=EDGE_LOOP('',(#709,#710,#711,#712));
#143=EDGE_LOOP('',(#713,#714,#715,#716));
#144=EDGE_LOOP('',(#717,#718,#719,#720));
#145=EDGE_LOOP('',(#721,#722,#723,#724));
#146=EDGE_LOOP('',(#725,#726,#727,#728));
#147=EDGE_LOOP('',(#729,#730,#731,#732));
#148=EDGE_LOOP('',(#733,#734,#735,#736));
#149=EDGE_LOOP('',(#737,#738,#739,#740));
#150=EDGE_LOOP('',(#741,#742,#743,#744));
#151=EDGE_LOOP('',(#745,#746,#747,#748,#749,#750,#751,#752));
#152=EDGE_LOOP('',(#753,#754,#755,#756));
#153=LINE('',#1047,#253);
#154=LINE('',#1050,#254);
#155=LINE('',#1053,#255);
#156=LINE('',#1055,#256);
#157=LINE('',#1056,#257);
#158=LINE('',#1059,#258);
#159=LINE('',#1063,#259);
#160=LINE('',#1067,#260);
#161=LINE('',#1071,#261);
#162=LINE('',#1073,#262);
#163=LINE('',#1075,#263);
#164=LINE('',#1076,#264);
#165=LINE('',#1080,#265);
#166=LINE('',#1083,#266);
#167=LINE('',#1084,#267);
#168=LINE('',#1088,#268);
#169=LINE('',#1091,#269);
#170=LINE('',#1092,#270);
#171=LINE('',#1096,#271);
#172=LINE('',#1100,#272);
#173=LINE('',#1102,#273);
#174=LINE('',#1104,#274);
#175=LINE('',#1105,#275);
#176=LINE('',#1108,#276);
#177=LINE('',#1110,#277);
#178=LINE('',#1111,#278);
#179=LINE('',#1114,#279);
#180=LINE('',#1116,#280);
#181=LINE('',#1117,#281);
#182=LINE('',#1119,#282);
#183=LINE('',#1120,#283);
#184=LINE('',#1124,#284);
#185=LINE('',#1126,#285);
#186=LINE('',#1128,#286);
#187=LINE('',#1129,#287);
#188=LINE('',#1132,#288);
#189=LINE('',#1134,#289);
#190=LINE('',#1135,#290);
#191=LINE('',#1138,#291);
#192=LINE('',#1140,#292);
#193=LINE('',#1141,#293);
#194=LINE('',#1143,#294);
#195=LINE('',#1144,#295);
#196=LINE('',#1148,#296);
#197=LINE('',#1150,#297);
#198=LINE('',#1152,#298);
#199=LINE('',#1153,#299);
#200=LINE('',#1156,#300);
#201=LINE('',#1158,#301);
#202=LINE('',#1159,#302);
#203=LINE('',#1162,#303);
#204=LINE('',#1164,#304);
#205=LINE('',#1165,#305);
#206=LINE('',#1167,#306);
#207=LINE('',#1168,#307);
#208=LINE('',#1172,#308);
#209=LINE('',#1174,#309);
#210=LINE('',#1176,#310);
#211=LINE('',#1177,#311);
#212=LINE('',#1180,#312);
#213=LINE('',#1182,#313);
#214=LINE('',#1183,#314);
#215=LINE('',#1186,#315);
#216=LINE('',#1188,#316);
#217=LINE('',#1189,#317);
#218=LINE('',#1191,#318);
#219=LINE('',#1192,#319);
#220=LINE('',#1196,#320);
#221=LINE('',#1198,#321);
#222=LINE('',#1200,#322);
#223=LINE('',#1201,#323);
#224=LINE('',#1204,#324);
#225=LINE('',#1206,#325);
#226=LINE('',#1207,#326);
#227=LINE('',#1210,#327);
#228=LINE('',#1212,#328);
#229=LINE('',#1213,#329);
#230=LINE('',#1215,#330);
#231=LINE('',#1216,#331);
#232=LINE('',#1220,#332);
#233=LINE('',#1222,#333);
#234=LINE('',#1224,#334);
#235=LINE('',#1225,#335);
#236=LINE('',#1228,#336);
#237=LINE('',#1230,#337);
#238=LINE('',#1231,#338);
#239=LINE('',#1234,#339);
#240=LINE('',#1236,#340);
#241=LINE('',#1237,#341);
#242=LINE('',#1239,#342);
#243=LINE('',#1240,#343);
#244=LINE('',#1243,#344);
#245=LINE('',#1245,#345);
#246=LINE('',#1246,#346);
#247=LINE('',#1249,#347);
#248=LINE('',#1250,#348);
#249=LINE('',#1253,#349);
#250=LINE('',#1254,#350);
#251=LINE('',#1256,#351);
#252=LINE('',#1258,#352);
#253=VECTOR('',#853,10.);
#254=VECTOR('',#856,10.);
#255=VECTOR('',#859,10.);
#256=VECTOR('',#860,10.);
#257=VECTOR('',#861,10.);
#258=VECTOR('',#864,10.);
#259=VECTOR('',#867,10.);
#260=VECTOR('',#870,10.);
#261=VECTOR('',#873,10.);
#262=VECTOR('',#874,10.);
#263=VECTOR('',#875,10.);
#264=VECTOR('',#876,10.);
#265=VECTOR('',#881,10.);
#266=VECTOR('',#884,10.);
#267=VECTOR('',#885,10.);
#268=VECTOR('',#890,10.);
#269=VECTOR('',#893,10.);
#270=VECTOR('',#894,10.);
#271=VECTOR('',#899,10.);
#272=VECTOR('',#902,10.);
#273=VECTOR('',#903,10.);
#274=VECTOR('',#904,10.);
#275=VECTOR('',#905,10.);
#276=VECTOR('',#908,10.);
#277=VECTOR('',#909,10.);
#278=VECTOR('',#910,10.);
#279=VECTOR('',#913,10.);
#280=VECTOR('',#914,10.);
#281=VECTOR('',#915,10.);
#282=VECTOR('',#918,10.);
#283=VECTOR('',#919,10.);
#284=VECTOR('',#922,10.);
#285=VECTOR('',#923,10.);
#286=VECTOR('',#924,10.);
#287=VECTOR('',#925,10.);
#288=VECTOR('',#928,10.);
#289=VECTOR('',#929,10.);
#290=VECTOR('',#930,10.);
#291=VECTOR('',#933,10.);
#292=VECTOR('',#934,10.);
#293=VECTOR('',#935,10.);
#294=VECTOR('',#938,10.);
#295=VECTOR('',#939,10.);
#296=VECTOR('',#942,10.);
#297=VECTOR('',#943,10.);
#298=VECTOR('',#944,10.);
#299=VECTOR('',#945,10.);
#300=VECTOR('',#948,10.);
#301=VECTOR('',#949,10.);
#302=VECTOR('',#950,10.);
#303=VECTOR('',#953,10.);
#304=VECTOR('',#954,10.);
#305=VECTOR('',#955,10.);
#306=VECTOR('',#958,10.);
#307=VECTOR('',#959,10.);
#308=VECTOR('',#962,10.);
#309=VECTOR('',#963,10.);
#310=VECTOR('',#964,10.);
#311=VECTOR('',#965,10.);
#312=VECTOR('',#968,10.);
#313=VECTOR('',#969,10.);
#314=VECTOR('',#970,10.);
#315=VECTOR('',#973,10.);
#316=VECTOR('',#974,10.);
#317=VECTOR('',#975,10.);
#318=VECTOR('',#978,10.);
#319=VECTOR('',#979,10.);
#320=VECTOR('',#982,10.);
#321=VECTOR('',#983,10.);
#322=VECTOR('',#984,10.);
#323=VECTOR('',#985,10.);
#324=VECTOR('',#988,10.);
#325=VECTOR('',#989,10.);
#326=VECTOR('',#990,10.);
#327=VECTOR('',#993,10.);
#328=VECTOR('',#994,10.);
#329=VECTOR('',#995,10.);
#330=VECTOR('',#998,10.);
#331=VECTOR('',#999,10.);
#332=VECTOR('',#1002,10.);
#333=VECTOR('',#1003,10.);
#334=VECTOR('',#1004,10.);
#335=VECTOR('',#1005,10.);
#336=VECTOR('',#1008,10.);
#337=VECTOR('',#1009,10.);
#338=VECTOR('',#1010,10.);
#339=VECTOR('',#1013,10.);
#340=VECTOR('',#1014,10.);
#341=VECTOR('',#1015,10.);
#342=VECTOR('',#1018,10.);
#343=VECTOR('',#1019,10.);
#344=VECTOR('',#1022,10.);
#345=VECTOR('',#1023,10.);
#346=VECTOR('',#1024,10.);
#347=VECTOR('',#1027,10.);
#348=VECTOR('',#1028,10.);
#349=VECTOR('',#1031,10.);
#350=VECTOR('',#1032,10.);
#351=VECTOR('',#1035,10.);
#352=VECTOR('',#1038,10.);
#353=CIRCLE('',#802,5.);
#354=CIRCLE('',#803,5.);
#355=CIRCLE('',#806,5.);
#356=CIRCLE('',#807,5.);
#357=CIRCLE('',#808,5.);
#358=CIRCLE('',#810,5.);
#359=CIRCLE('',#813,5.);
#360=CIRCLE('',#816,5.);
#361=VERTEX_POINT('',#1043);
#362=VERTEX_POINT('',#1044);
#363=VERTEX_POINT('',#1046);
#364=VERTEX_POINT('',#1048);
#365=VERTEX_POINT('',#1052);
#366=VERTEX_POINT('',#1054);
#367=VERTEX_POINT('',#1058);
#368=VERTEX_POINT('',#1060);
#369=VERTEX_POINT('',#1062);
#370=VERTEX_POINT('',#1064);
#371=VERTEX_POINT('',#1066);
#372=VERTEX_POINT('',#1069);
#373=VERTEX_POINT('',#1070);
#374=VERTEX_POINT('',#1072);
#375=VERTEX_POINT('',#1074);
#376=VERTEX_POINT('',#1078);
#377=VERTEX_POINT('',#1082);
#378=VERTEX_POINT('',#1086);
#379=VERTEX_POINT('',#1090);
#380=VERTEX_POINT('',#1094);
#381=VERTEX_POINT('',#1098);
#382=VERTEX_POINT('',#1099);
#383=VERTEX_POINT('',#1101);
#384=VERTEX_POINT('',#1103);
#385=VERTEX_POINT('',#1107);
#386=VERTEX_POINT('',#1109);
#387=VERTEX_POINT('',#1113);
#388=VERTEX_POINT('',#1115);
#389=VERTEX_POINT('',#1122);
#390=VERTEX_POINT('',#1123);
#391=VERTEX_POINT('',#1125);
#392=VERTEX_POINT('',#1127);
#393=VERTEX_POINT('',#1131);
#394=VERTEX_POINT('',#1133);
#395=VERTEX_POINT('',#1137);
#396=VERTEX_POINT('',#1139);
#397=VERTEX_POINT('',#1146);
#398=VERTEX_POINT('',#1147);
#399=VERTEX_POINT('',#1149);
#400=VERTEX_POINT('',#1151);
#401=VERTEX_POINT('',#1155);
#402=VERTEX_POINT('',#1157);
#403=VERTEX_POINT('',#1161);
#404=VERTEX_POINT('',#1163);
#405=VERTEX_POINT('',#1170);
#406=VERTEX_POINT('',#1171);
#407=VERTEX_POINT('',#1173);
#408=VERTEX_POINT('',#1175);
#409=VERTEX_POINT('',#1179);
#410=VERTEX_POINT('',#1181);
#411=VERTEX_POINT('',#1185);
#412=VERTEX_POINT('',#1187);
#413=VERTEX_POINT('',#1194);
#414=VERTEX_POINT('',#1195);
#415=VERTEX_POINT('',#1197);
#416=VERTEX_POINT('',#1199);
#417=VERTEX_POINT('',#1203);
#418=VERTEX_POINT('',#1205);
#419=VERTEX_POINT('',#1209);
#420=VERTEX_POINT('',#1211);
#421=VERTEX_POINT('',#1218);
#422=VERTEX_POINT('',#1219);
#423=VERTEX_POINT('',#1221);
#424=VERTEX_POINT('',#1223);
#425=VERTEX_POINT('',#1227);
#426=VERTEX_POINT('',#1229);
#427=VERTEX_POINT('',#1233);
#428=VERTEX_POINT('',#1235);
#429=VERTEX_POINT('',#1242);
#430=VERTEX_POINT('',#1244);
#431=VERTEX_POINT('',#1248);
#432=VERTEX_POINT('',#1252);
#433=EDGE_CURVE('',#361,#362,#353,.T.);
#434=EDGE_CURVE('',#362,#363,#153,.T.);
#435=EDGE_CURVE('',#363,#364,#354,.T.);
#436=EDGE_CURVE('',#364,#361,#154,.T.);
#437=EDGE_CURVE('',#364,#365,#155,.T.);
#438=EDGE_CURVE('',#366,#365,#156,.T.);
#439=EDGE_CURVE('',#361,#366,#157,.T.);
#440=EDGE_CURVE('',#367,#363,#158,.T.);
#441=EDGE_CURVE('',#368,#367,#355,.T.);
#442=EDGE_CURVE('',#369,#368,#159,.T.);
#443=EDGE_CURVE('',#370,#369,#356,.T.);
#444=EDGE_CURVE('',#371,#370,#160,.T.);
#445=EDGE_CURVE('',#365,#371,#357,.T.);
#446=EDGE_CURVE('',#372,#373,#161,.T.);
#447=EDGE_CURVE('',#374,#372,#162,.T.);
#448=EDGE_CURVE('',#375,#374,#163,.T.);
#449=EDGE_CURVE('',#373,#375,#164,.T.);
#450=EDGE_CURVE('',#376,#366,#358,.T.);
#451=EDGE_CURVE('',#371,#376,#165,.T.);
#452=EDGE_CURVE('',#377,#370,#166,.T.);
#453=EDGE_CURVE('',#376,#377,#167,.T.);
#454=EDGE_CURVE('',#378,#377,#359,.T.);
#455=EDGE_CURVE('',#369,#378,#168,.T.);
#456=EDGE_CURVE('',#379,#368,#169,.T.);
#457=EDGE_CURVE('',#378,#379,#170,.T.);
#458=EDGE_CURVE('',#380,#379,#360,.T.);
#459=EDGE_CURVE('',#367,#380,#171,.T.);
#460=EDGE_CURVE('',#381,#382,#172,.T.);
#461=EDGE_CURVE('',#381,#383,#173,.T.);
#462=EDGE_CURVE('',#384,#383,#174,.T.);
#463=EDGE_CURVE('',#382,#384,#175,.T.);
#464=EDGE_CURVE('',#382,#385,#176,.T.);
#465=EDGE_CURVE('',#386,#384,#177,.T.);
#466=EDGE_CURVE('',#385,#386,#178,.T.);
#467=EDGE_CURVE('',#385,#387,#179,.T.);
#468=EDGE_CURVE('',#388,#386,#180,.T.);
#469=EDGE_CURVE('',#387,#388,#181,.T.);
#470=EDGE_CURVE('',#387,#381,#182,.T.);
#471=EDGE_CURVE('',#383,#388,#183,.T.);
#472=EDGE_CURVE('',#389,#390,#184,.T.);
#473=EDGE_CURVE('',#389,#391,#185,.T.);
#474=EDGE_CURVE('',#392,#391,#186,.T.);
#475=EDGE_CURVE('',#390,#392,#187,.T.);
#476=EDGE_CURVE('',#390,#393,#188,.T.);
#477=EDGE_CURVE('',#394,#392,#189,.T.);
#478=EDGE_CURVE('',#393,#394,#190,.T.);
#479=EDGE_CURVE('',#393,#395,#191,.T.);
#480=EDGE_CURVE('',#396,#394,#192,.T.);
#481=EDGE_CURVE('',#395,#396,#193,.T.);
#482=EDGE_CURVE('',#395,#389,#194,.T.);
#483=EDGE_CURVE('',#391,#396,#195,.T.);
#484=EDGE_CURVE('',#397,#398,#196,.T.);
#485=EDGE_CURVE('',#397,#399,#197,.T.);
#486=EDGE_CURVE('',#400,#399,#198,.T.);
#487=EDGE_CURVE('',#398,#400,#199,.T.);
#488=EDGE_CURVE('',#398,#401,#200,.T.);
#489=EDGE_CURVE('',#402,#400,#201,.T.);
#490=EDGE_CURVE('',#401,#402,#202,.T.);
#491=EDGE_CURVE('',#401,#403,#203,.T.);
#492=EDGE_CURVE('',#404,#402,#204,.T.);
#493=EDGE_CURVE('',#403,#404,#205,.T.);
#494=EDGE_CURVE('',#403,#397,#206,.T.);
#495=EDGE_CURVE('',#399,#404,#207,.T.);
#496=EDGE_CURVE('',#405,#406,#208,.T.);
#497=EDGE_CURVE('',#405,#407,#209,.T.);
#498=EDGE_CURVE('',#408,#407,#210,.T.);
#499=EDGE_CURVE('',#406,#408,#211,.T.);
#500=EDGE_CURVE('',#406,#409,#212,.T.);
#501=EDGE_CURVE('',#410,#408,#213,.T.);
#502=EDGE_CURVE('',#409,#410,#214,.T.);
#503=EDGE_CURVE('',#409,#411,#215,.T.);
#504=EDGE_CURVE('',#412,#410,#216,.T.);
#505=EDGE_CURVE('',#411,#412,#217,.T.);
#506=EDGE_CURVE('',#411,#405,#218,.T.);
#507=EDGE_CURVE('',#407,#412,#219,.T.);
#508=EDGE_CURVE('',#413,#414,#220,.T.);
#509=EDGE_CURVE('',#413,#415,#221,.T.);
#510=EDGE_CURVE('',#416,#415,#222,.T.);
#511=EDGE_CURVE('',#414,#416,#223,.T.);
#512=EDGE_CURVE('',#414,#417,#224,.T.);
#513=EDGE_CURVE('',#418,#416,#225,.T.);
#514=EDGE_CURVE('',#417,#418,#226,.T.);
#515=EDGE_CURVE('',#417,#419,#227,.T.);
#516=EDGE_CURVE('',#420,#418,#228,.T.);
#517=EDGE_CURVE('',#419,#420,#229,.T.);
#518=EDGE_CURVE('',#419,#413,#230,.T.);
#519=EDGE_CURVE('',#415,#420,#231,.T.);
#520=EDGE_CURVE('',#421,#422,#232,.T.);
#521=EDGE_CURVE('',#421,#423,#233,.T.);
#522=EDGE_CURVE('',#424,#423,#234,.T.);
#523=EDGE_CURVE('',#422,#424,#235,.T.);
#524=EDGE_CURVE('',#422,#425,#236,.T.);
#525=EDGE_CURVE('',#426,#424,#237,.T.);
#526=EDGE_CURVE('',#425,#426,#238,.T.);
#527=EDGE_CURVE('',#425,#427,#239,.T.);
#528=EDGE_CURVE('',#428,#426,#240,.T.);
#529=EDGE_CURVE('',#427,#428,#241,.T.);
#530=EDGE_CURVE('',#427,#421,#242,.T.);
#531=EDGE_CURVE('',#423,#428,#243,.T.);
#532=EDGE_CURVE('',#372,#429,#244,.T.);
#533=EDGE_CURVE('',#430,#429,#245,.T.);
#534=EDGE_CURVE('',#374,#430,#246,.T.);
#535=EDGE_CURVE('',#431,#430,#247,.T.);
#536=EDGE_CURVE('',#375,#431,#248,.T.);
#537=EDGE_CURVE('',#432,#431,#249,.T.);
#538=EDGE_CURVE('',#373,#432,#250,.T.);
#539=EDGE_CURVE('',#429,#432,#251,.T.);
#540=EDGE_CURVE('',#380,#362,#252,.T.);
#541=ORIENTED_EDGE('',*,*,#433,.T.);
#542=ORIENTED_EDGE('',*,*,#434,.T.);
#543=ORIENTED_EDGE('',*,*,#435,.T.);
#544=ORIENTED_EDGE('',*,*,#436,.T.);
#545=ORIENTED_EDGE('',*,*,#436,.F.);
#546=ORIENTED_EDGE('',*,*,#437,.T.);
#547=ORIENTED_EDGE('',*,*,#438,.F.);
#548=ORIENTED_EDGE('',*,*,#439,.F.);
#549=ORIENTED_EDGE('',*,*,#435,.F.);
#550=ORIENTED_EDGE('',*,*,#440,.F.);
#551=ORIENTED_EDGE('',*,*,#441,.F.);
#552=ORIENTED_EDGE('',*,*,#442,.F.);
#553=ORIENTED_EDGE('',*,*,#443,.F.);
#554=ORIENTED_EDGE('',*,*,#444,.F.);
#555=ORIENTED_EDGE('',*,*,#445,.F.);
#556=ORIENTED_EDGE('',*,*,#437,.F.);
#557=ORIENTED_EDGE('',*,*,#446,.F.);
#558=ORIENTED_EDGE('',*,*,#447,.F.);
#559=ORIENTED_EDGE('',*,*,#448,.F.);
#560=ORIENTED_EDGE('',*,*,#449,.F.);
#561=ORIENTED_EDGE('',*,*,#450,.T.);
#562=ORIENTED_EDGE('',*,*,#438,.T.);
#563=ORIENTED_EDGE('',*,*,#445,.T.);
#564=ORIENTED_EDGE('',*,*,#451,.T.);
#565=ORIENTED_EDGE('',*,*,#451,.F.);
#566=ORIENTED_EDGE('',*,*,#444,.T.);
#567=ORIENTED_EDGE('',*,*,#452,.F.);
#568=ORIENTED_EDGE('',*,*,#453,.F.);
#569=ORIENTED_EDGE('',*,*,#454,.T.);
#570=ORIENTED_EDGE('',*,*,#452,.T.);
#571=ORIENTED_EDGE('',*,*,#443,.T.);
#572=ORIENTED_EDGE('',*,*,#455,.T.);
#573=ORIENTED_EDGE('',*,*,#455,.F.);
#574=ORIENTED_EDGE('',*,*,#442,.T.);
#575=ORIENTED_EDGE('',*,*,#456,.F.);
#576=ORIENTED_EDGE('',*,*,#457,.F.);
#577=ORIENTED_EDGE('',*,*,#458,.T.);
#578=ORIENTED_EDGE('',*,*,#456,.T.);
#579=ORIENTED_EDGE('',*,*,#441,.T.);
#580=ORIENTED_EDGE('',*,*,#459,.T.);
#581=ORIENTED_EDGE('',*,*,#460,.F.);
#582=ORIENTED_EDGE('',*,*,#461,.T.);
#583=ORIENTED_EDGE('',*,*,#462,.F.);
#584=ORIENTED_EDGE('',*,*,#463,.F.);
#585=ORIENTED_EDGE('',*,*,#464,.F.);
#586=ORIENTED_EDGE('',*,*,#463,.T.);
#587=ORIENTED_EDGE('',*,*,#465,.F.);
#588=ORIENTED_EDGE('',*,*,#466,.F.);
#589=ORIENTED_EDGE('',*,*,#467,.F.);
#590=ORIENTED_EDGE('',*,*,#466,.T.);
#591=ORIENTED_EDGE('',*,*,#468,.F.);
#592=ORIENTED_EDGE('',*,*,#469,.F.);
#593=ORIENTED_EDGE('',*,*,#470,.F.);
#594=ORIENTED_EDGE('',*,*,#469,.T.);
#595=ORIENTED_EDGE('',*,*,#471,.F.);
#596=ORIENTED_EDGE('',*,*,#461,.F.);
#597=ORIENTED_EDGE('',*,*,#472,.F.);
#598=ORIENTED_EDGE('',*,*,#473,.T.);
#599=ORIENTED_EDGE('',*,*,#474,.F.);
#600=ORIENTED_EDGE('',*,*,#475,.F.);
#601=ORIENTED_EDGE('',*,*,#476,.F.);
#602=ORIENTED_EDGE('',*,*,#475,.T.);
#603=ORIENTED_EDGE('',*,*,#477,.F.);
#604=ORIENTED_EDGE('',*,*,#478,.F.);
#605=ORIENTED_EDGE('',*,*,#479,.F.);
#606=ORIENTED_EDGE('',*,*,#478,.T.);
#607=ORIENTED_EDGE('',*,*,#480,.F.);
#608=ORIENTED_EDGE('',*,*,#481,.F.);
#609=ORIENTED_EDGE('',*,*,#482,.F.);
#610=ORIENTED_EDGE('',*,*,#481,.T.);
#611=ORIENTED_EDGE('',*,*,#483,.F.);
#612=ORIENTED_EDGE('',*,*,#473,.F.);
#613=ORIENTED_EDGE('',*,*,#484,.F.);
#614=ORIENTED_EDGE('',*,*,#485,.T.);
#615=ORIENTED_EDGE('',*,*,#486,.F.);
#616=ORIENTED_EDGE('',*,*,#487,.F.);
#617=ORIENTED_EDGE('',*,*,#488,.F.);
#618=ORIENTED_EDGE('',*,*,#487,.T.);
#619=ORIENTED_EDGE('',*,*,#489,.F.);
#620=ORIENTED_EDGE('',*,*,#490,.F.);
#621=ORIENTED_EDGE('',*,*,#491,.F.);
#622=ORIENTED_EDGE('',*,*,#490,.T.);
#623=ORIENTED_EDGE('',*,*,#492,.F.);
#624=ORIENTED_EDGE('',*,*,#493,.F.);
#625=ORIENTED_EDGE('',*,*,#494,.F.);
#626=ORIENTED_EDGE('',*,*,#493,.T.);
#627=ORIENTED_EDGE('',*,*,#495,.F.);
#628=ORIENTED_EDGE('',*,*,#485,.F.);
#629=ORIENTED_EDGE('',*,*,#496,.F.);
#630=ORIENTED_EDGE('',*,*,#497,.T.);
#631=ORIENTED_EDGE('',*,*,#498,.F.);
#632=ORIENTED_EDGE('',*,*,#499,.F.);
#633=ORIENTED_EDGE('',*,*,#500,.F.);
#634=ORIENTED_EDGE('',*,*,#499,.T.);
#635=ORIENTED_EDGE('',*,*,#501,.F.);
#636=ORIENTED_EDGE('',*,*,#502,.F.);
#637=ORIENTED_EDGE('',*,*,#503,.F.);
#638=ORIENTED_EDGE('',*,*,#502,.T.);
#639=ORIENTED_EDGE('',*,*,#504,.F.);
#640=ORIENTED_EDGE('',*,*,#505,.F.);
#641=ORIENTED_EDGE('',*,*,#506,.F.);
#642=ORIENTED_EDGE('',*,*,#505,.T.);
#643=ORIENTED_EDGE('',*,*,#507,.F.);
#644=ORIENTED_EDGE('',*,*,#497,.F.);
#645=ORIENTED_EDGE('',*,*,#508,.F.);
#646=ORIENTED_EDGE('',*,*,#509,.T.);
#647=ORIENTED_EDGE('',*,*,#510,.F.);
#648=ORIENTED_EDGE('',*,*,#511,.F.);
#649=ORIENTED_EDGE('',*,*,#512,.F.);
#650=ORIENTED_EDGE('',*,*,#511,.T.);
#651=ORIENTED_EDGE('',*,*,#513,.F.);
#652=ORIENTED_EDGE('',*,*,#514,.F.);
#653=ORIENTED_EDGE('',*,*,#515,.F.);
#654=ORIENTED_EDGE('',*,*,#514,.T.);
#655=ORIENTED_EDGE('',*,*,#516,.F.);
#656=ORIENTED_EDGE('',*,*,#517,.F.);
#657=ORIENTED_EDGE('',*,*,#518,.F.);
#658=ORIENTED_EDGE('',*,*,#517,.T.);
#659=ORIENTED_EDGE('',*,*,#519,.F.);
#660=ORIENTED_EDGE('',*,*,#509,.F.);
#661=ORIENTED_EDGE('',*,*,#520,.F.);
#662=ORIENTED_EDGE('',*,*,#521,.T.);
#663=ORIENTED_EDGE('',*,*,#522,.F.);
#664=ORIENTED_EDGE('',*,*,#523,.F.);
#665=ORIENTED_EDGE('',*,*,#524,.F.);
#666=ORIENTED_EDGE('',*,*,#523,.T.);
#667=ORIENTED_EDGE('',*,*,#525,.F.);
#668=ORIENTED_EDGE('',*,*,#526,.F.);
#669=ORIENTED_EDGE('',*,*,#527,.F.);
#670=ORIENTED_EDGE('',*,*,#526,.T.);
#671=ORIENTED_EDGE('',*,*,#528,.F.);
#672=ORIENTED_EDGE('',*,*,#529,.F.);
#673=ORIENTED_EDGE('',*,*,#530,.F.);
#674=ORIENTED_EDGE('',*,*,#529,.T.);
#675=ORIENTED_EDGE('',*,*,#531,.F.);
#676=ORIENTED_EDGE('',*,*,#521,.F.);
#677=ORIENTED_EDGE('',*,*,#447,.T.);
#678=ORIENTED_EDGE('',*,*,#532,.T.);
#679=ORIENTED_EDGE('',*,*,#533,.F.);
#680=ORIENTED_EDGE('',*,*,#534,.F.);
#681=ORIENTED_EDGE('',*,*,#460,.T.);
#682=ORIENTED_EDGE('',*,*,#464,.T.);
#683=ORIENTED_EDGE('',*,*,#467,.T.);
#684=ORIENTED_EDGE('',*,*,#470,.T.);
#685=ORIENTED_EDGE('',*,*,#472,.T.);
#686=ORIENTED_EDGE('',*,*,#476,.T.);
#687=ORIENTED_EDGE('',*,*,#479,.T.);
#688=ORIENTED_EDGE('',*,*,#482,.T.);
#689=ORIENTED_EDGE('',*,*,#484,.T.);
#690=ORIENTED_EDGE('',*,*,#488,.T.);
#691=ORIENTED_EDGE('',*,*,#491,.T.);
#692=ORIENTED_EDGE('',*,*,#494,.T.);
#693=ORIENTED_EDGE('',*,*,#496,.T.);
#694=ORIENTED_EDGE('',*,*,#500,.T.);
#695=ORIENTED_EDGE('',*,*,#503,.T.);
#696=ORIENTED_EDGE('',*,*,#506,.T.);
#697=ORIENTED_EDGE('',*,*,#508,.T.);
#698=ORIENTED_EDGE('',*,*,#512,.T.);
#699=ORIENTED_EDGE('',*,*,#515,.T.);
#700=ORIENTED_EDGE('',*,*,#518,.T.);
#701=ORIENTED_EDGE('',*,*,#520,.T.);
#702=ORIENTED_EDGE('',*,*,#524,.T.);
#703=ORIENTED_EDGE('',*,*,#527,.T.);
#704=ORIENTED_EDGE('',*,*,#530,.T.);
#705=ORIENTED_EDGE('',*,*,#448,.T.);
#706=ORIENTED_EDGE('',*,*,#534,.T.);
#707=ORIENTED_EDGE('',*,*,#535,.F.);
#708=ORIENTED_EDGE('',*,*,#536,.F.);
#709=ORIENTED_EDGE('',*,*,#449,.T.);
#710=ORIENTED_EDGE('',*,*,#536,.T.);
#711=ORIENTED_EDGE('',*,*,#537,.F.);
#712=ORIENTED_EDGE('',*,*,#538,.F.);
#713=ORIENTED_EDGE('',*,*,#462,.T.);
#714=ORIENTED_EDGE('',*,*,#471,.T.);
#715=ORIENTED_EDGE('',*,*,#468,.T.);
#716=ORIENTED_EDGE('',*,*,#465,.T.);
#717=ORIENTED_EDGE('',*,*,#474,.T.);
#718=ORIENTED_EDGE('',*,*,#483,.T.);
#719=ORIENTED_EDGE('',*,*,#480,.T.);
#720=ORIENTED_EDGE('',*,*,#477,.T.);
#721=ORIENTED_EDGE('',*,*,#486,.T.);
#722=ORIENTED_EDGE('',*,*,#495,.T.);
#723=ORIENTED_EDGE('',*,*,#492,.T.);
#724=ORIENTED_EDGE('',*,*,#489,.T.);
#725=ORIENTED_EDGE('',*,*,#498,.T.);
#726=ORIENTED_EDGE('',*,*,#507,.T.);
#727=ORIENTED_EDGE('',*,*,#504,.T.);
#728=ORIENTED_EDGE('',*,*,#501,.T.);
#729=ORIENTED_EDGE('',*,*,#510,.T.);
#730=ORIENTED_EDGE('',*,*,#519,.T.);
#731=ORIENTED_EDGE('',*,*,#516,.T.);
#732=ORIENTED_EDGE('',*,*,#513,.T.);
#733=ORIENTED_EDGE('',*,*,#522,.T.);
#734=ORIENTED_EDGE('',*,*,#531,.T.);
#735=ORIENTED_EDGE('',*,*,#528,.T.);
#736=ORIENTED_EDGE('',*,*,#525,.T.);
#737=ORIENTED_EDGE('',*,*,#446,.T.);
#738=ORIENTED_EDGE('',*,*,#538,.T.);
#739=ORIENTED_EDGE('',*,*,#539,.F.);
#740=ORIENTED_EDGE('',*,*,#532,.F.);
#741=ORIENTED_EDGE('',*,*,#434,.F.);
#742=ORIENTED_EDGE('',*,*,#540,.F.);
#743=ORIENTED_EDGE('',*,*,#459,.F.);
#744=ORIENTED_EDGE('',*,*,#440,.T.);
#745=ORIENTED_EDGE('',*,*,#433,.F.);
#746=ORIENTED_EDGE('',*,*,#439,.T.);
#747=ORIENTED_EDGE('',*,*,#450,.F.);
#748=ORIENTED_EDGE('',*,*,#453,.T.);
#749=ORIENTED_EDGE('',*,*,#454,.F.);
#750=ORIENTED_EDGE('',*,*,#457,.T.);
#751=ORIENTED_EDGE('',*,*,#458,.F.);
#752=ORIENTED_EDGE('',*,*,#540,.T.);
#753=ORIENTED_EDGE('',*,*,#539,.T.);
#754=ORIENTED_EDGE('',*,*,#537,.T.);
#755=ORIENTED_EDGE('',*,*,#535,.T.);
#756=ORIENTED_EDGE('',*,*,#533,.T.);
#757=CYLINDRICAL_SURFACE('',#801,5.);
#758=CYLINDRICAL_SURFACE('',#809,5.);
#759=CYLINDRICAL_SURFACE('',#812,5.);
#760=CYLINDRICAL_SURFACE('',#815,5.);
#761=ADVANCED_FACE('',(#63),#757,.T.);
#762=ADVANCED_FACE('',(#64),#29,.T.);
#763=ADVANCED_FACE('',(#65,#15),#30,.F.);
#764=ADVANCED_FACE('',(#66),#758,.T.);
#765=ADVANCED_FACE('',(#67),#31,.T.);
#766=ADVANCED_FACE('',(#68),#759,.T.);
#767=ADVANCED_FACE('',(#69),#32,.T.);
#768=ADVANCED_FACE('',(#70),#760,.T.);
#769=ADVANCED_FACE('',(#71),#33,.T.);
#770=ADVANCED_FACE('',(#72),#34,.T.);
#771=ADVANCED_FACE('',(#73),#35,.T.);
#772=ADVANCED_FACE('',(#74),#36,.T.);
#773=ADVANCED_FACE('',(#75),#37,.T.);
#774=ADVANCED_FACE('',(#76),#38,.T.);
#775=ADVANCED_FACE('',(#77),#39,.T.);
#776=ADVANCED_FACE('',(#78),#40,.T.);
#777=ADVANCED_FACE('',(#79),#41,.T.);
#778=ADVANCED_FACE('',(#80),#42,.T.);
#779=ADVANCED_FACE('',(#81),#43,.T.);
#780=ADVANCED_FACE('',(#82),#44,.T.);
#781=ADVANCED_FACE('',(#83),#45,.T.);
#782=ADVANCED_FACE('',(#84),#46,.T.);
#783=ADVANCED_FACE('',(#85),#47,.T.);
#784=ADVANCED_FACE('',(#86),#48,.T.);
#785=ADVANCED_FACE('',(#87),#49,.T.);
#786=ADVANCED_FACE('',(#88),#50,.T.);
#787=ADVANCED_FACE('',(#89),#51,.T.);
#788=ADVANCED_FACE('',(#90),#52,.T.);
#789=ADVANCED_FACE('',(#91),#53,.T.);
#790=ADVANCED_FACE('',(#92),#54,.T.);
#791=ADVANCED_FACE('',(#93),#55,.T.);
#792=ADVANCED_FACE('',(#94),#56,.T.);
#793=ADVANCED_FACE('',(#95,#16,#17,#18,#19,#20,#21),#57,.T.);
#794=ADVANCED_FACE('',(#96),#58,.T.);
#795=ADVANCED_FACE('',(#97,#22,#23,#24,#25,#26,#27),#59,.T.);
#796=ADVANCED_FACE('',(#98),#60,.T.);
#797=ADVANCED_FACE('',(#99),#61,.T.);
#798=ADVANCED_FACE('',(#100,#28),#62,.T.);
#799=CLOSED_SHELL('',(#761,#762,#763,#764,#765,#766,#767,#768,#769,#770,
#771,#772,#773,#774,#775,#776,#777,#778,#779,#780,#781,#782,#783,#784,#785,
#786,#787,#788,#789,#790,#791,#792,#793,#794,#795,#796,#797,#798));
#800=AXIS2_PLACEMENT_3D('',#1041,#847,#848);
#801=AXIS2_PLACEMENT_3D('',#1042,#849,#850);
#802=AXIS2_PLACEMENT_3D('',#1045,#851,#852);
#803=AXIS2_PLACEMENT_3D('',#1049,#854,#855);
#804=AXIS2_PLACEMENT_3D('',#1051,#857,#858);
#805=AXIS2_PLACEMENT_3D('',#1057,#862,#863);
#806=AXIS2_PLACEMENT_3D('',#1061,#865,#866);
#807=AXIS2_PLACEMENT_3D('',#1065,#868,#869);
#808=AXIS2_PLACEMENT_3D('',#1068,#871,#872);
#809=AXIS2_PLACEMENT_3D('',#1077,#877,#878);
#810=AXIS2_PLACEMENT_3D('',#1079,#879,#880);
#811=AXIS2_PLACEMENT_3D('',#1081,#882,#883);
#812=AXIS2_PLACEMENT_3D('',#1085,#886,#887);
#813=AXIS2_PLACEMENT_3D('',#1087,#888,#889);
#814=AXIS2_PLACEMENT_3D('',#1089,#891,#892);
#815=AXIS2_PLACEMENT_3D('',#1093,#895,#896);
#816=AXIS2_PLACEMENT_3D('',#1095,#897,#898);
#817=AXIS2_PLACEMENT_3D('',#1097,#900,#901);
#818=AXIS2_PLACEMENT_3D('',#1106,#906,#907);
#819=AXIS2_PLACEMENT_3D('',#1112,#911,#912);
#820=AXIS2_PLACEMENT_3D('',#1118,#916,#917);
#821=AXIS2_PLACEMENT_3D('',#1121,#920,#921);
#822=AXIS2_PLACEMENT_3D('',#1130,#926,#927);
#823=AXIS2_PLACEMENT_3D('',#1136,#931,#932);
#824=AXIS2_PLACEMENT_3D('',#1142,#936,#937);
#825=AXIS2_PLACEMENT_3D('',#1145,#940,#941);
#826=AXIS2_PLACEMENT_3D('',#1154,#946,#947);
#827=AXIS2_PLACEMENT_3D('',#1160,#951,#952);
#828=AXIS2_PLACEMENT_3D('',#1166,#956,#957);
#829=AXIS2_PLACEMENT_3D('',#1169,#960,#961);
#830=AXIS2_PLACEMENT_3D('',#1178,#966,#967);
#831=AXIS2_PLACEMENT_3D('',#1184,#971,#972);
#832=AXIS2_PLACEMENT_3D('',#1190,#976,#977);
#833=AXIS2_PLACEMENT_3D('',#1193,#980,#981);
#834=AXIS2_PLACEMENT_3D('',#1202,#986,#987);
#835=AXIS2_PLACEMENT_3D('',#1208,#991,#992);
#836=AXIS2_PLACEMENT_3D('',#1214,#996,#997);
#837=AXIS2_PLACEMENT_3D('',#1217,#1000,#1001);
#838=AXIS2_PLACEMENT_3D('',#1226,#1006,#1007);
#839=AXIS2_PLACEMENT_3D('',#1232,#1011,#1012);
#840=AXIS2_PLACEMENT_3D('',#1238,#1016,#1017);
#841=AXIS2_PLACEMENT_3D('',#1241,#1020,#1021);
#842=AXIS2_PLACEMENT_3D('',#1247,#1025,#1026);
#843=AXIS2_PLACEMENT_3D('',#1251,#1029,#1030);
#844=AXIS2_PLACEMENT_3D('',#1255,#1033,#1034);
#845=AXIS2_PLACEMENT_3D('',#1257,#1036,#1037);
#846=AXIS2_PLACEMENT_3D('',#1259,#1039,#1040);
#847=DIRECTION('axis',(0.,0.,1.));
#848=DIRECTION('refdir',(1.,0.,0.));
#849=DIRECTION('center_axis',(1.,0.,0.));
#850=DIRECTION('ref_axis',(0.,0.707106781186547,0.707106781186547));
#851=DIRECTION('center_axis',(-1.,0.,0.));
#852=DIRECTION('ref_axis',(0.,0.707106781186547,0.707106781186547));
#853=DIRECTION('',(-1.,0.,0.));
#854=DIRECTION('center_axis',(1.,0.,0.));
#855=DIRECTION('ref_axis',(0.,0.707106781186547,0.707106781186547));
#856=DIRECTION('',(1.,0.,0.));
#857=DIRECTION('center_axis',(0.,0.,1.));
#858=DIRECTION('ref_axis',(0.,-1.,0.));
#859=DIRECTION('',(0.,-1.,0.));
#860=DIRECTION('',(-1.,0.,0.));
#861=DIRECTION('',(0.,-1.,0.));
#862=DIRECTION('center_axis',(1.,0.,0.));
#863=DIRECTION('ref_axis',(0.,0.,-1.));
#864=DIRECTION('',(0.,0.,1.));
#865=DIRECTION('center_axis',(1.,0.,0.));
#866=DIRECTION('ref_axis',(0.,0.707106781186547,-0.707106781186547));
#867=DIRECTION('',(0.,1.,0.));
#868=DIRECTION('center_axis',(1.,0.,0.));
#869=DIRECTION('ref_axis',(0.,-0.707106781186547,-0.707106781186547));
#870=DIRECTION('',(0.,0.,-1.));
#871=DIRECTION('center_axis',(1.,0.,0.));
#872=DIRECTION('ref_axis',(0.,-0.707106781186547,0.707106781186547));
#873=DIRECTION('',(0.,0.,-1.));
#874=DIRECTION('',(0.,1.,0.));
#875=DIRECTION('',(0.,0.,1.));
#876=DIRECTION('',(0.,-1.,0.));
#877=DIRECTION('center_axis',(1.,0.,0.));
#878=DIRECTION('ref_axis',(0.,-0.707106781186547,0.707106781186547));
#879=DIRECTION('center_axis',(-1.,0.,0.));
#880=DIRECTION('ref_axis',(0.,-0.707106781186547,0.707106781186547));
#881=DIRECTION('',(1.,0.,0.));
#882=DIRECTION('center_axis',(0.,-1.,0.));
#883=DIRECTION('ref_axis',(0.,0.,-1.));
#884=DIRECTION('',(-1.,0.,0.));
#885=DIRECTION('',(0.,0.,-1.));
#886=DIRECTION('center_axis',(1.,0.,0.));
#887=DIRECTION('ref_axis',(0.,-0.707106781186547,-0.707106781186547));
#888=DIRECTION('center_axis',(-1.,0.,0.));
#889=DIRECTION('ref_axis',(0.,-0.707106781186547,-0.707106781186547));
#890=DIRECTION('',(1.,0.,0.));
#891=DIRECTION('center_axis',(0.,0.,-1.));
#892=DIRECTION('ref_axis',(0.,1.,0.));
#893=DIRECTION('',(-1.,0.,0.));
#894=DIRECTION('',(0.,1.,0.));
#895=DIRECTION('center_axis',(1.,0.,0.));
#896=DIRECTION('ref_axis',(0.,0.707106781186547,-0.707106781186547));
#897=DIRECTION('center_axis',(-1.,0.,0.));
#898=DIRECTION('ref_axis',(0.,0.707106781186547,-0.707106781186547));
#899=DIRECTION('',(1.,0.,0.));
#900=DIRECTION('center_axis',(0.,-1.,0.));
#901=DIRECTION('ref_axis',(-1.,0.,0.));
#902=DIRECTION('',(1.,0.,0.));
#903=DIRECTION('',(0.,0.,-1.));
#904=DIRECTION('',(-1.,0.,0.));
#905=DIRECTION('',(0.,0.,-1.));
#906=DIRECTION('center_axis',(1.,0.,0.));
#907=DIRECTION('ref_axis',(0.,-1.,0.));
#908=DIRECTION('',(0.,1.,0.));
#909=DIRECTION('',(0.,-1.,0.));
#910=DIRECTION('',(0.,0.,-1.));
#911=DIRECTION('center_axis',(0.,1.,0.));
#912=DIRECTION('ref_axis',(1.,0.,0.));
#913=DIRECTION('',(-1.,0.,0.));
#914=DIRECTION('',(1.,0.,0.));
#915=DIRECTION('',(0.,0.,-1.));
#916=DIRECTION('center_axis',(-1.,0.,0.));
#917=DIRECTION('ref_axis',(0.,1.,0.));
#918=DIRECTION('',(0.,-1.,0.));
#919=DIRECTION('',(0.,1.,0.));
#920=DIRECTION('center_axis',(0.,-1.,0.));
#921=DIRECTION('ref_axis',(-1.,0.,0.));
#922=DIRECTION('',(1.,0.,0.));
#923=DIRECTION('',(0.,0.,-1.));
#924=DIRECTION('',(-1.,0.,0.));
#925=DIRECTION('',(0.,0.,-1.));
#926=DIRECTION('center_axis',(1.,0.,0.));
#927=DIRECTION('ref_axis',(0.,-1.,0.));
#928=DIRECTION('',(0.,1.,0.));
#929=DIRECTION('',(0.,-1.,0.));
#930=DIRECTION('',(0.,0.,-1.));
#931=DIRECTION('center_axis',(0.,1.,0.));
#932=DIRECTION('ref_axis',(1.,0.,0.));
#933=DIRECTION('',(-1.,0.,0.));
#934=DIRECTION('',(1.,0.,0.));
#935=DIRECTION('',(0.,0.,-1.));
#936=DIRECTION('center_axis',(-1.,0.,0.));
#937=DIRECTION('ref_axis',(0.,1.,0.));
#938=DIRECTION('',(0.,-1.,0.));
#939=DIRECTION('',(0.,1.,0.));
#940=DIRECTION('center_axis',(0.,-1.,0.));
#941=DIRECTION('ref_axis',(-1.,0.,0.));
#942=DIRECTION('',(1.,0.,0.));
#943=DIRECTION('',(0.,0.,-1.));
#944=DIRECTION('',(-1.,0.,0.));
#945=DIRECTION('',(0.,0.,-1.));
#946=DIRECTION('center_axis',(1.,0.,0.));
#947=DIRECTION('ref_axis',(0.,-1.,0.));
#948=DIRECTION('',(0.,1.,0.));
#949=DIRECTION('',(0.,-1.,0.));
#950=DIRECTION('',(0.,0.,-1.));
#951=DIRECTION('center_axis',(0.,1.,0.));
#952=DIRECTION('ref_axis',(1.,0.,0.));
#953=DIRECTION('',(-1.,0.,0.));
#954=DIRECTION('',(1.,0.,0.));
#955=DIRECTION('',(0.,0.,-1.));
#956=DIRECTION('center_axis',(-1.,0.,0.));
#957=DIRECTION('ref_axis',(0.,1.,0.));
#958=DIRECTION('',(0.,-1.,0.));
#959=DIRECTION('',(0.,1.,0.));
#960=DIRECTION('center_axis',(0.,-1.,0.));
#961=DIRECTION('ref_axis',(-1.,0.,0.));
#962=DIRECTION('',(1.,0.,0.));
#963=DIRECTION('',(0.,0.,-1.));
#964=DIRECTION('',(-1.,0.,0.));
#965=DIRECTION('',(0.,0.,-1.));
#966=DIRECTION('center_axis',(1.,0.,0.));
#967=DIRECTION('ref_axis',(0.,-1.,0.));
#968=DIRECTION('',(0.,1.,0.));
#969=DIRECTION('',(0.,-1.,0.));
#970=DIRECTION('',(0.,0.,-1.));
#971=DIRECTION('center_axis',(0.,1.,0.));
#972=DIRECTION('ref_axis',(1.,0.,0.));
#973=DIRECTION('',(-1.,0.,0.));
#974=DIRECTION('',(1.,0.,0.));
#975=DIRECTION('',(0.,0.,-1.));
#976=DIRECTION('center_axis',(-1.,0.,0.));
#977=DIRECTION('ref_axis',(0.,1.,0.));
#978=DIRECTION('',(0.,-1.,0.));
#979=DIRECTION('',(0.,1.,0.));
#980=DIRECTION('center_axis',(0.,-1.,0.));
#981=DIRECTION('ref_axis',(-1.,0.,0.));
#982=DIRECTION('',(1.,0.,0.));
#983=DIRECTION('',(0.,0.,-1.));
#984=DIRECTION('',(-1.,0.,0.));
#985=DIRECTION('',(0.,0.,-1.));
#986=DIRECTION('center_axis',(1.,0.,0.));
#987=DIRECTION('ref_axis',(0.,-1.,0.));
#988=DIRECTION('',(0.,1.,0.));
#989=DIRECTION('',(0.,-1.,0.));
#990=DIRECTION('',(0.,0.,-1.));
#991=DIRECTION('center_axis',(0.,1.,0.));
#992=DIRECTION('ref_axis',(1.,0.,0.));
#993=DIRECTION('',(-1.,0.,0.));
#994=DIRECTION('',(1.,0.,0.));
#995=DIRECTION('',(0.,0.,-1.));
#996=DIRECTION('center_axis',(-1.,0.,0.));
#997=DIRECTION('ref_axis',(0.,1.,0.));
#998=DIRECTION('',(0.,-1.,0.));
#999=DIRECTION('',(0.,1.,0.));
#1000=DIRECTION('center_axis',(0.,-1.,0.));
#1001=DIRECTION('ref_axis',(-1.,0.,0.));
#1002=DIRECTION('',(1.,0.,0.));
#1003=DIRECTION('',(0.,0.,-1.));
#1004=DIRECTION('',(-1.,0.,0.));
#1005=DIRECTION('',(0.,0.,-1.));
#1006=DIRECTION('center_axis',(1.,0.,0.));
#1007=DIRECTION('ref_axis',(0.,-1.,0.));
#1008=DIRECTION('',(0.,1.,0.));
#1009=DIRECTION('',(0.,-1.,0.));
#1010=DIRECTION('',(0.,0.,-1.));
#1011=DIRECTION('center_axis',(0.,1.,0.));
#1012=DIRECTION('ref_axis',(1.,0.,0.));
#1013=DIRECTION('',(-1.,0.,0.));
#1014=DIRECTION('',(1.,0.,0.));
#1015=DIRECTION('',(0.,0.,-1.));
#1016=DIRECTION('center_axis',(-1.,0.,0.));
#1017=DIRECTION('ref_axis',(0.,1.,0.));
#1018=DIRECTION('',(0.,-1.,0.));
#1019=DIRECTION('',(0.,1.,0.));
#1020=DIRECTION('center_axis',(0.,0.,-1.));
#1021=DIRECTION('ref_axis',(0.,1.,0.));
#1022=DIRECTION('',(1.,0.,0.));
#1023=DIRECTION('',(0.,1.,0.));
#1024=DIRECTION('',(1.,0.,0.));
#1025=DIRECTION('center_axis',(0.,1.,0.));
#1026=DIRECTION('ref_axis',(0.,0.,1.));
#1027=DIRECTION('',(0.,0.,1.));
#1028=DIRECTION('',(1.,0.,0.));
#1029=DIRECTION('center_axis',(0.,0.,1.));
#1030=DIRECTION('ref_axis',(0.,-1.,0.));
#1031=DIRECTION('',(0.,-1.,0.));
#1032=DIRECTION('',(1.,0.,0.));
#1033=DIRECTION('center_axis',(0.,-1.,0.));
#1034=DIRECTION('ref_axis',(0.,0.,-1.));
#1035=DIRECTION('',(0.,0.,-1.));
#1036=DIRECTION('center_axis',(0.,1.,0.));
#1037=DIRECTION('ref_axis',(0.,0.,1.));
#1038=DIRECTION('',(0.,0.,1.));
#1039=DIRECTION('center_axis',(1.,0.,0.));
#1040=DIRECTION('ref_axis',(0.,0.,-1.));
#1041=CARTESIAN_POINT('',(0.,0.,0.));
#1042=CARTESIAN_POINT('Origin',(361.,35.0000005960464,35.));
#1043=CARTESIAN_POINT('',(371.,35.0000005960464,40.));
#1044=CARTESIAN_POINT('',(371.,40.0000005960464,35.));
#1045=CARTESIAN_POINT('Origin',(371.,35.0000005960464,35.));
#1046=CARTESIAN_POINT('',(361.,40.0000005960464,35.));
#1047=CARTESIAN_POINT('',(361.,40.0000005960464,35.));
#1048=CARTESIAN_POINT('',(361.,35.0000005960464,40.));
#1049=CARTESIAN_POINT('Origin',(361.,35.0000005960464,35.));
#1050=CARTESIAN_POINT('',(361.,35.0000005960464,40.));
#1051=CARTESIAN_POINT('Origin',(361.,40.0000005960464,40.));
#1052=CARTESIAN_POINT('',(361.,-35.,40.));
#1053=CARTESIAN_POINT('',(361.,-40.,40.));
#1054=CARTESIAN_POINT('',(371.,-35.,40.));
#1055=CARTESIAN_POINT('',(361.,-35.,40.));
#1056=CARTESIAN_POINT('',(371.,-40.,40.));
#1057=CARTESIAN_POINT('Origin',(361.,2.98023223876953E-7,-2.98023223876953E-7));
#1058=CARTESIAN_POINT('',(361.,40.0000005960464,-35.0000005960464));
#1059=CARTESIAN_POINT('',(361.,40.0000005960464,40.));
#1060=CARTESIAN_POINT('',(361.,35.0000005960464,-40.0000005960464));
#1061=CARTESIAN_POINT('Origin',(361.,35.0000005960464,-35.0000005960464));
#1062=CARTESIAN_POINT('',(361.,-35.,-40.0000005960464));
#1063=CARTESIAN_POINT('',(361.,40.0000005960464,-40.0000005960464));
#1064=CARTESIAN_POINT('',(361.,-40.,-35.0000005960464));
#1065=CARTESIAN_POINT('Origin',(361.,-35.,-35.0000005960464));
#1066=CARTESIAN_POINT('',(361.,-40.,35.));
#1067=CARTESIAN_POINT('',(361.,-40.,-40.0000005960464));
#1068=CARTESIAN_POINT('Origin',(361.,-35.,35.));
#1069=CARTESIAN_POINT('',(361.,35.1,35.1));
#1070=CARTESIAN_POINT('',(361.,35.1,-35.1));
#1071=CARTESIAN_POINT('',(361.,35.1,-17.5000001490116));
#1072=CARTESIAN_POINT('',(361.,-35.1,35.1));
#1073=CARTESIAN_POINT('',(361.,-17.4999998509884,35.1));
#1074=CARTESIAN_POINT('',(361.,-35.1,-35.1));
#1075=CARTESIAN_POINT('',(361.,-35.1,-17.5000001490116));
#1076=CARTESIAN_POINT('',(361.,17.5000001490116,-35.1));
#1077=CARTESIAN_POINT('Origin',(361.,-35.,35.));
#1078=CARTESIAN_POINT('',(371.,-40.,35.));
#1079=CARTESIAN_POINT('Origin',(371.,-35.,35.));
#1080=CARTESIAN_POINT('',(361.,-40.,35.));
#1081=CARTESIAN_POINT('Origin',(361.,-40.,40.));
#1082=CARTESIAN_POINT('',(371.,-40.,-35.0000005960464));
#1083=CARTESIAN_POINT('',(361.,-40.,-35.0000005960464));
#1084=CARTESIAN_POINT('',(371.,-40.,-40.0000005960464));
#1085=CARTESIAN_POINT('Origin',(361.,-35.,-35.0000005960464));
#1086=CARTESIAN_POINT('',(371.,-35.,-40.0000005960464));
#1087=CARTESIAN_POINT('Origin',(371.,-35.,-35.0000005960464));
#1088=CARTESIAN_POINT('',(361.,-35.,-40.0000005960464));
#1089=CARTESIAN_POINT('Origin',(361.,-40.,-40.0000005960464));
#1090=CARTESIAN_POINT('',(371.,35.0000005960464,-40.0000005960464));
#1091=CARTESIAN_POINT('',(361.,35.0000005960464,-40.0000005960464));
#1092=CARTESIAN_POINT('',(371.,40.0000005960464,-40.0000005960464));
#1093=CARTESIAN_POINT('Origin',(361.,35.0000005960464,-35.0000005960464));
#1094=CARTESIAN_POINT('',(371.,40.0000005960464,-35.0000005960464));
#1095=CARTESIAN_POINT('Origin',(371.,35.0000005960464,-35.0000005960464));
#1096=CARTESIAN_POINT('',(361.,40.0000005960464,-35.0000005960464));
#1097=CARTESIAN_POINT('Origin',(369.000005498528,-27.499999627471,35.1000000000001));
#1098=CARTESIAN_POINT('',(363.000005409122,-27.499999627471,35.1000000000001));
#1099=CARTESIAN_POINT('',(369.000005498528,-27.499999627471,35.1000000000001));
#1100=CARTESIAN_POINT('',(365.000002749264,-27.499999627471,35.1));
#1101=CARTESIAN_POINT('',(363.000005409122,-27.499999627471,-35.0999999999999));
#1102=CARTESIAN_POINT('',(363.000005409122,-27.499999627471,35.1000000000001));
#1103=CARTESIAN_POINT('',(369.000005498528,-27.499999627471,-35.0999999999999));
#1104=CARTESIAN_POINT('',(365.000002749264,-27.499999627471,-35.1));
#1105=CARTESIAN_POINT('',(369.000005498528,-27.499999627471,35.1000000000001));
#1106=CARTESIAN_POINT('Origin',(369.000005498528,-22.4999995529652,35.1000000000001));
#1107=CARTESIAN_POINT('',(369.000005498528,-22.4999995529652,35.1000000000001));
#1108=CARTESIAN_POINT('',(369.000005498528,-28.7999997764826,35.1));
#1109=CARTESIAN_POINT('',(369.000005498528,-22.4999995529652,-35.0999999999999));
#1110=CARTESIAN_POINT('',(369.000005498528,6.30000022351742,-35.1));
#1111=CARTESIAN_POINT('',(369.000005498528,-22.4999995529652,35.1000000000001));
#1112=CARTESIAN_POINT('Origin',(363.000005409122,-22.4999995529652,35.1000000000001));
#1113=CARTESIAN_POINT('',(363.000005409122,-22.4999995529652,35.1000000000001));
#1114=CARTESIAN_POINT('',(362.000002704561,-22.4999995529652,35.1));
#1115=CARTESIAN_POINT('',(363.000005409122,-22.4999995529652,-35.0999999999999));
#1116=CARTESIAN_POINT('',(362.000002704561,-22.4999995529652,-35.1));
#1117=CARTESIAN_POINT('',(363.000005409122,-22.4999995529652,35.1000000000001));
#1118=CARTESIAN_POINT('Origin',(363.000005409122,-27.499999627471,35.1000000000001));
#1119=CARTESIAN_POINT('',(363.000005409122,-31.2999998137355,35.1));
#1120=CARTESIAN_POINT('',(363.000005409122,3.80000018626451,-35.1));
#1121=CARTESIAN_POINT('Origin',(369.000005498528,12.500000372529,35.1000000000001));
#1122=CARTESIAN_POINT('',(363.000005409122,12.500000372529,35.1000000000001));
#1123=CARTESIAN_POINT('',(369.000005498528,12.500000372529,35.1000000000001));
#1124=CARTESIAN_POINT('',(365.000002749264,12.500000372529,35.1));
#1125=CARTESIAN_POINT('',(363.000005409122,12.500000372529,-35.0999999999999));
#1126=CARTESIAN_POINT('',(363.000005409122,12.500000372529,35.1000000000001));
#1127=CARTESIAN_POINT('',(369.000005498528,12.500000372529,-35.0999999999999));
#1128=CARTESIAN_POINT('',(365.000002749264,12.500000372529,-35.1));
#1129=CARTESIAN_POINT('',(369.000005498528,12.500000372529,35.1000000000001));
#1130=CARTESIAN_POINT('Origin',(369.000005498528,17.5000004470348,35.1000000000001));
#1131=CARTESIAN_POINT('',(369.000005498528,17.5000004470348,35.1000000000001));
#1132=CARTESIAN_POINT('',(369.000005498528,-8.79999977648258,35.1));
#1133=CARTESIAN_POINT('',(369.000005498528,17.5000004470348,-35.0999999999999));
#1134=CARTESIAN_POINT('',(369.000005498528,26.3000002235174,-35.1));
#1135=CARTESIAN_POINT('',(369.000005498528,17.5000004470348,35.1000000000001));
#1136=CARTESIAN_POINT('Origin',(363.000005409122,17.5000004470348,35.1000000000001));
#1137=CARTESIAN_POINT('',(363.000005409122,17.5000004470348,35.1000000000001));
#1138=CARTESIAN_POINT('',(362.000002704561,17.5000004470348,35.1));
#1139=CARTESIAN_POINT('',(363.000005409122,17.5000004470348,-35.0999999999999));
#1140=CARTESIAN_POINT('',(362.000002704561,17.5000004470348,-35.1));
#1141=CARTESIAN_POINT('',(363.000005409122,17.5000004470348,35.1000000000001));
#1142=CARTESIAN_POINT('Origin',(363.000005409122,12.500000372529,35.1000000000001));
#1143=CARTESIAN_POINT('',(363.000005409122,-11.2999998137355,35.1));
#1144=CARTESIAN_POINT('',(363.000005409122,23.8000001862645,-35.1));
#1145=CARTESIAN_POINT('Origin',(369.000005498528,-17.499999627471,35.1000000000001));
#1146=CARTESIAN_POINT('',(363.000005409122,-17.499999627471,35.1000000000001));
#1147=CARTESIAN_POINT('',(369.000005498528,-17.499999627471,35.1000000000001));
#1148=CARTESIAN_POINT('',(365.000002749264,-17.499999627471,35.1));
#1149=CARTESIAN_POINT('',(363.000005409122,-17.499999627471,-35.0999999999999));
#1150=CARTESIAN_POINT('',(363.000005409122,-17.499999627471,35.1000000000001));
#1151=CARTESIAN_POINT('',(369.000005498528,-17.499999627471,-35.0999999999999));
#1152=CARTESIAN_POINT('',(365.000002749264,-17.499999627471,-35.1));
#1153=CARTESIAN_POINT('',(369.000005498528,-17.499999627471,35.1000000000001));
#1154=CARTESIAN_POINT('Origin',(369.000005498528,-12.4999995529652,35.1000000000001));
#1155=CARTESIAN_POINT('',(369.000005498528,-12.4999995529652,35.1000000000001));
#1156=CARTESIAN_POINT('',(369.000005498528,-23.7999997764826,35.1));
#1157=CARTESIAN_POINT('',(369.000005498528,-12.4999995529652,-35.0999999999999));
#1158=CARTESIAN_POINT('',(369.000005498528,11.3000002235174,-35.1));
#1159=CARTESIAN_POINT('',(369.000005498528,-12.4999995529652,35.1000000000001));
#1160=CARTESIAN_POINT('Origin',(363.000005409122,-12.4999995529652,35.1000000000001));
#1161=CARTESIAN_POINT('',(363.000005409122,-12.4999995529652,35.1000000000001));
#1162=CARTESIAN_POINT('',(362.000002704561,-12.4999995529652,35.1));
#1163=CARTESIAN_POINT('',(363.000005409122,-12.4999995529652,-35.0999999999999));
#1164=CARTESIAN_POINT('',(362.000002704561,-12.4999995529652,-35.1));
#1165=CARTESIAN_POINT('',(363.000005409122,-12.4999995529652,35.1000000000001));
#1166=CARTESIAN_POINT('Origin',(363.000005409122,-17.499999627471,35.1000000000001));
#1167=CARTESIAN_POINT('',(363.000005409122,-26.2999998137355,35.1));
#1168=CARTESIAN_POINT('',(363.000005409122,8.80000018626451,-35.1));
#1169=CARTESIAN_POINT('Origin',(369.000005498528,2.50000037252903,35.1000000000001));
#1170=CARTESIAN_POINT('',(363.000005409122,2.50000037252903,35.1000000000001));
#1171=CARTESIAN_POINT('',(369.000005498528,2.50000037252903,35.1000000000001));
#1172=CARTESIAN_POINT('',(365.000002749264,2.50000037252903,35.1));
#1173=CARTESIAN_POINT('',(363.000005409122,2.50000037252903,-35.0999999999999));
#1174=CARTESIAN_POINT('',(363.000005409122,2.50000037252903,35.1000000000001));
#1175=CARTESIAN_POINT('',(369.000005498528,2.50000037252903,-35.0999999999999));
#1176=CARTESIAN_POINT('',(365.000002749264,2.50000037252903,-35.1));
#1177=CARTESIAN_POINT('',(369.000005498528,2.50000037252903,35.1000000000001));
#1178=CARTESIAN_POINT('Origin',(369.000005498528,7.50000044703484,35.1000000000001));
#1179=CARTESIAN_POINT('',(369.000005498528,7.50000044703484,35.1000000000001));
#1180=CARTESIAN_POINT('',(369.000005498528,-13.7999997764826,35.1));
#1181=CARTESIAN_POINT('',(369.000005498528,7.50000044703484,-35.0999999999999));
#1182=CARTESIAN_POINT('',(369.000005498528,21.3000002235174,-35.1));
#1183=CARTESIAN_POINT('',(369.000005498528,7.50000044703484,35.1000000000001));
#1184=CARTESIAN_POINT('Origin',(363.000005409122,7.50000044703484,35.1000000000001));
#1185=CARTESIAN_POINT('',(363.000005409122,7.50000044703484,35.1000000000001));
#1186=CARTESIAN_POINT('',(362.000002704561,7.50000044703484,35.1));
#1187=CARTESIAN_POINT('',(363.000005409122,7.50000044703484,-35.0999999999999));
#1188=CARTESIAN_POINT('',(362.000002704561,7.50000044703484,-35.1));
#1189=CARTESIAN_POINT('',(363.000005409122,7.50000044703484,35.1000000000001));
#1190=CARTESIAN_POINT('Origin',(363.000005409122,2.50000037252903,35.1000000000001));
#1191=CARTESIAN_POINT('',(363.000005409122,-16.2999998137355,35.1));
#1192=CARTESIAN_POINT('',(363.000005409122,18.8000001862645,-35.1));
#1193=CARTESIAN_POINT('Origin',(369.000005498528,-7.49999962747097,35.1000000000001));
#1194=CARTESIAN_POINT('',(363.000005409122,-7.49999962747097,35.1000000000001));
#1195=CARTESIAN_POINT('',(369.000005498528,-7.49999962747097,35.1000000000001));
#1196=CARTESIAN_POINT('',(365.000002749264,-7.49999962747097,35.1));
#1197=CARTESIAN_POINT('',(363.000005409122,-7.49999962747097,-35.0999999999999));
#1198=CARTESIAN_POINT('',(363.000005409122,-7.49999962747097,35.1000000000001));
#1199=CARTESIAN_POINT('',(369.000005498528,-7.49999962747097,-35.0999999999999));
#1200=CARTESIAN_POINT('',(365.000002749264,-7.49999962747097,-35.1));
#1201=CARTESIAN_POINT('',(369.000005498528,-7.49999962747097,35.1000000000001));
#1202=CARTESIAN_POINT('Origin',(369.000005498528,-2.49999955296516,35.1000000000001));
#1203=CARTESIAN_POINT('',(369.000005498528,-2.49999955296516,35.1000000000001));
#1204=CARTESIAN_POINT('',(369.000005498528,-18.7999997764826,35.1));
#1205=CARTESIAN_POINT('',(369.000005498528,-2.49999955296516,-35.0999999999999));
#1206=CARTESIAN_POINT('',(369.000005498528,16.3000002235174,-35.1));
#1207=CARTESIAN_POINT('',(369.000005498528,-2.49999955296516,35.1000000000001));
#1208=CARTESIAN_POINT('Origin',(363.000005409122,-2.49999955296516,35.1000000000001));
#1209=CARTESIAN_POINT('',(363.000005409122,-2.49999955296516,35.1000000000001));
#1210=CARTESIAN_POINT('',(362.000002704561,-2.49999955296516,35.1));
#1211=CARTESIAN_POINT('',(363.000005409122,-2.49999955296516,-35.0999999999999));
#1212=CARTESIAN_POINT('',(362.000002704561,-2.49999955296516,-35.1));
#1213=CARTESIAN_POINT('',(363.000005409122,-2.49999955296516,35.1000000000001));
#1214=CARTESIAN_POINT('Origin',(363.000005409122,-7.49999962747097,35.1000000000001));
#1215=CARTESIAN_POINT('',(363.000005409122,-21.2999998137355,35.1));
#1216=CARTESIAN_POINT('',(363.000005409122,13.8000001862645,-35.1));
#1217=CARTESIAN_POINT('Origin',(369.000005498528,22.500000372529,35.1000000000001));
#1218=CARTESIAN_POINT('',(363.000005409122,22.500000372529,35.1000000000001));
#1219=CARTESIAN_POINT('',(369.000005498528,22.500000372529,35.1000000000001));
#1220=CARTESIAN_POINT('',(365.000002749264,22.500000372529,35.1));
#1221=CARTESIAN_POINT('',(363.000005409122,22.500000372529,-35.0999999999999));
#1222=CARTESIAN_POINT('',(363.000005409122,22.500000372529,35.1000000000001));
#1223=CARTESIAN_POINT('',(369.000005498528,22.500000372529,-35.0999999999999));
#1224=CARTESIAN_POINT('',(365.000002749264,22.500000372529,-35.1));
#1225=CARTESIAN_POINT('',(369.000005498528,22.500000372529,35.1000000000001));
#1226=CARTESIAN_POINT('Origin',(369.000005498528,27.5000004470348,35.1000000000001));
#1227=CARTESIAN_POINT('',(369.000005498528,27.5000004470348,35.1000000000001));
#1228=CARTESIAN_POINT('',(369.000005498528,-3.79999977648258,35.1));
#1229=CARTESIAN_POINT('',(369.000005498528,27.5000004470348,-35.0999999999999));
#1230=CARTESIAN_POINT('',(369.000005498528,31.3000002235174,-35.1));
#1231=CARTESIAN_POINT('',(369.000005498528,27.5000004470348,35.1000000000001));
#1232=CARTESIAN_POINT('Origin',(363.000005409122,27.5000004470348,35.1000000000001));
#1233=CARTESIAN_POINT('',(363.000005409122,27.5000004470348,35.1000000000001));
#1234=CARTESIAN_POINT('',(362.000002704561,27.5000004470348,35.1));
#1235=CARTESIAN_POINT('',(363.000005409122,27.5000004470348,-35.0999999999999));
#1236=CARTESIAN_POINT('',(362.000002704561,27.5000004470348,-35.1));
#1237=CARTESIAN_POINT('',(363.000005409122,27.5000004470348,35.1000000000001));
#1238=CARTESIAN_POINT('Origin',(363.000005409122,22.500000372529,35.1000000000001));
#1239=CARTESIAN_POINT('',(363.000005409122,-6.29999981373548,35.1));
#1240=CARTESIAN_POINT('',(363.000005409122,28.8000001862645,-35.1));
#1241=CARTESIAN_POINT('Origin',(361.,-35.1,35.1));
#1242=CARTESIAN_POINT('',(371.,35.1,35.1));
#1243=CARTESIAN_POINT('',(361.,35.1,35.1));
#1244=CARTESIAN_POINT('',(371.,-35.1,35.1));
#1245=CARTESIAN_POINT('',(371.,-17.4999998509884,35.1));
#1246=CARTESIAN_POINT('',(361.,-35.1,35.1));
#1247=CARTESIAN_POINT('Origin',(361.,-35.1,-35.1));
#1248=CARTESIAN_POINT('',(371.,-35.1,-35.1));
#1249=CARTESIAN_POINT('',(371.,-35.1,-17.5000001490116));
#1250=CARTESIAN_POINT('',(361.,-35.1,-35.1));
#1251=CARTESIAN_POINT('Origin',(361.,35.1,-35.1));
#1252=CARTESIAN_POINT('',(371.,35.1,-35.1));
#1253=CARTESIAN_POINT('',(371.,17.5000001490116,-35.1));
#1254=CARTESIAN_POINT('',(361.,35.1,-35.1));
#1255=CARTESIAN_POINT('Origin',(361.,35.1,35.1));
#1256=CARTESIAN_POINT('',(371.,35.1,-17.5000001490116));
#1257=CARTESIAN_POINT('Origin',(361.,40.0000005960464,-40.0000005960464));
#1258=CARTESIAN_POINT('',(371.,40.0000005960464,40.));
#1259=CARTESIAN_POINT('Origin',(371.,2.98023223876953E-7,-2.98023223876953E-7));
#1260=UNCERTAINTY_MEASURE_WITH_UNIT(LENGTH_MEASURE(0.01),#1264,
'DISTANCE_ACCURACY_VALUE',
'Maximum model space distance between geometric entities at asserted c
onnectivities');
#1261=UNCERTAINTY_MEASURE_WITH_UNIT(LENGTH_MEASURE(0.01),#1264,
'DISTANCE_ACCURACY_VALUE',
'Maximum model space distance between geometric entities at asserted c
onnectivities');
#1262=(
GEOMETRIC_REPRESENTATION_CONTEXT(3)
GLOBAL_UNCERTAINTY_ASSIGNED_CONTEXT((#1260))
GLOBAL_UNIT_ASSIGNED_CONTEXT((#1264,#1265,#1266))
REPRESENTATION_CONTEXT('','3D')
);
#1263=(
GEOMETRIC_REPRESENTATION_CONTEXT(3)
GLOBAL_UNCERTAINTY_ASSIGNED_CONTEXT((#1261))
GLOBAL_UNIT_ASSIGNED_CONTEXT((#1264,#1265,#1266))
REPRESENTATION_CONTEXT('','3D')
);
#1264=(
LENGTH_UNIT()
NAMED_UNIT(*)
SI_UNIT(.MILLI.,.METRE.)
);
#1265=(
NAMED_UNIT(*)
PLANE_ANGLE_UNIT()
SI_UNIT($,.RADIAN.)
);
#1266=(
NAMED_UNIT(*)
SI_UNIT($,.STERADIAN.)
SOLID_ANGLE_UNIT()
);
#1267=SHAPE_DEFINITION_REPRESENTATION(#1268,#1269);
#1268=PRODUCT_DEFINITION_SHAPE('',$,#1271);
#1269=SHAPE_REPRESENTATION('',(#800),#1262);
#1270=PRODUCT_DEFINITION_CONTEXT('part definition',#1275,'design');
#1271=PRODUCT_DEFINITION('2026-07-21-18-37-04-393','Main Housing',#1272,
#1270);
#1272=PRODUCT_DEFINITION_FORMATION('',$,#1277);
#1273=PRODUCT_RELATED_PRODUCT_CATEGORY('Main Housing','Main Housing',(#1277));
#1274=APPLICATION_PROTOCOL_DEFINITION('international standard',
'automotive_design',2009,#1275);
#1275=APPLICATION_CONTEXT(
'Core Data for Automotive Mechanical Design Process');
#1276=PRODUCT_CONTEXT('part definition',#1275,'mechanical');
#1277=PRODUCT('2026-07-21-18-37-04-393','Main Housing',$,(#1276));
#1278=PRESENTATION_STYLE_ASSIGNMENT((#1279));
#1279=SURFACE_STYLE_USAGE(.BOTH.,#1280);
#1280=SURFACE_SIDE_STYLE('',(#1281));
#1281=SURFACE_STYLE_FILL_AREA(#1282);
#1282=FILL_AREA_STYLE('Steel - Satin',(#1283));
#1283=FILL_AREA_STYLE_COLOUR('Steel - Satin',#1284);
#1284=COLOUR_RGB('Steel - Satin',0.627450980392157,0.627450980392157,0.627450980392157);
ENDSEC;
END-ISO-10303-21;
