ISO-10303-21;
HEADER;
/* Generated by software containing ST-Developer
 * from STEP Tools, Inc. (www.steptools.com) 
 */

FILE_DESCRIPTION(
/* description */ (''),
/* implementation_level */ '2;1');

FILE_NAME(
/* name */ 'Outlet.step',
/* time_stamp */ '2026-07-22T22:27:39-07:00',
/* author */ (''),
/* organization */ (''),
/* preprocessor_version */ 'ST-DEVELOPER v20.1',
/* originating_system */ 'Autodesk Translation Framework v15.8.0.0',
/* authorisation */ '');

FILE_SCHEMA (('AUTOMOTIVE_DESIGN { 1 0 10303 214 3 1 1 }'));
ENDSEC;

DATA;
#10=MECHANICAL_DESIGN_GEOMETRIC_PRESENTATION_REPRESENTATION('',(#13),#1443);
#11=SHAPE_REPRESENTATION_RELATIONSHIP('SRR','None',#1449,#12);
#12=ADVANCED_BREP_SHAPE_REPRESENTATION('',(#14),#1442);
#13=STYLED_ITEM('',(#1458),#14);
#14=MANIFOLD_SOLID_BREP('Outlet',#737);
#15=FACE_BOUND('',#138,.T.);
#16=FACE_BOUND('',#150,.T.);
#17=B_SPLINE_SURFACE_WITH_KNOTS('',3,3,((#1113,#1114,#1115,#1116,#1117,
#1118),(#1119,#1120,#1121,#1122,#1123,#1124),(#1125,#1126,#1127,#1128,#1129,
#1130),(#1131,#1132,#1133,#1134,#1135,#1136),(#1137,#1138,#1139,#1140,#1141,
#1142),(#1143,#1144,#1145,#1146,#1147,#1148)),.UNSPECIFIED.,.F.,.F.,.F.,
(4,1,1,4),(4,1,1,4),(0.,0.285714285714286,0.571428571428571,1.),(-0.777705553149272,
-0.111100793698621,0.33330237926848,0.777705552235581),.UNSPECIFIED.);
#18=B_SPLINE_SURFACE_WITH_KNOTS('',3,3,((#1194,#1195,#1196,#1197,#1198,
#1199),(#1200,#1201,#1202,#1203,#1204,#1205),(#1206,#1207,#1208,#1209,#1210,
#1211),(#1212,#1213,#1214,#1215,#1216,#1217),(#1218,#1219,#1220,#1221,#1222,
#1223),(#1224,#1225,#1226,#1227,#1228,#1229)),.UNSPECIFIED.,.F.,.F.,.F.,
(4,1,1,4),(4,1,1,4),(0.,0.285714285714286,0.571428571428571,1.),(-0.777705552228731,
-0.333302379526599,0.111100793175533,0.777705552228731),.UNSPECIFIED.);
#19=B_SPLINE_SURFACE_WITH_KNOTS('',3,3,((#1249,#1250,#1251,#1252,#1253,
#1254),(#1255,#1256,#1257,#1258,#1259,#1260),(#1261,#1262,#1263,#1264,#1265,
#1266),(#1267,#1268,#1269,#1270,#1271,#1272),(#1273,#1274,#1275,#1276,#1277,
#1278),(#1279,#1280,#1281,#1282,#1283,#1284)),.UNSPECIFIED.,.F.,.F.,.F.,
(4,1,1,4),(4,1,1,4),(0.,0.285714285714286,0.571428571428571,1.),(-0.777705552228715,
-0.111100792781116,0.333302380183951,0.777705553149018),.UNSPECIFIED.);
#20=B_SPLINE_SURFACE_WITH_KNOTS('',3,3,((#1319,#1320,#1321,#1322,#1323,
#1324),(#1325,#1326,#1327,#1328,#1329,#1330),(#1331,#1332,#1333,#1334,#1335,
#1336),(#1337,#1338,#1339,#1340,#1341,#1342),(#1343,#1344,#1345,#1346,#1347,
#1348),(#1349,#1350,#1351,#1352,#1353,#1354)),.UNSPECIFIED.,.F.,.F.,.F.,
(4,1,1,4),(4,1,1,4),(0.,0.285714285714286,0.571428571428571,1.),(-0.777705553131725,
-0.333302379913597,0.111100793304531,0.777705553131723),.UNSPECIFIED.);
#21=ELLIPSE('',#761,3.52723776488059,3.49999999999998);
#22=ELLIPSE('',#762,4.94974746830579,3.49999999999998);
#23=ELLIPSE('',#765,3.52723776488061,3.49999999999999);
#24=ELLIPSE('',#770,0.609302880347697,0.6);
#25=ELLIPSE('',#772,5.00112487346597,4.99999999999998);
#26=ELLIPSE('',#773,0.609302880347697,0.6);
#27=ELLIPSE('',#779,0.609302879247173,0.599999999999999);
#28=ELLIPSE('',#781,5.00112487333189,5.00000000000003);
#29=ELLIPSE('',#782,0.609302879247173,0.599999999999999);
#30=ELLIPSE('',#786,5.07752399372645,5.);
#31=ELLIPSE('',#789,5.07752399831196,5.);
#32=ELLIPSE('',#796,5.07752399831196,5.);
#33=ELLIPSE('',#799,5.07752400289748,5.);
#34=B_SPLINE_CURVE_WITH_KNOTS('',3,(#1073,#1074,#1075,#1076,#1077,#1078),
 .UNSPECIFIED.,.F.,.F.,(4,2,4),(0.,0.0322937201944077,0.0385839773305829),
 .UNSPECIFIED.);
#35=B_SPLINE_CURVE_WITH_KNOTS('',3,(#1082,#1083,#1084,#1085,#1086,#1087),
 .UNSPECIFIED.,.F.,.F.,(4,2,4),(0.0503486729765573,0.0756308676463536,0.0943136323628959),
 .UNSPECIFIED.);
#36=B_SPLINE_CURVE_WITH_KNOTS('',3,(#1101,#1102,#1103,#1104,#1105,#1106,
#1107,#1108),.UNSPECIFIED.,.F.,.F.,(4,2,2,4),(-0.331576963812246,-0.211511781810744,
-0.101868149966592,0.),.UNSPECIFIED.);
#37=B_SPLINE_CURVE_WITH_KNOTS('',3,(#1151,#1152,#1153,#1154,#1155,#1156),
 .UNSPECIFIED.,.F.,.F.,(4,2,4),(0.050348672962068,0.0756308662647237,0.0943136288077836),
 .UNSPECIFIED.);
#38=B_SPLINE_CURVE_WITH_KNOTS('',3,(#1158,#1159,#1160,#1161),
 .UNSPECIFIED.,.F.,.F.,(4,4),(0.54890962400125,0.777705552235581),
 .UNSPECIFIED.);
#39=B_SPLINE_CURVE_WITH_KNOTS('',3,(#1165,#1166,#1167,#1168,#1169,#1170,
#1171,#1172,#1173,#1174),.UNSPECIFIED.,.F.,.F.,(4,3,3,4),(-0.777705552235597,
-0.333302379292828,0.111100793674177,0.777705553124685),.UNSPECIFIED.);
#40=B_SPLINE_CURVE_WITH_KNOTS('',3,(#1178,#1179,#1180,#1181),
 .UNSPECIFIED.,.F.,.F.,(4,4),(-0.777705553149272,-0.548909352243405),
 .UNSPECIFIED.);
#41=B_SPLINE_CURVE_WITH_KNOTS('',3,(#1182,#1183,#1184,#1185,#1186,#1187),
 .UNSPECIFIED.,.F.,.F.,(4,2,4),(0.,0.0322678085644389,0.0385829967272006),
 .UNSPECIFIED.);
#42=B_SPLINE_CURVE_WITH_KNOTS('',3,(#1237,#1238,#1239,#1240,#1241,#1242),
 .UNSPECIFIED.,.F.,.F.,(4,2,4),(0.,0.0322937204464747,0.0385839806871182),
 .UNSPECIFIED.);
#43=B_SPLINE_CURVE_WITH_KNOTS('',3,(#1286,#1287,#1288,#1289,#1290,#1291),
 .UNSPECIFIED.,.F.,.F.,(4,2,4),(0.0503486729753401,0.0756308663090131,0.0943136170509535),
 .UNSPECIFIED.);
#44=B_SPLINE_CURVE_WITH_KNOTS('',3,(#1293,#1294,#1295,#1296),
 .UNSPECIFIED.,.F.,.F.,(4,4),(0.548909345868635,0.777705553149018),
 .UNSPECIFIED.);
#45=B_SPLINE_CURVE_WITH_KNOTS('',3,(#1299,#1300,#1301,#1302,#1303,#1304,
#1305,#1306,#1307,#1308),.UNSPECIFIED.,.F.,.F.,(4,3,3,4),(-0.777705553124907,
-0.333302380162547,0.111100792799815,0.777705552225674),.UNSPECIFIED.);
#46=B_SPLINE_CURVE_WITH_KNOTS('',3,(#1309,#1310,#1311,#1312),
 .UNSPECIFIED.,.F.,.F.,(4,4),(-0.777705552228715,-0.548909619289841),
 .UNSPECIFIED.);
#47=B_SPLINE_CURVE_WITH_KNOTS('',3,(#1357,#1358,#1359,#1360,#1361,#1362),
 .UNSPECIFIED.,.F.,.F.,(4,2,4),(0.0503486729613266,0.0756308649276734,0.0943136134957581),
 .UNSPECIFIED.);
#48=B_SPLINE_CURVE_WITH_KNOTS('',3,(#1370,#1371,#1372,#1373,#1374,#1375),
 .UNSPECIFIED.,.F.,.F.,(4,2,4),(0.,0.0322937449440517,0.038583998114563),
 .UNSPECIFIED.);
#49=PLANE('',#742);
#50=PLANE('',#746);
#51=PLANE('',#750);
#52=PLANE('',#754);
#53=PLANE('',#755);
#54=PLANE('',#759);
#55=PLANE('',#784);
#56=PLANE('',#787);
#57=PLANE('',#790);
#58=PLANE('',#791);
#59=PLANE('',#792);
#60=PLANE('',#793);
#61=PLANE('',#794);
#62=PLANE('',#797);
#63=PLANE('',#800);
#64=PLANE('',#801);
#65=PLANE('',#802);
#66=PLANE('',#803);
#67=PLANE('',#804);
#68=PLANE('',#805);
#69=PLANE('',#806);
#70=PLANE('',#807);
#71=FACE_OUTER_BOUND('',#113,.T.);
#72=FACE_OUTER_BOUND('',#114,.T.);
#73=FACE_OUTER_BOUND('',#115,.T.);
#74=FACE_OUTER_BOUND('',#116,.T.);
#75=FACE_OUTER_BOUND('',#117,.T.);
#76=FACE_OUTER_BOUND('',#118,.T.);
#77=FACE_OUTER_BOUND('',#119,.T.);
#78=FACE_OUTER_BOUND('',#120,.T.);
#79=FACE_OUTER_BOUND('',#121,.T.);
#80=FACE_OUTER_BOUND('',#122,.T.);
#81=FACE_OUTER_BOUND('',#123,.T.);
#82=FACE_OUTER_BOUND('',#124,.T.);
#83=FACE_OUTER_BOUND('',#125,.T.);
#84=FACE_OUTER_BOUND('',#126,.T.);
#85=FACE_OUTER_BOUND('',#127,.T.);
#86=FACE_OUTER_BOUND('',#128,.T.);
#87=FACE_OUTER_BOUND('',#129,.T.);
#88=FACE_OUTER_BOUND('',#130,.T.);
#89=FACE_OUTER_BOUND('',#131,.T.);
#90=FACE_OUTER_BOUND('',#132,.T.);
#91=FACE_OUTER_BOUND('',#133,.T.);
#92=FACE_OUTER_BOUND('',#134,.T.);
#93=FACE_OUTER_BOUND('',#135,.T.);
#94=FACE_OUTER_BOUND('',#136,.T.);
#95=FACE_OUTER_BOUND('',#137,.T.);
#96=FACE_OUTER_BOUND('',#139,.T.);
#97=FACE_OUTER_BOUND('',#140,.T.);
#98=FACE_OUTER_BOUND('',#141,.T.);
#99=FACE_OUTER_BOUND('',#142,.T.);
#100=FACE_OUTER_BOUND('',#143,.T.);
#101=FACE_OUTER_BOUND('',#144,.T.);
#102=FACE_OUTER_BOUND('',#145,.T.);
#103=FACE_OUTER_BOUND('',#146,.T.);
#104=FACE_OUTER_BOUND('',#147,.T.);
#105=FACE_OUTER_BOUND('',#148,.T.);
#106=FACE_OUTER_BOUND('',#149,.T.);
#107=FACE_OUTER_BOUND('',#151,.T.);
#108=FACE_OUTER_BOUND('',#152,.T.);
#109=FACE_OUTER_BOUND('',#153,.T.);
#110=FACE_OUTER_BOUND('',#154,.T.);
#111=FACE_OUTER_BOUND('',#155,.T.);
#112=FACE_OUTER_BOUND('',#156,.T.);
#113=EDGE_LOOP('',(#467,#468,#469,#470));
#114=EDGE_LOOP('',(#471,#472,#473,#474));
#115=EDGE_LOOP('',(#475,#476,#477,#478));
#116=EDGE_LOOP('',(#479,#480,#481,#482));
#117=EDGE_LOOP('',(#483,#484,#485,#486));
#118=EDGE_LOOP('',(#487,#488,#489,#490,#491,#492,#493,#494));
#119=EDGE_LOOP('',(#495,#496,#497,#498));
#120=EDGE_LOOP('',(#499,#500,#501,#502));
#121=EDGE_LOOP('',(#503,#504,#505,#506));
#122=EDGE_LOOP('',(#507,#508,#509,#510));
#123=EDGE_LOOP('',(#511,#512,#513,#514,#515,#516,#517));
#124=EDGE_LOOP('',(#518,#519,#520,#521));
#125=EDGE_LOOP('',(#522,#523,#524,#525));
#126=EDGE_LOOP('',(#526,#527,#528,#529));
#127=EDGE_LOOP('',(#530,#531,#532,#533,#534,#535,#536));
#128=EDGE_LOOP('',(#537,#538,#539,#540));
#129=EDGE_LOOP('',(#541,#542,#543,#544,#545,#546,#547));
#130=EDGE_LOOP('',(#548,#549,#550,#551));
#131=EDGE_LOOP('',(#552,#553,#554,#555,#556,#557,#558));
#132=EDGE_LOOP('',(#559,#560,#561,#562));
#133=EDGE_LOOP('',(#563,#564,#565,#566,#567,#568,#569));
#134=EDGE_LOOP('',(#570,#571,#572,#573));
#135=EDGE_LOOP('',(#574,#575,#576,#577));
#136=EDGE_LOOP('',(#578,#579,#580,#581));
#137=EDGE_LOOP('',(#582,#583,#584,#585));
#138=EDGE_LOOP('',(#586,#587,#588,#589,#590,#591,#592,#593));
#139=EDGE_LOOP('',(#594,#595,#596,#597));
#140=EDGE_LOOP('',(#598,#599,#600,#601,#602,#603));
#141=EDGE_LOOP('',(#604,#605,#606,#607));
#142=EDGE_LOOP('',(#608,#609,#610,#611));
#143=EDGE_LOOP('',(#612,#613,#614,#615));
#144=EDGE_LOOP('',(#616,#617,#618,#619,#620,#621,#622));
#145=EDGE_LOOP('',(#623,#624,#625,#626));
#146=EDGE_LOOP('',(#627,#628,#629,#630));
#147=EDGE_LOOP('',(#631,#632,#633,#634));
#148=EDGE_LOOP('',(#635,#636,#637,#638));
#149=EDGE_LOOP('',(#639,#640,#641,#642,#643,#644,#645,#646));
#150=EDGE_LOOP('',(#647,#648,#649,#650));
#151=EDGE_LOOP('',(#651,#652,#653,#654,#655,#656));
#152=EDGE_LOOP('',(#657,#658,#659,#660));
#153=EDGE_LOOP('',(#661,#662,#663,#664,#665,#666));
#154=EDGE_LOOP('',(#667,#668,#669,#670));
#155=EDGE_LOOP('',(#671,#672,#673,#674));
#156=EDGE_LOOP('',(#675,#676,#677,#678));
#157=LINE('',#1014,#217);
#158=LINE('',#1017,#218);
#159=LINE('',#1020,#219);
#160=LINE('',#1022,#220);
#161=LINE('',#1023,#221);
#162=LINE('',#1029,#222);
#163=LINE('',#1032,#223);
#164=LINE('',#1035,#224);
#165=LINE('',#1037,#225);
#166=LINE('',#1038,#226);
#167=LINE('',#1043,#227);
#168=LINE('',#1047,#228);
#169=LINE('',#1049,#229);
#170=LINE('',#1052,#230);
#171=LINE('',#1055,#231);
#172=LINE('',#1057,#232);
#173=LINE('',#1063,#233);
#174=LINE('',#1066,#234);
#175=LINE('',#1069,#235);
#176=LINE('',#1071,#236);
#177=LINE('',#1080,#237);
#178=LINE('',#1088,#238);
#179=LINE('',#1093,#239);
#180=LINE('',#1096,#240);
#181=LINE('',#1099,#241);
#182=LINE('',#1100,#242);
#183=LINE('',#1112,#243);
#184=LINE('',#1192,#244);
#185=LINE('',#1193,#245);
#186=LINE('',#1247,#246);
#187=LINE('',#1248,#247);
#188=LINE('',#1317,#248);
#189=LINE('',#1318,#249);
#190=LINE('',#1377,#250);
#191=LINE('',#1378,#251);
#192=LINE('',#1381,#252);
#193=LINE('',#1383,#253);
#194=LINE('',#1384,#254);
#195=LINE('',#1387,#255);
#196=LINE('',#1391,#256);
#197=LINE('',#1392,#257);
#198=LINE('',#1395,#258);
#199=LINE('',#1398,#259);
#200=LINE('',#1399,#260);
#201=LINE('',#1401,#261);
#202=LINE('',#1404,#262);
#203=LINE('',#1406,#263);
#204=LINE('',#1410,#264);
#205=LINE('',#1414,#265);
#206=LINE('',#1417,#266);
#207=LINE('',#1419,#267);
#208=LINE('',#1421,#268);
#209=LINE('',#1424,#269);
#210=LINE('',#1426,#270);
#211=LINE('',#1428,#271);
#212=LINE('',#1429,#272);
#213=LINE('',#1432,#273);
#214=LINE('',#1433,#274);
#215=LINE('',#1435,#275);
#216=LINE('',#1437,#276);
#217=VECTOR('',#814,10.);
#218=VECTOR('',#817,10.);
#219=VECTOR('',#820,10.);
#220=VECTOR('',#821,10.);
#221=VECTOR('',#822,10.);
#222=VECTOR('',#827,10.);
#223=VECTOR('',#830,10.);
#224=VECTOR('',#833,10.);
#225=VECTOR('',#834,10.);
#226=VECTOR('',#835,10.);
#227=VECTOR('',#840,10.);
#228=VECTOR('',#845,10.);
#229=VECTOR('',#848,10.);
#230=VECTOR('',#851,10.);
#231=VECTOR('',#856,10.);
#232=VECTOR('',#859,10.);
#233=VECTOR('',#864,3.5);
#234=VECTOR('',#867,10.);
#235=VECTOR('',#870,10.);
#236=VECTOR('',#871,10.);
#237=VECTOR('',#872,10.);
#238=VECTOR('',#873,10.);
#239=VECTOR('',#878,10.);
#240=VECTOR('',#881,3.5);
#241=VECTOR('',#884,3.5);
#242=VECTOR('',#885,10.);
#243=VECTOR('',#890,3.5);
#244=VECTOR('',#899,10.);
#245=VECTOR('',#900,10.);
#246=VECTOR('',#913,10.);
#247=VECTOR('',#914,10.);
#248=VECTOR('',#921,10.);
#249=VECTOR('',#922,10.);
#250=VECTOR('',#933,10.);
#251=VECTOR('',#934,10.);
#252=VECTOR('',#937,10.);
#253=VECTOR('',#938,10.);
#254=VECTOR('',#939,10.);
#255=VECTOR('',#942,10.);
#256=VECTOR('',#947,10.);
#257=VECTOR('',#948,10.);
#258=VECTOR('',#951,10.);
#259=VECTOR('',#956,10.);
#260=VECTOR('',#957,10.);
#261=VECTOR('',#960,10.);
#262=VECTOR('',#965,10.);
#263=VECTOR('',#968,10.);
#264=VECTOR('',#973,10.);
#265=VECTOR('',#978,10.);
#266=VECTOR('',#981,10.);
#267=VECTOR('',#984,10.);
#268=VECTOR('',#987,10.);
#269=VECTOR('',#988,10.);
#270=VECTOR('',#989,10.);
#271=VECTOR('',#990,10.);
#272=VECTOR('',#991,10.);
#273=VECTOR('',#996,10.);
#274=VECTOR('',#997,10.);
#275=VECTOR('',#1000,10.);
#276=VECTOR('',#1003,10.);
#277=CIRCLE('',#740,5.);
#278=CIRCLE('',#741,5.);
#279=CIRCLE('',#744,5.);
#280=CIRCLE('',#745,5.);
#281=CIRCLE('',#748,5.);
#282=CIRCLE('',#749,5.);
#283=CIRCLE('',#751,5.);
#284=CIRCLE('',#753,5.);
#285=CIRCLE('',#757,3.5);
#286=CIRCLE('',#758,3.5);
#287=CIRCLE('',#766,4.39999999999998);
#288=CIRCLE('',#767,4.39999999972912);
#289=CIRCLE('',#769,4.39999999999998);
#290=CIRCLE('',#771,4.39999999999998);
#291=CIRCLE('',#775,4.39999999999998);
#292=CIRCLE('',#776,4.39999999999998);
#293=CIRCLE('',#778,4.39999999999998);
#294=CIRCLE('',#780,4.39999999999998);
#295=VERTEX_POINT('',#1010);
#296=VERTEX_POINT('',#1011);
#297=VERTEX_POINT('',#1013);
#298=VERTEX_POINT('',#1015);
#299=VERTEX_POINT('',#1019);
#300=VERTEX_POINT('',#1021);
#301=VERTEX_POINT('',#1025);
#302=VERTEX_POINT('',#1026);
#303=VERTEX_POINT('',#1028);
#304=VERTEX_POINT('',#1030);
#305=VERTEX_POINT('',#1034);
#306=VERTEX_POINT('',#1036);
#307=VERTEX_POINT('',#1040);
#308=VERTEX_POINT('',#1042);
#309=VERTEX_POINT('',#1046);
#310=VERTEX_POINT('',#1051);
#311=VERTEX_POINT('',#1059);
#312=VERTEX_POINT('',#1060);
#313=VERTEX_POINT('',#1062);
#314=VERTEX_POINT('',#1064);
#315=VERTEX_POINT('',#1068);
#316=VERTEX_POINT('',#1070);
#317=VERTEX_POINT('',#1072);
#318=VERTEX_POINT('',#1079);
#319=VERTEX_POINT('',#1081);
#320=VERTEX_POINT('',#1090);
#321=VERTEX_POINT('',#1092);
#322=VERTEX_POINT('',#1094);
#323=VERTEX_POINT('',#1098);
#324=VERTEX_POINT('',#1110);
#325=VERTEX_POINT('',#1149);
#326=VERTEX_POINT('',#1150);
#327=VERTEX_POINT('',#1157);
#328=VERTEX_POINT('',#1162);
#329=VERTEX_POINT('',#1164);
#330=VERTEX_POINT('',#1175);
#331=VERTEX_POINT('',#1177);
#332=VERTEX_POINT('',#1189);
#333=VERTEX_POINT('',#1190);
#334=VERTEX_POINT('',#1230);
#335=VERTEX_POINT('',#1232);
#336=VERTEX_POINT('',#1235);
#337=VERTEX_POINT('',#1244);
#338=VERTEX_POINT('',#1245);
#339=VERTEX_POINT('',#1285);
#340=VERTEX_POINT('',#1292);
#341=VERTEX_POINT('',#1297);
#342=VERTEX_POINT('',#1314);
#343=VERTEX_POINT('',#1315);
#344=VERTEX_POINT('',#1355);
#345=VERTEX_POINT('',#1356);
#346=VERTEX_POINT('',#1363);
#347=VERTEX_POINT('',#1365);
#348=VERTEX_POINT('',#1368);
#349=VERTEX_POINT('',#1380);
#350=VERTEX_POINT('',#1382);
#351=VERTEX_POINT('',#1386);
#352=VERTEX_POINT('',#1390);
#353=VERTEX_POINT('',#1394);
#354=VERTEX_POINT('',#1408);
#355=VERTEX_POINT('',#1413);
#356=VERTEX_POINT('',#1415);
#357=VERTEX_POINT('',#1422);
#358=VERTEX_POINT('',#1423);
#359=VERTEX_POINT('',#1425);
#360=VERTEX_POINT('',#1427);
#361=EDGE_CURVE('',#295,#296,#277,.T.);
#362=EDGE_CURVE('',#295,#297,#157,.T.);
#363=EDGE_CURVE('',#297,#298,#278,.T.);
#364=EDGE_CURVE('',#298,#296,#158,.T.);
#365=EDGE_CURVE('',#299,#295,#159,.T.);
#366=EDGE_CURVE('',#300,#299,#160,.T.);
#367=EDGE_CURVE('',#297,#300,#161,.T.);
#368=EDGE_CURVE('',#301,#302,#279,.T.);
#369=EDGE_CURVE('',#301,#303,#162,.T.);
#370=EDGE_CURVE('',#303,#304,#280,.T.);
#371=EDGE_CURVE('',#304,#302,#163,.T.);
#372=EDGE_CURVE('',#305,#301,#164,.T.);
#373=EDGE_CURVE('',#306,#305,#165,.T.);
#374=EDGE_CURVE('',#303,#306,#166,.T.);
#375=EDGE_CURVE('',#307,#299,#281,.T.);
#376=EDGE_CURVE('',#307,#308,#167,.T.);
#377=EDGE_CURVE('',#308,#300,#282,.T.);
#378=EDGE_CURVE('',#296,#309,#168,.T.);
#379=EDGE_CURVE('',#309,#305,#283,.T.);
#380=EDGE_CURVE('',#302,#307,#169,.T.);
#381=EDGE_CURVE('',#309,#310,#170,.T.);
#382=EDGE_CURVE('',#310,#306,#284,.T.);
#383=EDGE_CURVE('',#310,#298,#171,.T.);
#384=EDGE_CURVE('',#308,#304,#172,.T.);
#385=EDGE_CURVE('',#311,#312,#285,.T.);
#386=EDGE_CURVE('',#311,#313,#173,.T.);
#387=EDGE_CURVE('',#314,#313,#286,.T.);
#388=EDGE_CURVE('',#312,#314,#174,.T.);
#389=EDGE_CURVE('',#312,#315,#175,.T.);
#390=EDGE_CURVE('',#316,#315,#176,.T.);
#391=EDGE_CURVE('',#317,#316,#34,.T.);
#392=EDGE_CURVE('',#318,#317,#177,.T.);
#393=EDGE_CURVE('',#319,#318,#35,.T.);
#394=EDGE_CURVE('',#319,#311,#178,.T.);
#395=EDGE_CURVE('',#314,#320,#21,.T.);
#396=EDGE_CURVE('',#321,#314,#179,.T.);
#397=EDGE_CURVE('',#321,#322,#22,.T.);
#398=EDGE_CURVE('',#322,#320,#180,.T.);
#399=EDGE_CURVE('',#323,#322,#181,.T.);
#400=EDGE_CURVE('',#315,#321,#182,.T.);
#401=EDGE_CURVE('',#315,#323,#36,.T.);
#402=EDGE_CURVE('',#312,#324,#23,.F.);
#403=EDGE_CURVE('',#324,#323,#183,.T.);
#404=EDGE_CURVE('',#325,#326,#37,.T.);
#405=EDGE_CURVE('',#326,#327,#38,.T.);
#406=EDGE_CURVE('',#327,#328,#287,.T.);
#407=EDGE_CURVE('',#328,#329,#39,.T.);
#408=EDGE_CURVE('',#329,#330,#288,.T.);
#409=EDGE_CURVE('',#330,#331,#40,.T.);
#410=EDGE_CURVE('',#331,#325,#41,.T.);
#411=EDGE_CURVE('',#332,#333,#289,.T.);
#412=EDGE_CURVE('',#333,#328,#184,.T.);
#413=EDGE_CURVE('',#327,#332,#185,.T.);
#414=EDGE_CURVE('',#318,#334,#24,.T.);
#415=EDGE_CURVE('',#334,#335,#290,.T.);
#416=EDGE_CURVE('',#335,#333,#25,.T.);
#417=EDGE_CURVE('',#332,#336,#26,.T.);
#418=EDGE_CURVE('',#336,#319,#42,.T.);
#419=EDGE_CURVE('',#337,#338,#291,.T.);
#420=EDGE_CURVE('',#338,#335,#186,.T.);
#421=EDGE_CURVE('',#334,#337,#187,.T.);
#422=EDGE_CURVE('',#316,#339,#43,.T.);
#423=EDGE_CURVE('',#339,#340,#44,.T.);
#424=EDGE_CURVE('',#340,#341,#292,.T.);
#425=EDGE_CURVE('',#341,#338,#45,.T.);
#426=EDGE_CURVE('',#337,#317,#46,.T.);
#427=EDGE_CURVE('',#342,#343,#293,.T.);
#428=EDGE_CURVE('',#343,#341,#188,.T.);
#429=EDGE_CURVE('',#340,#342,#189,.T.);
#430=EDGE_CURVE('',#344,#345,#47,.T.);
#431=EDGE_CURVE('',#345,#346,#27,.T.);
#432=EDGE_CURVE('',#346,#347,#294,.T.);
#433=EDGE_CURVE('',#347,#343,#28,.T.);
#434=EDGE_CURVE('',#342,#348,#29,.T.);
#435=EDGE_CURVE('',#348,#344,#48,.T.);
#436=EDGE_CURVE('',#329,#347,#190,.T.);
#437=EDGE_CURVE('',#346,#330,#191,.T.);
#438=EDGE_CURVE('',#349,#343,#192,.T.);
#439=EDGE_CURVE('',#350,#349,#193,.T.);
#440=EDGE_CURVE('',#341,#350,#194,.T.);
#441=EDGE_CURVE('',#347,#351,#195,.T.);
#442=EDGE_CURVE('',#351,#349,#30,.T.);
#443=EDGE_CURVE('',#352,#329,#196,.T.);
#444=EDGE_CURVE('',#351,#352,#197,.T.);
#445=EDGE_CURVE('',#328,#353,#198,.T.);
#446=EDGE_CURVE('',#353,#352,#31,.T.);
#447=EDGE_CURVE('',#326,#336,#199,.T.);
#448=EDGE_CURVE('',#325,#313,#200,.T.);
#449=EDGE_CURVE('',#345,#331,#201,.T.);
#450=EDGE_CURVE('',#339,#348,#202,.T.);
#451=EDGE_CURVE('',#344,#321,#203,.T.);
#452=EDGE_CURVE('',#350,#354,#32,.T.);
#453=EDGE_CURVE('',#354,#338,#204,.T.);
#454=EDGE_CURVE('',#335,#355,#205,.T.);
#455=EDGE_CURVE('',#355,#356,#33,.T.);
#456=EDGE_CURVE('',#356,#333,#206,.T.);
#457=EDGE_CURVE('',#353,#356,#207,.T.);
#458=EDGE_CURVE('',#355,#354,#208,.T.);
#459=EDGE_CURVE('',#357,#358,#209,.T.);
#460=EDGE_CURVE('',#358,#359,#210,.T.);
#461=EDGE_CURVE('',#359,#360,#211,.T.);
#462=EDGE_CURVE('',#360,#357,#212,.T.);
#463=EDGE_CURVE('',#360,#324,#213,.F.);
#464=EDGE_CURVE('',#359,#323,#214,.F.);
#465=EDGE_CURVE('',#357,#320,#215,.F.);
#466=EDGE_CURVE('',#358,#322,#216,.T.);
#467=ORIENTED_EDGE('',*,*,#361,.F.);
#468=ORIENTED_EDGE('',*,*,#362,.T.);
#469=ORIENTED_EDGE('',*,*,#363,.T.);
#470=ORIENTED_EDGE('',*,*,#364,.T.);
#471=ORIENTED_EDGE('',*,*,#362,.F.);
#472=ORIENTED_EDGE('',*,*,#365,.F.);
#473=ORIENTED_EDGE('',*,*,#366,.F.);
#474=ORIENTED_EDGE('',*,*,#367,.F.);
#475=ORIENTED_EDGE('',*,*,#368,.F.);
#476=ORIENTED_EDGE('',*,*,#369,.T.);
#477=ORIENTED_EDGE('',*,*,#370,.T.);
#478=ORIENTED_EDGE('',*,*,#371,.T.);
#479=ORIENTED_EDGE('',*,*,#369,.F.);
#480=ORIENTED_EDGE('',*,*,#372,.F.);
#481=ORIENTED_EDGE('',*,*,#373,.F.);
#482=ORIENTED_EDGE('',*,*,#374,.F.);
#483=ORIENTED_EDGE('',*,*,#375,.F.);
#484=ORIENTED_EDGE('',*,*,#376,.T.);
#485=ORIENTED_EDGE('',*,*,#377,.T.);
#486=ORIENTED_EDGE('',*,*,#366,.T.);
#487=ORIENTED_EDGE('',*,*,#361,.T.);
#488=ORIENTED_EDGE('',*,*,#378,.T.);
#489=ORIENTED_EDGE('',*,*,#379,.T.);
#490=ORIENTED_EDGE('',*,*,#372,.T.);
#491=ORIENTED_EDGE('',*,*,#368,.T.);
#492=ORIENTED_EDGE('',*,*,#380,.T.);
#493=ORIENTED_EDGE('',*,*,#375,.T.);
#494=ORIENTED_EDGE('',*,*,#365,.T.);
#495=ORIENTED_EDGE('',*,*,#379,.F.);
#496=ORIENTED_EDGE('',*,*,#381,.T.);
#497=ORIENTED_EDGE('',*,*,#382,.T.);
#498=ORIENTED_EDGE('',*,*,#373,.T.);
#499=ORIENTED_EDGE('',*,*,#364,.F.);
#500=ORIENTED_EDGE('',*,*,#383,.F.);
#501=ORIENTED_EDGE('',*,*,#381,.F.);
#502=ORIENTED_EDGE('',*,*,#378,.F.);
#503=ORIENTED_EDGE('',*,*,#371,.F.);
#504=ORIENTED_EDGE('',*,*,#384,.F.);
#505=ORIENTED_EDGE('',*,*,#376,.F.);
#506=ORIENTED_EDGE('',*,*,#380,.F.);
#507=ORIENTED_EDGE('',*,*,#385,.F.);
#508=ORIENTED_EDGE('',*,*,#386,.T.);
#509=ORIENTED_EDGE('',*,*,#387,.F.);
#510=ORIENTED_EDGE('',*,*,#388,.F.);
#511=ORIENTED_EDGE('',*,*,#385,.T.);
#512=ORIENTED_EDGE('',*,*,#389,.T.);
#513=ORIENTED_EDGE('',*,*,#390,.F.);
#514=ORIENTED_EDGE('',*,*,#391,.F.);
#515=ORIENTED_EDGE('',*,*,#392,.F.);
#516=ORIENTED_EDGE('',*,*,#393,.F.);
#517=ORIENTED_EDGE('',*,*,#394,.T.);
#518=ORIENTED_EDGE('',*,*,#395,.F.);
#519=ORIENTED_EDGE('',*,*,#396,.F.);
#520=ORIENTED_EDGE('',*,*,#397,.T.);
#521=ORIENTED_EDGE('',*,*,#398,.T.);
#522=ORIENTED_EDGE('',*,*,#399,.T.);
#523=ORIENTED_EDGE('',*,*,#397,.F.);
#524=ORIENTED_EDGE('',*,*,#400,.F.);
#525=ORIENTED_EDGE('',*,*,#401,.T.);
#526=ORIENTED_EDGE('',*,*,#402,.T.);
#527=ORIENTED_EDGE('',*,*,#403,.T.);
#528=ORIENTED_EDGE('',*,*,#401,.F.);
#529=ORIENTED_EDGE('',*,*,#389,.F.);
#530=ORIENTED_EDGE('',*,*,#404,.T.);
#531=ORIENTED_EDGE('',*,*,#405,.T.);
#532=ORIENTED_EDGE('',*,*,#406,.T.);
#533=ORIENTED_EDGE('',*,*,#407,.T.);
#534=ORIENTED_EDGE('',*,*,#408,.T.);
#535=ORIENTED_EDGE('',*,*,#409,.T.);
#536=ORIENTED_EDGE('',*,*,#410,.T.);
#537=ORIENTED_EDGE('',*,*,#411,.T.);
#538=ORIENTED_EDGE('',*,*,#412,.T.);
#539=ORIENTED_EDGE('',*,*,#406,.F.);
#540=ORIENTED_EDGE('',*,*,#413,.T.);
#541=ORIENTED_EDGE('',*,*,#393,.T.);
#542=ORIENTED_EDGE('',*,*,#414,.T.);
#543=ORIENTED_EDGE('',*,*,#415,.T.);
#544=ORIENTED_EDGE('',*,*,#416,.T.);
#545=ORIENTED_EDGE('',*,*,#411,.F.);
#546=ORIENTED_EDGE('',*,*,#417,.T.);
#547=ORIENTED_EDGE('',*,*,#418,.T.);
#548=ORIENTED_EDGE('',*,*,#419,.T.);
#549=ORIENTED_EDGE('',*,*,#420,.T.);
#550=ORIENTED_EDGE('',*,*,#415,.F.);
#551=ORIENTED_EDGE('',*,*,#421,.T.);
#552=ORIENTED_EDGE('',*,*,#422,.T.);
#553=ORIENTED_EDGE('',*,*,#423,.T.);
#554=ORIENTED_EDGE('',*,*,#424,.T.);
#555=ORIENTED_EDGE('',*,*,#425,.T.);
#556=ORIENTED_EDGE('',*,*,#419,.F.);
#557=ORIENTED_EDGE('',*,*,#426,.T.);
#558=ORIENTED_EDGE('',*,*,#391,.T.);
#559=ORIENTED_EDGE('',*,*,#427,.T.);
#560=ORIENTED_EDGE('',*,*,#428,.T.);
#561=ORIENTED_EDGE('',*,*,#424,.F.);
#562=ORIENTED_EDGE('',*,*,#429,.T.);
#563=ORIENTED_EDGE('',*,*,#430,.T.);
#564=ORIENTED_EDGE('',*,*,#431,.T.);
#565=ORIENTED_EDGE('',*,*,#432,.T.);
#566=ORIENTED_EDGE('',*,*,#433,.T.);
#567=ORIENTED_EDGE('',*,*,#427,.F.);
#568=ORIENTED_EDGE('',*,*,#434,.T.);
#569=ORIENTED_EDGE('',*,*,#435,.T.);
#570=ORIENTED_EDGE('',*,*,#408,.F.);
#571=ORIENTED_EDGE('',*,*,#436,.T.);
#572=ORIENTED_EDGE('',*,*,#432,.F.);
#573=ORIENTED_EDGE('',*,*,#437,.T.);
#574=ORIENTED_EDGE('',*,*,#428,.F.);
#575=ORIENTED_EDGE('',*,*,#438,.F.);
#576=ORIENTED_EDGE('',*,*,#439,.F.);
#577=ORIENTED_EDGE('',*,*,#440,.F.);
#578=ORIENTED_EDGE('',*,*,#433,.F.);
#579=ORIENTED_EDGE('',*,*,#441,.T.);
#580=ORIENTED_EDGE('',*,*,#442,.T.);
#581=ORIENTED_EDGE('',*,*,#438,.T.);
#582=ORIENTED_EDGE('',*,*,#436,.F.);
#583=ORIENTED_EDGE('',*,*,#443,.F.);
#584=ORIENTED_EDGE('',*,*,#444,.F.);
#585=ORIENTED_EDGE('',*,*,#441,.F.);
#586=ORIENTED_EDGE('',*,*,#367,.T.);
#587=ORIENTED_EDGE('',*,*,#377,.F.);
#588=ORIENTED_EDGE('',*,*,#384,.T.);
#589=ORIENTED_EDGE('',*,*,#370,.F.);
#590=ORIENTED_EDGE('',*,*,#374,.T.);
#591=ORIENTED_EDGE('',*,*,#382,.F.);
#592=ORIENTED_EDGE('',*,*,#383,.T.);
#593=ORIENTED_EDGE('',*,*,#363,.F.);
#594=ORIENTED_EDGE('',*,*,#407,.F.);
#595=ORIENTED_EDGE('',*,*,#445,.T.);
#596=ORIENTED_EDGE('',*,*,#446,.T.);
#597=ORIENTED_EDGE('',*,*,#443,.T.);
#598=ORIENTED_EDGE('',*,*,#386,.F.);
#599=ORIENTED_EDGE('',*,*,#394,.F.);
#600=ORIENTED_EDGE('',*,*,#418,.F.);
#601=ORIENTED_EDGE('',*,*,#447,.F.);
#602=ORIENTED_EDGE('',*,*,#404,.F.);
#603=ORIENTED_EDGE('',*,*,#448,.T.);
#604=ORIENTED_EDGE('',*,*,#409,.F.);
#605=ORIENTED_EDGE('',*,*,#437,.F.);
#606=ORIENTED_EDGE('',*,*,#431,.F.);
#607=ORIENTED_EDGE('',*,*,#449,.T.);
#608=ORIENTED_EDGE('',*,*,#417,.F.);
#609=ORIENTED_EDGE('',*,*,#413,.F.);
#610=ORIENTED_EDGE('',*,*,#405,.F.);
#611=ORIENTED_EDGE('',*,*,#447,.T.);
#612=ORIENTED_EDGE('',*,*,#423,.F.);
#613=ORIENTED_EDGE('',*,*,#450,.T.);
#614=ORIENTED_EDGE('',*,*,#434,.F.);
#615=ORIENTED_EDGE('',*,*,#429,.F.);
#616=ORIENTED_EDGE('',*,*,#387,.T.);
#617=ORIENTED_EDGE('',*,*,#448,.F.);
#618=ORIENTED_EDGE('',*,*,#410,.F.);
#619=ORIENTED_EDGE('',*,*,#449,.F.);
#620=ORIENTED_EDGE('',*,*,#430,.F.);
#621=ORIENTED_EDGE('',*,*,#451,.T.);
#622=ORIENTED_EDGE('',*,*,#396,.T.);
#623=ORIENTED_EDGE('',*,*,#425,.F.);
#624=ORIENTED_EDGE('',*,*,#440,.T.);
#625=ORIENTED_EDGE('',*,*,#452,.T.);
#626=ORIENTED_EDGE('',*,*,#453,.T.);
#627=ORIENTED_EDGE('',*,*,#414,.F.);
#628=ORIENTED_EDGE('',*,*,#392,.T.);
#629=ORIENTED_EDGE('',*,*,#426,.F.);
#630=ORIENTED_EDGE('',*,*,#421,.F.);
#631=ORIENTED_EDGE('',*,*,#416,.F.);
#632=ORIENTED_EDGE('',*,*,#454,.T.);
#633=ORIENTED_EDGE('',*,*,#455,.T.);
#634=ORIENTED_EDGE('',*,*,#456,.T.);
#635=ORIENTED_EDGE('',*,*,#412,.F.);
#636=ORIENTED_EDGE('',*,*,#456,.F.);
#637=ORIENTED_EDGE('',*,*,#457,.F.);
#638=ORIENTED_EDGE('',*,*,#445,.F.);
#639=ORIENTED_EDGE('',*,*,#452,.F.);
#640=ORIENTED_EDGE('',*,*,#439,.T.);
#641=ORIENTED_EDGE('',*,*,#442,.F.);
#642=ORIENTED_EDGE('',*,*,#444,.T.);
#643=ORIENTED_EDGE('',*,*,#446,.F.);
#644=ORIENTED_EDGE('',*,*,#457,.T.);
#645=ORIENTED_EDGE('',*,*,#455,.F.);
#646=ORIENTED_EDGE('',*,*,#458,.T.);
#647=ORIENTED_EDGE('',*,*,#459,.T.);
#648=ORIENTED_EDGE('',*,*,#460,.T.);
#649=ORIENTED_EDGE('',*,*,#461,.T.);
#650=ORIENTED_EDGE('',*,*,#462,.T.);
#651=ORIENTED_EDGE('',*,*,#422,.F.);
#652=ORIENTED_EDGE('',*,*,#390,.T.);
#653=ORIENTED_EDGE('',*,*,#400,.T.);
#654=ORIENTED_EDGE('',*,*,#451,.F.);
#655=ORIENTED_EDGE('',*,*,#435,.F.);
#656=ORIENTED_EDGE('',*,*,#450,.F.);
#657=ORIENTED_EDGE('',*,*,#403,.F.);
#658=ORIENTED_EDGE('',*,*,#463,.F.);
#659=ORIENTED_EDGE('',*,*,#461,.F.);
#660=ORIENTED_EDGE('',*,*,#464,.T.);
#661=ORIENTED_EDGE('',*,*,#388,.T.);
#662=ORIENTED_EDGE('',*,*,#395,.T.);
#663=ORIENTED_EDGE('',*,*,#465,.F.);
#664=ORIENTED_EDGE('',*,*,#462,.F.);
#665=ORIENTED_EDGE('',*,*,#463,.T.);
#666=ORIENTED_EDGE('',*,*,#402,.F.);
#667=ORIENTED_EDGE('',*,*,#398,.F.);
#668=ORIENTED_EDGE('',*,*,#466,.F.);
#669=ORIENTED_EDGE('',*,*,#459,.F.);
#670=ORIENTED_EDGE('',*,*,#465,.T.);
#671=ORIENTED_EDGE('',*,*,#399,.F.);
#672=ORIENTED_EDGE('',*,*,#464,.F.);
#673=ORIENTED_EDGE('',*,*,#460,.F.);
#674=ORIENTED_EDGE('',*,*,#466,.T.);
#675=ORIENTED_EDGE('',*,*,#420,.F.);
#676=ORIENTED_EDGE('',*,*,#453,.F.);
#677=ORIENTED_EDGE('',*,*,#458,.F.);
#678=ORIENTED_EDGE('',*,*,#454,.F.);
#679=CYLINDRICAL_SURFACE('',#739,5.);
#680=CYLINDRICAL_SURFACE('',#743,5.);
#681=CYLINDRICAL_SURFACE('',#747,5.);
#682=CYLINDRICAL_SURFACE('',#752,5.);
#683=CYLINDRICAL_SURFACE('',#756,3.5);
#684=CYLINDRICAL_SURFACE('',#760,3.49999999999998);
#685=CYLINDRICAL_SURFACE('',#763,3.49999999999998);
#686=CYLINDRICAL_SURFACE('',#764,3.49999999999999);
#687=CYLINDRICAL_SURFACE('',#768,4.4);
#688=CYLINDRICAL_SURFACE('',#774,4.4);
#689=CYLINDRICAL_SURFACE('',#777,4.4);
#690=CYLINDRICAL_SURFACE('',#783,4.4);
#691=CYLINDRICAL_SURFACE('',#785,5.);
#692=CYLINDRICAL_SURFACE('',#788,5.);
#693=CYLINDRICAL_SURFACE('',#795,5.);
#694=CYLINDRICAL_SURFACE('',#798,5.);
#695=ADVANCED_FACE('',(#71),#679,.F.);
#696=ADVANCED_FACE('',(#72),#49,.F.);
#697=ADVANCED_FACE('',(#73),#680,.F.);
#698=ADVANCED_FACE('',(#74),#50,.F.);
#699=ADVANCED_FACE('',(#75),#681,.F.);
#700=ADVANCED_FACE('',(#76),#51,.F.);
#701=ADVANCED_FACE('',(#77),#682,.F.);
#702=ADVANCED_FACE('',(#78),#52,.F.);
#703=ADVANCED_FACE('',(#79),#53,.F.);
#704=ADVANCED_FACE('',(#80),#683,.F.);
#705=ADVANCED_FACE('',(#81),#54,.F.);
#706=ADVANCED_FACE('',(#82),#684,.T.);
#707=ADVANCED_FACE('',(#83),#685,.T.);
#708=ADVANCED_FACE('',(#84),#686,.T.);
#709=ADVANCED_FACE('',(#85),#17,.F.);
#710=ADVANCED_FACE('',(#86),#687,.T.);
#711=ADVANCED_FACE('',(#87),#18,.F.);
#712=ADVANCED_FACE('',(#88),#688,.T.);
#713=ADVANCED_FACE('',(#89),#19,.F.);
#714=ADVANCED_FACE('',(#90),#689,.T.);
#715=ADVANCED_FACE('',(#91),#20,.F.);
#716=ADVANCED_FACE('',(#92),#690,.T.);
#717=ADVANCED_FACE('',(#93),#55,.F.);
#718=ADVANCED_FACE('',(#94),#691,.T.);
#719=ADVANCED_FACE('',(#95,#15),#56,.F.);
#720=ADVANCED_FACE('',(#96),#692,.T.);
#721=ADVANCED_FACE('',(#97),#57,.F.);
#722=ADVANCED_FACE('',(#98),#58,.T.);
#723=ADVANCED_FACE('',(#99),#59,.T.);
#724=ADVANCED_FACE('',(#100),#60,.T.);
#725=ADVANCED_FACE('',(#101),#61,.F.);
#726=ADVANCED_FACE('',(#102),#693,.T.);
#727=ADVANCED_FACE('',(#103),#62,.T.);
#728=ADVANCED_FACE('',(#104),#694,.T.);
#729=ADVANCED_FACE('',(#105),#63,.F.);
#730=ADVANCED_FACE('',(#106,#16),#64,.F.);
#731=ADVANCED_FACE('',(#107),#65,.F.);
#732=ADVANCED_FACE('',(#108),#66,.T.);
#733=ADVANCED_FACE('',(#109),#67,.T.);
#734=ADVANCED_FACE('',(#110),#68,.T.);
#735=ADVANCED_FACE('',(#111),#69,.T.);
#736=ADVANCED_FACE('',(#112),#70,.F.);
#737=CLOSED_SHELL('',(#695,#696,#697,#698,#699,#700,#701,#702,#703,#704,
#705,#706,#707,#708,#709,#710,#711,#712,#713,#714,#715,#716,#717,#718,#719,
#720,#721,#722,#723,#724,#725,#726,#727,#728,#729,#730,#731,#732,#733,#734,
#735,#736));
#738=AXIS2_PLACEMENT_3D('',#1008,#808,#809);
#739=AXIS2_PLACEMENT_3D('',#1009,#810,#811);
#740=AXIS2_PLACEMENT_3D('',#1012,#812,#813);
#741=AXIS2_PLACEMENT_3D('',#1016,#815,#816);
#742=AXIS2_PLACEMENT_3D('',#1018,#818,#819);
#743=AXIS2_PLACEMENT_3D('',#1024,#823,#824);
#744=AXIS2_PLACEMENT_3D('',#1027,#825,#826);
#745=AXIS2_PLACEMENT_3D('',#1031,#828,#829);
#746=AXIS2_PLACEMENT_3D('',#1033,#831,#832);
#747=AXIS2_PLACEMENT_3D('',#1039,#836,#837);
#748=AXIS2_PLACEMENT_3D('',#1041,#838,#839);
#749=AXIS2_PLACEMENT_3D('',#1044,#841,#842);
#750=AXIS2_PLACEMENT_3D('',#1045,#843,#844);
#751=AXIS2_PLACEMENT_3D('',#1048,#846,#847);
#752=AXIS2_PLACEMENT_3D('',#1050,#849,#850);
#753=AXIS2_PLACEMENT_3D('',#1053,#852,#853);
#754=AXIS2_PLACEMENT_3D('',#1054,#854,#855);
#755=AXIS2_PLACEMENT_3D('',#1056,#857,#858);
#756=AXIS2_PLACEMENT_3D('',#1058,#860,#861);
#757=AXIS2_PLACEMENT_3D('',#1061,#862,#863);
#758=AXIS2_PLACEMENT_3D('',#1065,#865,#866);
#759=AXIS2_PLACEMENT_3D('',#1067,#868,#869);
#760=AXIS2_PLACEMENT_3D('',#1089,#874,#875);
#761=AXIS2_PLACEMENT_3D('',#1091,#876,#877);
#762=AXIS2_PLACEMENT_3D('',#1095,#879,#880);
#763=AXIS2_PLACEMENT_3D('',#1097,#882,#883);
#764=AXIS2_PLACEMENT_3D('',#1109,#886,#887);
#765=AXIS2_PLACEMENT_3D('',#1111,#888,#889);
#766=AXIS2_PLACEMENT_3D('',#1163,#891,#892);
#767=AXIS2_PLACEMENT_3D('',#1176,#893,#894);
#768=AXIS2_PLACEMENT_3D('',#1188,#895,#896);
#769=AXIS2_PLACEMENT_3D('',#1191,#897,#898);
#770=AXIS2_PLACEMENT_3D('',#1231,#901,#902);
#771=AXIS2_PLACEMENT_3D('',#1233,#903,#904);
#772=AXIS2_PLACEMENT_3D('',#1234,#905,#906);
#773=AXIS2_PLACEMENT_3D('',#1236,#907,#908);
#774=AXIS2_PLACEMENT_3D('',#1243,#909,#910);
#775=AXIS2_PLACEMENT_3D('',#1246,#911,#912);
#776=AXIS2_PLACEMENT_3D('',#1298,#915,#916);
#777=AXIS2_PLACEMENT_3D('',#1313,#917,#918);
#778=AXIS2_PLACEMENT_3D('',#1316,#919,#920);
#779=AXIS2_PLACEMENT_3D('',#1364,#923,#924);
#780=AXIS2_PLACEMENT_3D('',#1366,#925,#926);
#781=AXIS2_PLACEMENT_3D('',#1367,#927,#928);
#782=AXIS2_PLACEMENT_3D('',#1369,#929,#930);
#783=AXIS2_PLACEMENT_3D('',#1376,#931,#932);
#784=AXIS2_PLACEMENT_3D('',#1379,#935,#936);
#785=AXIS2_PLACEMENT_3D('',#1385,#940,#941);
#786=AXIS2_PLACEMENT_3D('',#1388,#943,#944);
#787=AXIS2_PLACEMENT_3D('',#1389,#945,#946);
#788=AXIS2_PLACEMENT_3D('',#1393,#949,#950);
#789=AXIS2_PLACEMENT_3D('',#1396,#952,#953);
#790=AXIS2_PLACEMENT_3D('',#1397,#954,#955);
#791=AXIS2_PLACEMENT_3D('',#1400,#958,#959);
#792=AXIS2_PLACEMENT_3D('',#1402,#961,#962);
#793=AXIS2_PLACEMENT_3D('',#1403,#963,#964);
#794=AXIS2_PLACEMENT_3D('',#1405,#966,#967);
#795=AXIS2_PLACEMENT_3D('',#1407,#969,#970);
#796=AXIS2_PLACEMENT_3D('',#1409,#971,#972);
#797=AXIS2_PLACEMENT_3D('',#1411,#974,#975);
#798=AXIS2_PLACEMENT_3D('',#1412,#976,#977);
#799=AXIS2_PLACEMENT_3D('',#1416,#979,#980);
#800=AXIS2_PLACEMENT_3D('',#1418,#982,#983);
#801=AXIS2_PLACEMENT_3D('',#1420,#985,#986);
#802=AXIS2_PLACEMENT_3D('',#1430,#992,#993);
#803=AXIS2_PLACEMENT_3D('',#1431,#994,#995);
#804=AXIS2_PLACEMENT_3D('',#1434,#998,#999);
#805=AXIS2_PLACEMENT_3D('',#1436,#1001,#1002);
#806=AXIS2_PLACEMENT_3D('',#1438,#1004,#1005);
#807=AXIS2_PLACEMENT_3D('',#1439,#1006,#1007);
#808=DIRECTION('axis',(0.,0.,1.));
#809=DIRECTION('refdir',(1.,0.,0.));
#810=DIRECTION('center_axis',(0.124034727309928,0.,0.992277877623578));
#811=DIRECTION('ref_axis',(0.701646416089022,-0.707106781186552,-0.087705796783476));
#812=DIRECTION('center_axis',(-0.124034727309912,0.,-0.99227787762358));
#813=DIRECTION('ref_axis',(0.701646416089022,-0.707106781186552,-0.087705796783476));
#814=DIRECTION('',(-0.124034727309928,0.,-0.992277877623578));
#815=DIRECTION('center_axis',(-0.124034727309901,-1.66391057225062E-17,
-0.992277877623581));
#816=DIRECTION('ref_axis',(0.701646416089022,-0.707106781186552,-0.087705796783476));
#817=DIRECTION('',(0.124034727309928,0.,0.992277877623578));
#818=DIRECTION('center_axis',(0.992277877623578,0.,-0.124034727309928));
#819=DIRECTION('ref_axis',(-0.124034727309928,0.,-0.992277877623578));
#820=DIRECTION('',(0.,-1.,0.));
#821=DIRECTION('',(0.124034727309928,0.,0.992277877623578));
#822=DIRECTION('',(-2.06382694097185E-18,1.,-1.65106165118828E-17));
#823=DIRECTION('center_axis',(0.124034727309928,0.,0.992277877623578));
#824=DIRECTION('ref_axis',(-0.701646416089022,0.707106781186552,0.087705796783476));
#825=DIRECTION('center_axis',(-0.124034727309912,0.,-0.99227787762358));
#826=DIRECTION('ref_axis',(-0.701646416089022,0.707106781186552,0.087705796783476));
#827=DIRECTION('',(-0.124034727309928,0.,-0.992277877623578));
#828=DIRECTION('center_axis',(-0.124034727309901,-1.66391057225062E-17,
-0.992277877623581));
#829=DIRECTION('ref_axis',(-0.701646416089022,0.707106781186552,0.087705796783476));
#830=DIRECTION('',(0.124034727309928,0.,0.992277877623578));
#831=DIRECTION('center_axis',(-0.992277877623578,0.,0.124034727309928));
#832=DIRECTION('ref_axis',(0.124034727309928,0.,0.992277877623578));
#833=DIRECTION('',(0.,1.,0.));
#834=DIRECTION('',(0.124034727309928,0.,0.992277877623578));
#835=DIRECTION('',(2.06382694097185E-18,-1.,1.65106165118828E-17));
#836=DIRECTION('center_axis',(0.124034727309928,0.,0.992277877623578));
#837=DIRECTION('ref_axis',(0.701646416089022,0.707106781186552,-0.0877057967834736));
#838=DIRECTION('center_axis',(-0.124034727309912,0.,-0.99227787762358));
#839=DIRECTION('ref_axis',(0.701646416089022,0.707106781186552,-0.0877057967834736));
#840=DIRECTION('',(-0.124034727309928,0.,-0.992277877623578));
#841=DIRECTION('center_axis',(-0.124034727309901,-1.66391057225062E-17,
-0.992277877623581));
#842=DIRECTION('ref_axis',(0.701646416089022,0.707106781186552,-0.0877057967834736));
#843=DIRECTION('center_axis',(0.124034727309912,0.,0.99227787762358));
#844=DIRECTION('ref_axis',(0.99227787762358,0.,-0.124034727309912));
#845=DIRECTION('',(-0.992277877623578,0.,0.124034727309928));
#846=DIRECTION('center_axis',(-0.124034727309912,0.,-0.99227787762358));
#847=DIRECTION('ref_axis',(-0.701646416089023,-0.707106781186551,0.0877057967834761));
#848=DIRECTION('',(0.992277877623578,0.,-0.124034727309928));
#849=DIRECTION('center_axis',(-0.124034727309928,0.,-0.992277877623578));
#850=DIRECTION('ref_axis',(-0.701646416089023,-0.707106781186551,0.0877057967834761));
#851=DIRECTION('',(-0.124034727309928,0.,-0.992277877623578));
#852=DIRECTION('center_axis',(-0.124034727309901,-1.66391057225062E-17,
-0.992277877623581));
#853=DIRECTION('ref_axis',(-0.701646416089023,-0.707106781186551,0.0877057967834761));
#854=DIRECTION('center_axis',(0.,-1.,0.));
#855=DIRECTION('ref_axis',(0.,0.,-1.));
#856=DIRECTION('',(0.992277877623581,0.,-0.124034727309901));
#857=DIRECTION('center_axis',(0.,1.,0.));
#858=DIRECTION('ref_axis',(0.,0.,1.));
#859=DIRECTION('',(-0.992277877623581,0.,0.124034727309901));
#860=DIRECTION('center_axis',(0.,0.,1.));
#861=DIRECTION('ref_axis',(-0.744651226404005,-0.667453781931761,0.));
#862=DIRECTION('center_axis',(0.,0.,-1.));
#863=DIRECTION('ref_axis',(-0.744651226404005,-0.667453781931761,0.));
#864=DIRECTION('',(0.,0.,-1.));
#865=DIRECTION('center_axis',(0.,0.,1.));
#866=DIRECTION('ref_axis',(-0.744651226404005,-0.667453781931761,0.));
#867=DIRECTION('',(0.,0.,-1.));
#868=DIRECTION('center_axis',(0.,0.,1.));
#869=DIRECTION('ref_axis',(0.,1.,0.));
#870=DIRECTION('',(0.,1.,0.));
#871=DIRECTION('',(-1.,0.,0.));
#872=DIRECTION('',(0.,1.,0.));
#873=DIRECTION('',(-1.,0.,0.));
#874=DIRECTION('center_axis',(2.06382694097168E-18,-1.,1.65106165118828E-17));
#875=DIRECTION('ref_axis',(0.819714969547287,0.,0.572771654937716));
#876=DIRECTION('center_axis',(-0.124034734589208,-0.992277876713668,0.));
#877=DIRECTION('ref_axis',(0.992277876713668,-0.124034734589208,-1.18033901309323E-15));
#878=DIRECTION('',(0.,-1.,0.));
#879=DIRECTION('center_axis',(-1.37350339003034E-15,-0.707106781186549,
-0.707106781186546));
#880=DIRECTION('ref_axis',(-1.37642208208066E-15,0.707106781186546,-0.707106781186548));
#881=DIRECTION('',(2.06382694097168E-18,-1.,1.65106165118828E-17));
#882=DIRECTION('center_axis',(0.,0.,-1.));
#883=DIRECTION('ref_axis',(0.819714969547287,-0.572771654937716,0.));
#884=DIRECTION('',(0.,0.,-1.));
#885=DIRECTION('',(0.,0.,-1.));
#886=DIRECTION('center_axis',(0.,1.,0.));
#887=DIRECTION('ref_axis',(0.819714989194562,0.,-0.572771626819764));
#888=DIRECTION('center_axis',(-0.124034734589208,-0.992277876713668,0.));
#889=DIRECTION('ref_axis',(0.992277876713668,-0.124034734589208,7.86892675395485E-17));
#890=DIRECTION('',(0.,1.,0.));
#891=DIRECTION('center_axis',(0.,-2.0342964050165E-15,-1.));
#892=DIRECTION('ref_axis',(1.,0.,0.));
#893=DIRECTION('center_axis',(0.,-1.,-1.22057784204092E-14));
#894=DIRECTION('ref_axis',(-0.124034727309903,1.21115239057473E-14,-0.992277877623581));
#895=DIRECTION('center_axis',(0.,0.,1.));
#896=DIRECTION('ref_axis',(0.661802563235738,-0.749678175815868,0.));
#897=DIRECTION('center_axis',(0.,0.,-1.));
#898=DIRECTION('ref_axis',(1.,0.,0.));
#899=DIRECTION('',(0.,0.,-1.));
#900=DIRECTION('',(0.,0.,1.));
#901=DIRECTION('center_axis',(-1.,0.,0.));
#902=DIRECTION('ref_axis',(0.,-0.707106781186547,0.707106781186547));
#903=DIRECTION('center_axis',(0.,-1.,0.));
#904=DIRECTION('ref_axis',(1.,0.,2.0185873175003E-15));
#905=DIRECTION('center_axis',(0.988202352043077,-0.108296148169108,0.108296148169108));
#906=DIRECTION('ref_axis',(-0.153153881493519,-0.698764584314159,0.698764584314152));
#907=DIRECTION('center_axis',(-1.,0.,0.));
#908=DIRECTION('ref_axis',(0.,-0.707106781186547,0.707106781186547));
#909=DIRECTION('center_axis',(0.,1.,0.));
#910=DIRECTION('ref_axis',(0.661802563235738,0.,0.749678175815868));
#911=DIRECTION('center_axis',(0.,-1.,0.));
#912=DIRECTION('ref_axis',(1.,0.,0.));
#913=DIRECTION('',(0.,-1.,0.));
#914=DIRECTION('',(0.,1.,0.));
#915=DIRECTION('center_axis',(0.,-3.05144460510228E-14,1.));
#916=DIRECTION('ref_axis',(1.,0.,0.));
#917=DIRECTION('center_axis',(0.,0.,-1.));
#918=DIRECTION('ref_axis',(0.661802565985546,0.749678173388386,0.));
#919=DIRECTION('center_axis',(0.,0.,1.));
#920=DIRECTION('ref_axis',(1.,0.,0.));
#921=DIRECTION('',(0.,0.,1.));
#922=DIRECTION('',(0.,0.,-1.));
#923=DIRECTION('center_axis',(-1.,0.,0.));
#924=DIRECTION('ref_axis',(0.,0.707106781186547,-0.707106781186548));
#925=DIRECTION('center_axis',(0.,1.,-2.03429640327629E-15));
#926=DIRECTION('ref_axis',(1.,0.,0.));
#927=DIRECTION('center_axis',(0.988202353414352,0.108296141912665,-0.108296141912665));
#928=DIRECTION('ref_axis',(-0.153153872645572,0.69876458528379,-0.698764585283797));
#929=DIRECTION('center_axis',(-1.,0.,0.));
#930=DIRECTION('ref_axis',(0.,0.707106781186547,-0.707106781186548));
#931=DIRECTION('center_axis',(0.,-1.,1.67685948641276E-17));
#932=DIRECTION('ref_axis',(0.661802565985546,0.,-0.749678173388386));
#933=DIRECTION('',(0.,1.,-1.67685948641276E-17));
#934=DIRECTION('',(0.,-1.,1.67685948641276E-17));
#935=DIRECTION('center_axis',(0.124034727309901,-0.992277877623581,0.));
#936=DIRECTION('ref_axis',(0.,0.,-1.));
#937=DIRECTION('',(0.984731929613286,0.123091483864836,-0.123091483864836));
#938=DIRECTION('',(0.,0.,-1.));
#939=DIRECTION('',(-0.984731928723974,-0.123091483753672,-0.123091491090497));
#940=DIRECTION('center_axis',(0.984731929613286,0.123091483864836,-0.123091483864836));
#941=DIRECTION('ref_axis',(-0.174077645894285,0.696310625080467,-0.696310625080469));
#942=DIRECTION('',(-0.984731929613286,-0.123091483864836,0.123091483864836));
#943=DIRECTION('center_axis',(1.,2.18691059193169E-93,2.06045755756063E-31));
#944=DIRECTION('ref_axis',(0.,0.707106781186547,-0.707106781186548));
#945=DIRECTION('center_axis',(0.124034727309901,1.66391057225062E-17,0.992277877623581));
#946=DIRECTION('ref_axis',(0.992277877623581,0.,-0.124034727309901));
#947=DIRECTION('',(0.984731928723974,-0.123091491090497,-0.123091483753672));
#948=DIRECTION('',(0.,-1.,0.));
#949=DIRECTION('center_axis',(0.984731928723974,-0.123091491090497,-0.123091483753672));
#950=DIRECTION('ref_axis',(-0.174077650924997,-0.696310624132372,-0.696310624770886));
#951=DIRECTION('',(-0.984731928723974,0.123091491090497,0.123091483753672));
#952=DIRECTION('center_axis',(1.,2.18691059193169E-93,2.06045755756063E-31));
#953=DIRECTION('ref_axis',(0.,-0.707106781510753,-0.707106780862342));
#954=DIRECTION('center_axis',(0.,-1.,0.));
#955=DIRECTION('ref_axis',(0.,0.,1.));
#956=DIRECTION('',(0.,0.,1.));
#957=DIRECTION('',(-1.,0.,0.));
#958=DIRECTION('center_axis',(1.,0.,0.));
#959=DIRECTION('ref_axis',(0.,0.,-1.));
#960=DIRECTION('',(0.,-1.,0.));
#961=DIRECTION('center_axis',(1.,0.,0.));
#962=DIRECTION('ref_axis',(0.,0.,-1.));
#963=DIRECTION('center_axis',(1.,0.,0.));
#964=DIRECTION('ref_axis',(0.,0.,-1.));
#965=DIRECTION('',(0.,0.,-1.));
#966=DIRECTION('center_axis',(0.,0.,-1.));
#967=DIRECTION('ref_axis',(0.,-1.,0.));
#968=DIRECTION('',(-1.,0.,0.));
#969=DIRECTION('center_axis',(0.984731928723974,0.123091483753672,0.123091491090497));
#970=DIRECTION('ref_axis',(-0.174077650924978,0.696310624770889,0.696310624132374));
#971=DIRECTION('center_axis',(1.,2.18691059193169E-93,2.06045755756063E-31));
#972=DIRECTION('ref_axis',(0.,0.707106780862342,0.707106781510753));
#973=DIRECTION('',(0.984731928723974,0.123091483753672,0.123091491090497));
#974=DIRECTION('center_axis',(1.,0.,0.));
#975=DIRECTION('ref_axis',(0.,0.,-1.));
#976=DIRECTION('center_axis',(0.984731927834662,-0.123091490979333,0.123091490979333));
#977=DIRECTION('ref_axis',(-0.174077655955689,-0.696310623822792,0.696310623822792));
#978=DIRECTION('',(-0.984731927834662,0.123091490979333,-0.123091490979333));
#979=DIRECTION('center_axis',(1.,2.18691059193169E-93,2.06045755756063E-31));
#980=DIRECTION('ref_axis',(0.,-0.707106781186547,0.707106781186547));
#981=DIRECTION('',(0.984731927834662,-0.123091490979333,0.123091490979333));
#982=DIRECTION('center_axis',(0.124034734589208,0.992277876713668,0.));
#983=DIRECTION('ref_axis',(0.,0.,1.));
#984=DIRECTION('',(0.,0.,1.));
#985=DIRECTION('center_axis',(1.,2.18691059193169E-93,2.06045755756063E-31));
#986=DIRECTION('ref_axis',(2.06045755756063E-31,0.,-1.));
#987=DIRECTION('',(0.,1.,0.));
#988=DIRECTION('',(3.4550978017464E-48,1.,-1.67685948641276E-17));
#989=DIRECTION('',(-2.06045755756063E-31,-2.57557179343473E-32,1.));
#990=DIRECTION('',(2.18691059193169E-93,-1.,2.73363823991461E-94));
#991=DIRECTION('',(2.06045755756063E-31,-2.57557194695078E-32,-1.));
#992=DIRECTION('center_axis',(0.,1.,0.));
#993=DIRECTION('ref_axis',(0.,0.,-1.));
#994=DIRECTION('center_axis',(0.124034734589209,0.,-0.992277876713668));
#995=DIRECTION('ref_axis',(-0.992277876713668,0.,-0.124034734589209));
#996=DIRECTION('',(-0.984731927834662,0.123091490979333,-0.123091490979333));
#997=DIRECTION('',(-0.984731928723974,-0.123091483753672,-0.123091491090497));
#998=DIRECTION('center_axis',(0.124034734589208,0.992277876713668,0.));
#999=DIRECTION('ref_axis',(0.,0.,1.));
#1000=DIRECTION('',(-0.984731928723974,0.123091491090497,0.123091483753672));
#1001=DIRECTION('center_axis',(0.124034727309901,1.66391057225062E-17,0.992277877623581));
#1002=DIRECTION('ref_axis',(0.992277877623581,0.,-0.124034727309901));
#1003=DIRECTION('',(0.984731929613286,0.123091483864836,-0.123091483864836));
#1004=DIRECTION('center_axis',(0.124034727309901,-0.992277877623581,0.));
#1005=DIRECTION('ref_axis',(0.,0.,-1.));
#1006=DIRECTION('center_axis',(0.124034734589209,0.,-0.992277876713668));
#1007=DIRECTION('ref_axis',(-0.992277876713668,0.,-0.124034734589209));
#1008=CARTESIAN_POINT('',(0.,0.,0.));
#1009=CARTESIAN_POINT('Origin',(432.524725985624,-30.1000005215406,-47.6905908858546));
#1010=CARTESIAN_POINT('',(437.734184828362,-30.1000005215406,-46.3262087671569));
#1011=CARTESIAN_POINT('',(432.772795440244,-35.1000005215406,-45.7060351306072));
#1012=CARTESIAN_POINT('Origin',(432.772795440244,-30.1000005215406,-45.7060351306075));
#1013=CARTESIAN_POINT('',(437.486115373742,-30.1000005215406,-48.310764522404));
#1014=CARTESIAN_POINT('',(437.486115373742,-30.1000005215406,-48.3107645224042));
#1015=CARTESIAN_POINT('',(432.524725985624,-35.1000005215406,-47.6905908858545));
#1016=CARTESIAN_POINT('Origin',(432.524725985624,-30.1000005215406,-47.6905908858562));
#1017=CARTESIAN_POINT('',(432.524725985624,-35.1000005215406,-47.6905908858546));
#1018=CARTESIAN_POINT('Origin',(437.486115373742,-35.0000005215406,-48.310764522404));
#1019=CARTESIAN_POINT('',(437.734184828362,30.1000005215406,-46.3262087671569));
#1020=CARTESIAN_POINT('',(437.734184828362,-35.0000005215406,-46.3262087671569));
#1021=CARTESIAN_POINT('',(437.486115373742,30.1000005215406,-48.310764522404));
#1022=CARTESIAN_POINT('',(437.486115373742,30.1000005215406,-48.310764522404));
#1023=CARTESIAN_POINT('',(437.486115373742,2.5000000372529,-48.310764522404));
#1024=CARTESIAN_POINT('Origin',(427.36488080019,30.1000005215406,-47.045610276119));
#1025=CARTESIAN_POINT('',(422.651560866692,30.1000005215406,-44.4408808843224));
#1026=CARTESIAN_POINT('',(427.61295025481,35.1000005215406,-45.0610545208717));
#1027=CARTESIAN_POINT('Origin',(427.61295025481,30.1000005215406,-45.061054520872));
#1028=CARTESIAN_POINT('',(422.403491412072,30.1000005215406,-46.4254366395696));
#1029=CARTESIAN_POINT('',(422.403491412072,30.1000005215406,-46.4254366395694));
#1030=CARTESIAN_POINT('',(427.36488080019,35.1000005215406,-47.0456102761191));
#1031=CARTESIAN_POINT('Origin',(427.36488080019,30.1000005215406,-47.0456102761206));
#1032=CARTESIAN_POINT('',(427.36488080019,35.1000005215406,-47.045610276119));
#1033=CARTESIAN_POINT('Origin',(422.403491412072,35.0000005215406,-46.4254366395696));
#1034=CARTESIAN_POINT('',(422.651560866692,-30.1000005215406,-44.4408808843224));
#1035=CARTESIAN_POINT('',(422.651560866692,35.0000005215406,-44.4408808843224));
#1036=CARTESIAN_POINT('',(422.403491412072,-30.1000005215406,-46.4254366395696));
#1037=CARTESIAN_POINT('',(422.403491412072,-30.1000005215406,-46.4254366395696));
#1038=CARTESIAN_POINT('',(422.403491412072,2.5000000372529,-46.4254366395696));
#1039=CARTESIAN_POINT('Origin',(432.524725985624,30.1000005215406,-47.6905908858544));
#1040=CARTESIAN_POINT('',(432.772795440244,35.1000005215406,-45.7060351306072));
#1041=CARTESIAN_POINT('Origin',(432.772795440244,30.1000005215406,-45.7060351306075));
#1042=CARTESIAN_POINT('',(432.524725985624,35.1000005215406,-47.6905908858545));
#1043=CARTESIAN_POINT('',(432.524725985624,35.1000005215406,-47.6905908858544));
#1044=CARTESIAN_POINT('Origin',(432.524725985624,30.1000005215406,-47.6905908858562));
#1045=CARTESIAN_POINT('Origin',(430.192872847527,0.,-45.3835448257397));
#1046=CARTESIAN_POINT('',(427.61295025481,-35.1000005215406,-45.0610545208717));
#1047=CARTESIAN_POINT('',(437.634957040599,-35.1000005215406,-46.3138052944259));
#1048=CARTESIAN_POINT('Origin',(427.61295025481,-30.1000005215406,-45.061054520872));
#1049=CARTESIAN_POINT('',(437.634957040599,35.1000005215406,-46.3138052944259));
#1050=CARTESIAN_POINT('Origin',(427.36488080019,-30.1000005215406,-47.0456102761192));
#1051=CARTESIAN_POINT('',(427.36488080019,-35.1000005215406,-47.0456102761191));
#1052=CARTESIAN_POINT('',(427.36488080019,-35.1000005215406,-47.0456102761192));
#1053=CARTESIAN_POINT('Origin',(427.36488080019,-30.1000005215406,-47.0456102761206));
#1054=CARTESIAN_POINT('Origin',(422.502719199834,-35.1000005215406,-46.4378401123006));
#1055=CARTESIAN_POINT('',(396.751359599917,-35.1000005215406,-43.2189203541735));
#1056=CARTESIAN_POINT('Origin',(437.38688758598,35.1000005215406,-48.298361049673));
#1057=CARTESIAN_POINT('',(404.19344379299,35.1000005215406,-44.1491808228597));
#1058=CARTESIAN_POINT('Origin',(444.606279292414,-41.5000006705523,-20.0000002980232));
#1059=CARTESIAN_POINT('',(444.606279292414,-45.0000006705523,45.0000006705523));
#1060=CARTESIAN_POINT('',(442.,-43.8360889073134,45.0000006705523));
#1061=CARTESIAN_POINT('Origin',(444.606279292414,-41.5000006705523,45.0000006705523));
#1062=CARTESIAN_POINT('',(444.606279292414,-45.0000006705523,-45.0000006705523));
#1063=CARTESIAN_POINT('',(444.606279292414,-45.0000006705523,-20.0000002980232));
#1064=CARTESIAN_POINT('',(442.,-43.8360889073134,-45.0000006705523));
#1065=CARTESIAN_POINT('Origin',(444.606279292414,-41.5000006705523,-45.0000006705523));
#1066=CARTESIAN_POINT('',(442.,-43.8360889073134,-20.0000002980232));
#1067=CARTESIAN_POINT('Origin',(451.,-45.0000006705523,45.0000006705523));
#1068=CARTESIAN_POINT('',(442.,45.0000006705523,45.0000006705523));
#1069=CARTESIAN_POINT('',(442.,-45.0000006705523,45.0000006705523));
#1070=CARTESIAN_POINT('',(450.994317698685,45.0000006705523,45.0000006705523));
#1071=CARTESIAN_POINT('',(451.,45.0000006705523,45.0000006705523));
#1072=CARTESIAN_POINT('',(451.,44.5572749213646,45.0000006702204));
#1073=CARTESIAN_POINT('Ctrl Pts',(451.,44.557274918525,45.0000006705523));
#1074=CARTESIAN_POINT('Ctrl Pts',(451.,44.6649206525063,45.0000006705523));
#1075=CARTESIAN_POINT('Ctrl Pts',(450.999795359385,44.803309672689,45.0000006705567));
#1076=CARTESIAN_POINT('Ctrl Pts',(450.995922944693,44.9518738743982,45.0000006705567));
#1077=CARTESIAN_POINT('Ctrl Pts',(450.995182111756,44.9759700722088,45.0000006705523));
#1078=CARTESIAN_POINT('Ctrl Pts',(450.994317698685,45.0000006705523,45.0000006705523));
#1079=CARTESIAN_POINT('',(451.,-44.5572748828571,45.0000006705523));
#1080=CARTESIAN_POINT('',(451.,-22.5000003352761,45.0000006705523));
#1081=CARTESIAN_POINT('',(450.994317697368,-45.0000006705523,45.0000006705523));
#1082=CARTESIAN_POINT('Ctrl Pts',(450.994317697368,-45.0000006705523,45.0000006705523));
#1083=CARTESIAN_POINT('Ctrl Pts',(450.997324123424,-44.9164223343624,45.0000006705523));
#1084=CARTESIAN_POINT('Ctrl Pts',(450.99877816337,-44.8337575198484,45.000000670551));
#1085=CARTESIAN_POINT('Ctrl Pts',(450.99993880832,-44.6847047175886,45.000000670551));
#1086=CARTESIAN_POINT('Ctrl Pts',(451.,-44.6161385197177,45.0000006705523));
#1087=CARTESIAN_POINT('Ctrl Pts',(451.,-44.5572748828571,45.0000006705523));
#1088=CARTESIAN_POINT('',(451.,-45.0000006705523,45.0000006705523));
#1089=CARTESIAN_POINT('Origin',(439.130997606585,45.0000006705523,-47.0047014628342));
#1090=CARTESIAN_POINT('',(439.565119152169,-43.5317288013346,-43.5317288911517));
#1091=CARTESIAN_POINT('Origin',(439.130997606585,-43.4774636081365,-47.0047014628342));
#1092=CARTESIAN_POINT('',(442.,45.0000006705523,-45.0000006705523));
#1093=CARTESIAN_POINT('',(442.,45.0000006705523,-45.0000006705523));
#1094=CARTESIAN_POINT('',(439.565119152169,43.5317288911517,-43.5317288911517));
#1095=CARTESIAN_POINT('Origin',(439.130997606585,47.0047014628342,-47.0047014628342));
#1096=CARTESIAN_POINT('',(439.565119152169,45.0000006705523,-43.5317288911517));
#1097=CARTESIAN_POINT('Origin',(439.130997606585,47.0047014628342,45.0000006705523));
#1098=CARTESIAN_POINT('',(439.565119152169,43.5317288911517,43.5317288013346));
#1099=CARTESIAN_POINT('',(439.565119152169,43.5317288911517,45.0000006705523));
#1100=CARTESIAN_POINT('',(442.,45.0000006705523,45.0000006705523));
#1101=CARTESIAN_POINT('Ctrl Pts',(442.,45.0000006705523,45.0000006705523));
#1102=CARTESIAN_POINT('Ctrl Pts',(441.821819875362,44.7450004201336,44.7450004015034));
#1103=CARTESIAN_POINT('Ctrl Pts',(441.601971456005,44.5027768827137,44.5027768546017));
#1104=CARTESIAN_POINT('Ctrl Pts',(441.09774235548,44.0929837744663,44.0929837246902));
#1105=CARTESIAN_POINT('Ctrl Pts',(440.819859280685,43.9202637509661,43.9202636899598));
#1106=CARTESIAN_POINT('Ctrl Pts',(440.215690366649,43.6620107939986,43.6620107177169));
#1107=CARTESIAN_POINT('Ctrl Pts',(439.89949521763,43.573525896843,43.57352581375));
#1108=CARTESIAN_POINT('Ctrl Pts',(439.565119152169,43.5317288911517,43.5317288013346));
#1109=CARTESIAN_POINT('Origin',(439.130997537819,-45.0000006705523,47.0047013644214));
#1110=CARTESIAN_POINT('',(439.565119108881,-43.5317287959236,43.5317287959236));
#1111=CARTESIAN_POINT('Origin',(439.130997537819,-43.4774635995408,47.0047013644214));
#1112=CARTESIAN_POINT('',(439.565119108881,-45.0000006705523,43.5317287959236));
#1113=CARTESIAN_POINT('Ctrl Pts',(451.,-44.4203915118511,-45.0157582755575));
#1114=CARTESIAN_POINT('Ctrl Pts',(451.,-44.5547340951123,-45.0157582755589));
#1115=CARTESIAN_POINT('Ctrl Pts',(451.,-44.7766311194545,-44.9380121953408));
#1116=CARTESIAN_POINT('Ctrl Pts',(451.,-44.9751817901458,-44.6881153797653));
#1117=CARTESIAN_POINT('Ctrl Pts',(451.,-45.0157582381641,-44.5099532714251));
#1118=CARTESIAN_POINT('Ctrl Pts',(451.,-45.0157582381628,-44.4203915492522));
#1119=CARTESIAN_POINT('Ctrl Pts',(451.,-44.4203915118435,-45.7261073976158));
#1120=CARTESIAN_POINT('Ctrl Pts',(451.00003954844,-44.7127540993025,-45.7376146886095));
#1121=CARTESIAN_POINT('Ctrl Pts',(451.000077842668,-45.2140829636187,-45.578089504426));
#1122=CARTESIAN_POINT('Ctrl Pts',(451.000063941946,-45.6572929080782,-45.0121417215033));
#1123=CARTESIAN_POINT('Ctrl Pts',(451.000026365625,-45.7337788901848,-44.6152999413408));
#1124=CARTESIAN_POINT('Ctrl Pts',(451.,-45.7261073632965,-44.4203915492424));
#1125=CARTESIAN_POINT('Ctrl Pts',(450.648117234864,-44.4203915118285,-47.1417220458377));
#1126=CARTESIAN_POINT('Ctrl Pts',(450.636604029577,-45.0278935184128,-47.175972866492));
#1127=CARTESIAN_POINT('Ctrl Pts',(450.623711763209,-46.085604280736,-46.8537337093969));
#1128=CARTESIAN_POINT('Ctrl Pts',(450.628336788886,-47.0165965087126,-45.6578230983159));
#1129=CARTESIAN_POINT('Ctrl Pts',(450.640441761991,-47.164555896695,-44.8253928883148));
#1130=CARTESIAN_POINT('Ctrl Pts',(450.648117231776,-47.1417220175734,-44.4203915492228));
#1131=CARTESIAN_POINT('Ctrl Pts',(448.948795971421,-44.4203915118081,-49.0619458676917));
#1132=CARTESIAN_POINT('Ctrl Pts',(448.88575293238,-45.4540091391859,-49.1091996361399));
#1133=CARTESIAN_POINT('Ctrl Pts',(448.815744588858,-47.2452945869195,-48.546267354096));
#1134=CARTESIAN_POINT('Ctrl Pts',(448.840824697446,-48.8276163575145,-46.5221351035516));
#1135=CARTESIAN_POINT('Ctrl Pts',(448.906767264082,-49.0934483533035,-45.1094699693422));
#1136=CARTESIAN_POINT('Ctrl Pts',(448.948795954503,-49.0619458429685,-44.4203915491963));
#1137=CARTESIAN_POINT('Ctrl Pts',(447.111542778662,-44.4203915118033,-49.5139428765737));
#1138=CARTESIAN_POINT('Ctrl Pts',(447.005497213956,-45.5557515737737,-49.5304979555629));
#1139=CARTESIAN_POINT('Ctrl Pts',(446.889724854599,-47.4758480388913,-48.8814099135326));
#1140=CARTESIAN_POINT('Ctrl Pts',(446.931083404854,-49.1973323781799,-46.7050089991089));
#1141=CARTESIAN_POINT('Ctrl Pts',(447.040845711068,-49.524979561767,-45.177298257846));
#1142=CARTESIAN_POINT('Ctrl Pts',(447.111542750227,-49.5139428435054,-44.4203915491901));
#1143=CARTESIAN_POINT('Ctrl Pts',(446.05424719985,-44.4203915118047,-49.3817809371029));
#1144=CARTESIAN_POINT('Ctrl Pts',(445.934831570134,-45.5249860865731,-49.3668539842903));
#1145=CARTESIAN_POINT('Ctrl Pts',(445.806697393071,-47.3581111858834,-48.7029532102566));
#1146=CARTESIAN_POINT('Ctrl Pts',(445.852338397165,-49.0184052330177,-46.6261848726642));
#1147=CARTESIAN_POINT('Ctrl Pts',(445.974636752654,-49.3718295938189,-45.1567879317944));
#1148=CARTESIAN_POINT('Ctrl Pts',(446.054247167808,-49.381780895703,-44.4203915491919));
#1149=CARTESIAN_POINT('',(450.994317698685,-45.0000006705523,-45.0000006705523));
#1150=CARTESIAN_POINT('',(451.,-45.000000670552,-44.5572749185267));
#1151=CARTESIAN_POINT('Ctrl Pts',(450.994317698685,-45.0000006705523,-45.0000006705523));
#1152=CARTESIAN_POINT('Ctrl Pts',(450.997324124127,-45.0000006705523,-44.9164223390273));
#1153=CARTESIAN_POINT('Ctrl Pts',(450.998778163725,-45.000000670551,-44.8337575288911));
#1154=CARTESIAN_POINT('Ctrl Pts',(450.999938808334,-45.000000670551,-44.6847047386186));
#1155=CARTESIAN_POINT('Ctrl Pts',(451.,-45.0000006705523,-44.6161385492595));
#1156=CARTESIAN_POINT('Ctrl Pts',(451.,-45.0000006705523,-44.557274918525));
#1157=CARTESIAN_POINT('',(451.,-45.0157582381628,-44.4203915492522));
#1158=CARTESIAN_POINT('Ctrl Pts',(451.,-44.9999077175698,-44.5571979713128));
#1159=CARTESIAN_POINT('Ctrl Pts',(451.,-45.0103806651983,-44.512483815662));
#1160=CARTESIAN_POINT('Ctrl Pts',(451.,-45.0157582381635,-44.4665013851069));
#1161=CARTESIAN_POINT('Ctrl Pts',(451.,-45.0157582381628,-44.4203915492522));
#1162=CARTESIAN_POINT('',(446.054247167774,-49.3817808959718,-44.4203915492522));
#1163=CARTESIAN_POINT('Origin',(446.6,-45.0157582381628,-44.4203915492522));
#1164=CARTESIAN_POINT('',(446.05424719987,-44.4203915118659,-49.3817809368325));
#1165=CARTESIAN_POINT('Ctrl Pts',(446.054247167801,-49.3817808957021,-44.4203915493124));
#1166=CARTESIAN_POINT('Ctrl Pts',(445.974636752653,-49.3718295938005,-45.1567879318747));
#1167=CARTESIAN_POINT('Ctrl Pts',(445.913487574913,-49.1951174134014,-45.8914864022658));
#1168=CARTESIAN_POINT('Ctrl Pts',(445.8763928426,-48.8695764593424,-46.5555168285317));
#1169=CARTESIAN_POINT('Ctrl Pts',(445.839298110285,-48.5440355052656,-47.2195472548338));
#1170=CARTESIAN_POINT('Ctrl Pts',(445.826257823401,-48.0696657775128,-47.8129096370031));
#1171=CARTESIAN_POINT('Ctrl Pts',(445.8389351196,-47.4917439249715,-48.27515119015));
#1172=CARTESIAN_POINT('Ctrl Pts',(445.857951063898,-46.6248611461594,-48.9685135198704));
#1173=CARTESIAN_POINT('Ctrl Pts',(445.934831570135,-45.5249860865731,-49.3668539842904));
#1174=CARTESIAN_POINT('Ctrl Pts',(446.05424719985,-44.4203915118047,-49.3817809371029));
#1175=CARTESIAN_POINT('',(451.,-44.4203915118659,-45.0157582755575));
#1176=CARTESIAN_POINT('Origin',(446.6,-44.4203915118659,-45.0157582755575));
#1177=CARTESIAN_POINT('',(451.,-44.5572750411127,-45.0000006705519));
#1178=CARTESIAN_POINT('Ctrl Pts',(451.,-44.4203915118511,-45.0157582755575));
#1179=CARTESIAN_POINT('Ctrl Pts',(451.,-44.4665014026586,-45.015758275558));
#1180=CARTESIAN_POINT('Ctrl Pts',(451.,-44.5124694137726,-45.0102629863964));
#1181=CARTESIAN_POINT('Ctrl Pts',(451.,-44.5571786641902,-44.9996919886254));
#1182=CARTESIAN_POINT('Ctrl Pts',(451.,-44.5572750411096,-45.0000006705523));
#1183=CARTESIAN_POINT('Ctrl Pts',(451.,-44.6648344029911,-45.0000006705523));
#1184=CARTESIAN_POINT('Ctrl Pts',(450.99979568717,-44.8031224661208,-45.0000006705523));
#1185=CARTESIAN_POINT('Ctrl Pts',(450.995928774321,-44.9516841660163,-45.0000006705523));
#1186=CARTESIAN_POINT('Ctrl Pts',(450.995185516624,-44.9758754187942,-45.0000006705523));
#1187=CARTESIAN_POINT('Ctrl Pts',(450.994317698685,-45.0000006705522,-45.0000006705523));
#1188=CARTESIAN_POINT('Origin',(446.6,-45.0157582384358,-20.0000002980232));
#1189=CARTESIAN_POINT('',(451.,-45.0157582384358,44.4203915124076));
#1190=CARTESIAN_POINT('',(446.054247167808,-49.381780895976,44.4203915124076));
#1191=CARTESIAN_POINT('Origin',(446.6,-45.0157582384358,44.4203915124076));
#1192=CARTESIAN_POINT('',(446.054247167808,-49.381780895976,-20.0000002980232));
#1193=CARTESIAN_POINT('',(451.,-45.0157582384358,-20.0000002980232));
#1194=CARTESIAN_POINT('Ctrl Pts',(451.,-45.0157582384358,44.4203915124076));
#1195=CARTESIAN_POINT('Ctrl Pts',(451.,-45.0157582384358,44.5099532345675));
#1196=CARTESIAN_POINT('Ctrl Pts',(451.,-44.9751817904458,44.6881153428458));
#1197=CARTESIAN_POINT('Ctrl Pts',(451.,-44.7766311198861,44.9380121582754));
#1198=CARTESIAN_POINT('Ctrl Pts',(451.,-44.5547340956475,45.0157582384358));
#1199=CARTESIAN_POINT('Ctrl Pts',(451.,-44.4203915124076,45.0157582384358));
#1200=CARTESIAN_POINT('Ctrl Pts',(451.,-45.7261073635695,44.4203915124076));
#1201=CARTESIAN_POINT('Ctrl Pts',(451.000026365627,-45.733778890893,44.6152999044304));
#1202=CARTESIAN_POINT('Ctrl Pts',(451.000063941947,-45.6572929097642,45.0121416848996));
#1203=CARTESIAN_POINT('Ctrl Pts',(451.000077842673,-45.2140829657978,45.5780894695842));
#1204=CARTESIAN_POINT('Ctrl Pts',(451.00003954844,-44.7127541004418,45.7376146545548));
#1205=CARTESIAN_POINT('Ctrl Pts',(451.,-44.4203915124076,45.7261073635695));
#1206=CARTESIAN_POINT('Ctrl Pts',(450.648117231776,-47.1417220178466,44.4203915124076));
#1207=CARTESIAN_POINT('Ctrl Pts',(450.640441761553,-47.1645558982659,44.8253928512989));
#1208=CARTESIAN_POINT('Ctrl Pts',(450.628336787523,-47.0165965131362,45.6578230623263));
#1209=CARTESIAN_POINT('Ctrl Pts',(450.623711760453,-46.0856042863639,46.8537336789364));
#1210=CARTESIAN_POINT('Ctrl Pts',(450.636604026441,-45.0278935207446,47.1759728384756));
#1211=CARTESIAN_POINT('Ctrl Pts',(450.648117231776,-44.4203915124076,47.1417220178466));
#1212=CARTESIAN_POINT('Ctrl Pts',(448.948795954503,-49.0619458432419,44.4203915124076));
#1213=CARTESIAN_POINT('Ctrl Pts',(448.906767261684,-49.0934483553656,45.1094699321836));
#1214=CARTESIAN_POINT('Ctrl Pts',(448.840824690018,-48.8276163634378,46.5221350678048));
#1215=CARTESIAN_POINT('Ctrl Pts',(448.815744573897,-47.2452945942057,48.5462673259104));
#1216=CARTESIAN_POINT('Ctrl Pts',(448.885752915274,-45.4540091420716,49.1091996114274));
#1217=CARTESIAN_POINT('Ctrl Pts',(448.948795954503,-44.4203915124076,49.0619458432419));
#1218=CARTESIAN_POINT('Ctrl Pts',(447.111542750227,-49.5139428437784,44.4203915124076));
#1219=CARTESIAN_POINT('Ctrl Pts',(447.040845707033,-49.5249795626595,45.1772982206529));
#1220=CARTESIAN_POINT('Ctrl Pts',(446.931083392507,-49.1973323803037,46.7050089621764));
#1221=CARTESIAN_POINT('Ctrl Pts',(446.889724829891,-47.4758480409199,48.8814098789003));
#1222=CARTESIAN_POINT('Ctrl Pts',(447.005497185436,-45.5557515747755,49.5304979221001));
#1223=CARTESIAN_POINT('Ctrl Pts',(447.111542750227,-44.4203915124076,49.5139428437784));
#1224=CARTESIAN_POINT('Ctrl Pts',(446.054247167807,-49.3817808959759,44.4203915124076));
#1225=CARTESIAN_POINT('Ctrl Pts',(445.97463674811,-49.3718295935137,45.1567878946114));
#1226=CARTESIAN_POINT('Ctrl Pts',(445.852338383409,-49.018405231343,46.6261848346758));
#1227=CARTESIAN_POINT('Ctrl Pts',(445.806697365747,-47.3581111828042,48.7029531693817));
#1228=CARTESIAN_POINT('Ctrl Pts',(445.934831538261,-45.5249860857134,49.3668539422826));
#1229=CARTESIAN_POINT('Ctrl Pts',(446.054247167807,-44.4203915124076,49.3817808959759));
#1230=CARTESIAN_POINT('',(451.,-44.4203915124076,45.0157582384358));
#1231=CARTESIAN_POINT('Origin',(451.,-44.4110889073134,44.4110889073134));
#1232=CARTESIAN_POINT('',(446.054247167808,-44.4203915124076,49.3817808959759));
#1233=CARTESIAN_POINT('Origin',(446.6,-44.4203915124076,45.0157582384358));
#1234=CARTESIAN_POINT('Origin',(446.6,-44.4110889073134,44.4110889073134));
#1235=CARTESIAN_POINT('',(451.,-45.0000006705523,44.5572748828571));
#1236=CARTESIAN_POINT('Origin',(451.,-44.4110889073134,44.4110889073134));
#1237=CARTESIAN_POINT('Ctrl Pts',(451.,-45.0000006705523,44.5572748828571));
#1238=CARTESIAN_POINT('Ctrl Pts',(451.,-45.0000006705523,44.6649206176787));
#1239=CARTESIAN_POINT('Ctrl Pts',(450.999795359379,-45.0000006705567,44.803309637361));
#1240=CARTESIAN_POINT('Ctrl Pts',(450.995922944342,-45.0000006705567,44.9518738510812));
#1241=CARTESIAN_POINT('Ctrl Pts',(450.995182110986,-45.0000006705523,44.975970060571));
#1242=CARTESIAN_POINT('Ctrl Pts',(450.994317697368,-45.0000006705523,45.0000006705523));
#1243=CARTESIAN_POINT('Origin',(446.6,-20.,45.0157582384358));
#1244=CARTESIAN_POINT('',(451.,44.4203915492563,45.0157582384358));
#1245=CARTESIAN_POINT('',(446.054247167808,44.4203915492563,49.381780895976));
#1246=CARTESIAN_POINT('Origin',(446.6,44.4203915492563,45.0157582384358));
#1247=CARTESIAN_POINT('',(446.054247167808,-20.,49.381780895976));
#1248=CARTESIAN_POINT('',(451.,-20.,45.0157582384358));
#1249=CARTESIAN_POINT('Ctrl Pts',(451.,44.4203915492563,45.0157582381628));
#1250=CARTESIAN_POINT('Ctrl Pts',(451.,44.5547341325151,45.0157582381638));
#1251=CARTESIAN_POINT('Ctrl Pts',(451.,44.7766311568529,44.9380121579445));
#1252=CARTESIAN_POINT('Ctrl Pts',(451.,44.9751818275405,44.6881153423667));
#1253=CARTESIAN_POINT('Ctrl Pts',(451.,45.0157582755584,44.5099532340249));
#1254=CARTESIAN_POINT('Ctrl Pts',(451.,45.0157582755575,44.4203915118512));
#1255=CARTESIAN_POINT('Ctrl Pts',(451.,44.4203915492514,45.7261073632969));
#1256=CARTESIAN_POINT('Ctrl Pts',(451.000039548438,44.7127541373979,45.7376146536272));
#1257=CARTESIAN_POINT('Ctrl Pts',(451.000077842673,45.2140830019485,45.5780894674398));
#1258=CARTESIAN_POINT('Ctrl Pts',(451.000063941944,45.6572929441662,45.0121416831288));
#1259=CARTESIAN_POINT('Ctrl Pts',(451.000026365627,45.7337789249448,44.6152999034823));
#1260=CARTESIAN_POINT('Ctrl Pts',(451.,45.7261073976158,44.4203915118439));
#1261=CARTESIAN_POINT('Ctrl Pts',(450.648117231775,44.4203915492416,47.1417220175745));
#1262=CARTESIAN_POINT('Ctrl Pts',(450.636604027098,45.0278935578773,47.1759728362523));
#1263=CARTESIAN_POINT('Ctrl Pts',(450.623711762309,46.0856043209174,46.8537336732111));
#1264=CARTESIAN_POINT('Ctrl Pts',(450.628336790476,47.0165965422352,45.6578230580064));
#1265=CARTESIAN_POINT('Ctrl Pts',(450.640441764673,47.1645559262738,44.8253928495502));
#1266=CARTESIAN_POINT('Ctrl Pts',(450.648117234864,47.1417220458378,44.4203915118292));
#1267=CARTESIAN_POINT('Ctrl Pts',(448.948795954501,44.4203915492283,49.06194584297));
#1268=CARTESIAN_POINT('Ctrl Pts',(448.885752918871,45.4540091794432,49.1091996084648));
#1269=CARTESIAN_POINT('Ctrl Pts',(448.815744583981,47.2452946279666,48.546267318309));
#1270=CARTESIAN_POINT('Ctrl Pts',(448.840824706072,48.8276163897459,46.5221350623026));
#1271=CARTESIAN_POINT('Ctrl Pts',(448.906767278727,49.0934483799902,45.1094699300581));
#1272=CARTESIAN_POINT('Ctrl Pts',(448.948795971421,49.0619458676918,44.4203915118093));
#1273=CARTESIAN_POINT('Ctrl Pts',(447.111542750224,44.4203915492252,49.5139428435059));
#1274=CARTESIAN_POINT('Ctrl Pts',(447.005497191487,45.5557516122041,49.5304979208903));
#1275=CARTESIAN_POINT('Ctrl Pts',(446.889724846557,47.4758480772621,48.881409876431));
#1276=CARTESIAN_POINT('Ctrl Pts',(446.931083419097,49.1973324143956,46.7050089606666));
#1277=CARTESIAN_POINT('Ctrl Pts',(447.040845735525,49.5249795958996,45.1772982197814));
#1278=CARTESIAN_POINT('Ctrl Pts',(447.111542778661,49.5139428765737,44.4203915118046));
#1279=CARTESIAN_POINT('Ctrl Pts',(446.054247167804,44.4203915492261,49.3817808957025));
#1280=CARTESIAN_POINT('Ctrl Pts',(445.934831545075,45.5249861231247,49.3668539428689));
#1281=CARTESIAN_POINT('Ctrl Pts',(445.806697384207,47.3581112215281,48.7029531719714));
#1282=CARTESIAN_POINT('Ctrl Pts',(445.852338412913,49.0184052729779,46.626184837045));
#1283=CARTESIAN_POINT('Ctrl Pts',(445.974636780039,49.3718296352276,45.1567878949815));
#1284=CARTESIAN_POINT('Ctrl Pts',(446.054247199849,49.3817809371029,44.420391511806));
#1285=CARTESIAN_POINT('',(451.,45.0000006701032,44.5572750449524));
#1286=CARTESIAN_POINT('Ctrl Pts',(450.994317698685,45.0000006705523,45.0000006705522));
#1287=CARTESIAN_POINT('Ctrl Pts',(450.997324124325,45.0000006705523,44.9164223389366));
#1288=CARTESIAN_POINT('Ctrl Pts',(450.998778163998,45.000000670551,44.833757528987));
#1289=CARTESIAN_POINT('Ctrl Pts',(450.999938808219,45.000000670551,44.684704777982));
#1290=CARTESIAN_POINT('Ctrl Pts',(451.,45.0000006705523,44.6161386581864));
#1291=CARTESIAN_POINT('Ctrl Pts',(451.,45.0000006705523,44.5572750411096));
#1292=CARTESIAN_POINT('',(451.,45.0157582755575,44.4203915118658));
#1293=CARTESIAN_POINT('Ctrl Pts',(451.,44.9999077166449,44.5571980975177));
#1294=CARTESIAN_POINT('Ctrl Pts',(451.,45.0103806894754,44.5124838904253));
#1295=CARTESIAN_POINT('Ctrl Pts',(451.,45.015758275558,44.4665014039434));
#1296=CARTESIAN_POINT('Ctrl Pts',(451.,45.0157582755575,44.4203915118512));
#1297=CARTESIAN_POINT('',(446.05424719987,49.3817809368325,44.4203915118659));
#1298=CARTESIAN_POINT('Origin',(446.6,45.0157582755575,44.4203915118658));
#1299=CARTESIAN_POINT('Ctrl Pts',(446.054247199849,49.3817809371029,44.420391511806));
#1300=CARTESIAN_POINT('Ctrl Pts',(445.97463678004,49.3718296352277,45.1567878949815));
#1301=CARTESIAN_POINT('Ctrl Pts',(445.913487596478,49.1951174541029,45.8914863660133));
#1302=CARTESIAN_POINT('Ctrl Pts',(445.876392857739,48.8695764990478,46.5555167922331));
#1303=CARTESIAN_POINT('Ctrl Pts',(445.839298119,48.5440355439926,47.2195472184528));
#1304=CARTESIAN_POINT('Ctrl Pts',(445.826257825085,48.069665815007,47.8129095998605));
#1305=CARTESIAN_POINT('Ctrl Pts',(445.838935114475,47.4917439618711,48.2751511520488));
#1306=CARTESIAN_POINT('Ctrl Pts',(445.857951048559,46.6248611821902,48.9685134803128));
#1307=CARTESIAN_POINT('Ctrl Pts',(445.934831545077,45.5249861231833,49.3668539428487));
#1308=CARTESIAN_POINT('Ctrl Pts',(446.054247167801,44.420391549314,49.3817808957021));
#1309=CARTESIAN_POINT('Ctrl Pts',(451.,44.4203915492563,45.0157582381628));
#1310=CARTESIAN_POINT('Ctrl Pts',(451.,44.4665013860591,45.0157582381632));
#1311=CARTESIAN_POINT('Ctrl Pts',(451.,44.5124693435007,45.0102629618735));
#1312=CARTESIAN_POINT('Ctrl Pts',(451.,44.5571785445025,44.9996919883723));
#1313=CARTESIAN_POINT('Origin',(446.6,45.0157582752845,20.));
#1314=CARTESIAN_POINT('',(451.,45.0157582752845,-44.4203915487104));
#1315=CARTESIAN_POINT('',(446.054247199836,49.3817809368283,-44.4203915487104));
#1316=CARTESIAN_POINT('Origin',(446.6,45.0157582752845,-44.4203915487104));
#1317=CARTESIAN_POINT('',(446.054247199836,49.3817809368283,20.));
#1318=CARTESIAN_POINT('',(451.,45.0157582752845,20.));
#1319=CARTESIAN_POINT('Ctrl Pts',(451.,45.0157582752845,-44.4203915487104));
#1320=CARTESIAN_POINT('Ctrl Pts',(451.,45.0157582752845,-44.5099532708946));
#1321=CARTESIAN_POINT('Ctrl Pts',(451.,44.9751818272362,-44.6881153792925));
#1322=CARTESIAN_POINT('Ctrl Pts',(451.,44.776631156421,-44.938012195008));
#1323=CARTESIAN_POINT('Ctrl Pts',(451.,44.5547341319868,-45.0157582752845));
#1324=CARTESIAN_POINT('Ctrl Pts',(451.,44.4203915487104,-45.0157582752845));
#1325=CARTESIAN_POINT('Ctrl Pts',(451.,45.7261073973441,-44.4203915487104));
#1326=CARTESIAN_POINT('Ctrl Pts',(451.000026365625,45.7337789242328,-44.6152999404196));
#1327=CARTESIAN_POINT('Ctrl Pts',(451.000063941943,45.6572929424707,-45.012141719747));
#1328=CARTESIAN_POINT('Ctrl Pts',(451.000077842668,45.2140829997687,-45.578089502277));
#1329=CARTESIAN_POINT('Ctrl Pts',(451.000039548438,44.7127541362743,-45.7376146876772));
#1330=CARTESIAN_POINT('Ctrl Pts',(451.,44.4203915487104,-45.726107397344));
#1331=CARTESIAN_POINT('Ctrl Pts',(450.648117234863,47.1417220455683,-44.4203915487104));
#1332=CARTESIAN_POINT('Ctrl Pts',(450.64044176511,47.1645559246956,-44.8253928866225));
#1333=CARTESIAN_POINT('Ctrl Pts',(450.628336791839,47.0165965377917,-45.6578230940268));
#1334=CARTESIAN_POINT('Ctrl Pts',(450.623711765066,46.0856043152879,-46.8537337036616));
#1335=CARTESIAN_POINT('Ctrl Pts',(450.636604030233,45.0278935555786,-47.1759728642592));
#1336=CARTESIAN_POINT('Ctrl Pts',(450.648117234863,44.4203915487104,-47.1417220455683));
#1337=CARTESIAN_POINT('Ctrl Pts',(448.948795971414,49.0619458674235,-44.4203915487104));
#1338=CARTESIAN_POINT('Ctrl Pts',(448.906767281121,49.0934483779151,-45.1094699673124));
#1339=CARTESIAN_POINT('Ctrl Pts',(448.840824713499,48.8276163837888,-46.5221350981016));
#1340=CARTESIAN_POINT('Ctrl Pts',(448.815744598943,47.2452946206778,-48.5462673464781));
#1341=CARTESIAN_POINT('Ctrl Pts',(448.885752935975,45.4540091766135,-49.1091996331608));
#1342=CARTESIAN_POINT('Ctrl Pts',(448.948795971414,44.4203915487104,-49.0619458674235));
#1343=CARTESIAN_POINT('Ctrl Pts',(447.11154277865,49.5139428763025,-44.4203915487104));
#1344=CARTESIAN_POINT('Ctrl Pts',(447.040845739552,49.5249795949898,-45.1772982570785));
#1345=CARTESIAN_POINT('Ctrl Pts',(446.931083431443,49.1973324122348,-46.7050089976549));
#1346=CARTESIAN_POINT('Ctrl Pts',(446.889724871266,47.4758480752309,-48.8814099110459));
#1347=CARTESIAN_POINT('Ctrl Pts',(447.005497220003,45.5557516112625,-49.5304979543335));
#1348=CARTESIAN_POINT('Ctrl Pts',(447.11154277865,44.4203915487104,-49.5139428763025));
#1349=CARTESIAN_POINT('Ctrl Pts',(446.054247199836,49.3817809368283,-44.4203915487104));
#1350=CARTESIAN_POINT('Ctrl Pts',(445.974636784575,49.3718296355137,-45.1567879322648));
#1351=CARTESIAN_POINT('Ctrl Pts',(445.852338426667,49.0184052746167,-46.6261848750864));
#1352=CARTESIAN_POINT('Ctrl Pts',(445.806697411534,47.3581112246052,-48.7029532128303));
#1353=CARTESIAN_POINT('Ctrl Pts',(445.934831576944,45.524986124042,-49.3668539848564));
#1354=CARTESIAN_POINT('Ctrl Pts',(446.054247199836,44.4203915487104,-49.3817809368282));
#1355=CARTESIAN_POINT('',(450.994317700003,45.0000006705523,-45.0000006705523));
#1356=CARTESIAN_POINT('',(451.,44.5572750767774,-45.0000006705523));
#1357=CARTESIAN_POINT('Ctrl Pts',(450.994317700003,45.0000006705523,-45.0000006705523));
#1358=CARTESIAN_POINT('Ctrl Pts',(450.997324125028,44.9164223436048,-45.0000006705523));
#1359=CARTESIAN_POINT('Ctrl Pts',(450.998778164354,44.8337575380357,-45.000000670551));
#1360=CARTESIAN_POINT('Ctrl Pts',(450.999938808233,44.6847047990083,-45.000000670551));
#1361=CARTESIAN_POINT('Ctrl Pts',(451.,44.6161386876801,-45.0000006705523));
#1362=CARTESIAN_POINT('Ctrl Pts',(451.,44.5572750767774,-45.0000006705523));
#1363=CARTESIAN_POINT('',(451.,44.4203915487104,-45.0157582752845));
#1364=CARTESIAN_POINT('Origin',(451.,44.4110889447166,-44.4110889447166));
#1365=CARTESIAN_POINT('',(446.054247199836,44.4203915487104,-49.3817809368283));
#1366=CARTESIAN_POINT('Origin',(446.6,44.4203915487104,-45.0157582752845));
#1367=CARTESIAN_POINT('Origin',(446.6,44.4110889447166,-44.4110889447166));
#1368=CARTESIAN_POINT('',(451.,45.0000006705523,-44.5572750767775));
#1369=CARTESIAN_POINT('Origin',(451.,44.4110889447166,-44.4110889447166));
#1370=CARTESIAN_POINT('Ctrl Pts',(451.,45.0000006705523,-44.5572750767775));
#1371=CARTESIAN_POINT('Ctrl Pts',(451.,45.0000006705523,-44.6649208932577));
#1372=CARTESIAN_POINT('Ctrl Pts',(450.999795358594,45.0000006705567,-44.8033097964326));
#1373=CARTESIAN_POINT('Ctrl Pts',(450.995922943638,45.0000006705567,-44.9518739467802));
#1374=CARTESIAN_POINT('Ctrl Pts',(450.995182111702,45.0000006705523,-44.9759701083261));
#1375=CARTESIAN_POINT('Ctrl Pts',(450.994317700003,45.0000006705523,-45.0000006705523));
#1376=CARTESIAN_POINT('Origin',(446.6,20.0000002980232,-45.0157582752845));
#1377=CARTESIAN_POINT('',(446.054247199836,20.0000002980232,-49.3817809368283));
#1378=CARTESIAN_POINT('',(451.,20.0000002980232,-45.0157582752845));
#1379=CARTESIAN_POINT('Origin',(371.,40.0000005960464,40.));
#1380=CARTESIAN_POINT('',(371.,40.0000005960464,-35.0386112079285));
#1381=CARTESIAN_POINT('',(366.752895885089,39.469112613326,-34.5077232252081));
#1382=CARTESIAN_POINT('',(371.,40.0000005960464,35.0386106118821));
#1383=CARTESIAN_POINT('',(371.,40.0000005960464,40.));
#1384=CARTESIAN_POINT('',(366.752895928605,39.4691126187655,34.5077226029577));
#1385=CARTESIAN_POINT('Origin',(367.373069521639,34.5077232252081,-34.5077232252081));
#1386=CARTESIAN_POINT('',(371.,35.0386112079285,-40.0000005960464));
#1387=CARTESIAN_POINT('',(366.752895885089,34.5077232252081,-39.469112613326));
#1388=CARTESIAN_POINT('Origin',(371.,34.9610895079805,-34.9610895079805));
#1389=CARTESIAN_POINT('Origin',(371.,40.0000005960464,-40.0000005960464));
#1390=CARTESIAN_POINT('',(371.,-35.0386106118821,-40.0000005960464));
#1391=CARTESIAN_POINT('',(366.752895639613,-34.5077225668337,-39.4691125826415));
#1392=CARTESIAN_POINT('',(371.,40.0000005960464,-40.0000005960464));
#1393=CARTESIAN_POINT('Origin',(367.373069276163,-34.5077225668337,-34.5077231945236));
#1394=CARTESIAN_POINT('',(371.,-40.,-35.0386112124781));
#1395=CARTESIAN_POINT('',(366.752895603217,-39.4691119504021,-34.5077231945236));
#1396=CARTESIAN_POINT('Origin',(371.,-34.9610889073134,-34.9610895079805));
#1397=CARTESIAN_POINT('Origin',(451.,-45.0000006705523,-45.0000006705523));
#1398=CARTESIAN_POINT('',(451.,-45.0000006705523,-22.5000003352761));
#1399=CARTESIAN_POINT('',(451.,-45.0000006705523,-45.0000006705523));
#1400=CARTESIAN_POINT('Origin',(451.,0.,0.));
#1401=CARTESIAN_POINT('',(451.,22.5000003352761,-45.0000006705523));
#1402=CARTESIAN_POINT('Origin',(451.,0.,0.));
#1403=CARTESIAN_POINT('Origin',(451.,0.,0.));
#1404=CARTESIAN_POINT('',(451.,45.0000006705523,22.5000003352761));
#1405=CARTESIAN_POINT('Origin',(451.,45.0000006705523,-45.0000006705523));
#1406=CARTESIAN_POINT('',(451.,45.0000006705523,-45.0000006705523));
#1407=CARTESIAN_POINT('Origin',(367.373069565155,34.5077232306476,34.5077226029577));
#1408=CARTESIAN_POINT('',(371.,35.0386112124781,40.));
#1409=CARTESIAN_POINT('Origin',(371.,34.9610895079805,34.9610889073134));
#1410=CARTESIAN_POINT('',(366.752895892209,34.5077232306476,39.4691119865261));
#1411=CARTESIAN_POINT('Origin',(451.,0.,0.));
#1412=CARTESIAN_POINT('Origin',(367.373069319679,-34.5077225722733,34.5077225722732));
#1413=CARTESIAN_POINT('',(371.,-35.0386106164317,40.));
#1414=CARTESIAN_POINT('',(366.752895646733,-34.5077225722733,39.4691119558416));
#1415=CARTESIAN_POINT('',(371.,-40.,35.0386106164317));
#1416=CARTESIAN_POINT('Origin',(371.,-34.9610889073134,34.9610889073134));
#1417=CARTESIAN_POINT('',(366.752895646733,-39.4691119558416,34.5077225722732));
#1418=CARTESIAN_POINT('Origin',(371.,-40.,-40.0000005960464));
#1419=CARTESIAN_POINT('',(371.,-40.,-40.0000005960464));
#1420=CARTESIAN_POINT('Origin',(371.,2.98023223876953E-7,-2.98023227207622E-7));
#1421=CARTESIAN_POINT('',(371.,-40.,40.));
#1422=CARTESIAN_POINT('',(371.,-34.9610889073134,-34.9610895079805));
#1423=CARTESIAN_POINT('',(371.,34.9610895079805,-34.9610895079805));
#1424=CARTESIAN_POINT('',(371.,20.0000004470348,-34.9610895079805));
#1425=CARTESIAN_POINT('',(371.,34.9610895079805,34.9610889073134));
#1426=CARTESIAN_POINT('',(371.,34.9610895079805,19.9999998509884));
#1427=CARTESIAN_POINT('',(371.,-34.9610889073134,34.9610889073134));
#1428=CARTESIAN_POINT('',(371.,-19.9999998509884,34.9610889073134));
#1429=CARTESIAN_POINT('',(371.,-34.9610889073134,-20.0000004470348));
#1430=CARTESIAN_POINT('Origin',(451.,45.0000006705523,45.0000006705523));
#1431=CARTESIAN_POINT('Origin',(371.620173672946,-40.,35.0386106164317));
#1432=CARTESIAN_POINT('',(367.373069319679,-34.5077225722733,34.5077225722733));
#1433=CARTESIAN_POINT('',(367.373069565155,34.5077232306476,34.5077226029578));
#1434=CARTESIAN_POINT('Origin',(371.620173672946,-35.0386106164317,-40.0000005960464));
#1435=CARTESIAN_POINT('',(367.373069276162,-34.5077225668337,-34.5077231945236));
#1436=CARTESIAN_POINT('Origin',(371.620173636549,40.0000005960464,-35.0386112079285));
#1437=CARTESIAN_POINT('',(367.373069521639,34.5077232252081,-34.5077232252081));
#1438=CARTESIAN_POINT('Origin',(371.620173636549,35.0386112079285,40.));
#1439=CARTESIAN_POINT('Origin',(371.,-40.,40.));
#1440=UNCERTAINTY_MEASURE_WITH_UNIT(LENGTH_MEASURE(0.01),#1444,
'DISTANCE_ACCURACY_VALUE',
'Maximum model space distance between geometric entities at asserted c
onnectivities');
#1441=UNCERTAINTY_MEASURE_WITH_UNIT(LENGTH_MEASURE(0.01),#1444,
'DISTANCE_ACCURACY_VALUE',
'Maximum model space distance between geometric entities at asserted c
onnectivities');
#1442=(
GEOMETRIC_REPRESENTATION_CONTEXT(3)
GLOBAL_UNCERTAINTY_ASSIGNED_CONTEXT((#1440))
GLOBAL_UNIT_ASSIGNED_CONTEXT((#1444,#1445,#1446))
REPRESENTATION_CONTEXT('','3D')
);
#1443=(
GEOMETRIC_REPRESENTATION_CONTEXT(3)
GLOBAL_UNCERTAINTY_ASSIGNED_CONTEXT((#1441))
GLOBAL_UNIT_ASSIGNED_CONTEXT((#1444,#1445,#1446))
REPRESENTATION_CONTEXT('','3D')
);
#1444=(
LENGTH_UNIT()
NAMED_UNIT(*)
SI_UNIT(.MILLI.,.METRE.)
);
#1445=(
NAMED_UNIT(*)
PLANE_ANGLE_UNIT()
SI_UNIT($,.RADIAN.)
);
#1446=(
NAMED_UNIT(*)
SI_UNIT($,.STERADIAN.)
SOLID_ANGLE_UNIT()
);
#1447=SHAPE_DEFINITION_REPRESENTATION(#1448,#1449);
#1448=PRODUCT_DEFINITION_SHAPE('',$,#1451);
#1449=SHAPE_REPRESENTATION('',(#738),#1442);
#1450=PRODUCT_DEFINITION_CONTEXT('part definition',#1455,'design');
#1451=PRODUCT_DEFINITION('2026-07-21-18-37-04-393','Main Housing',#1452,
#1450);
#1452=PRODUCT_DEFINITION_FORMATION('',$,#1457);
#1453=PRODUCT_RELATED_PRODUCT_CATEGORY('Main Housing','Main Housing',(#1457));
#1454=APPLICATION_PROTOCOL_DEFINITION('international standard',
'automotive_design',2009,#1455);
#1455=APPLICATION_CONTEXT(
'Core Data for Automotive Mechanical Design Process');
#1456=PRODUCT_CONTEXT('part definition',#1455,'mechanical');
#1457=PRODUCT('2026-07-21-18-37-04-393','Main Housing',$,(#1456));
#1458=PRESENTATION_STYLE_ASSIGNMENT((#1459));
#1459=SURFACE_STYLE_USAGE(.BOTH.,#1460);
#1460=SURFACE_SIDE_STYLE('',(#1461));
#1461=SURFACE_STYLE_FILL_AREA(#1462);
#1462=FILL_AREA_STYLE('Steel - Satin',(#1463));
#1463=FILL_AREA_STYLE_COLOUR('Steel - Satin',#1464);
#1464=COLOUR_RGB('Steel - Satin',0.627450980392157,0.627450980392157,0.627450980392157);
ENDSEC;
END-ISO-10303-21;
