ISO-10303-21;
HEADER;
/* Generated by software containing ST-Developer
 * from STEP Tools, Inc. (www.steptools.com) 
 */

FILE_DESCRIPTION(
/* description */ (''),
/* implementation_level */ '2;1');

FILE_NAME(
/* name */ 'Outlet Legs.step',
/* time_stamp */ '2026-07-22T22:28:11-07:00',
/* author */ (''),
/* organization */ (''),
/* preprocessor_version */ 'ST-DEVELOPER v20.1',
/* originating_system */ 'Autodesk Translation Framework v15.8.0.0',
/* authorisation */ '');

FILE_SCHEMA (('AUTOMOTIVE_DESIGN { 1 0 10303 214 3 1 1 }'));
ENDSEC;

DATA;
#10=MECHANICAL_DESIGN_GEOMETRIC_PRESENTATION_REPRESENTATION('',(#13),#670);
#11=SHAPE_REPRESENTATION_RELATIONSHIP('SRR','None',#676,#12);
#12=ADVANCED_BREP_SHAPE_REPRESENTATION('',(#14),#669);
#13=STYLED_ITEM('',(#685),#14);
#14=MANIFOLD_SOLID_BREP('Outlet Legs',#406);
#15=PLANE('',#412);
#16=PLANE('',#414);
#17=PLANE('',#415);
#18=PLANE('',#420);
#19=PLANE('',#424);
#20=PLANE('',#425);
#21=PLANE('',#428);
#22=PLANE('',#429);
#23=PLANE('',#430);
#24=PLANE('',#431);
#25=PLANE('',#432);
#26=PLANE('',#433);
#27=PLANE('',#434);
#28=PLANE('',#435);
#29=PLANE('',#436);
#30=PLANE('',#437);
#31=PLANE('',#438);
#32=PLANE('',#439);
#33=PLANE('',#440);
#34=FACE_OUTER_BOUND('',#57,.T.);
#35=FACE_OUTER_BOUND('',#58,.T.);
#36=FACE_OUTER_BOUND('',#59,.T.);
#37=FACE_OUTER_BOUND('',#60,.T.);
#38=FACE_OUTER_BOUND('',#61,.T.);
#39=FACE_OUTER_BOUND('',#62,.T.);
#40=FACE_OUTER_BOUND('',#63,.T.);
#41=FACE_OUTER_BOUND('',#64,.T.);
#42=FACE_OUTER_BOUND('',#65,.T.);
#43=FACE_OUTER_BOUND('',#66,.T.);
#44=FACE_OUTER_BOUND('',#67,.T.);
#45=FACE_OUTER_BOUND('',#68,.T.);
#46=FACE_OUTER_BOUND('',#69,.T.);
#47=FACE_OUTER_BOUND('',#70,.T.);
#48=FACE_OUTER_BOUND('',#71,.T.);
#49=FACE_OUTER_BOUND('',#72,.T.);
#50=FACE_OUTER_BOUND('',#73,.T.);
#51=FACE_OUTER_BOUND('',#74,.T.);
#52=FACE_OUTER_BOUND('',#75,.T.);
#53=FACE_OUTER_BOUND('',#76,.T.);
#54=FACE_OUTER_BOUND('',#77,.T.);
#55=FACE_OUTER_BOUND('',#78,.T.);
#56=FACE_OUTER_BOUND('',#79,.T.);
#57=EDGE_LOOP('',(#269,#270,#271,#272,#273));
#58=EDGE_LOOP('',(#274,#275,#276,#277,#278,#279));
#59=EDGE_LOOP('',(#280,#281,#282,#283));
#60=EDGE_LOOP('',(#284,#285,#286,#287,#288,#289,#290,#291,#292,#293,#294,
#295));
#61=EDGE_LOOP('',(#296,#297,#298,#299));
#62=EDGE_LOOP('',(#300,#301,#302,#303));
#63=EDGE_LOOP('',(#304,#305,#306,#307,#308));
#64=EDGE_LOOP('',(#309,#310,#311,#312,#313,#314,#315,#316));
#65=EDGE_LOOP('',(#317,#318,#319,#320));
#66=EDGE_LOOP('',(#321,#322,#323,#324));
#67=EDGE_LOOP('',(#325,#326,#327,#328));
#68=EDGE_LOOP('',(#329,#330,#331,#332));
#69=EDGE_LOOP('',(#333,#334,#335,#336));
#70=EDGE_LOOP('',(#337,#338,#339,#340));
#71=EDGE_LOOP('',(#341,#342,#343,#344));
#72=EDGE_LOOP('',(#345,#346,#347,#348));
#73=EDGE_LOOP('',(#349,#350,#351,#352));
#74=EDGE_LOOP('',(#353,#354,#355,#356,#357,#358));
#75=EDGE_LOOP('',(#359,#360,#361,#362));
#76=EDGE_LOOP('',(#363,#364,#365,#366));
#77=EDGE_LOOP('',(#367,#368,#369,#370));
#78=EDGE_LOOP('',(#371,#372,#373,#374));
#79=EDGE_LOOP('',(#375,#376,#377,#378));
#80=CIRCLE('',#410,5.);
#81=CIRCLE('',#413,5.);
#82=CIRCLE('',#423,5.);
#83=CIRCLE('',#427,5.);
#84=LINE('',#560,#129);
#85=LINE('',#564,#130);
#86=LINE('',#568,#131);
#87=LINE('',#572,#132);
#88=LINE('',#574,#133);
#89=LINE('',#575,#134);
#90=LINE('',#578,#135);
#91=LINE('',#579,#136);
#92=LINE('',#582,#137);
#93=LINE('',#586,#138);
#94=LINE('',#590,#139);
#95=LINE('',#592,#140);
#96=LINE('',#594,#141);
#97=LINE('',#596,#142);
#98=LINE('',#598,#143);
#99=LINE('',#601,#144);
#100=LINE('',#603,#145);
#101=LINE('',#608,#146);
#102=LINE('',#611,#147);
#103=LINE('',#614,#148);
#104=LINE('',#616,#149);
#105=LINE('',#618,#150);
#106=LINE('',#620,#151);
#107=LINE('',#621,#152);
#108=LINE('',#624,#153);
#109=LINE('',#625,#154);
#110=LINE('',#629,#155);
#111=LINE('',#631,#156);
#112=LINE('',#632,#157);
#113=LINE('',#634,#158);
#114=LINE('',#635,#159);
#115=LINE('',#637,#160);
#116=LINE('',#641,#161);
#117=LINE('',#642,#162);
#118=LINE('',#645,#163);
#119=LINE('',#646,#164);
#120=LINE('',#648,#165);
#121=LINE('',#653,#166);
#122=LINE('',#654,#167);
#123=LINE('',#655,#168);
#124=LINE('',#658,#169);
#125=LINE('',#659,#170);
#126=LINE('',#662,#171);
#127=LINE('',#663,#172);
#128=LINE('',#665,#173);
#129=VECTOR('',#447,10.);
#130=VECTOR('',#450,10.);
#131=VECTOR('',#455,10.);
#132=VECTOR('',#458,10.);
#133=VECTOR('',#459,10.);
#134=VECTOR('',#460,10.);
#135=VECTOR('',#463,10.);
#136=VECTOR('',#464,10.);
#137=VECTOR('',#467,10.);
#138=VECTOR('',#470,10.);
#139=VECTOR('',#473,10.);
#140=VECTOR('',#474,10.);
#141=VECTOR('',#475,10.);
#142=VECTOR('',#476,10.);
#143=VECTOR('',#477,10.);
#144=VECTOR('',#482,10.);
#145=VECTOR('',#485,10.);
#146=VECTOR('',#490,10.);
#147=VECTOR('',#493,10.);
#148=VECTOR('',#496,10.);
#149=VECTOR('',#497,10.);
#150=VECTOR('',#498,10.);
#151=VECTOR('',#499,10.);
#152=VECTOR('',#500,10.);
#153=VECTOR('',#503,10.);
#154=VECTOR('',#504,10.);
#155=VECTOR('',#509,10.);
#156=VECTOR('',#512,10.);
#157=VECTOR('',#513,10.);
#158=VECTOR('',#516,10.);
#159=VECTOR('',#517,10.);
#160=VECTOR('',#520,10.);
#161=VECTOR('',#525,10.);
#162=VECTOR('',#526,10.);
#163=VECTOR('',#529,10.);
#164=VECTOR('',#530,10.);
#165=VECTOR('',#533,10.);
#166=VECTOR('',#538,10.);
#167=VECTOR('',#539,10.);
#168=VECTOR('',#540,10.);
#169=VECTOR('',#543,10.);
#170=VECTOR('',#544,10.);
#171=VECTOR('',#547,10.);
#172=VECTOR('',#548,10.);
#173=VECTOR('',#551,10.);
#174=ELLIPSE('',#409,5.03891108806594,5.);
#175=ELLIPSE('',#411,40.3112911072677,5.);
#176=ELLIPSE('',#416,5.03891108806594,5.);
#177=ELLIPSE('',#417,5.03891108806594,5.);
#178=ELLIPSE('',#418,5.03891108806594,5.);
#179=ELLIPSE('',#422,40.3112911072677,5.);
#180=VERTEX_POINT('',#556);
#181=VERTEX_POINT('',#557);
#182=VERTEX_POINT('',#559);
#183=VERTEX_POINT('',#561);
#184=VERTEX_POINT('',#563);
#185=VERTEX_POINT('',#567);
#186=VERTEX_POINT('',#569);
#187=VERTEX_POINT('',#571);
#188=VERTEX_POINT('',#573);
#189=VERTEX_POINT('',#577);
#190=VERTEX_POINT('',#581);
#191=VERTEX_POINT('',#583);
#192=VERTEX_POINT('',#585);
#193=VERTEX_POINT('',#587);
#194=VERTEX_POINT('',#589);
#195=VERTEX_POINT('',#591);
#196=VERTEX_POINT('',#593);
#197=VERTEX_POINT('',#595);
#198=VERTEX_POINT('',#597);
#199=VERTEX_POINT('',#605);
#200=VERTEX_POINT('',#607);
#201=VERTEX_POINT('',#609);
#202=VERTEX_POINT('',#613);
#203=VERTEX_POINT('',#615);
#204=VERTEX_POINT('',#617);
#205=VERTEX_POINT('',#619);
#206=VERTEX_POINT('',#623);
#207=VERTEX_POINT('',#627);
#208=VERTEX_POINT('',#640);
#209=VERTEX_POINT('',#644);
#210=VERTEX_POINT('',#651);
#211=VERTEX_POINT('',#652);
#212=VERTEX_POINT('',#657);
#213=VERTEX_POINT('',#661);
#214=EDGE_CURVE('',#180,#181,#174,.T.);
#215=EDGE_CURVE('',#181,#182,#84,.T.);
#216=EDGE_CURVE('',#182,#183,#80,.T.);
#217=EDGE_CURVE('',#183,#184,#85,.T.);
#218=EDGE_CURVE('',#184,#180,#175,.T.);
#219=EDGE_CURVE('',#182,#185,#86,.T.);
#220=EDGE_CURVE('',#186,#185,#81,.T.);
#221=EDGE_CURVE('',#186,#187,#87,.T.);
#222=EDGE_CURVE('',#187,#188,#88,.T.);
#223=EDGE_CURVE('',#188,#183,#89,.T.);
#224=EDGE_CURVE('',#181,#189,#90,.T.);
#225=EDGE_CURVE('',#185,#189,#91,.T.);
#226=EDGE_CURVE('',#190,#180,#92,.T.);
#227=EDGE_CURVE('',#191,#190,#176,.T.);
#228=EDGE_CURVE('',#191,#192,#93,.T.);
#229=EDGE_CURVE('',#193,#192,#177,.T.);
#230=EDGE_CURVE('',#193,#194,#94,.T.);
#231=EDGE_CURVE('',#194,#195,#95,.T.);
#232=EDGE_CURVE('',#195,#196,#96,.T.);
#233=EDGE_CURVE('',#196,#197,#97,.T.);
#234=EDGE_CURVE('',#197,#198,#98,.T.);
#235=EDGE_CURVE('',#189,#198,#178,.T.);
#236=EDGE_CURVE('',#198,#186,#99,.T.);
#237=EDGE_CURVE('',#187,#197,#100,.T.);
#238=EDGE_CURVE('',#190,#199,#179,.T.);
#239=EDGE_CURVE('',#199,#200,#101,.T.);
#240=EDGE_CURVE('',#200,#201,#82,.T.);
#241=EDGE_CURVE('',#201,#191,#102,.T.);
#242=EDGE_CURVE('',#184,#202,#103,.T.);
#243=EDGE_CURVE('',#203,#202,#104,.T.);
#244=EDGE_CURVE('',#203,#204,#105,.T.);
#245=EDGE_CURVE('',#205,#204,#106,.T.);
#246=EDGE_CURVE('',#205,#199,#107,.T.);
#247=EDGE_CURVE('',#206,#201,#108,.T.);
#248=EDGE_CURVE('',#192,#206,#109,.T.);
#249=EDGE_CURVE('',#206,#207,#83,.T.);
#250=EDGE_CURVE('',#207,#193,#110,.T.);
#251=EDGE_CURVE('',#204,#195,#111,.T.);
#252=EDGE_CURVE('',#194,#205,#112,.T.);
#253=EDGE_CURVE('',#196,#203,#113,.T.);
#254=EDGE_CURVE('',#202,#197,#114,.T.);
#255=EDGE_CURVE('',#188,#202,#115,.T.);
#256=EDGE_CURVE('',#208,#205,#116,.T.);
#257=EDGE_CURVE('',#200,#208,#117,.T.);
#258=EDGE_CURVE('',#208,#209,#118,.T.);
#259=EDGE_CURVE('',#209,#194,#119,.T.);
#260=EDGE_CURVE('',#209,#207,#120,.T.);
#261=EDGE_CURVE('',#210,#211,#121,.T.);
#262=EDGE_CURVE('',#210,#204,#122,.T.);
#263=EDGE_CURVE('',#211,#203,#123,.T.);
#264=EDGE_CURVE('',#211,#212,#124,.T.);
#265=EDGE_CURVE('',#212,#196,#125,.T.);
#266=EDGE_CURVE('',#212,#213,#126,.T.);
#267=EDGE_CURVE('',#213,#195,#127,.T.);
#268=EDGE_CURVE('',#213,#210,#128,.T.);
#269=ORIENTED_EDGE('',*,*,#214,.T.);
#270=ORIENTED_EDGE('',*,*,#215,.T.);
#271=ORIENTED_EDGE('',*,*,#216,.T.);
#272=ORIENTED_EDGE('',*,*,#217,.T.);
#273=ORIENTED_EDGE('',*,*,#218,.T.);
#274=ORIENTED_EDGE('',*,*,#216,.F.);
#275=ORIENTED_EDGE('',*,*,#219,.T.);
#276=ORIENTED_EDGE('',*,*,#220,.F.);
#277=ORIENTED_EDGE('',*,*,#221,.T.);
#278=ORIENTED_EDGE('',*,*,#222,.T.);
#279=ORIENTED_EDGE('',*,*,#223,.T.);
#280=ORIENTED_EDGE('',*,*,#215,.F.);
#281=ORIENTED_EDGE('',*,*,#224,.T.);
#282=ORIENTED_EDGE('',*,*,#225,.F.);
#283=ORIENTED_EDGE('',*,*,#219,.F.);
#284=ORIENTED_EDGE('',*,*,#214,.F.);
#285=ORIENTED_EDGE('',*,*,#226,.F.);
#286=ORIENTED_EDGE('',*,*,#227,.F.);
#287=ORIENTED_EDGE('',*,*,#228,.T.);
#288=ORIENTED_EDGE('',*,*,#229,.F.);
#289=ORIENTED_EDGE('',*,*,#230,.T.);
#290=ORIENTED_EDGE('',*,*,#231,.T.);
#291=ORIENTED_EDGE('',*,*,#232,.T.);
#292=ORIENTED_EDGE('',*,*,#233,.T.);
#293=ORIENTED_EDGE('',*,*,#234,.T.);
#294=ORIENTED_EDGE('',*,*,#235,.F.);
#295=ORIENTED_EDGE('',*,*,#224,.F.);
#296=ORIENTED_EDGE('',*,*,#235,.T.);
#297=ORIENTED_EDGE('',*,*,#236,.T.);
#298=ORIENTED_EDGE('',*,*,#220,.T.);
#299=ORIENTED_EDGE('',*,*,#225,.T.);
#300=ORIENTED_EDGE('',*,*,#236,.F.);
#301=ORIENTED_EDGE('',*,*,#234,.F.);
#302=ORIENTED_EDGE('',*,*,#237,.F.);
#303=ORIENTED_EDGE('',*,*,#221,.F.);
#304=ORIENTED_EDGE('',*,*,#238,.T.);
#305=ORIENTED_EDGE('',*,*,#239,.T.);
#306=ORIENTED_EDGE('',*,*,#240,.T.);
#307=ORIENTED_EDGE('',*,*,#241,.T.);
#308=ORIENTED_EDGE('',*,*,#227,.T.);
#309=ORIENTED_EDGE('',*,*,#218,.F.);
#310=ORIENTED_EDGE('',*,*,#242,.T.);
#311=ORIENTED_EDGE('',*,*,#243,.F.);
#312=ORIENTED_EDGE('',*,*,#244,.T.);
#313=ORIENTED_EDGE('',*,*,#245,.F.);
#314=ORIENTED_EDGE('',*,*,#246,.T.);
#315=ORIENTED_EDGE('',*,*,#238,.F.);
#316=ORIENTED_EDGE('',*,*,#226,.T.);
#317=ORIENTED_EDGE('',*,*,#241,.F.);
#318=ORIENTED_EDGE('',*,*,#247,.F.);
#319=ORIENTED_EDGE('',*,*,#248,.F.);
#320=ORIENTED_EDGE('',*,*,#228,.F.);
#321=ORIENTED_EDGE('',*,*,#229,.T.);
#322=ORIENTED_EDGE('',*,*,#248,.T.);
#323=ORIENTED_EDGE('',*,*,#249,.T.);
#324=ORIENTED_EDGE('',*,*,#250,.T.);
#325=ORIENTED_EDGE('',*,*,#251,.T.);
#326=ORIENTED_EDGE('',*,*,#231,.F.);
#327=ORIENTED_EDGE('',*,*,#252,.T.);
#328=ORIENTED_EDGE('',*,*,#245,.T.);
#329=ORIENTED_EDGE('',*,*,#253,.T.);
#330=ORIENTED_EDGE('',*,*,#243,.T.);
#331=ORIENTED_EDGE('',*,*,#254,.T.);
#332=ORIENTED_EDGE('',*,*,#233,.F.);
#333=ORIENTED_EDGE('',*,*,#222,.F.);
#334=ORIENTED_EDGE('',*,*,#237,.T.);
#335=ORIENTED_EDGE('',*,*,#254,.F.);
#336=ORIENTED_EDGE('',*,*,#255,.F.);
#337=ORIENTED_EDGE('',*,*,#217,.F.);
#338=ORIENTED_EDGE('',*,*,#223,.F.);
#339=ORIENTED_EDGE('',*,*,#255,.T.);
#340=ORIENTED_EDGE('',*,*,#242,.F.);
#341=ORIENTED_EDGE('',*,*,#239,.F.);
#342=ORIENTED_EDGE('',*,*,#246,.F.);
#343=ORIENTED_EDGE('',*,*,#256,.F.);
#344=ORIENTED_EDGE('',*,*,#257,.F.);
#345=ORIENTED_EDGE('',*,*,#258,.F.);
#346=ORIENTED_EDGE('',*,*,#256,.T.);
#347=ORIENTED_EDGE('',*,*,#252,.F.);
#348=ORIENTED_EDGE('',*,*,#259,.F.);
#349=ORIENTED_EDGE('',*,*,#250,.F.);
#350=ORIENTED_EDGE('',*,*,#260,.F.);
#351=ORIENTED_EDGE('',*,*,#259,.T.);
#352=ORIENTED_EDGE('',*,*,#230,.F.);
#353=ORIENTED_EDGE('',*,*,#240,.F.);
#354=ORIENTED_EDGE('',*,*,#257,.T.);
#355=ORIENTED_EDGE('',*,*,#258,.T.);
#356=ORIENTED_EDGE('',*,*,#260,.T.);
#357=ORIENTED_EDGE('',*,*,#249,.F.);
#358=ORIENTED_EDGE('',*,*,#247,.T.);
#359=ORIENTED_EDGE('',*,*,#261,.F.);
#360=ORIENTED_EDGE('',*,*,#262,.T.);
#361=ORIENTED_EDGE('',*,*,#244,.F.);
#362=ORIENTED_EDGE('',*,*,#263,.F.);
#363=ORIENTED_EDGE('',*,*,#264,.F.);
#364=ORIENTED_EDGE('',*,*,#263,.T.);
#365=ORIENTED_EDGE('',*,*,#253,.F.);
#366=ORIENTED_EDGE('',*,*,#265,.F.);
#367=ORIENTED_EDGE('',*,*,#266,.F.);
#368=ORIENTED_EDGE('',*,*,#265,.T.);
#369=ORIENTED_EDGE('',*,*,#232,.F.);
#370=ORIENTED_EDGE('',*,*,#267,.F.);
#371=ORIENTED_EDGE('',*,*,#268,.F.);
#372=ORIENTED_EDGE('',*,*,#267,.T.);
#373=ORIENTED_EDGE('',*,*,#251,.F.);
#374=ORIENTED_EDGE('',*,*,#262,.F.);
#375=ORIENTED_EDGE('',*,*,#268,.T.);
#376=ORIENTED_EDGE('',*,*,#261,.T.);
#377=ORIENTED_EDGE('',*,*,#264,.T.);
#378=ORIENTED_EDGE('',*,*,#266,.T.);
#379=CYLINDRICAL_SURFACE('',#408,5.);
#380=CYLINDRICAL_SURFACE('',#419,5.);
#381=CYLINDRICAL_SURFACE('',#421,5.);
#382=CYLINDRICAL_SURFACE('',#426,5.);
#383=ADVANCED_FACE('',(#34),#379,.T.);
#384=ADVANCED_FACE('',(#35),#15,.F.);
#385=ADVANCED_FACE('',(#36),#16,.T.);
#386=ADVANCED_FACE('',(#37),#17,.T.);
#387=ADVANCED_FACE('',(#38),#380,.T.);
#388=ADVANCED_FACE('',(#39),#18,.T.);
#389=ADVANCED_FACE('',(#40),#381,.T.);
#390=ADVANCED_FACE('',(#41),#19,.T.);
#391=ADVANCED_FACE('',(#42),#20,.T.);
#392=ADVANCED_FACE('',(#43),#382,.T.);
#393=ADVANCED_FACE('',(#44),#21,.T.);
#394=ADVANCED_FACE('',(#45),#22,.T.);
#395=ADVANCED_FACE('',(#46),#23,.T.);
#396=ADVANCED_FACE('',(#47),#24,.T.);
#397=ADVANCED_FACE('',(#48),#25,.T.);
#398=ADVANCED_FACE('',(#49),#26,.T.);
#399=ADVANCED_FACE('',(#50),#27,.T.);
#400=ADVANCED_FACE('',(#51),#28,.F.);
#401=ADVANCED_FACE('',(#52),#29,.T.);
#402=ADVANCED_FACE('',(#53),#30,.T.);
#403=ADVANCED_FACE('',(#54),#31,.T.);
#404=ADVANCED_FACE('',(#55),#32,.T.);
#405=ADVANCED_FACE('',(#56),#33,.F.);
#406=CLOSED_SHELL('',(#383,#384,#385,#386,#387,#388,#389,#390,#391,#392,
#393,#394,#395,#396,#397,#398,#399,#400,#401,#402,#403,#404,#405));
#407=AXIS2_PLACEMENT_3D('',#554,#441,#442);
#408=AXIS2_PLACEMENT_3D('',#555,#443,#444);
#409=AXIS2_PLACEMENT_3D('',#558,#445,#446);
#410=AXIS2_PLACEMENT_3D('',#562,#448,#449);
#411=AXIS2_PLACEMENT_3D('',#565,#451,#452);
#412=AXIS2_PLACEMENT_3D('',#566,#453,#454);
#413=AXIS2_PLACEMENT_3D('',#570,#456,#457);
#414=AXIS2_PLACEMENT_3D('',#576,#461,#462);
#415=AXIS2_PLACEMENT_3D('',#580,#465,#466);
#416=AXIS2_PLACEMENT_3D('',#584,#468,#469);
#417=AXIS2_PLACEMENT_3D('',#588,#471,#472);
#418=AXIS2_PLACEMENT_3D('',#599,#478,#479);
#419=AXIS2_PLACEMENT_3D('',#600,#480,#481);
#420=AXIS2_PLACEMENT_3D('',#602,#483,#484);
#421=AXIS2_PLACEMENT_3D('',#604,#486,#487);
#422=AXIS2_PLACEMENT_3D('',#606,#488,#489);
#423=AXIS2_PLACEMENT_3D('',#610,#491,#492);
#424=AXIS2_PLACEMENT_3D('',#612,#494,#495);
#425=AXIS2_PLACEMENT_3D('',#622,#501,#502);
#426=AXIS2_PLACEMENT_3D('',#626,#505,#506);
#427=AXIS2_PLACEMENT_3D('',#628,#507,#508);
#428=AXIS2_PLACEMENT_3D('',#630,#510,#511);
#429=AXIS2_PLACEMENT_3D('',#633,#514,#515);
#430=AXIS2_PLACEMENT_3D('',#636,#518,#519);
#431=AXIS2_PLACEMENT_3D('',#638,#521,#522);
#432=AXIS2_PLACEMENT_3D('',#639,#523,#524);
#433=AXIS2_PLACEMENT_3D('',#643,#527,#528);
#434=AXIS2_PLACEMENT_3D('',#647,#531,#532);
#435=AXIS2_PLACEMENT_3D('',#649,#534,#535);
#436=AXIS2_PLACEMENT_3D('',#650,#536,#537);
#437=AXIS2_PLACEMENT_3D('',#656,#541,#542);
#438=AXIS2_PLACEMENT_3D('',#660,#545,#546);
#439=AXIS2_PLACEMENT_3D('',#664,#549,#550);
#440=AXIS2_PLACEMENT_3D('',#666,#552,#553);
#441=DIRECTION('axis',(0.,0.,1.));
#442=DIRECTION('refdir',(1.,0.,0.));
#443=DIRECTION('center_axis',(-0.124034727309901,0.,-0.992277877623581));
#444=DIRECTION('ref_axis',(-0.701646416089023,-0.707106781186553,0.0877057967834561));
#445=DIRECTION('center_axis',(0.,0.,1.));
#446=DIRECTION('ref_axis',(-1.,-8.15220812457274E-15,0.));
#447=DIRECTION('',(0.124034727309901,0.,0.992277877623581));
#448=DIRECTION('center_axis',(-0.124034727309901,0.,-0.992277877623581));
#449=DIRECTION('ref_axis',(-0.701646416089023,-0.707106781186553,0.0877057967834561));
#450=DIRECTION('',(-0.124034727309901,0.,-0.992277877623581));
#451=DIRECTION('center_axis',(1.,0.,0.));
#452=DIRECTION('ref_axis',(0.,-1.37706210112555E-17,1.));
#453=DIRECTION('center_axis',(-0.124034727309901,0.,-0.992277877623581));
#454=DIRECTION('ref_axis',(0.,-1.,0.));
#455=DIRECTION('',(0.992277877623581,0.,-0.124034727309901));
#456=DIRECTION('center_axis',(-0.124034727309901,0.,-0.992277877623581));
#457=DIRECTION('ref_axis',(0.701646416089023,-0.707106781186553,-0.0877057967834561));
#458=DIRECTION('',(0.,1.,0.));
#459=DIRECTION('',(-0.992277877623581,0.,0.124034727309901));
#460=DIRECTION('',(0.,-1.,0.));
#461=DIRECTION('center_axis',(0.,-1.,0.));
#462=DIRECTION('ref_axis',(-0.992277877623581,0.,0.124034727309901));
#463=DIRECTION('',(1.,0.,0.));
#464=DIRECTION('',(-0.124034727309901,0.,-0.992277877623581));
#465=DIRECTION('center_axis',(0.,0.,-1.));
#466=DIRECTION('ref_axis',(1.,0.,0.));
#467=DIRECTION('',(0.,-1.,0.));
#468=DIRECTION('center_axis',(0.,0.,1.));
#469=DIRECTION('ref_axis',(-1.,8.15220812457274E-15,0.));
#470=DIRECTION('',(1.,0.,0.));
#471=DIRECTION('center_axis',(0.,0.,1.));
#472=DIRECTION('ref_axis',(1.,1.21181472122027E-15,0.));
#473=DIRECTION('',(0.,-1.,0.));
#474=DIRECTION('',(0.,-1.,0.));
#475=DIRECTION('',(0.,-1.,0.));
#476=DIRECTION('',(0.,-1.,0.));
#477=DIRECTION('',(0.,-1.,0.));
#478=DIRECTION('center_axis',(0.,0.,1.));
#479=DIRECTION('ref_axis',(1.,-8.15220812457274E-15,0.));
#480=DIRECTION('center_axis',(-0.124034727309901,0.,-0.992277877623581));
#481=DIRECTION('ref_axis',(0.701646416089023,-0.707106781186553,-0.0877057967834561));
#482=DIRECTION('',(0.124034727309901,0.,0.992277877623581));
#483=DIRECTION('center_axis',(0.992277877623581,0.,-0.124034727309901));
#484=DIRECTION('ref_axis',(0.,-1.,0.));
#485=DIRECTION('',(-0.124034727309901,0.,-0.992277877623581));
#486=DIRECTION('center_axis',(-0.124034727309901,0.,-0.992277877623581));
#487=DIRECTION('ref_axis',(-0.701646416089023,0.707106781186553,0.0877057967834561));
#488=DIRECTION('center_axis',(1.,0.,0.));
#489=DIRECTION('ref_axis',(0.,1.37706210112555E-17,1.));
#490=DIRECTION('',(0.124034727309901,0.,0.992277877623581));
#491=DIRECTION('center_axis',(-0.124034727309901,0.,-0.992277877623581));
#492=DIRECTION('ref_axis',(-0.701646416089023,0.707106781186553,0.0877057967834561));
#493=DIRECTION('',(-0.124034727309901,0.,-0.992277877623581));
#494=DIRECTION('center_axis',(-1.,0.,0.));
#495=DIRECTION('ref_axis',(0.,0.,-1.));
#496=DIRECTION('',(0.,1.,0.));
#497=DIRECTION('',(0.,-1.,0.));
#498=DIRECTION('',(0.,1.,0.));
#499=DIRECTION('',(0.,-1.,0.));
#500=DIRECTION('',(0.,1.,0.));
#501=DIRECTION('center_axis',(0.,1.,0.));
#502=DIRECTION('ref_axis',(0.992277877623581,0.,-0.124034727309901));
#503=DIRECTION('',(-0.992277877623581,0.,0.124034727309901));
#504=DIRECTION('',(0.124034727309901,0.,0.992277877623581));
#505=DIRECTION('center_axis',(-0.124034727309901,0.,-0.992277877623581));
#506=DIRECTION('ref_axis',(0.701646416089034,0.707106781186543,-0.0877057967834549));
#507=DIRECTION('center_axis',(-0.124034727309901,0.,-0.992277877623581));
#508=DIRECTION('ref_axis',(0.701646416089034,0.707106781186543,-0.0877057967834549));
#509=DIRECTION('',(-0.124034727309901,0.,-0.992277877623581));
#510=DIRECTION('center_axis',(0.124034727309903,0.,0.992277877623581));
#511=DIRECTION('ref_axis',(-0.992277877623581,0.,0.124034727309903));
#512=DIRECTION('',(0.992277877623581,0.,-0.124034727309901));
#513=DIRECTION('',(-0.992277877623581,0.,0.124034727309901));
#514=DIRECTION('center_axis',(0.124034727309903,0.,0.992277877623581));
#515=DIRECTION('ref_axis',(-0.992277877623581,0.,0.124034727309903));
#516=DIRECTION('',(-0.992277877623581,0.,0.124034727309901));
#517=DIRECTION('',(0.992277877623581,0.,-0.124034727309901));
#518=DIRECTION('center_axis',(0.,1.,0.));
#519=DIRECTION('ref_axis',(0.992277877623581,0.,-0.124034727309901));
#520=DIRECTION('',(-0.124034727309901,0.,-0.992277877623581));
#521=DIRECTION('center_axis',(-0.992277877623581,0.,0.124034727309901));
#522=DIRECTION('ref_axis',(0.,1.,0.));
#523=DIRECTION('center_axis',(-0.992277877623581,0.,0.124034727309901));
#524=DIRECTION('ref_axis',(0.,1.,0.));
#525=DIRECTION('',(-0.124034727309901,0.,-0.992277877623581));
#526=DIRECTION('',(0.,-1.,0.));
#527=DIRECTION('center_axis',(0.,-1.,0.));
#528=DIRECTION('ref_axis',(-0.992277877623581,0.,0.124034727309901));
#529=DIRECTION('',(0.992277877623581,0.,-0.124034727309901));
#530=DIRECTION('',(-0.124034727309901,0.,-0.992277877623581));
#531=DIRECTION('center_axis',(0.992277877623581,0.,-0.124034727309901));
#532=DIRECTION('ref_axis',(0.,-1.,0.));
#533=DIRECTION('',(0.,1.,0.));
#534=DIRECTION('center_axis',(-0.124034727309901,0.,-0.992277877623581));
#535=DIRECTION('ref_axis',(0.,-1.,0.));
#536=DIRECTION('center_axis',(-0.992277877623581,0.,0.124034727309901));
#537=DIRECTION('ref_axis',(0.,1.,0.));
#538=DIRECTION('',(0.,-1.,0.));
#539=DIRECTION('',(-0.124034727309901,0.,-0.992277877623581));
#540=DIRECTION('',(-0.124034727309901,0.,-0.992277877623581));
#541=DIRECTION('center_axis',(0.,-1.,0.));
#542=DIRECTION('ref_axis',(-0.992277877623581,0.,0.124034727309901));
#543=DIRECTION('',(0.992277877623581,0.,-0.124034727309901));
#544=DIRECTION('',(-0.124034727309901,0.,-0.992277877623581));
#545=DIRECTION('center_axis',(0.992277877623581,0.,-0.124034727309901));
#546=DIRECTION('ref_axis',(0.,-1.,0.));
#547=DIRECTION('',(0.,1.,0.));
#548=DIRECTION('',(-0.124034727309901,0.,-0.992277877623581));
#549=DIRECTION('center_axis',(0.,1.,0.));
#550=DIRECTION('ref_axis',(0.992277877623581,0.,-0.124034727309901));
#551=DIRECTION('',(-0.992277877623581,0.,0.124034727309901));
#552=DIRECTION('center_axis',(-0.124034727309901,0.,-0.992277877623581));
#553=DIRECTION('ref_axis',(0.,-1.,0.));
#554=CARTESIAN_POINT('',(0.,0.,0.));
#555=CARTESIAN_POINT('Origin',(427.712171758483,-30.,-45.0734572080918));
#556=CARTESIAN_POINT('',(413.671800031989,-31.5014784751896,-118.945667517392));
#557=CARTESIAN_POINT('',(418.478146020211,-35.,-118.945667517392));
#558=CARTESIAN_POINT('Origin',(418.478146020211,-30.,-118.945667517392));
#559=CARTESIAN_POINT('',(427.712171758483,-35.,-45.0734572080918));
#560=CARTESIAN_POINT('',(427.712171758483,-35.,-45.0734572080918));
#561=CARTESIAN_POINT('',(422.750782370365,-30.,-44.4532835715423));
#562=CARTESIAN_POINT('Origin',(427.712171758483,-30.,-45.0734572080918));
#563=CARTESIAN_POINT('',(413.67180003199,-30.,-117.085146607743));
#564=CARTESIAN_POINT('',(422.750782370365,-30.,-44.4532835715423));
#565=CARTESIAN_POINT('Origin',(413.671800031989,-30.,-157.396437715011));
#566=CARTESIAN_POINT('Origin',(430.192866452542,-25.,-45.3835440263666));
#567=CARTESIAN_POINT('',(432.673561146601,-35.,-45.6936308446414));
#568=CARTESIAN_POINT('',(422.750782370365,-35.,-44.4532835715423));
#569=CARTESIAN_POINT('',(437.634950534719,-30.,-46.3138044811909));
#570=CARTESIAN_POINT('Origin',(432.673561146601,-30.,-45.6936308446413));
#571=CARTESIAN_POINT('',(437.634950534719,-15.,-46.3138044811909));
#572=CARTESIAN_POINT('',(437.634950534719,-35.,-46.3138044811909));
#573=CARTESIAN_POINT('',(422.750782370365,-15.,-44.4532835715423));
#574=CARTESIAN_POINT('',(437.634950534719,-15.,-46.3138044811909));
#575=CARTESIAN_POINT('',(422.750782370365,-15.,-44.4532835715423));
#576=CARTESIAN_POINT('Origin',(437.634950534719,-35.,-46.3138044811909));
#577=CARTESIAN_POINT('',(423.517057108277,-35.,-118.945667517392));
#578=CARTESIAN_POINT('',(413.671800031989,-35.,-118.945667517392));
#579=CARTESIAN_POINT('',(432.673561146601,-35.,-45.6936308446413));
#580=CARTESIAN_POINT('Origin',(413.671800031989,35.,-118.945667517392));
#581=CARTESIAN_POINT('',(413.671800031989,31.5014784751896,-118.945667517392));
#582=CARTESIAN_POINT('',(413.671800031989,35.,-118.945667517392));
#583=CARTESIAN_POINT('',(418.478146020211,35.,-118.945667517392));
#584=CARTESIAN_POINT('Origin',(418.478146020211,30.,-118.945667517392));
#585=CARTESIAN_POINT('',(423.517057108277,35.,-118.945667517392));
#586=CARTESIAN_POINT('',(413.671800031989,35.,-118.945667517392));
#587=CARTESIAN_POINT('',(428.555968196343,30.,-118.945667517392));
#588=CARTESIAN_POINT('Origin',(423.517057108277,30.,-118.945667517392));
#589=CARTESIAN_POINT('',(428.555968196343,15.,-118.945667517392));
#590=CARTESIAN_POINT('',(428.555968196343,15.,-118.945667517392));
#591=CARTESIAN_POINT('',(428.555968196343,10.,-118.945667517392));
#592=CARTESIAN_POINT('',(428.555968196343,35.,-118.945667517392));
#593=CARTESIAN_POINT('',(428.555968196343,-10.,-118.945667517392));
#594=CARTESIAN_POINT('',(428.555968196343,-10.,-118.945667517392));
#595=CARTESIAN_POINT('',(428.555968196343,-15.,-118.945667517392));
#596=CARTESIAN_POINT('',(428.555968196343,35.,-118.945667517392));
#597=CARTESIAN_POINT('',(428.555968196343,-30.,-118.945667517392));
#598=CARTESIAN_POINT('',(428.555968196343,-35.,-118.945667517392));
#599=CARTESIAN_POINT('Origin',(423.517057108277,-30.,-118.945667517392));
#600=CARTESIAN_POINT('Origin',(432.673561146601,-30.,-45.6936308446413));
#601=CARTESIAN_POINT('',(437.634950534719,-30.,-46.3138044811908));
#602=CARTESIAN_POINT('Origin',(437.634950534719,-15.,-46.3138044811909));
#603=CARTESIAN_POINT('',(437.634950534719,-15.,-46.3138044811909));
#604=CARTESIAN_POINT('Origin',(427.712171758483,30.,-45.0734572080918));
#605=CARTESIAN_POINT('',(413.67180003199,30.,-117.085146607743));
#606=CARTESIAN_POINT('Origin',(413.671800031989,30.,-157.396437715011));
#607=CARTESIAN_POINT('',(422.750782370365,30.,-44.4532835715423));
#608=CARTESIAN_POINT('',(422.750782370365,30.,-44.4532835715423));
#609=CARTESIAN_POINT('',(427.712171758483,35.,-45.0734572080918));
#610=CARTESIAN_POINT('Origin',(427.712171758483,30.,-45.0734572080918));
#611=CARTESIAN_POINT('',(427.712171758483,35.,-45.0734572080918));
#612=CARTESIAN_POINT('Origin',(413.671800031989,35.,-117.085146607743));
#613=CARTESIAN_POINT('',(413.671800031989,-15.,-117.085146607743));
#614=CARTESIAN_POINT('',(413.67180003199,-15.,-117.085146607743));
#615=CARTESIAN_POINT('',(413.671800031989,-10.,-117.085146607743));
#616=CARTESIAN_POINT('',(413.671800031989,35.,-117.085146607743));
#617=CARTESIAN_POINT('',(413.671800031989,10.,-117.085146607743));
#618=CARTESIAN_POINT('',(413.67180003199,10.,-117.085146607743));
#619=CARTESIAN_POINT('',(413.671800031989,15.,-117.085146607743));
#620=CARTESIAN_POINT('',(413.671800031989,35.,-117.085146607743));
#621=CARTESIAN_POINT('',(413.67180003199,35.,-117.085146607743));
#622=CARTESIAN_POINT('Origin',(422.750782370365,35.,-44.4532835715423));
#623=CARTESIAN_POINT('',(432.673561146601,35.,-45.6936308446414));
#624=CARTESIAN_POINT('',(437.634950534719,35.,-46.3138044811909));
#625=CARTESIAN_POINT('',(432.673561146601,35.,-45.6936308446414));
#626=CARTESIAN_POINT('Origin',(432.673561146601,30.,-45.6936308446414));
#627=CARTESIAN_POINT('',(437.634950534719,30.,-46.3138044811909));
#628=CARTESIAN_POINT('Origin',(432.673561146601,30.,-45.6936308446413));
#629=CARTESIAN_POINT('',(437.634950534719,30.,-46.3138044811909));
#630=CARTESIAN_POINT('Origin',(428.555968196343,35.,-118.945667517392));
#631=CARTESIAN_POINT('',(428.555968196343,10.,-118.945667517392));
#632=CARTESIAN_POINT('',(413.67180003199,15.,-117.085146607743));
#633=CARTESIAN_POINT('Origin',(428.555968196343,35.,-118.945667517392));
#634=CARTESIAN_POINT('',(413.67180003199,-10.,-117.085146607743));
#635=CARTESIAN_POINT('',(428.555968196343,-15.,-118.945667517392));
#636=CARTESIAN_POINT('Origin',(422.750782370365,-15.,-44.4532835715423));
#637=CARTESIAN_POINT('',(422.750782370365,-15.,-44.4532835715423));
#638=CARTESIAN_POINT('Origin',(422.750782370365,-35.,-44.4532835715423));
#639=CARTESIAN_POINT('Origin',(422.750782370365,15.,-44.4532835715423));
#640=CARTESIAN_POINT('',(422.750782370365,15.,-44.4532835715423));
#641=CARTESIAN_POINT('',(422.750782370365,15.,-44.4532835715423));
#642=CARTESIAN_POINT('',(422.750782370365,35.,-44.4532835715423));
#643=CARTESIAN_POINT('Origin',(437.634950534719,15.,-46.3138044811909));
#644=CARTESIAN_POINT('',(437.634950534719,15.,-46.3138044811909));
#645=CARTESIAN_POINT('',(422.750782370365,15.,-44.4532835715423));
#646=CARTESIAN_POINT('',(437.634950534719,15.,-46.3138044811909));
#647=CARTESIAN_POINT('Origin',(437.634950534719,35.,-46.3138044811909));
#648=CARTESIAN_POINT('',(437.634950534719,15.,-46.3138044811909));
#649=CARTESIAN_POINT('Origin',(430.192866452542,25.,-45.3835440263666));
#650=CARTESIAN_POINT('Origin',(422.750782370365,-10.,-44.4532835715423));
#651=CARTESIAN_POINT('',(422.750782370365,10.,-44.4532835715423));
#652=CARTESIAN_POINT('',(422.750782370365,-10.,-44.4532835715423));
#653=CARTESIAN_POINT('',(422.750782370365,10.,-44.4532835715423));
#654=CARTESIAN_POINT('',(422.750782370365,10.,-44.4532835715423));
#655=CARTESIAN_POINT('',(422.750782370365,-10.,-44.4532835715423));
#656=CARTESIAN_POINT('Origin',(437.634950534719,-10.,-46.3138044811909));
#657=CARTESIAN_POINT('',(437.634950534719,-10.,-46.3138044811909));
#658=CARTESIAN_POINT('',(422.750782370365,-10.,-44.4532835715423));
#659=CARTESIAN_POINT('',(437.634950534719,-10.,-46.3138044811909));
#660=CARTESIAN_POINT('Origin',(437.634950534719,10.,-46.3138044811909));
#661=CARTESIAN_POINT('',(437.634950534719,10.,-46.3138044811909));
#662=CARTESIAN_POINT('',(437.634950534719,-10.,-46.3138044811909));
#663=CARTESIAN_POINT('',(437.634950534719,10.,-46.3138044811909));
#664=CARTESIAN_POINT('Origin',(422.750782370365,10.,-44.4532835715423));
#665=CARTESIAN_POINT('',(437.634950534719,10.,-46.3138044811909));
#666=CARTESIAN_POINT('Origin',(430.192866452542,0.,-45.3835440263666));
#667=UNCERTAINTY_MEASURE_WITH_UNIT(LENGTH_MEASURE(0.01),#671,
'DISTANCE_ACCURACY_VALUE',
'Maximum model space distance between geometric entities at asserted c
onnectivities');
#668=UNCERTAINTY_MEASURE_WITH_UNIT(LENGTH_MEASURE(0.01),#671,
'DISTANCE_ACCURACY_VALUE',
'Maximum model space distance between geometric entities at asserted c
onnectivities');
#669=(
GEOMETRIC_REPRESENTATION_CONTEXT(3)
GLOBAL_UNCERTAINTY_ASSIGNED_CONTEXT((#667))
GLOBAL_UNIT_ASSIGNED_CONTEXT((#671,#672,#673))
REPRESENTATION_CONTEXT('','3D')
);
#670=(
GEOMETRIC_REPRESENTATION_CONTEXT(3)
GLOBAL_UNCERTAINTY_ASSIGNED_CONTEXT((#668))
GLOBAL_UNIT_ASSIGNED_CONTEXT((#671,#672,#673))
REPRESENTATION_CONTEXT('','3D')
);
#671=(
LENGTH_UNIT()
NAMED_UNIT(*)
SI_UNIT(.MILLI.,.METRE.)
);
#672=(
NAMED_UNIT(*)
PLANE_ANGLE_UNIT()
SI_UNIT($,.RADIAN.)
);
#673=(
NAMED_UNIT(*)
SI_UNIT($,.STERADIAN.)
SOLID_ANGLE_UNIT()
);
#674=SHAPE_DEFINITION_REPRESENTATION(#675,#676);
#675=PRODUCT_DEFINITION_SHAPE('',$,#678);
#676=SHAPE_REPRESENTATION('',(#407),#669);
#677=PRODUCT_DEFINITION_CONTEXT('part definition',#682,'design');
#678=PRODUCT_DEFINITION('2026-07-21-18-37-04-393','Main Housing',#679,#677);
#679=PRODUCT_DEFINITION_FORMATION('',$,#684);
#680=PRODUCT_RELATED_PRODUCT_CATEGORY('Main Housing','Main Housing',(#684));
#681=APPLICATION_PROTOCOL_DEFINITION('international standard',
'automotive_design',2009,#682);
#682=APPLICATION_CONTEXT(
'Core Data for Automotive Mechanical Design Process');
#683=PRODUCT_CONTEXT('part definition',#682,'mechanical');
#684=PRODUCT('2026-07-21-18-37-04-393','Main Housing',$,(#683));
#685=PRESENTATION_STYLE_ASSIGNMENT((#686));
#686=SURFACE_STYLE_USAGE(.BOTH.,#687);
#687=SURFACE_SIDE_STYLE('',(#688));
#688=SURFACE_STYLE_FILL_AREA(#689);
#689=FILL_AREA_STYLE('Steel - Satin',(#690));
#690=FILL_AREA_STYLE_COLOUR('Steel - Satin',#691);
#691=COLOUR_RGB('Steel - Satin',0.627450980392157,0.627450980392157,0.627450980392157);
ENDSEC;
END-ISO-10303-21;
