ISO-10303-21;
HEADER;
/* Generated by software containing ST-Developer
 * from STEP Tools, Inc. (www.steptools.com) 
 */

FILE_DESCRIPTION(
/* description */ (''),
/* implementation_level */ '2;1');

FILE_NAME(
/* name */ 'Transition Cover.step',
/* time_stamp */ '2026-07-22T22:26:42-07:00',
/* author */ (''),
/* organization */ (''),
/* preprocessor_version */ 'ST-DEVELOPER v20.1',
/* originating_system */ 'Autodesk Translation Framework v15.8.0.0',
/* authorisation */ '');

FILE_SCHEMA (('AUTOMOTIVE_DESIGN { 1 0 10303 214 3 1 1 }'));
ENDSEC;

DATA;
#10=MECHANICAL_DESIGN_GEOMETRIC_PRESENTATION_REPRESENTATION('',(#13),#1145);
#11=SHAPE_REPRESENTATION_RELATIONSHIP('SRR','None',#1151,#12);
#12=ADVANCED_BREP_SHAPE_REPRESENTATION('',(#14),#1144);
#13=STYLED_ITEM('',(#1160),#14);
#14=MANIFOLD_SOLID_BREP('Transition',#453);
#15=FACE_BOUND('',#166,.T.);
#16=FACE_BOUND('',#180,.T.);
#17=FACE_BOUND('',#191,.T.);
#18=LINE('',#695,#66);
#19=LINE('',#777,#67);
#20=LINE('',#859,#68);
#21=LINE('',#940,#69);
#22=LINE('',#943,#70);
#23=LINE('',#945,#71);
#24=LINE('',#947,#72);
#25=LINE('',#948,#73);
#26=LINE('',#951,#74);
#27=LINE('',#1027,#75);
#28=LINE('',#1067,#76);
#29=LINE('',#1069,#77);
#30=LINE('',#1071,#78);
#31=LINE('',#1072,#79);
#32=LINE('',#1075,#80);
#33=LINE('',#1077,#81);
#34=LINE('',#1078,#82);
#35=LINE('',#1082,#83);
#36=LINE('',#1083,#84);
#37=LINE('',#1084,#85);
#38=LINE('',#1086,#86);
#39=LINE('',#1088,#87);
#40=LINE('',#1089,#88);
#41=LINE('',#1092,#89);
#42=LINE('',#1094,#90);
#43=LINE('',#1095,#91);
#44=LINE('',#1097,#92);
#45=LINE('',#1099,#93);
#46=LINE('',#1100,#94);
#47=LINE('',#1102,#95);
#48=LINE('',#1103,#96);
#49=LINE('',#1105,#97);
#50=LINE('',#1110,#98);
#51=LINE('',#1112,#99);
#52=LINE('',#1114,#100);
#53=LINE('',#1115,#101);
#54=LINE('',#1118,#102);
#55=LINE('',#1120,#103);
#56=LINE('',#1121,#104);
#57=LINE('',#1124,#105);
#58=LINE('',#1126,#106);
#59=LINE('',#1127,#107);
#60=LINE('',#1129,#108);
#61=LINE('',#1130,#109);
#62=LINE('',#1132,#110);
#63=LINE('',#1133,#111);
#64=LINE('',#1135,#112);
#65=LINE('',#1137,#113);
#66=VECTOR('',#482,10.);
#67=VECTOR('',#483,10.);
#68=VECTOR('',#484,10.);
#69=VECTOR('',#485,10.);
#70=VECTOR('',#486,10.);
#71=VECTOR('',#487,10.);
#72=VECTOR('',#488,10.);
#73=VECTOR('',#489,10.);
#74=VECTOR('',#492,10.);
#75=VECTOR('',#495,10.);
#76=VECTOR('',#498,10.);
#77=VECTOR('',#499,10.);
#78=VECTOR('',#500,10.);
#79=VECTOR('',#501,10.);
#80=VECTOR('',#504,10.);
#81=VECTOR('',#505,10.);
#82=VECTOR('',#506,10.);
#83=VECTOR('',#509,10.);
#84=VECTOR('',#510,10.);
#85=VECTOR('',#511,10.);
#86=VECTOR('',#514,10.);
#87=VECTOR('',#515,10.);
#88=VECTOR('',#516,10.);
#89=VECTOR('',#519,10.);
#90=VECTOR('',#520,10.);
#91=VECTOR('',#521,10.);
#92=VECTOR('',#524,10.);
#93=VECTOR('',#525,10.);
#94=VECTOR('',#526,10.);
#95=VECTOR('',#529,10.);
#96=VECTOR('',#530,10.);
#97=VECTOR('',#533,10.);
#98=VECTOR('',#538,10.);
#99=VECTOR('',#539,10.);
#100=VECTOR('',#540,10.);
#101=VECTOR('',#541,10.);
#102=VECTOR('',#544,10.);
#103=VECTOR('',#545,10.);
#104=VECTOR('',#546,10.);
#105=VECTOR('',#549,10.);
#106=VECTOR('',#550,10.);
#107=VECTOR('',#551,10.);
#108=VECTOR('',#554,10.);
#109=VECTOR('',#555,10.);
#110=VECTOR('',#558,10.);
#111=VECTOR('',#559,10.);
#112=VECTOR('',#562,10.);
#113=VECTOR('',#565,10.);
#114=PLANE('',#455);
#115=PLANE('',#456);
#116=PLANE('',#457);
#117=PLANE('',#458);
#118=PLANE('',#459);
#119=PLANE('',#460);
#120=PLANE('',#461);
#121=PLANE('',#462);
#122=PLANE('',#463);
#123=PLANE('',#464);
#124=PLANE('',#465);
#125=PLANE('',#466);
#126=PLANE('',#467);
#127=PLANE('',#468);
#128=PLANE('',#469);
#129=PLANE('',#470);
#130=PLANE('',#471);
#131=PLANE('',#472);
#132=PLANE('',#473);
#133=PLANE('',#474);
#134=PLANE('',#475);
#135=PLANE('',#476);
#136=PLANE('',#477);
#137=FACE_OUTER_BOUND('',#164,.T.);
#138=FACE_OUTER_BOUND('',#165,.T.);
#139=FACE_OUTER_BOUND('',#167,.T.);
#140=FACE_OUTER_BOUND('',#168,.T.);
#141=FACE_OUTER_BOUND('',#169,.T.);
#142=FACE_OUTER_BOUND('',#170,.T.);
#143=FACE_OUTER_BOUND('',#171,.T.);
#144=FACE_OUTER_BOUND('',#172,.T.);
#145=FACE_OUTER_BOUND('',#173,.T.);
#146=FACE_OUTER_BOUND('',#174,.T.);
#147=FACE_OUTER_BOUND('',#175,.T.);
#148=FACE_OUTER_BOUND('',#176,.T.);
#149=FACE_OUTER_BOUND('',#177,.T.);
#150=FACE_OUTER_BOUND('',#178,.T.);
#151=FACE_OUTER_BOUND('',#179,.T.);
#152=FACE_OUTER_BOUND('',#181,.T.);
#153=FACE_OUTER_BOUND('',#182,.T.);
#154=FACE_OUTER_BOUND('',#183,.T.);
#155=FACE_OUTER_BOUND('',#184,.T.);
#156=FACE_OUTER_BOUND('',#185,.T.);
#157=FACE_OUTER_BOUND('',#186,.T.);
#158=FACE_OUTER_BOUND('',#187,.T.);
#159=FACE_OUTER_BOUND('',#188,.T.);
#160=FACE_OUTER_BOUND('',#189,.T.);
#161=FACE_OUTER_BOUND('',#190,.T.);
#162=FACE_OUTER_BOUND('',#192,.T.);
#163=FACE_OUTER_BOUND('',#193,.T.);
#164=EDGE_LOOP('',(#302,#303,#304));
#165=EDGE_LOOP('',(#305,#306,#307,#308,#309,#310,#311,#312));
#166=EDGE_LOOP('',(#313,#314,#315,#316));
#167=EDGE_LOOP('',(#317,#318,#319,#320));
#168=EDGE_LOOP('',(#321,#322,#323));
#169=EDGE_LOOP('',(#324,#325,#326));
#170=EDGE_LOOP('',(#327,#328,#329,#330));
#171=EDGE_LOOP('',(#331,#332,#333));
#172=EDGE_LOOP('',(#334,#335,#336,#337));
#173=EDGE_LOOP('',(#338,#339,#340,#341));
#174=EDGE_LOOP('',(#342,#343,#344,#345));
#175=EDGE_LOOP('',(#346,#347,#348,#349));
#176=EDGE_LOOP('',(#350,#351,#352,#353));
#177=EDGE_LOOP('',(#354,#355,#356,#357));
#178=EDGE_LOOP('',(#358,#359,#360,#361));
#179=EDGE_LOOP('',(#362,#363,#364,#365));
#180=EDGE_LOOP('',(#366,#367,#368,#369));
#181=EDGE_LOOP('',(#370,#371,#372,#373));
#182=EDGE_LOOP('',(#374,#375,#376,#377));
#183=EDGE_LOOP('',(#378,#379,#380,#381));
#184=EDGE_LOOP('',(#382,#383,#384,#385));
#185=EDGE_LOOP('',(#386,#387,#388,#389));
#186=EDGE_LOOP('',(#390,#391,#392,#393));
#187=EDGE_LOOP('',(#394,#395,#396,#397));
#188=EDGE_LOOP('',(#398,#399,#400,#401));
#189=EDGE_LOOP('',(#402,#403,#404,#405));
#190=EDGE_LOOP('',(#406,#407,#408,#409));
#191=EDGE_LOOP('',(#410,#411,#412,#413));
#192=EDGE_LOOP('',(#414,#415,#416,#417));
#193=EDGE_LOOP('',(#418,#419,#420,#421));
#194=B_SPLINE_CURVE_WITH_KNOTS('',3,(#605,#606,#607,#608,#609,#610,#611,
#612,#613,#614,#615,#616,#617,#618,#619,#620,#621,#622,#623,#624,#625,#626,
#627,#628,#629,#630,#631,#632,#633,#634,#635,#636,#637,#638,#639,#640,#641,
#642,#643,#644,#645,#646,#647,#648,#649,#650,#651,#652,#653,#654,#655,#656,
#657,#658,#659,#660,#661,#662,#663,#664,#665,#666,#667,#668,#669,#670,#671,
#672,#673,#674,#675,#676,#677,#678,#679,#680,#681,#682,#683),
 .UNSPECIFIED.,.F.,.F.,(4,3,3,3,3,3,3,3,3,3,3,3,3,3,3,3,3,3,3,3,3,3,3,3,
3,3,4),(-5.55111512312578E-17,0.0294991699148092,0.0600137921383849,0.093178582475333,
0.125970754425583,0.159331532260319,0.192672953486177,0.209501586038425,
0.242370297714174,0.275860878869447,0.30958582543503,0.320193722537768,
0.353879973361864,0.378018891193733,0.411622791881807,0.445461471886124,
0.478934602618342,0.5112585344751,0.542384567984756,0.557234539875861,0.590613312304476,
0.623908861884503,0.656094759612714,0.687383937478938,0.717715587831488,
0.74673790011023,0.751907756015053),.UNSPECIFIED.);
#195=B_SPLINE_CURVE_WITH_KNOTS('',3,(#685,#686,#687,#688),.UNSPECIFIED.,
 .F.,.F.,(4,4),(-12.85261389081,-0.0370878713878501),.UNSPECIFIED.);
#196=B_SPLINE_CURVE_WITH_KNOTS('',3,(#689,#690,#691,#692),.UNSPECIFIED.,
 .F.,.F.,(4,4),(0.0370878713878501,12.85261389081),.UNSPECIFIED.);
#197=B_SPLINE_CURVE_WITH_KNOTS('',3,(#697,#698,#699,#700,#701,#702,#703,
#704,#705,#706,#707,#708,#709,#710,#711,#712,#713,#714,#715,#716,#717,#718,
#719,#720,#721,#722,#723,#724,#725,#726,#727,#728,#729,#730,#731,#732,#733,
#734,#735,#736,#737,#738,#739,#740,#741,#742,#743,#744,#745,#746,#747,#748,
#749,#750,#751,#752,#753,#754,#755,#756,#757,#758,#759,#760,#761,#762,#763,
#764,#765,#766,#767,#768,#769,#770,#771,#772,#773,#774,#775),
 .UNSPECIFIED.,.F.,.F.,(4,3,3,3,3,3,3,3,3,3,3,3,3,3,3,3,3,3,3,3,3,3,3,3,
3,3,4),(0.,0.0294991699148358,0.0600137921382441,0.0931785824752172,0.125970754425632,
0.159331532260421,0.192672953486137,0.209501586038371,0.242370297714193,
0.275860878869667,0.309585825435198,0.320193722537675,0.353879973361774,
0.378018891193637,0.411622791881734,0.445461471886054,0.478934602618325,
0.511258534475146,0.542384567984611,0.557234539875728,0.590613312304177,
0.623908861884365,0.65609475961257,0.687383937478759,0.717715587831197,
0.746737900109931,0.751907756014897),.UNSPECIFIED.);
#198=B_SPLINE_CURVE_WITH_KNOTS('',3,(#779,#780,#781,#782,#783,#784,#785,
#786,#787,#788,#789,#790,#791,#792,#793,#794,#795,#796,#797,#798,#799,#800,
#801,#802,#803,#804,#805,#806,#807,#808,#809,#810,#811,#812,#813,#814,#815,
#816,#817,#818,#819,#820,#821,#822,#823,#824,#825,#826,#827,#828,#829,#830,
#831,#832,#833,#834,#835,#836,#837,#838,#839,#840,#841,#842,#843,#844,#845,
#846,#847,#848,#849,#850,#851,#852,#853,#854,#855,#856,#857),
 .UNSPECIFIED.,.F.,.F.,(4,3,3,3,3,3,3,3,3,3,3,3,3,3,3,3,3,3,3,3,3,3,3,3,
3,3,4),(-5.55111512312578E-17,0.0294991699148798,0.0600137921385483,0.0931785824754507,
0.125970754425777,0.159331532260529,0.192672953486158,0.209501586038398,
0.242370297714164,0.275860878869547,0.30958582543517,0.320193722537728,
0.353879973361807,0.378018891193698,0.411622791881932,0.445461471886148,
0.478934602618358,0.511258534475099,0.542384567984691,0.557234539875801,
0.590613312304315,0.623908861884419,0.656094759612606,0.687383937478763,
0.717715587831331,0.746737900110093,0.751907756014922),.UNSPECIFIED.);
#199=B_SPLINE_CURVE_WITH_KNOTS('',3,(#861,#862,#863,#864,#865,#866,#867,
#868,#869,#870,#871,#872,#873,#874,#875,#876,#877,#878,#879,#880,#881,#882,
#883,#884,#885,#886,#887,#888,#889,#890,#891,#892,#893,#894,#895,#896,#897,
#898,#899,#900,#901,#902,#903,#904,#905,#906,#907,#908,#909,#910,#911,#912,
#913,#914,#915,#916,#917,#918,#919,#920,#921,#922,#923,#924,#925,#926,#927,
#928,#929,#930,#931,#932,#933,#934,#935,#936,#937,#938,#939),
 .UNSPECIFIED.,.F.,.F.,(4,3,3,3,3,3,3,3,3,3,3,3,3,3,3,3,3,3,3,3,3,3,3,3,
3,3,4),(0.,0.0294991699148358,0.0600137921382441,0.0931785824752172,0.125970754425632,
0.159331532260421,0.192672953486137,0.209501586038371,0.242370297714193,
0.275860878869667,0.309585825435198,0.320193722537675,0.353879973361774,
0.378018891193637,0.411622791881734,0.445461471886054,0.478934602618325,
0.511258534475146,0.542384567984611,0.557234539875728,0.590613312304177,
0.623908861884365,0.65609475961257,0.687383937478759,0.717715587831197,
0.746737900109931,0.751907756014897),.UNSPECIFIED.);
#200=B_SPLINE_CURVE_WITH_KNOTS('',3,(#952,#953,#954,#955),.UNSPECIFIED.,
 .F.,.F.,(4,4),(-12.85261389081,-0.0370878713878501),.UNSPECIFIED.);
#201=B_SPLINE_CURVE_WITH_KNOTS('',3,(#984,#985,#986,#987),.UNSPECIFIED.,
 .F.,.F.,(4,4),(0.0370878713878501,12.85261389081),.UNSPECIFIED.);
#202=B_SPLINE_CURVE_WITH_KNOTS('',3,(#1017,#1018,#1019,#1020),
 .UNSPECIFIED.,.F.,.F.,(4,4),(-12.85261389081,-0.0370878713878469),
 .UNSPECIFIED.);
#203=B_SPLINE_CURVE_WITH_KNOTS('',3,(#1021,#1022,#1023,#1024),
 .UNSPECIFIED.,.F.,.F.,(4,4),(0.0370878713878469,12.85261389081),
 .UNSPECIFIED.);
#204=B_SPLINE_CURVE_WITH_KNOTS('',3,(#1028,#1029,#1030,#1031),
 .UNSPECIFIED.,.F.,.F.,(4,4),(-12.85261389081,-0.0370878713878497),
 .UNSPECIFIED.);
#205=B_SPLINE_CURVE_WITH_KNOTS('',3,(#1060,#1061,#1062,#1063),
 .UNSPECIFIED.,.F.,.F.,(4,4),(0.0370878713878497,12.85261389081),
 .UNSPECIFIED.);
#206=VERTEX_POINT('',#603);
#207=VERTEX_POINT('',#604);
#208=VERTEX_POINT('',#684);
#209=VERTEX_POINT('',#694);
#210=VERTEX_POINT('',#696);
#211=VERTEX_POINT('',#776);
#212=VERTEX_POINT('',#778);
#213=VERTEX_POINT('',#858);
#214=VERTEX_POINT('',#860);
#215=VERTEX_POINT('',#941);
#216=VERTEX_POINT('',#942);
#217=VERTEX_POINT('',#944);
#218=VERTEX_POINT('',#946);
#219=VERTEX_POINT('',#950);
#220=VERTEX_POINT('',#1016);
#221=VERTEX_POINT('',#1026);
#222=VERTEX_POINT('',#1065);
#223=VERTEX_POINT('',#1066);
#224=VERTEX_POINT('',#1068);
#225=VERTEX_POINT('',#1070);
#226=VERTEX_POINT('',#1074);
#227=VERTEX_POINT('',#1076);
#228=VERTEX_POINT('',#1080);
#229=VERTEX_POINT('',#1081);
#230=VERTEX_POINT('',#1087);
#231=VERTEX_POINT('',#1091);
#232=VERTEX_POINT('',#1093);
#233=VERTEX_POINT('',#1098);
#234=VERTEX_POINT('',#1108);
#235=VERTEX_POINT('',#1109);
#236=VERTEX_POINT('',#1111);
#237=VERTEX_POINT('',#1113);
#238=VERTEX_POINT('',#1117);
#239=VERTEX_POINT('',#1119);
#240=VERTEX_POINT('',#1123);
#241=VERTEX_POINT('',#1125);
#242=EDGE_CURVE('',#206,#207,#194,.T.);
#243=EDGE_CURVE('',#207,#208,#195,.T.);
#244=EDGE_CURVE('',#208,#206,#196,.T.);
#245=EDGE_CURVE('',#209,#206,#18,.T.);
#246=EDGE_CURVE('',#210,#209,#197,.T.);
#247=EDGE_CURVE('',#211,#210,#19,.T.);
#248=EDGE_CURVE('',#212,#211,#198,.T.);
#249=EDGE_CURVE('',#213,#212,#20,.T.);
#250=EDGE_CURVE('',#214,#213,#199,.T.);
#251=EDGE_CURVE('',#207,#214,#21,.T.);
#252=EDGE_CURVE('',#215,#216,#22,.T.);
#253=EDGE_CURVE('',#216,#217,#23,.T.);
#254=EDGE_CURVE('',#217,#218,#24,.T.);
#255=EDGE_CURVE('',#218,#215,#25,.T.);
#256=EDGE_CURVE('',#208,#219,#26,.T.);
#257=EDGE_CURVE('',#209,#219,#200,.T.);
#258=EDGE_CURVE('',#219,#210,#201,.T.);
#259=EDGE_CURVE('',#211,#220,#202,.T.);
#260=EDGE_CURVE('',#220,#212,#203,.T.);
#261=EDGE_CURVE('',#220,#221,#27,.T.);
#262=EDGE_CURVE('',#213,#221,#204,.T.);
#263=EDGE_CURVE('',#221,#214,#205,.T.);
#264=EDGE_CURVE('',#222,#223,#28,.T.);
#265=EDGE_CURVE('',#222,#224,#29,.T.);
#266=EDGE_CURVE('',#224,#225,#30,.T.);
#267=EDGE_CURVE('',#223,#225,#31,.T.);
#268=EDGE_CURVE('',#226,#208,#32,.T.);
#269=EDGE_CURVE('',#227,#226,#33,.T.);
#270=EDGE_CURVE('',#219,#227,#34,.T.);
#271=EDGE_CURVE('',#228,#229,#35,.T.);
#272=EDGE_CURVE('',#222,#228,#36,.T.);
#273=EDGE_CURVE('',#229,#223,#37,.T.);
#274=EDGE_CURVE('',#219,#220,#38,.T.);
#275=EDGE_CURVE('',#230,#227,#39,.T.);
#276=EDGE_CURVE('',#220,#230,#40,.T.);
#277=EDGE_CURVE('',#225,#231,#41,.T.);
#278=EDGE_CURVE('',#224,#232,#42,.T.);
#279=EDGE_CURVE('',#232,#231,#43,.T.);
#280=EDGE_CURVE('',#221,#208,#44,.T.);
#281=EDGE_CURVE('',#233,#221,#45,.T.);
#282=EDGE_CURVE('',#226,#233,#46,.T.);
#283=EDGE_CURVE('',#231,#229,#47,.T.);
#284=EDGE_CURVE('',#228,#232,#48,.T.);
#285=EDGE_CURVE('',#233,#230,#49,.T.);
#286=EDGE_CURVE('',#234,#235,#50,.T.);
#287=EDGE_CURVE('',#236,#234,#51,.T.);
#288=EDGE_CURVE('',#237,#236,#52,.T.);
#289=EDGE_CURVE('',#237,#235,#53,.T.);
#290=EDGE_CURVE('',#235,#238,#54,.T.);
#291=EDGE_CURVE('',#239,#237,#55,.T.);
#292=EDGE_CURVE('',#239,#238,#56,.T.);
#293=EDGE_CURVE('',#238,#240,#57,.T.);
#294=EDGE_CURVE('',#241,#239,#58,.T.);
#295=EDGE_CURVE('',#241,#240,#59,.T.);
#296=EDGE_CURVE('',#240,#234,#60,.T.);
#297=EDGE_CURVE('',#236,#241,#61,.T.);
#298=EDGE_CURVE('',#235,#215,#62,.T.);
#299=EDGE_CURVE('',#234,#218,#63,.F.);
#300=EDGE_CURVE('',#238,#216,#64,.F.);
#301=EDGE_CURVE('',#240,#217,#65,.F.);
#302=ORIENTED_EDGE('',*,*,#242,.T.);
#303=ORIENTED_EDGE('',*,*,#243,.T.);
#304=ORIENTED_EDGE('',*,*,#244,.T.);
#305=ORIENTED_EDGE('',*,*,#242,.F.);
#306=ORIENTED_EDGE('',*,*,#245,.F.);
#307=ORIENTED_EDGE('',*,*,#246,.F.);
#308=ORIENTED_EDGE('',*,*,#247,.F.);
#309=ORIENTED_EDGE('',*,*,#248,.F.);
#310=ORIENTED_EDGE('',*,*,#249,.F.);
#311=ORIENTED_EDGE('',*,*,#250,.F.);
#312=ORIENTED_EDGE('',*,*,#251,.F.);
#313=ORIENTED_EDGE('',*,*,#252,.T.);
#314=ORIENTED_EDGE('',*,*,#253,.T.);
#315=ORIENTED_EDGE('',*,*,#254,.T.);
#316=ORIENTED_EDGE('',*,*,#255,.T.);
#317=ORIENTED_EDGE('',*,*,#244,.F.);
#318=ORIENTED_EDGE('',*,*,#256,.T.);
#319=ORIENTED_EDGE('',*,*,#257,.F.);
#320=ORIENTED_EDGE('',*,*,#245,.T.);
#321=ORIENTED_EDGE('',*,*,#246,.T.);
#322=ORIENTED_EDGE('',*,*,#257,.T.);
#323=ORIENTED_EDGE('',*,*,#258,.T.);
#324=ORIENTED_EDGE('',*,*,#248,.T.);
#325=ORIENTED_EDGE('',*,*,#259,.T.);
#326=ORIENTED_EDGE('',*,*,#260,.T.);
#327=ORIENTED_EDGE('',*,*,#260,.F.);
#328=ORIENTED_EDGE('',*,*,#261,.T.);
#329=ORIENTED_EDGE('',*,*,#262,.F.);
#330=ORIENTED_EDGE('',*,*,#249,.T.);
#331=ORIENTED_EDGE('',*,*,#250,.T.);
#332=ORIENTED_EDGE('',*,*,#262,.T.);
#333=ORIENTED_EDGE('',*,*,#263,.T.);
#334=ORIENTED_EDGE('',*,*,#264,.F.);
#335=ORIENTED_EDGE('',*,*,#265,.T.);
#336=ORIENTED_EDGE('',*,*,#266,.T.);
#337=ORIENTED_EDGE('',*,*,#267,.F.);
#338=ORIENTED_EDGE('',*,*,#256,.F.);
#339=ORIENTED_EDGE('',*,*,#268,.F.);
#340=ORIENTED_EDGE('',*,*,#269,.F.);
#341=ORIENTED_EDGE('',*,*,#270,.F.);
#342=ORIENTED_EDGE('',*,*,#271,.F.);
#343=ORIENTED_EDGE('',*,*,#272,.F.);
#344=ORIENTED_EDGE('',*,*,#264,.T.);
#345=ORIENTED_EDGE('',*,*,#273,.F.);
#346=ORIENTED_EDGE('',*,*,#274,.F.);
#347=ORIENTED_EDGE('',*,*,#270,.T.);
#348=ORIENTED_EDGE('',*,*,#275,.F.);
#349=ORIENTED_EDGE('',*,*,#276,.F.);
#350=ORIENTED_EDGE('',*,*,#277,.F.);
#351=ORIENTED_EDGE('',*,*,#266,.F.);
#352=ORIENTED_EDGE('',*,*,#278,.T.);
#353=ORIENTED_EDGE('',*,*,#279,.T.);
#354=ORIENTED_EDGE('',*,*,#280,.F.);
#355=ORIENTED_EDGE('',*,*,#281,.F.);
#356=ORIENTED_EDGE('',*,*,#282,.F.);
#357=ORIENTED_EDGE('',*,*,#268,.T.);
#358=ORIENTED_EDGE('',*,*,#283,.F.);
#359=ORIENTED_EDGE('',*,*,#279,.F.);
#360=ORIENTED_EDGE('',*,*,#284,.F.);
#361=ORIENTED_EDGE('',*,*,#271,.T.);
#362=ORIENTED_EDGE('',*,*,#275,.T.);
#363=ORIENTED_EDGE('',*,*,#269,.T.);
#364=ORIENTED_EDGE('',*,*,#282,.T.);
#365=ORIENTED_EDGE('',*,*,#285,.T.);
#366=ORIENTED_EDGE('',*,*,#272,.T.);
#367=ORIENTED_EDGE('',*,*,#284,.T.);
#368=ORIENTED_EDGE('',*,*,#278,.F.);
#369=ORIENTED_EDGE('',*,*,#265,.F.);
#370=ORIENTED_EDGE('',*,*,#261,.F.);
#371=ORIENTED_EDGE('',*,*,#276,.T.);
#372=ORIENTED_EDGE('',*,*,#285,.F.);
#373=ORIENTED_EDGE('',*,*,#281,.T.);
#374=ORIENTED_EDGE('',*,*,#286,.F.);
#375=ORIENTED_EDGE('',*,*,#287,.F.);
#376=ORIENTED_EDGE('',*,*,#288,.F.);
#377=ORIENTED_EDGE('',*,*,#289,.T.);
#378=ORIENTED_EDGE('',*,*,#290,.F.);
#379=ORIENTED_EDGE('',*,*,#289,.F.);
#380=ORIENTED_EDGE('',*,*,#291,.F.);
#381=ORIENTED_EDGE('',*,*,#292,.T.);
#382=ORIENTED_EDGE('',*,*,#293,.F.);
#383=ORIENTED_EDGE('',*,*,#292,.F.);
#384=ORIENTED_EDGE('',*,*,#294,.F.);
#385=ORIENTED_EDGE('',*,*,#295,.T.);
#386=ORIENTED_EDGE('',*,*,#296,.F.);
#387=ORIENTED_EDGE('',*,*,#295,.F.);
#388=ORIENTED_EDGE('',*,*,#297,.F.);
#389=ORIENTED_EDGE('',*,*,#287,.T.);
#390=ORIENTED_EDGE('',*,*,#286,.T.);
#391=ORIENTED_EDGE('',*,*,#298,.T.);
#392=ORIENTED_EDGE('',*,*,#255,.F.);
#393=ORIENTED_EDGE('',*,*,#299,.F.);
#394=ORIENTED_EDGE('',*,*,#290,.T.);
#395=ORIENTED_EDGE('',*,*,#300,.T.);
#396=ORIENTED_EDGE('',*,*,#252,.F.);
#397=ORIENTED_EDGE('',*,*,#298,.F.);
#398=ORIENTED_EDGE('',*,*,#293,.T.);
#399=ORIENTED_EDGE('',*,*,#301,.T.);
#400=ORIENTED_EDGE('',*,*,#253,.F.);
#401=ORIENTED_EDGE('',*,*,#300,.F.);
#402=ORIENTED_EDGE('',*,*,#296,.T.);
#403=ORIENTED_EDGE('',*,*,#299,.T.);
#404=ORIENTED_EDGE('',*,*,#254,.F.);
#405=ORIENTED_EDGE('',*,*,#301,.F.);
#406=ORIENTED_EDGE('',*,*,#267,.T.);
#407=ORIENTED_EDGE('',*,*,#277,.T.);
#408=ORIENTED_EDGE('',*,*,#283,.T.);
#409=ORIENTED_EDGE('',*,*,#273,.T.);
#410=ORIENTED_EDGE('',*,*,#294,.T.);
#411=ORIENTED_EDGE('',*,*,#291,.T.);
#412=ORIENTED_EDGE('',*,*,#288,.T.);
#413=ORIENTED_EDGE('',*,*,#297,.T.);
#414=ORIENTED_EDGE('',*,*,#243,.F.);
#415=ORIENTED_EDGE('',*,*,#251,.T.);
#416=ORIENTED_EDGE('',*,*,#263,.F.);
#417=ORIENTED_EDGE('',*,*,#280,.T.);
#418=ORIENTED_EDGE('',*,*,#258,.F.);
#419=ORIENTED_EDGE('',*,*,#274,.T.);
#420=ORIENTED_EDGE('',*,*,#259,.F.);
#421=ORIENTED_EDGE('',*,*,#247,.T.);
#422=B_SPLINE_SURFACE_WITH_KNOTS('',3,3,((#575,#576,#577,#578),(#579,#580,
#581,#582),(#583,#584,#585,#586),(#587,#588,#589,#590),(#591,#592,#593,
#594),(#595,#596,#597,#598),(#599,#600,#601,#602)),.UNSPECIFIED.,.F.,.F.,
 .F.,(4,1,1,1,4),(4,4),(0.,0.285714285714286,0.571428571428571,0.714285714285714,
1.),(0.0370878713878501,12.8997243089902),.UNSPECIFIED.);
#423=B_SPLINE_SURFACE_WITH_KNOTS('',3,3,((#956,#957,#958,#959),(#960,#961,
#962,#963),(#964,#965,#966,#967),(#968,#969,#970,#971),(#972,#973,#974,
#975),(#976,#977,#978,#979),(#980,#981,#982,#983)),.UNSPECIFIED.,.F.,.F.,
 .F.,(4,1,1,1,4),(4,4),(0.,0.285714285714286,0.571428571428571,0.714285714285714,
1.),(0.0370878713878501,12.8997243089902),.UNSPECIFIED.);
#424=B_SPLINE_SURFACE_WITH_KNOTS('',3,3,((#988,#989,#990,#991),(#992,#993,
#994,#995),(#996,#997,#998,#999),(#1000,#1001,#1002,#1003),(#1004,#1005,
#1006,#1007),(#1008,#1009,#1010,#1011),(#1012,#1013,#1014,#1015)),
 .UNSPECIFIED.,.F.,.F.,.F.,(4,1,1,1,4),(4,4),(0.,0.285714285714286,0.571428571428571,
0.714285714285714,1.),(0.0370878713878469,12.8997243089902),
 .UNSPECIFIED.);
#425=B_SPLINE_SURFACE_WITH_KNOTS('',3,3,((#1032,#1033,#1034,#1035),(#1036,
#1037,#1038,#1039),(#1040,#1041,#1042,#1043),(#1044,#1045,#1046,#1047),
(#1048,#1049,#1050,#1051),(#1052,#1053,#1054,#1055),(#1056,#1057,#1058,
#1059)),.UNSPECIFIED.,.F.,.F.,.F.,(4,1,1,1,4),(4,4),(0.,0.285714285714286,
0.571428571428571,0.714285714285714,1.),(0.0370878713878497,12.8997243089902),
 .UNSPECIFIED.);
#426=ADVANCED_FACE('',(#137),#422,.T.);
#427=ADVANCED_FACE('',(#138,#15),#114,.F.);
#428=ADVANCED_FACE('',(#139),#115,.F.);
#429=ADVANCED_FACE('',(#140),#423,.T.);
#430=ADVANCED_FACE('',(#141),#424,.T.);
#431=ADVANCED_FACE('',(#142),#116,.F.);
#432=ADVANCED_FACE('',(#143),#425,.T.);
#433=ADVANCED_FACE('',(#144),#117,.F.);
#434=ADVANCED_FACE('',(#145),#118,.F.);
#435=ADVANCED_FACE('',(#146),#119,.F.);
#436=ADVANCED_FACE('',(#147),#120,.F.);
#437=ADVANCED_FACE('',(#148),#121,.F.);
#438=ADVANCED_FACE('',(#149),#122,.F.);
#439=ADVANCED_FACE('',(#150),#123,.F.);
#440=ADVANCED_FACE('',(#151,#16),#124,.F.);
#441=ADVANCED_FACE('',(#152),#125,.F.);
#442=ADVANCED_FACE('',(#153),#126,.F.);
#443=ADVANCED_FACE('',(#154),#127,.F.);
#444=ADVANCED_FACE('',(#155),#128,.F.);
#445=ADVANCED_FACE('',(#156),#129,.F.);
#446=ADVANCED_FACE('',(#157),#130,.T.);
#447=ADVANCED_FACE('',(#158),#131,.T.);
#448=ADVANCED_FACE('',(#159),#132,.T.);
#449=ADVANCED_FACE('',(#160),#133,.T.);
#450=ADVANCED_FACE('',(#161,#17),#134,.T.);
#451=ADVANCED_FACE('',(#162),#135,.F.);
#452=ADVANCED_FACE('',(#163),#136,.F.);
#453=CLOSED_SHELL('',(#426,#427,#428,#429,#430,#431,#432,#433,#434,#435,
#436,#437,#438,#439,#440,#441,#442,#443,#444,#445,#446,#447,#448,#449,#450,
#451,#452));
#454=AXIS2_PLACEMENT_3D('',#574,#478,#479);
#455=AXIS2_PLACEMENT_3D('',#693,#480,#481);
#456=AXIS2_PLACEMENT_3D('',#949,#490,#491);
#457=AXIS2_PLACEMENT_3D('',#1025,#493,#494);
#458=AXIS2_PLACEMENT_3D('',#1064,#496,#497);
#459=AXIS2_PLACEMENT_3D('',#1073,#502,#503);
#460=AXIS2_PLACEMENT_3D('',#1079,#507,#508);
#461=AXIS2_PLACEMENT_3D('',#1085,#512,#513);
#462=AXIS2_PLACEMENT_3D('',#1090,#517,#518);
#463=AXIS2_PLACEMENT_3D('',#1096,#522,#523);
#464=AXIS2_PLACEMENT_3D('',#1101,#527,#528);
#465=AXIS2_PLACEMENT_3D('',#1104,#531,#532);
#466=AXIS2_PLACEMENT_3D('',#1106,#534,#535);
#467=AXIS2_PLACEMENT_3D('',#1107,#536,#537);
#468=AXIS2_PLACEMENT_3D('',#1116,#542,#543);
#469=AXIS2_PLACEMENT_3D('',#1122,#547,#548);
#470=AXIS2_PLACEMENT_3D('',#1128,#552,#553);
#471=AXIS2_PLACEMENT_3D('',#1131,#556,#557);
#472=AXIS2_PLACEMENT_3D('',#1134,#560,#561);
#473=AXIS2_PLACEMENT_3D('',#1136,#563,#564);
#474=AXIS2_PLACEMENT_3D('',#1138,#566,#567);
#475=AXIS2_PLACEMENT_3D('',#1139,#568,#569);
#476=AXIS2_PLACEMENT_3D('',#1140,#570,#571);
#477=AXIS2_PLACEMENT_3D('',#1141,#572,#573);
#478=DIRECTION('axis',(0.,0.,1.));
#479=DIRECTION('refdir',(1.,0.,0.));
#480=DIRECTION('center_axis',(1.,-2.73691106313441E-48,3.12372578978774E-32));
#481=DIRECTION('ref_axis',(3.12372578978774E-32,0.,-1.));
#482=DIRECTION('',(0.,1.,0.));
#483=DIRECTION('',(0.,0.,-1.));
#484=DIRECTION('',(0.,-1.,0.));
#485=DIRECTION('',(0.,0.,1.));
#486=DIRECTION('',(1.38893416492538E-48,1.,4.31528562019084E-17));
#487=DIRECTION('',(-3.12372578978774E-32,-4.31528562019083E-17,1.));
#488=DIRECTION('',(-1.38893416492538E-48,-1.,-4.31528562019084E-17));
#489=DIRECTION('',(3.12372578978774E-32,4.31528562019084E-17,-1.));
#490=DIRECTION('center_axis',(-0.28,-4.1426741953832E-17,0.96));
#491=DIRECTION('ref_axis',(0.96,0.,0.28));
#492=DIRECTION('',(1.47952649835114E-16,-1.,0.));
#493=DIRECTION('center_axis',(-0.28,4.1426741953832E-17,-0.96));
#494=DIRECTION('ref_axis',(-0.96,0.,0.28));
#495=DIRECTION('',(1.47952649835114E-16,1.,0.));
#496=DIRECTION('center_axis',(0.,0.,1.));
#497=DIRECTION('ref_axis',(0.,-1.,0.));
#498=DIRECTION('',(1.,0.,0.));
#499=DIRECTION('',(0.,1.,0.));
#500=DIRECTION('',(1.,0.,0.));
#501=DIRECTION('',(0.,1.,0.));
#502=DIRECTION('center_axis',(0.,0.,-1.));
#503=DIRECTION('ref_axis',(-1.,0.,0.));
#504=DIRECTION('',(1.,0.,0.));
#505=DIRECTION('',(0.,1.,0.));
#506=DIRECTION('',(-1.,0.,0.));
#507=DIRECTION('center_axis',(0.,1.,0.));
#508=DIRECTION('ref_axis',(0.,0.,1.));
#509=DIRECTION('',(1.,0.,0.));
#510=DIRECTION('',(0.,0.,1.));
#511=DIRECTION('',(0.,0.,-1.));
#512=DIRECTION('center_axis',(0.,-1.,0.));
#513=DIRECTION('ref_axis',(0.,0.,-1.));
#514=DIRECTION('',(1.47952649835114E-16,0.,1.));
#515=DIRECTION('',(0.,0.,-1.));
#516=DIRECTION('',(-1.,0.,0.));
#517=DIRECTION('center_axis',(0.,-1.,0.));
#518=DIRECTION('ref_axis',(0.,0.,-1.));
#519=DIRECTION('',(0.,0.,1.));
#520=DIRECTION('',(0.,0.,1.));
#521=DIRECTION('',(1.,0.,0.));
#522=DIRECTION('center_axis',(0.,1.,0.));
#523=DIRECTION('ref_axis',(0.,0.,1.));
#524=DIRECTION('',(1.47952649835114E-16,0.,-1.));
#525=DIRECTION('',(1.,0.,0.));
#526=DIRECTION('',(0.,0.,1.));
#527=DIRECTION('center_axis',(0.,0.,-1.));
#528=DIRECTION('ref_axis',(0.,1.,0.));
#529=DIRECTION('',(0.,-1.,0.));
#530=DIRECTION('',(0.,1.,0.));
#531=DIRECTION('center_axis',(-1.,0.,0.));
#532=DIRECTION('ref_axis',(0.,-1.,0.));
#533=DIRECTION('',(0.,-1.,0.));
#534=DIRECTION('center_axis',(0.,0.,1.));
#535=DIRECTION('ref_axis',(1.,0.,0.));
#536=DIRECTION('center_axis',(0.,-1.,0.));
#537=DIRECTION('ref_axis',(0.,0.,1.));
#538=DIRECTION('',(-1.47952649835114E-16,0.,-1.));
#539=DIRECTION('',(-1.,0.,0.));
#540=DIRECTION('',(5.7668783811466E-32,0.,1.));
#541=DIRECTION('',(-1.,0.,0.));
#542=DIRECTION('center_axis',(0.,0.,-1.));
#543=DIRECTION('ref_axis',(0.,-1.,0.));
#544=DIRECTION('',(-1.47952649835114E-16,1.,0.));
#545=DIRECTION('',(7.68917117486213E-32,-1.,0.));
#546=DIRECTION('',(-1.,0.,0.));
#547=DIRECTION('center_axis',(0.,1.,0.));
#548=DIRECTION('ref_axis',(0.,0.,-1.));
#549=DIRECTION('',(-1.47952649835114E-16,0.,1.));
#550=DIRECTION('',(-5.7668783811466E-32,0.,-1.));
#551=DIRECTION('',(-1.,0.,0.));
#552=DIRECTION('center_axis',(0.,0.,1.));
#553=DIRECTION('ref_axis',(0.,1.,0.));
#554=DIRECTION('',(-1.47952649835114E-16,-1.,0.));
#555=DIRECTION('',(-7.68917117486213E-32,1.,0.));
#556=DIRECTION('center_axis',(-0.28,0.96,4.1426741953832E-17));
#557=DIRECTION('ref_axis',(0.,-4.31528562019084E-17,1.));
#558=DIRECTION('',(-0.924445458925615,-0.269629925519971,-0.269629925519971));
#559=DIRECTION('',(0.924445458925615,0.269629925519971,-0.269629925519971));
#560=DIRECTION('center_axis',(-0.28,-4.1426741953832E-17,0.96));
#561=DIRECTION('ref_axis',(0.96,0.,0.28));
#562=DIRECTION('',(0.924445458925615,-0.269629925519971,0.269629925519971));
#563=DIRECTION('center_axis',(-0.28,-0.96,-4.1426741953832E-17));
#564=DIRECTION('ref_axis',(0.,4.31528562019084E-17,-1.));
#565=DIRECTION('',(0.924445458925615,-0.269629925519971,-0.269629925519971));
#566=DIRECTION('center_axis',(-0.28,4.1426741953832E-17,-0.96));
#567=DIRECTION('ref_axis',(-0.96,0.,0.28));
#568=DIRECTION('center_axis',(1.,7.68917117486213E-32,-5.7668783811466E-32));
#569=DIRECTION('ref_axis',(-5.7668783811466E-32,0.,-1.));
#570=DIRECTION('center_axis',(-0.28,-0.96,-4.1426741953832E-17));
#571=DIRECTION('ref_axis',(0.,4.31528562019084E-17,-1.));
#572=DIRECTION('center_axis',(-0.28,0.96,4.1426741953832E-17));
#573=DIRECTION('ref_axis',(0.,-4.31528562019084E-17,1.));
#574=CARTESIAN_POINT('',(0.,0.,0.));
#575=CARTESIAN_POINT('Ctrl Pts',(171.657142857143,35.1,-35.1));
#576=CARTESIAN_POINT('Ctrl Pts',(131.624806990967,46.776097960968,-45.1861143714385));
#577=CARTESIAN_POINT('Ctrl Pts',(91.5924711247911,58.4521959219359,-55.272228742877));
#578=CARTESIAN_POINT('Ctrl Pts',(51.5601352586152,70.1282938829039,-65.3583431143154));
#579=CARTESIAN_POINT('Ctrl Pts',(171.657142857143,35.1,-35.1));
#580=CARTESIAN_POINT('Ctrl Pts',(131.672864275476,46.7621885855293,-45.3929753254812));
#581=CARTESIAN_POINT('Ctrl Pts',(91.689407576624,58.4238154576082,-55.6898122509587));
#582=CARTESIAN_POINT('Ctrl Pts',(51.7051289949572,70.0860040431375,-65.9827875764399));
#583=CARTESIAN_POINT('Ctrl Pts',(171.657142857143,35.1,-35.1));
#584=CARTESIAN_POINT('Ctrl Pts',(131.757301575782,46.6481382264068,-45.8460442237003));
#585=CARTESIAN_POINT('Ctrl Pts',(91.8572573434904,58.1958820634658,-56.5916679820803));
#586=CARTESIAN_POINT('Ctrl Pts',(51.9574160621298,69.7440202898725,-67.3377122057806));
#587=CARTESIAN_POINT('Ctrl Pts',(171.657142857143,35.1,-35.1));
#588=CARTESIAN_POINT('Ctrl Pts',(131.781788308601,46.2490645209286,-46.3434329671673));
#589=CARTESIAN_POINT('Ctrl Pts',(91.9061144904337,57.3975508933191,-57.5861622048242));
#590=CARTESIAN_POINT('Ctrl Pts',(52.0307599418915,68.5466154142478,-68.8295951719915));
#591=CARTESIAN_POINT('Ctrl Pts',(171.657142857143,35.1,-35.1));
#592=CARTESIAN_POINT('Ctrl Pts',(131.735514578867,45.7314758684536,-46.6752310721469));
#593=CARTESIAN_POINT('Ctrl Pts',(91.8142191462319,56.3637730079438,-58.2509772594595));
#594=CARTESIAN_POINT('Ctrl Pts',(51.8925908679556,66.9952488763974,-69.8262083316064));
#595=CARTESIAN_POINT('Ctrl Pts',(171.657142857143,35.1,-35.1));
#596=CARTESIAN_POINT('Ctrl Pts',(131.673431986401,45.3940538560693,-46.7633894329849));
#597=CARTESIAN_POINT('Ctrl Pts',(91.6888398656991,55.6887337203706,-58.4226146101526));
#598=CARTESIAN_POINT('Ctrl Pts',(51.7051289949572,65.9827875764399,-70.0860040431375));
#599=CARTESIAN_POINT('Ctrl Pts',(171.657142857143,35.1,-35.1));
#600=CARTESIAN_POINT('Ctrl Pts',(131.624806990967,45.1861143714385,-46.776097960968));
#601=CARTESIAN_POINT('Ctrl Pts',(91.5924711247911,55.272228742877,-58.4521959219359));
#602=CARTESIAN_POINT('Ctrl Pts',(51.5601352586152,65.3583431143155,-70.1282938829039));
#603=CARTESIAN_POINT('',(52.,65.2475195514736,-70.));
#604=CARTESIAN_POINT('',(52.,70.,-65.2475195514736));
#605=CARTESIAN_POINT('Ctrl Pts',(52.,65.2475195514736,-70.));
#606=CARTESIAN_POINT('Ctrl Pts',(51.9999995233537,65.3458504564487,-69.9999977476569));
#607=CARTESIAN_POINT('Ctrl Pts',(51.999989165467,65.4441334887258,-69.9969640320536));
#608=CARTESIAN_POINT('Ctrl Pts',(51.9999705397916,65.54214654792,-69.9909959473374));
#609=CARTESIAN_POINT('Ctrl Pts',(51.999951272963,65.6435335185678,-69.984822422759));
#610=CARTESIAN_POINT('Ctrl Pts',(51.9999233263275,65.7446320670408,-69.9755092449658));
#611=CARTESIAN_POINT('Ctrl Pts',(51.9998925897579,65.8452438971828,-69.9631328227958));
#612=CARTESIAN_POINT('Ctrl Pts',(51.9998591837444,65.9545937763203,-69.9496815192411));
#613=CARTESIAN_POINT('Ctrl Pts',(51.999822703034,66.063368975612,-69.932612420864));
#614=CARTESIAN_POINT('Ctrl Pts',(51.9997924176295,66.171364976159,-69.911980423167));
#615=CARTESIAN_POINT('Ctrl Pts',(51.9997624724924,66.2781476026704,-69.891580233409));
#616=CARTESIAN_POINT('Ctrl Pts',(51.999738824785,66.38416941845,-69.8676967441138));
#617=CARTESIAN_POINT('Ctrl Pts',(51.9997284403088,66.4892689615224,-69.8403387696631));
#618=CARTESIAN_POINT('Ctrl Pts',(51.9997178757691,66.5961908974129,-69.812506416593));
#619=CARTESIAN_POINT('Ctrl Pts',(51.9997212953773,66.7021591058962,-69.7810782660748));
#620=CARTESIAN_POINT('Ctrl Pts',(51.9997401854643,66.8070280714614,-69.7460156264677));
#621=CARTESIAN_POINT('Ctrl Pts',(51.9997590645908,66.9118361898976,-69.7109733309246));
#622=CARTESIAN_POINT('Ctrl Pts',(51.9997936332958,67.0155471871024,-69.6723008679808));
#623=CARTESIAN_POINT('Ctrl Pts',(51.9998358842185,67.1180274773052,-69.6299098296092));
#624=CARTESIAN_POINT('Ctrl Pts',(51.9998572098018,67.1697530212162,-69.6085135248917));
#625=CARTESIAN_POINT('Ctrl Pts',(51.9998803893589,67.2210508905424,-69.5862161907083));
#626=CARTESIAN_POINT('Ctrl Pts',(51.9999032756152,67.2719046387641,-69.5630160774851));
#627=CARTESIAN_POINT('Ctrl Pts',(51.9999479757272,67.3712292382372,-69.5177029583108));
#628=CARTESIAN_POINT('Ctrl Pts',(51.9999922339489,67.4688588272165,-69.4689494611753));
#629=CARTESIAN_POINT('Ctrl Pts',(52.0000359059798,67.5645807504664,-69.4168963228767));
#630=CARTESIAN_POINT('Ctrl Pts',(52.0000804042768,67.6621137134425,-69.3638583495672));
#631=CARTESIAN_POINT('Ctrl Pts',(52.0001244696248,67.757667048456,-69.3073944960786));
#632=CARTESIAN_POINT('Ctrl Pts',(52.000156077905,67.8510211509916,-69.2476006243718));
#633=CARTESIAN_POINT('Ctrl Pts',(52.0001879073783,67.9450285408633,-69.1873883181441));
#634=CARTESIAN_POINT('Ctrl Pts',(52.0002072695649,68.0368067613116,-69.1237989344625));
#635=CARTESIAN_POINT('Ctrl Pts',(52.0001874111284,68.1261228244595,-69.0568809849361));
#636=CARTESIAN_POINT('Ctrl Pts',(52.0001811648249,68.154216437763,-69.0358325090987));
#637=CARTESIAN_POINT('Ctrl Pts',(52.0001709212295,68.1820663319128,-69.0144543696378));
#638=CARTESIAN_POINT('Ctrl Pts',(52.0001555139449,68.2096648471554,-68.9927471450833));
#639=CARTESIAN_POINT('Ctrl Pts',(52.0001065868438,68.2973062050822,-68.9238140658917));
#640=CARTESIAN_POINT('Ctrl Pts',(52.0000069236625,68.3824149930394,-68.8515653350517));
#641=CARTESIAN_POINT('Ctrl Pts',(51.9999032375093,68.4649208728721,-68.7761820495944));
#642=CARTESIAN_POINT('Ctrl Pts',(51.9998289380111,68.5240429955545,-68.7221638407099));
#643=CARTESIAN_POINT('Ctrl Pts',(51.9997521940898,68.5818279824623,-68.6665351293578));
#644=CARTESIAN_POINT('Ctrl Pts',(51.9996847418157,68.6382387933865,-68.6093518190183));
#645=CARTESIAN_POINT('Ctrl Pts',(51.9995908411886,68.7167685477538,-68.529746664593));
#646=CARTESIAN_POINT('Ctrl Pts',(51.9995161678388,68.7922682890283,-68.4475036954564));
#647=CARTESIAN_POINT('Ctrl Pts',(51.999478864172,68.8646882227009,-68.3628228168));
#648=CARTESIAN_POINT('Ctrl Pts',(51.9994412998768,68.9376141304468,-68.2775503009115));
#649=CARTESIAN_POINT('Ctrl Pts',(51.9994415813113,69.0074175762451,-68.189804967041));
#650=CARTESIAN_POINT('Ctrl Pts',(51.9994809057773,69.0740106609296,-68.0997584207733));
#651=CARTESIAN_POINT('Ctrl Pts',(51.9995198054328,69.1398843601762,-68.0106846207663));
#652=CARTESIAN_POINT('Ctrl Pts',(51.9995968229169,69.2026171049567,-67.9193582921559));
#653=CARTESIAN_POINT('Ctrl Pts',(51.9996972975632,69.2620807665107,-67.8259250704055));
#654=CARTESIAN_POINT('Ctrl Pts',(51.9997943227159,69.3195029227889,-67.7356995962132));
#655=CARTESIAN_POINT('Ctrl Pts',(51.9999130998201,69.3738768108665,-67.6435087224778));
#656=CARTESIAN_POINT('Ctrl Pts',(52.0000271995555,69.4250424814613,-67.5494750548334));
#657=CARTESIAN_POINT('Ctrl Pts',(52.0001370708486,69.4743119943576,-67.4589261976242));
#658=CARTESIAN_POINT('Ctrl Pts',(52.0002425027933,69.5206068048251,-67.3666680566667));
#659=CARTESIAN_POINT('Ctrl Pts',(52.0003090232542,69.5637397033779,-67.2728108396929));
#660=CARTESIAN_POINT('Ctrl Pts',(52.0003407596132,69.584318050789,-67.2280323415459));
#661=CARTESIAN_POINT('Ctrl Pts',(52.0003634654385,69.6041759390335,-67.1828899260885));
#662=CARTESIAN_POINT('Ctrl Pts',(52.0003794896048,69.6233163706496,-67.1373966898029));
#663=CARTESIAN_POINT('Ctrl Pts',(52.0004155076529,69.6663389511491,-67.0351400396115));
#664=CARTESIAN_POINT('Ctrl Pts',(52.0004179672132,69.7055539001026,-66.9315544307139));
#665=CARTESIAN_POINT('Ctrl Pts',(52.0004062505586,69.7410726280876,-66.8267962014031));
#666=CARTESIAN_POINT('Ctrl Pts',(52.000394563117,69.7765027977014,-66.7222991643898));
#667=CARTESIAN_POINT('Ctrl Pts',(52.0003685010161,69.8082549695226,-66.6166344521223));
#668=CARTESIAN_POINT('Ctrl Pts',(52.0003378253055,69.836390392777,-66.5099685176172));
#669=CARTESIAN_POINT('Ctrl Pts',(52.0003081719345,69.8635881374254,-66.4068574741785));
#670=CARTESIAN_POINT('Ctrl Pts',(52.0002739365254,69.8874058182046,-66.3028101165091));
#671=CARTESIAN_POINT('Ctrl Pts',(52.0002390699376,69.9078570555618,-66.1979989717285));
#672=CARTESIAN_POINT('Ctrl Pts',(52.0002051747553,69.9277385082608,-66.0961079330166));
#673=CARTESIAN_POINT('Ctrl Pts',(52.0001704562094,69.9444382112942,-65.9934944383881));
#674=CARTESIAN_POINT('Ctrl Pts',(52.000137439661,69.9579331798841,-65.8903480568903));
#675=CARTESIAN_POINT('Ctrl Pts',(52.000105433502,69.9710151685045,-65.7903582140092));
#676=CARTESIAN_POINT('Ctrl Pts',(52.0000748314493,69.9810853197601,-65.6898670638709));
#677=CARTESIAN_POINT('Ctrl Pts',(52.0000499216817,69.9880926521637,-65.5890853222382));
#678=CARTESIAN_POINT('Ctrl Pts',(52.0000260872036,69.9947974963411,-65.4926540649981));
#679=CARTESIAN_POINT('Ctrl Pts',(52.0000073122428,69.9986979847317,-65.3959564102816));
#680=CARTESIAN_POINT('Ctrl Pts',(52.0000016602791,69.9997252115086,-65.2992184851215));
#681=CARTESIAN_POINT('Ctrl Pts',(52.0000006534731,69.999908195358,-65.2819861871293));
#682=CARTESIAN_POINT('Ctrl Pts',(52.0000000779067,69.9999999467549,-65.2647527298903));
#683=CARTESIAN_POINT('Ctrl Pts',(52.,70.,-65.2475195514736));
#684=CARTESIAN_POINT('',(171.657142857143,35.1,-35.1));
#685=CARTESIAN_POINT('Ctrl Pts',(52.,70.,-65.2475195514736));
#686=CARTESIAN_POINT('Ctrl Pts',(91.8857142857143,58.3666666666667,-55.1983463676491));
#687=CARTESIAN_POINT('Ctrl Pts',(131.771428571429,46.7333333333333,-45.1491731838245));
#688=CARTESIAN_POINT('Ctrl Pts',(171.657142857143,35.1,-35.1));
#689=CARTESIAN_POINT('Ctrl Pts',(171.657142857143,35.1,-35.1));
#690=CARTESIAN_POINT('Ctrl Pts',(131.771428571429,45.1491731838246,-46.7333333333333));
#691=CARTESIAN_POINT('Ctrl Pts',(91.8857142857143,55.1983463676491,-58.3666666666667));
#692=CARTESIAN_POINT('Ctrl Pts',(52.,65.2475195514736,-70.));
#693=CARTESIAN_POINT('Origin',(52.,0.,-1.00929365875014E-15));
#694=CARTESIAN_POINT('',(52.,-65.2475195514736,-70.));
#695=CARTESIAN_POINT('',(52.,70.,-70.));
#696=CARTESIAN_POINT('',(52.,-70.,-65.2475195514736));
#697=CARTESIAN_POINT('Ctrl Pts',(52.,-70.,-65.2475195514736));
#698=CARTESIAN_POINT('Ctrl Pts',(51.9999995233537,-69.9999977476569,-65.3458504564488));
#699=CARTESIAN_POINT('Ctrl Pts',(51.999989165467,-69.9969640320537,-65.4441334887259));
#700=CARTESIAN_POINT('Ctrl Pts',(51.9999705397916,-69.9909959473375,-65.5421465479203));
#701=CARTESIAN_POINT('Ctrl Pts',(51.999951272963,-69.984822422759,-65.6435335185676));
#702=CARTESIAN_POINT('Ctrl Pts',(51.9999233263274,-69.9755092449659,-65.74463206704));
#703=CARTESIAN_POINT('Ctrl Pts',(51.9998925897579,-69.963132822796,-65.8452438971814));
#704=CARTESIAN_POINT('Ctrl Pts',(51.9998591837443,-69.9496815192413,-65.9545937763191));
#705=CARTESIAN_POINT('Ctrl Pts',(51.9998227030341,-69.9326124208642,-66.0633689756108));
#706=CARTESIAN_POINT('Ctrl Pts',(51.9997924176295,-69.9119804231672,-66.171364976158));
#707=CARTESIAN_POINT('Ctrl Pts',(51.9997624724924,-69.8915802334091,-66.27814760267));
#708=CARTESIAN_POINT('Ctrl Pts',(51.999738824785,-69.8676967441137,-66.3841694184501));
#709=CARTESIAN_POINT('Ctrl Pts',(51.9997284403088,-69.8403387696629,-66.4892689615231));
#710=CARTESIAN_POINT('Ctrl Pts',(51.9997178757691,-69.8125064165927,-66.5961908974138));
#711=CARTESIAN_POINT('Ctrl Pts',(51.9997212953773,-69.7810782660745,-66.7021591058972));
#712=CARTESIAN_POINT('Ctrl Pts',(51.9997401854642,-69.7460156264672,-66.8070280714626));
#713=CARTESIAN_POINT('Ctrl Pts',(51.9997590645908,-69.7109733309242,-66.9118361898985));
#714=CARTESIAN_POINT('Ctrl Pts',(51.9997936332958,-69.6723008679806,-67.0155471871028));
#715=CARTESIAN_POINT('Ctrl Pts',(51.9998358842185,-69.6299098296092,-67.1180274773053));
#716=CARTESIAN_POINT('Ctrl Pts',(51.9998572098017,-69.6085135248916,-67.1697530212163));
#717=CARTESIAN_POINT('Ctrl Pts',(51.9998803893589,-69.5862161907083,-67.2210508905424));
#718=CARTESIAN_POINT('Ctrl Pts',(51.9999032756152,-69.563016077485,-67.2719046387641));
#719=CARTESIAN_POINT('Ctrl Pts',(51.9999479757272,-69.5177029583107,-67.3712292382374));
#720=CARTESIAN_POINT('Ctrl Pts',(51.9999922339489,-69.468949461175,-67.468858827217));
#721=CARTESIAN_POINT('Ctrl Pts',(52.0000359059798,-69.4168963228763,-67.5645807504672));
#722=CARTESIAN_POINT('Ctrl Pts',(52.0000804042768,-69.3638583495664,-67.6621137134438));
#723=CARTESIAN_POINT('Ctrl Pts',(52.0001244696248,-69.3073944960775,-67.7576670484579));
#724=CARTESIAN_POINT('Ctrl Pts',(52.000156077905,-69.2476006243702,-67.8510211509941));
#725=CARTESIAN_POINT('Ctrl Pts',(52.0001879073783,-69.1873883181425,-67.9450285408656));
#726=CARTESIAN_POINT('Ctrl Pts',(52.0002072695649,-69.1237989344609,-68.0368067613138));
#727=CARTESIAN_POINT('Ctrl Pts',(52.0001874111283,-69.0568809849345,-68.1261228244615));
#728=CARTESIAN_POINT('Ctrl Pts',(52.0001811648249,-69.0358325090976,-68.1542164377643));
#729=CARTESIAN_POINT('Ctrl Pts',(52.0001709212295,-69.0144543696372,-68.1820663319135));
#730=CARTESIAN_POINT('Ctrl Pts',(52.0001555139449,-68.9927471450832,-68.2096648471553));
#731=CARTESIAN_POINT('Ctrl Pts',(52.0001065868437,-68.9238140658916,-68.2973062050823));
#732=CARTESIAN_POINT('Ctrl Pts',(52.0000069236625,-68.8515653350516,-68.3824149930394));
#733=CARTESIAN_POINT('Ctrl Pts',(51.9999032375092,-68.7761820495943,-68.4649208728722));
#734=CARTESIAN_POINT('Ctrl Pts',(51.999828938011,-68.7221638407098,-68.5240429955545));
#735=CARTESIAN_POINT('Ctrl Pts',(51.9997521940897,-68.6665351293577,-68.5818279824624));
#736=CARTESIAN_POINT('Ctrl Pts',(51.9996847418156,-68.6093518190181,-68.6382387933866));
#737=CARTESIAN_POINT('Ctrl Pts',(51.9995908411886,-68.5297466645928,-68.716768547754));
#738=CARTESIAN_POINT('Ctrl Pts',(51.9995161678388,-68.4475036954561,-68.7922682890285));
#739=CARTESIAN_POINT('Ctrl Pts',(51.9994788641719,-68.3628228167996,-68.8646882227012));
#740=CARTESIAN_POINT('Ctrl Pts',(51.9994412998767,-68.2775503009111,-68.9376141304471));
#741=CARTESIAN_POINT('Ctrl Pts',(51.9994415813113,-68.1898049670405,-69.0074175762454));
#742=CARTESIAN_POINT('Ctrl Pts',(51.9994809057773,-68.0997584207727,-69.0740106609299));
#743=CARTESIAN_POINT('Ctrl Pts',(51.9995198054328,-68.0106846207656,-69.1398843601766));
#744=CARTESIAN_POINT('Ctrl Pts',(51.9995968229168,-67.9193582921551,-69.2026171049572));
#745=CARTESIAN_POINT('Ctrl Pts',(51.9996972975631,-67.8259250704045,-69.2620807665113));
#746=CARTESIAN_POINT('Ctrl Pts',(51.9997943227159,-67.7356995962119,-69.3195029227896));
#747=CARTESIAN_POINT('Ctrl Pts',(51.9999130998201,-67.6435087224763,-69.3738768108673));
#748=CARTESIAN_POINT('Ctrl Pts',(52.0000271995556,-67.5494750548317,-69.4250424814622));
#749=CARTESIAN_POINT('Ctrl Pts',(52.0001370708486,-67.458926197623,-69.4743119943582));
#750=CARTESIAN_POINT('Ctrl Pts',(52.0002425027933,-67.3666680566661,-69.5206068048253));
#751=CARTESIAN_POINT('Ctrl Pts',(52.0003090232542,-67.2728108396929,-69.5637397033779));
#752=CARTESIAN_POINT('Ctrl Pts',(52.0003407596132,-67.2280323415458,-69.584318050789));
#753=CARTESIAN_POINT('Ctrl Pts',(52.0003634654385,-67.1828899260884,-69.6041759390335));
#754=CARTESIAN_POINT('Ctrl Pts',(52.0003794896049,-67.1373966898027,-69.6233163706496));
#755=CARTESIAN_POINT('Ctrl Pts',(52.000415507653,-67.0351400396118,-69.6663389511489));
#756=CARTESIAN_POINT('Ctrl Pts',(52.0004179672132,-66.9315544307148,-69.7055539001022));
#757=CARTESIAN_POINT('Ctrl Pts',(52.0004062505586,-66.8267962014045,-69.7410726280871));
#758=CARTESIAN_POINT('Ctrl Pts',(52.000394563117,-66.7222991643906,-69.7765027977011));
#759=CARTESIAN_POINT('Ctrl Pts',(52.0003685010161,-66.6166344521227,-69.8082549695224));
#760=CARTESIAN_POINT('Ctrl Pts',(52.0003378253055,-66.5099685176171,-69.836390392777));
#761=CARTESIAN_POINT('Ctrl Pts',(52.0003081719345,-66.4068574741783,-69.8635881374254));
#762=CARTESIAN_POINT('Ctrl Pts',(52.0002739365254,-66.302810116509,-69.8874058182046));
#763=CARTESIAN_POINT('Ctrl Pts',(52.0002390699376,-66.1979989717284,-69.9078570555618));
#764=CARTESIAN_POINT('Ctrl Pts',(52.0002051747553,-66.0961079330166,-69.9277385082608));
#765=CARTESIAN_POINT('Ctrl Pts',(52.0001704562094,-65.9934944383883,-69.9444382112942));
#766=CARTESIAN_POINT('Ctrl Pts',(52.000137439661,-65.8903480568906,-69.9579331798841));
#767=CARTESIAN_POINT('Ctrl Pts',(52.0001054335021,-65.7903582140099,-69.9710151685044));
#768=CARTESIAN_POINT('Ctrl Pts',(52.0000748314493,-65.6898670638719,-69.98108531976));
#769=CARTESIAN_POINT('Ctrl Pts',(52.0000499216817,-65.5890853222395,-69.9880926521636));
#770=CARTESIAN_POINT('Ctrl Pts',(52.0000260872037,-65.4926540649995,-69.9947974963411));
#771=CARTESIAN_POINT('Ctrl Pts',(52.0000073122429,-65.395956410283,-69.9986979847317));
#772=CARTESIAN_POINT('Ctrl Pts',(52.0000016602792,-65.2992184851229,-69.9997252115086));
#773=CARTESIAN_POINT('Ctrl Pts',(52.0000006534732,-65.2819861871303,-69.999908195358));
#774=CARTESIAN_POINT('Ctrl Pts',(52.0000000779067,-65.2647527298907,-69.9999999467549));
#775=CARTESIAN_POINT('Ctrl Pts',(52.,-65.2475195514736,-70.));
#776=CARTESIAN_POINT('',(52.,-70.,65.2475195514736));
#777=CARTESIAN_POINT('',(52.,-70.,-70.));
#778=CARTESIAN_POINT('',(52.,-65.2475195514736,70.));
#779=CARTESIAN_POINT('Ctrl Pts',(52.,-65.2475195514736,70.));
#780=CARTESIAN_POINT('Ctrl Pts',(51.9999995233537,-65.345850456449,69.9999977476569));
#781=CARTESIAN_POINT('Ctrl Pts',(51.999989165467,-65.4441334887262,69.9969640320536));
#782=CARTESIAN_POINT('Ctrl Pts',(51.9999705397916,-65.5421465479207,69.9909959473374));
#783=CARTESIAN_POINT('Ctrl Pts',(51.999951272963,-65.6435335185688,69.9848224227589));
#784=CARTESIAN_POINT('Ctrl Pts',(51.9999233263274,-65.7446320670421,69.9755092449657));
#785=CARTESIAN_POINT('Ctrl Pts',(51.9998925897579,-65.8452438971844,69.9631328227956));
#786=CARTESIAN_POINT('Ctrl Pts',(51.9998591837443,-65.9545937763218,69.9496815192408));
#787=CARTESIAN_POINT('Ctrl Pts',(51.9998227030341,-66.0633689756133,69.9326124208638));
#788=CARTESIAN_POINT('Ctrl Pts',(51.9997924176295,-66.1713649761602,69.9119804231668));
#789=CARTESIAN_POINT('Ctrl Pts',(51.9997624724924,-66.2781476026719,69.8915802334087));
#790=CARTESIAN_POINT('Ctrl Pts',(51.999738824785,-66.3841694184517,69.8676967441133));
#791=CARTESIAN_POINT('Ctrl Pts',(51.9997284403088,-66.4892689615244,69.8403387696626));
#792=CARTESIAN_POINT('Ctrl Pts',(51.9997178757691,-66.5961908974149,69.8125064165923));
#793=CARTESIAN_POINT('Ctrl Pts',(51.9997212953772,-66.7021591058982,69.7810782660741));
#794=CARTESIAN_POINT('Ctrl Pts',(51.9997401854642,-66.8070280714635,69.7460156264669));
#795=CARTESIAN_POINT('Ctrl Pts',(51.9997590645908,-66.9118361898991,69.710973330924));
#796=CARTESIAN_POINT('Ctrl Pts',(51.9997936332958,-67.0155471871031,69.6723008679805));
#797=CARTESIAN_POINT('Ctrl Pts',(51.9998358842185,-67.1180274773053,69.6299098296092));
#798=CARTESIAN_POINT('Ctrl Pts',(51.9998572098017,-67.1697530212162,69.6085135248917));
#799=CARTESIAN_POINT('Ctrl Pts',(51.9998803893588,-67.2210508905424,69.5862161907083));
#800=CARTESIAN_POINT('Ctrl Pts',(51.9999032756152,-67.2719046387641,69.563016077485));
#801=CARTESIAN_POINT('Ctrl Pts',(51.9999479757272,-67.3712292382372,69.5177029583108));
#802=CARTESIAN_POINT('Ctrl Pts',(51.9999922339489,-67.4688588272166,69.4689494611753));
#803=CARTESIAN_POINT('Ctrl Pts',(52.0000359059798,-67.5645807504666,69.4168963228766));
#804=CARTESIAN_POINT('Ctrl Pts',(52.0000804042768,-67.662113713443,69.3638583495669));
#805=CARTESIAN_POINT('Ctrl Pts',(52.0001244696249,-67.7576670484568,69.3073944960781));
#806=CARTESIAN_POINT('Ctrl Pts',(52.0001560779051,-67.8510211509928,69.247600624371));
#807=CARTESIAN_POINT('Ctrl Pts',(52.0001879073784,-67.9450285408646,69.1873883181433));
#808=CARTESIAN_POINT('Ctrl Pts',(52.0002072695649,-68.036806761313,69.1237989344615));
#809=CARTESIAN_POINT('Ctrl Pts',(52.0001874111284,-68.1261228244609,69.056880984935));
#810=CARTESIAN_POINT('Ctrl Pts',(52.0001811648249,-68.1542164377639,69.035832509098));
#811=CARTESIAN_POINT('Ctrl Pts',(52.0001709212296,-68.1820663319133,69.0144543696374));
#812=CARTESIAN_POINT('Ctrl Pts',(52.0001555139449,-68.2096648471554,68.9927471450833));
#813=CARTESIAN_POINT('Ctrl Pts',(52.0001065868438,-68.2973062050822,68.9238140658917));
#814=CARTESIAN_POINT('Ctrl Pts',(52.0000069236626,-68.3824149930393,68.8515653350518));
#815=CARTESIAN_POINT('Ctrl Pts',(51.9999032375093,-68.464920872872,68.7761820495945));
#816=CARTESIAN_POINT('Ctrl Pts',(51.9998289380111,-68.5240429955544,68.7221638407099));
#817=CARTESIAN_POINT('Ctrl Pts',(51.9997521940898,-68.5818279824623,68.6665351293578));
#818=CARTESIAN_POINT('Ctrl Pts',(51.9996847418157,-68.6382387933865,68.6093518190182));
#819=CARTESIAN_POINT('Ctrl Pts',(51.9995908411887,-68.7167685477543,68.5297466645926));
#820=CARTESIAN_POINT('Ctrl Pts',(51.9995161678388,-68.7922682890291,68.4475036954556));
#821=CARTESIAN_POINT('Ctrl Pts',(51.999478864172,-68.864688222702,68.3628228167987));
#822=CARTESIAN_POINT('Ctrl Pts',(51.9994412998768,-68.9376141304476,68.2775503009104));
#823=CARTESIAN_POINT('Ctrl Pts',(51.9994415813113,-69.0074175762457,68.1898049670401));
#824=CARTESIAN_POINT('Ctrl Pts',(51.9994809057774,-69.07401066093,68.0997584207727));
#825=CARTESIAN_POINT('Ctrl Pts',(51.9995198054328,-69.1398843601765,68.0106846207657));
#826=CARTESIAN_POINT('Ctrl Pts',(51.9995968229169,-69.202617104957,67.9193582921554));
#827=CARTESIAN_POINT('Ctrl Pts',(51.9996972975632,-69.262080766511,67.8259250704049));
#828=CARTESIAN_POINT('Ctrl Pts',(51.9997943227159,-69.3195029227892,67.7356995962126));
#829=CARTESIAN_POINT('Ctrl Pts',(51.9999130998202,-69.3738768108668,67.6435087224773));
#830=CARTESIAN_POINT('Ctrl Pts',(52.0000271995556,-69.4250424814616,67.5494750548329));
#831=CARTESIAN_POINT('Ctrl Pts',(52.0001370708486,-69.4743119943578,67.4589261976239));
#832=CARTESIAN_POINT('Ctrl Pts',(52.0002425027933,-69.5206068048252,67.3666680566665));
#833=CARTESIAN_POINT('Ctrl Pts',(52.0003090232542,-69.5637397033779,67.2728108396929));
#834=CARTESIAN_POINT('Ctrl Pts',(52.0003407596132,-69.584318050789,67.2280323415458));
#835=CARTESIAN_POINT('Ctrl Pts',(52.0003634654385,-69.6041759390335,67.1828899260885));
#836=CARTESIAN_POINT('Ctrl Pts',(52.0003794896049,-69.6233163706496,67.1373966898028));
#837=CARTESIAN_POINT('Ctrl Pts',(52.000415507653,-69.666338951149,67.0351400396116));
#838=CARTESIAN_POINT('Ctrl Pts',(52.0004179672132,-69.7055539001024,66.9315544307144));
#839=CARTESIAN_POINT('Ctrl Pts',(52.0004062505586,-69.7410726280874,66.8267962014039));
#840=CARTESIAN_POINT('Ctrl Pts',(52.000394563117,-69.7765027977012,66.7222991643902));
#841=CARTESIAN_POINT('Ctrl Pts',(52.0003685010161,-69.8082549695225,66.6166344521225));
#842=CARTESIAN_POINT('Ctrl Pts',(52.0003378253054,-69.836390392777,66.5099685176172));
#843=CARTESIAN_POINT('Ctrl Pts',(52.0003081719344,-69.8635881374254,66.4068574741784));
#844=CARTESIAN_POINT('Ctrl Pts',(52.0002739365255,-69.8874058182045,66.3028101165091));
#845=CARTESIAN_POINT('Ctrl Pts',(52.0002390699376,-69.9078570555618,66.1979989717285));
#846=CARTESIAN_POINT('Ctrl Pts',(52.0002051747554,-69.9277385082607,66.0961079330168));
#847=CARTESIAN_POINT('Ctrl Pts',(52.0001704562094,-69.9444382112942,65.9934944383886));
#848=CARTESIAN_POINT('Ctrl Pts',(52.000137439661,-69.957933179884,65.8903480568909));
#849=CARTESIAN_POINT('Ctrl Pts',(52.000105433502,-69.9710151685044,65.7903582140098));
#850=CARTESIAN_POINT('Ctrl Pts',(52.0000748314493,-69.9810853197601,65.6898670638714));
#851=CARTESIAN_POINT('Ctrl Pts',(52.0000499216817,-69.9880926521637,65.5890853222385));
#852=CARTESIAN_POINT('Ctrl Pts',(52.0000260872036,-69.9947974963411,65.4926540649984));
#853=CARTESIAN_POINT('Ctrl Pts',(52.0000073122428,-69.9986979847317,65.3959564102817));
#854=CARTESIAN_POINT('Ctrl Pts',(52.0000016602791,-69.9997252115086,65.2992184851216));
#855=CARTESIAN_POINT('Ctrl Pts',(52.0000006534732,-69.999908195358,65.2819861871294));
#856=CARTESIAN_POINT('Ctrl Pts',(52.0000000779067,-69.9999999467549,65.2647527298903));
#857=CARTESIAN_POINT('Ctrl Pts',(52.,-70.,65.2475195514736));
#858=CARTESIAN_POINT('',(52.,65.2475195514736,70.));
#859=CARTESIAN_POINT('',(52.,-70.,70.));
#860=CARTESIAN_POINT('',(52.,70.,65.2475195514736));
#861=CARTESIAN_POINT('Ctrl Pts',(52.,70.,65.2475195514736));
#862=CARTESIAN_POINT('Ctrl Pts',(51.9999995233537,69.9999977476569,65.3458504564488));
#863=CARTESIAN_POINT('Ctrl Pts',(51.999989165467,69.9969640320537,65.4441334887259));
#864=CARTESIAN_POINT('Ctrl Pts',(51.9999705397916,69.9909959473375,65.5421465479203));
#865=CARTESIAN_POINT('Ctrl Pts',(51.999951272963,69.984822422759,65.6435335185676));
#866=CARTESIAN_POINT('Ctrl Pts',(51.9999233263274,69.9755092449659,65.74463206704));
#867=CARTESIAN_POINT('Ctrl Pts',(51.9998925897579,69.963132822796,65.8452438971814));
#868=CARTESIAN_POINT('Ctrl Pts',(51.9998591837443,69.9496815192413,65.9545937763191));
#869=CARTESIAN_POINT('Ctrl Pts',(51.9998227030341,69.9326124208642,66.0633689756108));
#870=CARTESIAN_POINT('Ctrl Pts',(51.9997924176295,69.9119804231672,66.171364976158));
#871=CARTESIAN_POINT('Ctrl Pts',(51.9997624724924,69.8915802334091,66.27814760267));
#872=CARTESIAN_POINT('Ctrl Pts',(51.999738824785,69.8676967441137,66.3841694184501));
#873=CARTESIAN_POINT('Ctrl Pts',(51.9997284403088,69.8403387696629,66.4892689615231));
#874=CARTESIAN_POINT('Ctrl Pts',(51.9997178757691,69.8125064165927,66.5961908974138));
#875=CARTESIAN_POINT('Ctrl Pts',(51.9997212953773,69.7810782660745,66.7021591058972));
#876=CARTESIAN_POINT('Ctrl Pts',(51.9997401854642,69.7460156264672,66.8070280714626));
#877=CARTESIAN_POINT('Ctrl Pts',(51.9997590645908,69.7109733309242,66.9118361898985));
#878=CARTESIAN_POINT('Ctrl Pts',(51.9997936332958,69.6723008679806,67.0155471871028));
#879=CARTESIAN_POINT('Ctrl Pts',(51.9998358842185,69.6299098296092,67.1180274773053));
#880=CARTESIAN_POINT('Ctrl Pts',(51.9998572098017,69.6085135248916,67.1697530212163));
#881=CARTESIAN_POINT('Ctrl Pts',(51.9998803893589,69.5862161907083,67.2210508905424));
#882=CARTESIAN_POINT('Ctrl Pts',(51.9999032756152,69.563016077485,67.2719046387641));
#883=CARTESIAN_POINT('Ctrl Pts',(51.9999479757272,69.5177029583107,67.3712292382374));
#884=CARTESIAN_POINT('Ctrl Pts',(51.9999922339489,69.468949461175,67.468858827217));
#885=CARTESIAN_POINT('Ctrl Pts',(52.0000359059798,69.4168963228763,67.5645807504672));
#886=CARTESIAN_POINT('Ctrl Pts',(52.0000804042768,69.3638583495664,67.6621137134438));
#887=CARTESIAN_POINT('Ctrl Pts',(52.0001244696248,69.3073944960775,67.7576670484579));
#888=CARTESIAN_POINT('Ctrl Pts',(52.000156077905,69.2476006243702,67.8510211509941));
#889=CARTESIAN_POINT('Ctrl Pts',(52.0001879073783,69.1873883181425,67.9450285408656));
#890=CARTESIAN_POINT('Ctrl Pts',(52.0002072695649,69.1237989344609,68.0368067613138));
#891=CARTESIAN_POINT('Ctrl Pts',(52.0001874111283,69.0568809849345,68.1261228244615));
#892=CARTESIAN_POINT('Ctrl Pts',(52.0001811648249,69.0358325090976,68.1542164377643));
#893=CARTESIAN_POINT('Ctrl Pts',(52.0001709212295,69.0144543696372,68.1820663319135));
#894=CARTESIAN_POINT('Ctrl Pts',(52.0001555139449,68.9927471450832,68.2096648471553));
#895=CARTESIAN_POINT('Ctrl Pts',(52.0001065868437,68.9238140658916,68.2973062050823));
#896=CARTESIAN_POINT('Ctrl Pts',(52.0000069236625,68.8515653350516,68.3824149930394));
#897=CARTESIAN_POINT('Ctrl Pts',(51.9999032375092,68.7761820495943,68.4649208728722));
#898=CARTESIAN_POINT('Ctrl Pts',(51.999828938011,68.7221638407098,68.5240429955545));
#899=CARTESIAN_POINT('Ctrl Pts',(51.9997521940897,68.6665351293577,68.5818279824624));
#900=CARTESIAN_POINT('Ctrl Pts',(51.9996847418156,68.6093518190181,68.6382387933866));
#901=CARTESIAN_POINT('Ctrl Pts',(51.9995908411886,68.5297466645928,68.716768547754));
#902=CARTESIAN_POINT('Ctrl Pts',(51.9995161678388,68.4475036954561,68.7922682890285));
#903=CARTESIAN_POINT('Ctrl Pts',(51.9994788641719,68.3628228167996,68.8646882227012));
#904=CARTESIAN_POINT('Ctrl Pts',(51.9994412998767,68.2775503009111,68.9376141304471));
#905=CARTESIAN_POINT('Ctrl Pts',(51.9994415813113,68.1898049670405,69.0074175762454));
#906=CARTESIAN_POINT('Ctrl Pts',(51.9994809057773,68.0997584207727,69.0740106609299));
#907=CARTESIAN_POINT('Ctrl Pts',(51.9995198054328,68.0106846207656,69.1398843601766));
#908=CARTESIAN_POINT('Ctrl Pts',(51.9995968229168,67.9193582921551,69.2026171049572));
#909=CARTESIAN_POINT('Ctrl Pts',(51.9996972975631,67.8259250704045,69.2620807665113));
#910=CARTESIAN_POINT('Ctrl Pts',(51.9997943227159,67.7356995962119,69.3195029227896));
#911=CARTESIAN_POINT('Ctrl Pts',(51.9999130998201,67.6435087224763,69.3738768108673));
#912=CARTESIAN_POINT('Ctrl Pts',(52.0000271995556,67.5494750548317,69.4250424814622));
#913=CARTESIAN_POINT('Ctrl Pts',(52.0001370708486,67.458926197623,69.4743119943582));
#914=CARTESIAN_POINT('Ctrl Pts',(52.0002425027933,67.3666680566661,69.5206068048253));
#915=CARTESIAN_POINT('Ctrl Pts',(52.0003090232542,67.2728108396929,69.5637397033779));
#916=CARTESIAN_POINT('Ctrl Pts',(52.0003407596132,67.2280323415458,69.584318050789));
#917=CARTESIAN_POINT('Ctrl Pts',(52.0003634654385,67.1828899260884,69.6041759390335));
#918=CARTESIAN_POINT('Ctrl Pts',(52.0003794896049,67.1373966898027,69.6233163706496));
#919=CARTESIAN_POINT('Ctrl Pts',(52.000415507653,67.0351400396118,69.6663389511489));
#920=CARTESIAN_POINT('Ctrl Pts',(52.0004179672132,66.9315544307148,69.7055539001022));
#921=CARTESIAN_POINT('Ctrl Pts',(52.0004062505586,66.8267962014045,69.7410726280871));
#922=CARTESIAN_POINT('Ctrl Pts',(52.000394563117,66.7222991643906,69.7765027977011));
#923=CARTESIAN_POINT('Ctrl Pts',(52.0003685010161,66.6166344521227,69.8082549695224));
#924=CARTESIAN_POINT('Ctrl Pts',(52.0003378253055,66.5099685176171,69.836390392777));
#925=CARTESIAN_POINT('Ctrl Pts',(52.0003081719345,66.4068574741783,69.8635881374254));
#926=CARTESIAN_POINT('Ctrl Pts',(52.0002739365254,66.302810116509,69.8874058182046));
#927=CARTESIAN_POINT('Ctrl Pts',(52.0002390699376,66.1979989717284,69.9078570555618));
#928=CARTESIAN_POINT('Ctrl Pts',(52.0002051747553,66.0961079330166,69.9277385082608));
#929=CARTESIAN_POINT('Ctrl Pts',(52.0001704562094,65.9934944383883,69.9444382112942));
#930=CARTESIAN_POINT('Ctrl Pts',(52.000137439661,65.8903480568906,69.9579331798841));
#931=CARTESIAN_POINT('Ctrl Pts',(52.0001054335021,65.7903582140099,69.9710151685044));
#932=CARTESIAN_POINT('Ctrl Pts',(52.0000748314493,65.6898670638719,69.98108531976));
#933=CARTESIAN_POINT('Ctrl Pts',(52.0000499216817,65.5890853222395,69.9880926521636));
#934=CARTESIAN_POINT('Ctrl Pts',(52.0000260872037,65.4926540649995,69.9947974963411));
#935=CARTESIAN_POINT('Ctrl Pts',(52.0000073122429,65.395956410283,69.9986979847317));
#936=CARTESIAN_POINT('Ctrl Pts',(52.0000016602792,65.2992184851229,69.9997252115086));
#937=CARTESIAN_POINT('Ctrl Pts',(52.0000006534732,65.2819861871303,69.999908195358));
#938=CARTESIAN_POINT('Ctrl Pts',(52.0000000779067,65.2647527298907,69.9999999467549));
#939=CARTESIAN_POINT('Ctrl Pts',(52.,65.2475195514736,70.));
#940=CARTESIAN_POINT('',(52.,70.,70.));
#941=CARTESIAN_POINT('',(52.,-60.1041666666667,-60.1041666666667));
#942=CARTESIAN_POINT('',(52.,60.1041666666667,-60.1041666666667));
#943=CARTESIAN_POINT('',(52.,-17.5,-60.1041666666667));
#944=CARTESIAN_POINT('',(52.,60.1041666666667,60.1041666666667));
#945=CARTESIAN_POINT('',(52.,60.1041666666667,-17.5));
#946=CARTESIAN_POINT('',(52.,-60.1041666666667,60.1041666666667));
#947=CARTESIAN_POINT('',(52.,17.5,60.1041666666667));
#948=CARTESIAN_POINT('',(52.,-60.1041666666667,17.5));
#949=CARTESIAN_POINT('Origin',(172.,-35.,-35.));
#950=CARTESIAN_POINT('',(171.657142857143,-35.1,-35.1));
#951=CARTESIAN_POINT('',(171.657142857143,2.32497021169479E-17,-35.1));
#952=CARTESIAN_POINT('Ctrl Pts',(52.,-65.2475195514736,-70.));
#953=CARTESIAN_POINT('Ctrl Pts',(91.8857142857143,-55.1983463676491,-58.3666666666667));
#954=CARTESIAN_POINT('Ctrl Pts',(131.771428571429,-45.1491731838245,-46.7333333333333));
#955=CARTESIAN_POINT('Ctrl Pts',(171.657142857143,-35.1,-35.1));
#956=CARTESIAN_POINT('Ctrl Pts',(171.657142857143,-35.1,-35.1));
#957=CARTESIAN_POINT('Ctrl Pts',(131.624806990967,-45.1861143714385,-46.776097960968));
#958=CARTESIAN_POINT('Ctrl Pts',(91.5924711247911,-55.272228742877,-58.4521959219359));
#959=CARTESIAN_POINT('Ctrl Pts',(51.5601352586152,-65.3583431143155,-70.1282938829039));
#960=CARTESIAN_POINT('Ctrl Pts',(171.657142857143,-35.1,-35.1));
#961=CARTESIAN_POINT('Ctrl Pts',(131.672864275476,-45.3929753254812,-46.7621885855293));
#962=CARTESIAN_POINT('Ctrl Pts',(91.689407576624,-55.6898122509587,-58.4238154576082));
#963=CARTESIAN_POINT('Ctrl Pts',(51.7051289949571,-65.9827875764399,-70.0860040431375));
#964=CARTESIAN_POINT('Ctrl Pts',(171.657142857143,-35.1,-35.1));
#965=CARTESIAN_POINT('Ctrl Pts',(131.757301575782,-45.8460442237003,-46.6481382264068));
#966=CARTESIAN_POINT('Ctrl Pts',(91.8572573434903,-56.5916679820803,-58.1958820634657));
#967=CARTESIAN_POINT('Ctrl Pts',(51.9574160621298,-67.3377122057806,-69.7440202898725));
#968=CARTESIAN_POINT('Ctrl Pts',(171.657142857143,-35.1,-35.1));
#969=CARTESIAN_POINT('Ctrl Pts',(131.781788308601,-46.3434329671673,-46.2490645209286));
#970=CARTESIAN_POINT('Ctrl Pts',(91.9061144904336,-57.5861622048242,-57.3975508933191));
#971=CARTESIAN_POINT('Ctrl Pts',(52.0307599418914,-68.8295951719915,-68.5466154142478));
#972=CARTESIAN_POINT('Ctrl Pts',(171.657142857143,-35.1,-35.1));
#973=CARTESIAN_POINT('Ctrl Pts',(131.735514578867,-46.6752310721469,-45.7314758684537));
#974=CARTESIAN_POINT('Ctrl Pts',(91.8142191462319,-58.2509772594595,-56.3637730079438));
#975=CARTESIAN_POINT('Ctrl Pts',(51.8925908679556,-69.8262083316064,-66.9952488763974));
#976=CARTESIAN_POINT('Ctrl Pts',(171.657142857143,-35.1,-35.1));
#977=CARTESIAN_POINT('Ctrl Pts',(131.673431986401,-46.7633894329849,-45.3940538560693));
#978=CARTESIAN_POINT('Ctrl Pts',(91.6888398656991,-58.4226146101526,-55.6887337203706));
#979=CARTESIAN_POINT('Ctrl Pts',(51.7051289949571,-70.0860040431375,-65.9827875764399));
#980=CARTESIAN_POINT('Ctrl Pts',(171.657142857143,-35.1,-35.1));
#981=CARTESIAN_POINT('Ctrl Pts',(131.624806990967,-46.776097960968,-45.1861143714385));
#982=CARTESIAN_POINT('Ctrl Pts',(91.5924711247911,-58.4521959219359,-55.272228742877));
#983=CARTESIAN_POINT('Ctrl Pts',(51.5601352586152,-70.1282938829039,-65.3583431143155));
#984=CARTESIAN_POINT('Ctrl Pts',(171.657142857143,-35.1,-35.1));
#985=CARTESIAN_POINT('Ctrl Pts',(131.771428571429,-46.7333333333333,-45.1491731838246));
#986=CARTESIAN_POINT('Ctrl Pts',(91.8857142857143,-58.3666666666667,-55.1983463676491));
#987=CARTESIAN_POINT('Ctrl Pts',(52.,-70.,-65.2475195514736));
#988=CARTESIAN_POINT('Ctrl Pts',(171.657142857143,-35.1,35.1));
#989=CARTESIAN_POINT('Ctrl Pts',(131.624806990967,-46.7760979609679,45.1861143714385));
#990=CARTESIAN_POINT('Ctrl Pts',(91.5924711247911,-58.4521959219359,55.2722287428769));
#991=CARTESIAN_POINT('Ctrl Pts',(51.5601352586152,-70.1282938829039,65.3583431143154));
#992=CARTESIAN_POINT('Ctrl Pts',(171.657142857143,-35.1,35.1));
#993=CARTESIAN_POINT('Ctrl Pts',(131.672864275476,-46.7621885855293,45.3929753254812));
#994=CARTESIAN_POINT('Ctrl Pts',(91.6894075766241,-58.4238154576082,55.6898122509587));
#995=CARTESIAN_POINT('Ctrl Pts',(51.7051289949572,-70.0860040431375,65.9827875764399));
#996=CARTESIAN_POINT('Ctrl Pts',(171.657142857143,-35.1,35.1));
#997=CARTESIAN_POINT('Ctrl Pts',(131.757301575782,-46.6481382264067,45.8460442237003));
#998=CARTESIAN_POINT('Ctrl Pts',(91.8572573434904,-58.1958820634658,56.5916679820803));
#999=CARTESIAN_POINT('Ctrl Pts',(51.9574160621298,-69.7440202898725,67.3377122057806));
#1000=CARTESIAN_POINT('Ctrl Pts',(171.657142857143,-35.1,35.1));
#1001=CARTESIAN_POINT('Ctrl Pts',(131.781788308601,-46.2490645209286,46.3434329671673));
#1002=CARTESIAN_POINT('Ctrl Pts',(91.9061144904337,-57.3975508933191,57.5861622048242));
#1003=CARTESIAN_POINT('Ctrl Pts',(52.0307599418915,-68.5466154142478,68.8295951719915));
#1004=CARTESIAN_POINT('Ctrl Pts',(171.657142857143,-35.1,35.1));
#1005=CARTESIAN_POINT('Ctrl Pts',(131.735514578867,-45.7314758684536,46.6752310721469));
#1006=CARTESIAN_POINT('Ctrl Pts',(91.8142191462319,-56.3637730079437,58.2509772594595));
#1007=CARTESIAN_POINT('Ctrl Pts',(51.8925908679556,-66.9952488763974,69.8262083316064));
#1008=CARTESIAN_POINT('Ctrl Pts',(171.657142857143,-35.1,35.1));
#1009=CARTESIAN_POINT('Ctrl Pts',(131.673431986401,-45.3940538560693,46.7633894329849));
#1010=CARTESIAN_POINT('Ctrl Pts',(91.6888398656991,-55.6887337203706,58.4226146101526));
#1011=CARTESIAN_POINT('Ctrl Pts',(51.7051289949572,-65.9827875764399,70.0860040431375));
#1012=CARTESIAN_POINT('Ctrl Pts',(171.657142857143,-35.1,35.1));
#1013=CARTESIAN_POINT('Ctrl Pts',(131.624806990967,-45.1861143714385,46.7760979609679));
#1014=CARTESIAN_POINT('Ctrl Pts',(91.5924711247911,-55.272228742877,58.4521959219359));
#1015=CARTESIAN_POINT('Ctrl Pts',(51.5601352586152,-65.3583431143155,70.1282938829039));
#1016=CARTESIAN_POINT('',(171.657142857143,-35.1,35.1));
#1017=CARTESIAN_POINT('Ctrl Pts',(52.,-70.,65.2475195514736));
#1018=CARTESIAN_POINT('Ctrl Pts',(91.8857142857143,-58.3666666666666,55.1983463676491));
#1019=CARTESIAN_POINT('Ctrl Pts',(131.771428571429,-46.7333333333333,45.1491731838245));
#1020=CARTESIAN_POINT('Ctrl Pts',(171.657142857143,-35.1,35.1));
#1021=CARTESIAN_POINT('Ctrl Pts',(171.657142857143,-35.1,35.1));
#1022=CARTESIAN_POINT('Ctrl Pts',(131.771428571429,-45.1491731838245,46.7333333333333));
#1023=CARTESIAN_POINT('Ctrl Pts',(91.8857142857143,-55.1983463676491,58.3666666666667));
#1024=CARTESIAN_POINT('Ctrl Pts',(52.,-65.2475195514736,70.));
#1025=CARTESIAN_POINT('Origin',(172.,35.,35.));
#1026=CARTESIAN_POINT('',(171.657142857143,35.1,35.1));
#1027=CARTESIAN_POINT('',(171.657142857143,1.40322520322189E-14,35.1));
#1028=CARTESIAN_POINT('Ctrl Pts',(52.,65.2475195514736,70.));
#1029=CARTESIAN_POINT('Ctrl Pts',(91.8857142857143,55.1983463676491,58.3666666666667));
#1030=CARTESIAN_POINT('Ctrl Pts',(131.771428571429,45.1491731838245,46.7333333333333));
#1031=CARTESIAN_POINT('Ctrl Pts',(171.657142857143,35.1,35.1));
#1032=CARTESIAN_POINT('Ctrl Pts',(171.657142857143,35.1,35.1));
#1033=CARTESIAN_POINT('Ctrl Pts',(131.624806990967,45.1861143714385,46.776097960968));
#1034=CARTESIAN_POINT('Ctrl Pts',(91.5924711247911,55.272228742877,58.4521959219359));
#1035=CARTESIAN_POINT('Ctrl Pts',(51.5601352586152,65.3583431143155,70.1282938829039));
#1036=CARTESIAN_POINT('Ctrl Pts',(171.657142857143,35.1,35.1));
#1037=CARTESIAN_POINT('Ctrl Pts',(131.672864275476,45.3929753254812,46.7621885855293));
#1038=CARTESIAN_POINT('Ctrl Pts',(91.689407576624,55.6898122509587,58.4238154576082));
#1039=CARTESIAN_POINT('Ctrl Pts',(51.7051289949571,65.9827875764399,70.0860040431375));
#1040=CARTESIAN_POINT('Ctrl Pts',(171.657142857143,35.1,35.1));
#1041=CARTESIAN_POINT('Ctrl Pts',(131.757301575782,45.8460442237003,46.6481382264068));
#1042=CARTESIAN_POINT('Ctrl Pts',(91.8572573434903,56.5916679820803,58.1958820634657));
#1043=CARTESIAN_POINT('Ctrl Pts',(51.9574160621298,67.3377122057806,69.7440202898725));
#1044=CARTESIAN_POINT('Ctrl Pts',(171.657142857143,35.1,35.1));
#1045=CARTESIAN_POINT('Ctrl Pts',(131.781788308601,46.3434329671673,46.2490645209286));
#1046=CARTESIAN_POINT('Ctrl Pts',(91.9061144904336,57.5861622048242,57.3975508933191));
#1047=CARTESIAN_POINT('Ctrl Pts',(52.0307599418914,68.8295951719915,68.5466154142478));
#1048=CARTESIAN_POINT('Ctrl Pts',(171.657142857143,35.1,35.1));
#1049=CARTESIAN_POINT('Ctrl Pts',(131.735514578867,46.6752310721469,45.7314758684537));
#1050=CARTESIAN_POINT('Ctrl Pts',(91.8142191462319,58.2509772594595,56.3637730079438));
#1051=CARTESIAN_POINT('Ctrl Pts',(51.8925908679556,69.8262083316064,66.9952488763974));
#1052=CARTESIAN_POINT('Ctrl Pts',(171.657142857143,35.1,35.1));
#1053=CARTESIAN_POINT('Ctrl Pts',(131.673431986401,46.7633894329849,45.3940538560693));
#1054=CARTESIAN_POINT('Ctrl Pts',(91.6888398656991,58.4226146101526,55.6887337203706));
#1055=CARTESIAN_POINT('Ctrl Pts',(51.7051289949571,70.0860040431375,65.9827875764399));
#1056=CARTESIAN_POINT('Ctrl Pts',(171.657142857143,35.1,35.1));
#1057=CARTESIAN_POINT('Ctrl Pts',(131.624806990967,46.776097960968,45.1861143714385));
#1058=CARTESIAN_POINT('Ctrl Pts',(91.5924711247911,58.4521959219359,55.272228742877));
#1059=CARTESIAN_POINT('Ctrl Pts',(51.5601352586152,70.1282938829039,65.3583431143155));
#1060=CARTESIAN_POINT('Ctrl Pts',(171.657142857143,35.1,35.1));
#1061=CARTESIAN_POINT('Ctrl Pts',(131.771428571429,46.7333333333333,45.1491731838246));
#1062=CARTESIAN_POINT('Ctrl Pts',(91.8857142857143,58.3666666666667,55.1983463676491));
#1063=CARTESIAN_POINT('Ctrl Pts',(52.,70.,65.2475195514736));
#1064=CARTESIAN_POINT('Origin',(171.,35.,-35.));
#1065=CARTESIAN_POINT('',(171.,-35.,-35.));
#1066=CARTESIAN_POINT('',(172.,-35.,-35.));
#1067=CARTESIAN_POINT('',(171.,-35.,-35.));
#1068=CARTESIAN_POINT('',(171.,35.,-35.));
#1069=CARTESIAN_POINT('',(171.,-17.4999998509884,-35.));
#1070=CARTESIAN_POINT('',(172.,35.,-35.));
#1071=CARTESIAN_POINT('',(171.,35.,-35.));
#1072=CARTESIAN_POINT('',(172.,-35.,-35.));
#1073=CARTESIAN_POINT('Origin',(171.,35.,-35.1));
#1074=CARTESIAN_POINT('',(171.,35.1,-35.1));
#1075=CARTESIAN_POINT('',(171.,35.1,-35.1));
#1076=CARTESIAN_POINT('',(171.,-35.1,-35.1));
#1077=CARTESIAN_POINT('',(171.,-17.4999998509884,-35.1));
#1078=CARTESIAN_POINT('',(171.,-35.1,-35.1));
#1079=CARTESIAN_POINT('Origin',(171.,-35.,-35.));
#1080=CARTESIAN_POINT('',(171.,-35.,35.));
#1081=CARTESIAN_POINT('',(172.,-35.,35.));
#1082=CARTESIAN_POINT('',(171.,-35.,35.));
#1083=CARTESIAN_POINT('',(171.,-35.,35.));
#1084=CARTESIAN_POINT('',(172.,-35.,35.));
#1085=CARTESIAN_POINT('Origin',(171.,-35.1,-35.));
#1086=CARTESIAN_POINT('',(171.657142857143,-35.1,1.18118059829686E-14));
#1087=CARTESIAN_POINT('',(171.,-35.1,35.1));
#1088=CARTESIAN_POINT('',(171.,-35.1,-35.));
#1089=CARTESIAN_POINT('',(171.,-35.1,35.1));
#1090=CARTESIAN_POINT('Origin',(171.,35.,35.));
#1091=CARTESIAN_POINT('',(172.,35.,35.));
#1092=CARTESIAN_POINT('',(172.,35.,-35.));
#1093=CARTESIAN_POINT('',(171.,35.,35.));
#1094=CARTESIAN_POINT('',(171.,35.,17.4999998509884));
#1095=CARTESIAN_POINT('',(171.,35.,35.));
#1096=CARTESIAN_POINT('Origin',(171.,35.1,35.));
#1097=CARTESIAN_POINT('',(171.657142857143,35.1,-35.));
#1098=CARTESIAN_POINT('',(171.,35.1,35.1));
#1099=CARTESIAN_POINT('',(171.,35.1,35.1));
#1100=CARTESIAN_POINT('',(171.,35.1,17.4999998509884));
#1101=CARTESIAN_POINT('Origin',(171.,-35.,35.));
#1102=CARTESIAN_POINT('',(172.,35.,35.));
#1103=CARTESIAN_POINT('',(171.,35.,35.));
#1104=CARTESIAN_POINT('Origin',(171.,35.,35.));
#1105=CARTESIAN_POINT('',(171.,-35.,35.1));
#1106=CARTESIAN_POINT('Origin',(171.,-35.,35.1));
#1107=CARTESIAN_POINT('Origin',(172.,-31.000000461936,-31.000000461936));
#1108=CARTESIAN_POINT('',(151.785712701934,-31.000000461936,31.000000461936));
#1109=CARTESIAN_POINT('',(151.785712701934,-31.000000461936,-31.000000461936));
#1110=CARTESIAN_POINT('',(151.785712701934,-31.000000461936,1.999999769032));
#1111=CARTESIAN_POINT('',(172.,-31.000000461936,31.000000461936));
#1112=CARTESIAN_POINT('',(172.,-31.000000461936,31.000000461936));
#1113=CARTESIAN_POINT('',(172.,-31.000000461936,-31.000000461936));
#1114=CARTESIAN_POINT('',(172.,-31.000000461936,-15.500000230968));
#1115=CARTESIAN_POINT('',(172.,-31.000000461936,-31.000000461936));
#1116=CARTESIAN_POINT('Origin',(172.,31.000000461936,-31.000000461936));
#1117=CARTESIAN_POINT('',(151.785712701934,31.000000461936,-31.000000461936));
#1118=CARTESIAN_POINT('',(151.785712701934,-1.999999769032,-31.000000461936));
#1119=CARTESIAN_POINT('',(172.,31.000000461936,-31.000000461936));
#1120=CARTESIAN_POINT('',(172.,15.500000230968,-31.000000461936));
#1121=CARTESIAN_POINT('',(172.,31.000000461936,-31.000000461936));
#1122=CARTESIAN_POINT('Origin',(172.,31.000000461936,31.000000461936));
#1123=CARTESIAN_POINT('',(151.785712701934,31.000000461936,31.000000461936));
#1124=CARTESIAN_POINT('',(151.785712701934,31.000000461936,-1.999999769032));
#1125=CARTESIAN_POINT('',(172.,31.000000461936,31.000000461936));
#1126=CARTESIAN_POINT('',(172.,31.000000461936,15.500000230968));
#1127=CARTESIAN_POINT('',(172.,31.000000461936,31.000000461936));
#1128=CARTESIAN_POINT('Origin',(172.,-31.000000461936,31.000000461936));
#1129=CARTESIAN_POINT('',(151.785712701934,1.999999769032,31.000000461936));
#1130=CARTESIAN_POINT('',(172.,-15.500000230968,31.000000461936));
#1131=CARTESIAN_POINT('Origin',(169.34,-25.88,35.));
#1132=CARTESIAN_POINT('',(175.790801186944,-23.9985163204748,-23.9985163204748));
#1133=CARTESIAN_POINT('',(175.790801186944,-23.9985163204748,23.9985163204748));
#1134=CARTESIAN_POINT('Origin',(169.34,-35.,-25.88));
#1135=CARTESIAN_POINT('',(175.790801186944,23.9985163204748,-23.9985163204748));
#1136=CARTESIAN_POINT('Origin',(169.34,25.88,-35.));
#1137=CARTESIAN_POINT('',(175.790801186944,23.9985163204748,23.9985163204748));
#1138=CARTESIAN_POINT('Origin',(169.34,35.,25.88));
#1139=CARTESIAN_POINT('Origin',(172.,0.,5.04646829375071E-16));
#1140=CARTESIAN_POINT('Origin',(172.,35.,-35.));
#1141=CARTESIAN_POINT('Origin',(172.,-35.,35.));
#1142=UNCERTAINTY_MEASURE_WITH_UNIT(LENGTH_MEASURE(0.01),#1146,
'DISTANCE_ACCURACY_VALUE',
'Maximum model space distance between geometric entities at asserted c
onnectivities');
#1143=UNCERTAINTY_MEASURE_WITH_UNIT(LENGTH_MEASURE(0.01),#1146,
'DISTANCE_ACCURACY_VALUE',
'Maximum model space distance between geometric entities at asserted c
onnectivities');
#1144=(
GEOMETRIC_REPRESENTATION_CONTEXT(3)
GLOBAL_UNCERTAINTY_ASSIGNED_CONTEXT((#1142))
GLOBAL_UNIT_ASSIGNED_CONTEXT((#1146,#1147,#1148))
REPRESENTATION_CONTEXT('','3D')
);
#1145=(
GEOMETRIC_REPRESENTATION_CONTEXT(3)
GLOBAL_UNCERTAINTY_ASSIGNED_CONTEXT((#1143))
GLOBAL_UNIT_ASSIGNED_CONTEXT((#1146,#1147,#1148))
REPRESENTATION_CONTEXT('','3D')
);
#1146=(
LENGTH_UNIT()
NAMED_UNIT(*)
SI_UNIT(.MILLI.,.METRE.)
);
#1147=(
NAMED_UNIT(*)
PLANE_ANGLE_UNIT()
SI_UNIT($,.RADIAN.)
);
#1148=(
NAMED_UNIT(*)
SI_UNIT($,.STERADIAN.)
SOLID_ANGLE_UNIT()
);
#1149=SHAPE_DEFINITION_REPRESENTATION(#1150,#1151);
#1150=PRODUCT_DEFINITION_SHAPE('',$,#1153);
#1151=SHAPE_REPRESENTATION('',(#454),#1144);
#1152=PRODUCT_DEFINITION_CONTEXT('part definition',#1157,'design');
#1153=PRODUCT_DEFINITION('2026-07-21-18-37-04-393','Main Housing',#1154,
#1152);
#1154=PRODUCT_DEFINITION_FORMATION('',$,#1159);
#1155=PRODUCT_RELATED_PRODUCT_CATEGORY('Main Housing','Main Housing',(#1159));
#1156=APPLICATION_PROTOCOL_DEFINITION('international standard',
'automotive_design',2009,#1157);
#1157=APPLICATION_CONTEXT(
'Core Data for Automotive Mechanical Design Process');
#1158=PRODUCT_CONTEXT('part definition',#1157,'mechanical');
#1159=PRODUCT('2026-07-21-18-37-04-393','Main Housing',$,(#1158));
#1160=PRESENTATION_STYLE_ASSIGNMENT((#1161));
#1161=SURFACE_STYLE_USAGE(.BOTH.,#1162);
#1162=SURFACE_SIDE_STYLE('',(#1163));
#1163=SURFACE_STYLE_FILL_AREA(#1164);
#1164=FILL_AREA_STYLE('Steel - Satin',(#1165));
#1165=FILL_AREA_STYLE_COLOUR('Steel - Satin',#1166);
#1166=COLOUR_RGB('Steel - Satin',0.627450980392157,0.627450980392157,0.627450980392157);
ENDSEC;
END-ISO-10303-21;
